<svg xmlns="http://www.w3.org/2000/svg" viewBox="0 0 2500 2500"><defs><style>.cls-1{fill:#fff;}.cls-2{fill:#37474f;}.cls-3{fill:#00a579;}</style></defs><g id="Illustration"><g id="Stay_at_home" data-name="Stay at home"><rect class="cls-1" x="724.05" y="337.21" width="1026.86" height="1199.76" rx="43"/><path d="M1707.91,1539.19H767.05A45.27,45.27,0,0,1,721.84,1494V380.22A45.26,45.26,0,0,1,767.05,335h940.86a45.27,45.27,0,0,1,45.22,45.22V1494A45.28,45.28,0,0,1,1707.91,1539.19ZM767.05,339.43a40.83,40.83,0,0,0-40.78,40.79V1494a40.83,40.83,0,0,0,40.78,40.79h940.86A40.84,40.84,0,0,0,1748.7,1494V380.22a40.84,40.84,0,0,0-40.79-40.79Z"/><path d="M1750.91,767.2a2.21,2.21,0,0,1-2.21-2.21V629.68a2.22,2.22,0,0,1,4.43,0V765A2.22,2.22,0,0,1,1750.91,767.2Z"/><rect class="cls-1" x="781.1" y="396.62" width="527.01" height="1080.94"/><path d="M1308.11,1479.78h-527a2.22,2.22,0,0,1-2.22-2.21V396.62a2.22,2.22,0,0,1,2.22-2.21h527a2.22,2.22,0,0,1,2.22,2.21V1477.57A2.22,2.22,0,0,1,1308.11,1479.78Zm-524.8-4.43H1305.9V398.84H783.31Z"/><rect class="cls-1" x="1362.44" y="396.62" width="331.42" height="1080.94"/><path d="M1693.86,1479.78H1362.44a2.21,2.21,0,0,1-2.21-2.21V396.62a2.21,2.21,0,0,1,2.21-2.21h331.42a2.21,2.21,0,0,1,2.22,2.21V1477.57A2.21,2.21,0,0,1,1693.86,1479.78Zm-329.2-4.43h327V398.84h-327Z"/><rect class="cls-1" x="627.61" y="1550.26" width="1192.57" height="47.13"/><path d="M1820.18,1599.61H627.61a2.21,2.21,0,0,1-2.21-2.22v-47.13a2.21,2.21,0,0,1,2.21-2.21H1820.18a2.21,2.21,0,0,1,2.22,2.21v47.13A2.21,2.21,0,0,1,1820.18,1599.61Zm-1190.35-4.43H1818v-42.7H629.83Z"/><path class="cls-1" d="M1686,1430.91a33.29,33.29,0,0,0-10.59-1.7h-8.67v-24.46H1516.31v87.7a62.76,62.76,0,0,0,62.74,62.77H1604a62.75,62.75,0,0,0,62.53-57.8h8.88c18.62,0,32.42-16,32.42-34.66v-.26C1707.81,1447.63,1699,1435.28,1686,1430.91Zm-11.85,47h-7.41V1448.7h7.41a14.62,14.62,0,0,1,0,29.23Z"/><path d="M1604,1557.43h-24.93a65,65,0,0,1-65-65v-87.7a2.21,2.21,0,0,1,2.21-2.21h150.41a2.21,2.21,0,0,1,2.22,2.21V1427h6.45a35.46,35.46,0,0,1,11.29,1.81c14.18,4.76,23.35,18,23.35,33.69v.26c0,20.33-15.54,36.87-34.64,36.87h-6.86A65.26,65.26,0,0,1,1604,1557.43ZM1518.53,1407v85.48a60.6,60.6,0,0,0,60.52,60.55H1604a60.79,60.79,0,0,0,60.32-55.75,2.22,2.22,0,0,1,2.21-2h8.88c16.94,0,30.21-14.24,30.21-32.44v-.26c0-13.77-8-25.35-20.32-29.49a31.09,31.09,0,0,0-9.89-1.58h-8.67a2.22,2.22,0,0,1-2.21-2.22V1407Zm155.6,73.18h-7.41a2.22,2.22,0,0,1-2.21-2.22V1448.7a2.22,2.22,0,0,1,2.21-2.22h7.41a16.84,16.84,0,0,1,0,33.67Zm-5.19-4.43h5.19a12.41,12.41,0,0,0,0-24.81h-5.19Z"/><path d="M1604,1557.43h-24.93a65,65,0,0,1-65-65v-87.7a2.22,2.22,0,0,1,4.43,0v87.7a60.6,60.6,0,0,0,60.52,60.55H1604a60.79,60.79,0,0,0,60.32-55.75,2.22,2.22,0,0,1,2.21-2h8.88c16.94,0,30.21-14.24,30.21-32.44v-.26a32.27,32.27,0,0,0-5-17.49,2.21,2.21,0,1,1,3.72-2.39,36.69,36.69,0,0,1,5.69,19.88v.26c0,20.33-15.54,36.87-34.64,36.87h-6.86A65.26,65.26,0,0,1,1604,1557.43Zm69.53-77.28h-4.76a4.25,4.25,0,0,1-4.24-4.25v-25.17a4.25,4.25,0,0,1,4.24-4.25h5.38a16.59,16.59,0,0,1,12.33,5.56,16.84,16.84,0,0,1-13,28.11Zm-4.57-4.43h4.57a12.77,12.77,0,0,0,12.77-11,12.54,12.54,0,0,0-3.11-9.71,12.2,12.2,0,0,0-9-4.08h-5.19Zm17-42.6a2.13,2.13,0,0,1-.7-.11,31.09,31.09,0,0,0-9.89-1.58h-6.64a4.25,4.25,0,0,1-4.24-4.25V1407H1542.43a2.22,2.22,0,0,1,0-4.43H1664.7a4.24,4.24,0,0,1,4.24,4.24V1427h6.45a35.46,35.46,0,0,1,11.29,1.81,2.21,2.21,0,0,1-.7,4.31Z"/><ellipse class="cls-1" cx="1591.52" cy="1474.54" rx="27.97" ry="27.98" transform="translate(-3.99 4.32) rotate(-0.16)"/><path d="M1591.52,1504.74a30.2,30.2,0,1,1,30.18-30.2A30.23,30.23,0,0,1,1591.52,1504.74Zm0-56a25.77,25.77,0,1,0,25.75,25.76A25.79,25.79,0,0,0,1591.52,1448.78Z"/><path d="M1597.08,1380.89a2.18,2.18,0,0,1-1.19-.36c-.35-.22-8.56-5.6-10.59-15.49-1.36-6.65.4-13.63,5.22-20.75,13.1-19.35,8.82-27.9,4.28-36.94l-.37-.74a2.21,2.21,0,0,1,4-2l.37.73c4.68,9.34,10,19.91-4.57,41.41-4.12,6.08-5.65,11.92-4.56,17.34,1.63,8.05,8.59,12.66,8.66,12.7a2.22,2.22,0,0,1-1.21,4.08Z"/><path class="cls-1" d="M1848,651.93h-87.5A128.4,128.4,0,0,0,1587,552.36a191.29,191.29,0,0,0-167.51-98.81c-105.69,0-191.38,85.68-191.38,191.38,0,2.34.09,4.67.18,7h-8.89a133.57,133.57,0,1,0,0,267.14H1848a133.57,133.57,0,0,0,0-267.14Z"/><path d="M1862.29,905.14H1233.65c-74.87,0-135.78-60.91-135.78-135.79s60.91-135.78,135.78-135.78h6.6c-.06-1.59-.1-3.18-.1-4.79,0-106.75,86.85-193.59,193.6-193.59a193.79,193.79,0,0,1,168.5,98.27,130.64,130.64,0,0,1,174.43,100.11h85.61c74.87,0,135.79,60.91,135.79,135.78S1937.16,905.14,1862.29,905.14ZM1233.65,638A131.49,131.49,0,0,0,1102.3,769.35c0,72.43,58.92,131.36,131.35,131.36h628.64c72.43,0,131.36-58.93,131.36-131.36S1934.72,638,1862.29,638H1774.8a2.22,2.22,0,0,1-2.19-1.87,126.18,126.18,0,0,0-170.55-97.85,2.22,2.22,0,0,1-2.74-1,189.38,189.38,0,0,0-165.57-97.67c-104.31,0-189.17,84.86-189.17,189.16,0,2.15.08,4.27.16,6.39l0,.53a2.22,2.22,0,0,1-2.22,2.3Z"/><path class="cls-1" d="M1409.88,2005.28s51.28,103.5,108.9,153.26a17.7,17.7,0,0,0,28.47-8.56,197.78,197.78,0,0,0,5.85-29.25c6.34-47.26-36.17-170.32-36.17-170.32l-18.93-6.1a11.8,11.8,0,0,0-15.15,8.75l-2,9.22-22.77-20a12,12,0,0,0-17.42,1.54C1432,1954.8,1418.49,1975.37,1409.88,2005.28Z"/><path d="M1530.17,2165a19.58,19.58,0,0,1-12.84-4.79c-57.3-49.47-108.92-152.91-109.44-154a2.22,2.22,0,0,1-.14-1.6c8.52-29.56,21.67-50.17,31.21-62.25a14.25,14.25,0,0,1,20.62-1.83l19.92,17.54,1.19-5.53a14,14,0,0,1,18-10.39l18.92,6.1a2.22,2.22,0,0,1,1.42,1.38c1.74,5,42.61,124.11,36.27,171.34a201.86,201.86,0,0,1-5.91,29.59,20,20,0,0,1-19.21,14.39Zm-117.92-159.94c4.82,9.55,54,105.15,108,151.8a15,15,0,0,0,14.32,3.08,15.57,15.57,0,0,0,10.58-10.58,198.57,198.57,0,0,0,5.77-28.92c5.9-43.92-31.62-156.22-35.71-168.27l-17.87-5.76a9.58,9.58,0,0,0-12.3,7.11l-2,9.22a2.22,2.22,0,0,1-3.63,1.2l-22.76-20a9.83,9.83,0,0,0-14.22,1.25C1433.23,1956.81,1420.57,1976.63,1412.25,2005.06Z"/><path d="M1534.81,2148.33a2.19,2.19,0,0,1-1.57-.66c-58.59-58.84-107.64-150.94-108.13-151.86a2.21,2.21,0,1,1,3.91-2.07c.49.92,49.24,92.44,107.36,150.81a2.22,2.22,0,0,1-1.57,3.78Z"/><path d="M1509.83,2067.51a2.22,2.22,0,0,1-.69-4.32l30.64-10.09a2.2,2.2,0,0,1,2.79,1.41,2.23,2.23,0,0,1-1.41,2.8l-30.64,10.08A2.09,2.09,0,0,1,1509.83,2067.51Z"/><path d="M1489.68,2034.78a2.22,2.22,0,0,1-.69-4.32l38.5-12.68a2.22,2.22,0,0,1,1.38,4.21l-38.5,12.68A2.37,2.37,0,0,1,1489.68,2034.78Z"/><path class="cls-2" d="M991.11,1228c3.94-4.15,284.9-125.53,399.74-151.35s157.63-26.06,196.71,39.57S1399.32,1540,1399.32,1540l-483.59-126Z"/><path class="cls-1" d="M1263.27,1366.32a2.14,2.14,0,0,1-.91-.2,2.21,2.21,0,0,1-1.11-2.92c54-120.58,143.2-206.73,144.1-207.59a2.21,2.21,0,1,1,3.06,3.2c-.89.85-89.46,86.44-143.12,206.2A2.22,2.22,0,0,1,1263.27,1366.32Z"/><path class="cls-2" d="M761.24,1388.42S774,1519,802.21,1546.1s367,0,367,0,26.92,44.1,44.51,162,37.21,276.55,66.35,315.26l253.64-54.76s-84.13-504.92-142.56-573.58-483.56-79.45-483.56-79.45Z"/><path class="cls-1" d="M1420.45,1459.14a2.21,2.21,0,0,1-2.09-1.49c-10.64-30.56-20.37-51.16-28.94-61.23-19.79-23.25-107.46-44.45-253.55-61.28a2.21,2.21,0,1,1,.51-4.4c149.32,17.21,235.59,38.34,256.42,62.81,8.92,10.49,18.93,31.56,29.74,62.64a2.21,2.21,0,0,1-1.37,2.82A2,2,0,0,1,1420.45,1459.14Z"/><path class="cls-1" d="M1230.69,961.08a19.47,19.47,0,0,0-27.79,5c-31.61,48.18-119.05,181.63-120.08,184.92l43.82,6.18,109-169.87A19.49,19.49,0,0,0,1230.69,961.08Z"/><path d="M1126.64,1159.43l-.31,0-43.82-6.17a2.22,2.22,0,0,1-1.56-1,2.2,2.2,0,0,1-.24-1.85c1-3.21,66-102.64,120.34-185.48a21.69,21.69,0,0,1,31-5.6,21.74,21.74,0,0,1,5.46,29.24l-109,169.88A2.24,2.24,0,0,1,1126.64,1159.43Zm-40.28-10.13,39.18,5.52,108.19-168.68a17.31,17.31,0,0,0-4.35-23.28,17.27,17.27,0,0,0-24.63,4.46C1137.93,1069.19,1094.8,1135.48,1086.36,1149.3Z"/><path class="cls-3" d="M635,1363.3s-45.51-63.61-26.88-206.09,64.24-216.44,111.94-233.34,243.92,14,259.24,253.35Z"/><path d="M635,1365.52a2.22,2.22,0,0,1-1.8-.93c-.46-.64-45.81-66-27.27-207.67,17-129.93,58.32-215.63,113.39-235.13,25.5-9,90.37-4.49,148.63,34,47.35,31.24,105.48,95,113.56,221.34a2.2,2.2,0,0,1-1.15,2.09L636.06,1365.25A2.19,2.19,0,0,1,635,1365.52ZM748.64,922.19c-11.53,0-21.11,1.39-27.83,3.77-24.4,8.64-47.09,32.33-65.64,68.5-20.95,40.87-36,95.72-44.84,163-16.71,127.73,18.74,192.11,25.42,202.88L977,1176C968.7,1052.36,911.85,990,865.52,959.44,824.06,932.08,779.4,922.19,748.64,922.19Z"/><path d="M772.11,1262.61a2.21,2.21,0,0,1-2.2-2.06l-9.45-133.62a2.22,2.22,0,1,1,4.42-.32l9.45,133.63a2.22,2.22,0,0,1-2.06,2.36Z"/><path class="cls-1" d="M618.44,1326.66s16.53,119.65,183.77,79.61,254.41-195.51,254.41-195.51,97.37-20.82,94.07-84c0,0-32.6,8.74-60.31,0s-57.72.2-69.25,11C942.05,1212,689.47,1234.19,618.44,1326.66Z"/><path d="M739,1416.71c-31.12,0-57.27-7.14-78.17-21.41-38.4-26.23-44.38-66.63-44.62-68.34a2.22,2.22,0,0,1,.44-1.65c39.09-50.88,131.66-80.44,221.18-109,75.13-24,146.08-46.66,181.75-80.11,13.06-12.25,44.08-20.13,71.44-11.51,26.79,8.44,58.74.06,59.06,0a2.24,2.24,0,0,1,1.88.35,2.2,2.2,0,0,1,.91,1.67c3.22,61.64-84,83.57-94.84,86.06-3.52,6-25.42,42.34-64.35,82.33-39.16,40.23-104.09,92.57-191,113.38Q768.09,1416.72,739,1416.71Zm-118.25-89.46c1.12,6.06,8.93,41.45,42.65,64.43,32.8,22.37,79.32,26.55,138.26,12.43,164.39-39.37,252.14-192.89,253-194.44a2.22,2.22,0,0,1,1.47-1.08c.94-.2,92.69-20.54,92.39-79-8.49,1.91-35.15,6.79-58.84-.68-27.27-8.59-56.47.59-67.07,10.52-36.4,34.14-107.82,56.95-183.43,81.1C750.79,1248.73,659.38,1277.93,620.78,1327.25Z"/><path d="M1091.14,1156q-4,0-8.41-.17a2.22,2.22,0,0,1-2.12-2.31,2.17,2.17,0,0,1,2.3-2.12c48.8,2,65.45-14.19,65.61-14.35a2.23,2.23,0,0,1,3.13,0,2.2,2.2,0,0,1,0,3.12C1151,1140.82,1135.69,1156,1091.14,1156Z"/><path d="M1086.07,1179.14l-3.29,0a2.21,2.21,0,0,1-2.17-2.26,2.23,2.23,0,0,1,2.25-2.17c42.54.78,56.27-14.3,56.4-14.45a2.21,2.21,0,1,1,3.34,2.91C1142,1163.81,1128.13,1179.14,1086.07,1179.14Z"/><path class="cls-1" d="M796.12,813c-1.26,2.3-54.75,93.74-54.75,93.74l-36.9,24.79a204.43,204.43,0,0,0,151.74,39.69,65.5,65.5,0,0,0-8.29-17.07A66.31,66.31,0,0,0,827.81,935q16.5-28.37,33-56.72Z"/><path d="M828,975.38a206.81,206.81,0,0,1-124.85-42.1,2.21,2.21,0,0,1,.11-3.6l36.47-24.51c4-6.87,53.28-91.08,54.47-93.24a2.21,2.21,0,0,1,3.51-.5l64.71,65.3a2.2,2.2,0,0,1,.34,2.67l-32,54.88a67.74,67.74,0,0,1,27.53,36.26,2.22,2.22,0,0,1-1.8,2.86A207.75,207.75,0,0,1,828,975.38ZM708.3,931.61a202.12,202.12,0,0,0,145,37.75,63.55,63.55,0,0,0-26.6-32.47,2.21,2.21,0,0,1-.76-3l32.17-55.25-61.47-62c-8.6,14.8-51.32,87.83-53.31,91.23a2.13,2.13,0,0,1-.68.72Zm33.07-24.88h0Z"/><path d="M958.1,754.58c-24.66-20.24-53.73.89-82.52-23.93-13.19-11.38-14.4-22.12-30.23-28.35-10.49-4.12-29.16-6.95-41.58,2.52-15.81,12.07-4.17,30.88-17,73.07-9,29.63-21.5,42.52-14.49,52.91s23.57,2.84,32.18,13.74c11.14,14.1-9.18,36.17-2.85,56.09,4.35,13.69,25.16,33.24,77.47,39.78,2.89-8.4,9.83-25,14.35-41.24,14.15-50.84,6.44-70.29,19.16-76.85,19.48-10.06,43,21,57.48,11.63C985.11,824.21,983.42,775.37,958.1,754.58Z"/><path class="cls-1" d="M855.9,779.46l4.93,14.93s-19.15,47-22.58,64.71S889,891.61,889,891.61l8.5-6.3,15.12,3.78s-.46-51.7,13.39-86.17C926,802.92,900.42,771.91,855.9,779.46Z"/><path d="M857.79,780.6a137.36,137.36,0,0,1,5.14,13.1,2.23,2.23,0,0,1,0,1.53Q856.7,810.5,851,826c-3.71,10.32-7.48,20.72-10,31.19l-.43,2c-.17.68-.11,1.07-.21,1.61a8.11,8.11,0,0,0,.76,3.08,18,18,0,0,0,4.56,5.67A63.62,63.62,0,0,0,859.05,878a188.72,188.72,0,0,0,30.5,11.46l-1.9.36,8.5-6.3.13-.09a2.06,2.06,0,0,1,1.73-.28l15,4.43L911,889.1c0-7.38.23-14.69.68-22s1.14-14.64,2.06-21.93,2.21-14.55,3.79-21.76a163.92,163.92,0,0,1,6.35-21.29l.35,2.22a69.62,69.62,0,0,0-14.2-11.88,72.08,72.08,0,0,0-16.84-8.07,76.14,76.14,0,0,0-27.64-3.71c-1.73,0-2.69.25-3.93.21S859.21,780.71,857.79,780.6ZM854,778.32c1.77-.5,3.69-1,5.7-1.42a30.5,30.5,0,0,1,5.65-.67,76.07,76.07,0,0,1,9.9.11,74.27,74.27,0,0,1,19.39,3.83,76.9,76.9,0,0,1,17.82,8.54,73.34,73.34,0,0,1,15.23,12.8,2.07,2.07,0,0,1,.4,2.09l-.05.14a160.76,160.76,0,0,0-6.49,20.58c-1.65,7-3,14.16-4,21.34s-1.81,14.41-2.38,21.66-.94,14.53-1,21.75a1.57,1.57,0,0,1-1.57,1.56,2.09,2.09,0,0,1-.35,0l-15.28-3.13,1.86-.37-8.5,6.3,0,0a2.14,2.14,0,0,1-1.87.33A191.52,191.52,0,0,1,857.08,882a67.68,67.68,0,0,1-14.39-9.16,22.3,22.3,0,0,1-5.66-7.17,12.58,12.58,0,0,1-1.15-4.89,19.39,19.39,0,0,1,.29-2.49l.47-2.08c2.69-10.94,6.46-21.3,10.21-31.71s7.78-20.66,11.93-30.91l0,1.53C856.87,789.59,855.32,783.76,854,778.32Z"/><path class="cls-1" d="M837.6,820.94s4.74-34.33-11.34-33.18S805.92,826.83,837.6,820.94Z"/><path d="M831.25,823.78c-8.32,0-13-3.44-15.6-6.7-5.1-6.43-4.66-15.5-1.95-21.63,2.56-5.83,7.2-9.53,12.4-9.9a10.51,10.51,0,0,1,8.83,3.37c8,8.58,5,31.36,4.86,32.32a2.21,2.21,0,0,1-1.78,1.88A37.1,37.1,0,0,1,831.25,823.78Zm6.35-2.84h0Zm-10.57-31-.61,0c-3.59.25-6.75,2.9-8.67,7.26-2.17,4.92-2.58,12.11,1.37,17.1,3.29,4.16,9,5.77,16.48,4.7.74-7,1.14-21.7-3.91-27.09A6.07,6.07,0,0,0,827,789.94Z"/><path class="cls-1" d="M957.69,1791.27c-10.75-22.12-11.77-44.4,0-66.92l-8.45-10.13-231.06,7.6,8,73.4,223.66,2.58Z"/><path d="M949.81,1800h0l-223.66-2.58a2.22,2.22,0,0,1-2.18-2l-8-73.4a2.21,2.21,0,0,1,.53-1.69,2.18,2.18,0,0,1,1.6-.76l231.06-7.6a2.24,2.24,0,0,1,1.77.79l8.45,10.14a2.22,2.22,0,0,1,.26,2.44c-11,21-11,42.26,0,64.92a2.24,2.24,0,0,1-.58,2.68l-7.88,6.52A2.22,2.22,0,0,1,949.81,1800Zm-221.67-7L949,1795.57l5.93-4.91c-10.54-22.66-10.5-44.85.1-66l-6.82-8.18L720.64,1724Z"/><path class="cls-1" d="M533.12,1706.14H962a9.08,9.08,0,1,1,0,18.15H764.81a26.15,26.15,0,0,0-26.14,26.14v14.7a26.14,26.14,0,0,0,26.14,26.14H962a9.08,9.08,0,1,1,0,18.15H533.12a48.2,48.2,0,0,1-48.2-48.2v-6.88A48.2,48.2,0,0,1,533.12,1706.14Z"/><path d="M962,1811.64H533.12a50.47,50.47,0,0,1-50.41-50.42v-6.88a50.46,50.46,0,0,1,50.41-50.41H962a11.29,11.29,0,0,1,0,22.58H764.81a24,24,0,0,0-23.92,23.92v14.7a24,24,0,0,0,23.92,23.93H962a11.29,11.29,0,0,1,0,22.58ZM533.12,1708.35a46,46,0,0,0-46,46v6.88a46,46,0,0,0,46,46H962a6.86,6.86,0,1,0,0-13.72H764.81a28.39,28.39,0,0,1-28.35-28.36v-14.7a28.38,28.38,0,0,1,28.35-28.35H962a6.87,6.87,0,1,0,0-13.73Z"/><path d="M949.22,1756.91H819.1a2.22,2.22,0,1,1,0-4.43H949.22a2.22,2.22,0,1,1,0,4.43Z"/><path d="M950.05,1776.5H844.28a2.21,2.21,0,1,1,0-4.42H950.05a2.21,2.21,0,1,1,0,4.42Z"/><path class="cls-1" d="M974.31,1916.15H586.94v-94.91H974.31C962.87,1853.3,962.56,1884.94,974.31,1916.15Z"/><path d="M974.31,1918.36H586.94a2.21,2.21,0,0,1-2.21-2.21v-94.91a2.21,2.21,0,0,1,2.21-2.21H974.31a2.21,2.21,0,0,1,2.08,3c-11.35,31.83-11.36,63.25,0,93.38a2.21,2.21,0,0,1-.25,2A2.25,2.25,0,0,1,974.31,1918.36Zm-385.15-4.43h382c-10.29-29.28-10.27-59.69.06-90.47h-382Z"/><path class="cls-1" d="M633.58,1825.93H977a7.48,7.48,0,0,0,0-15H531.36a32.86,32.86,0,0,0-32.86,32.86v51.66a32.86,32.86,0,0,0,32.86,32.86H977a7.48,7.48,0,1,0,0-15H633.58a23.21,23.21,0,0,1-23.22-23.21v-41A23.21,23.21,0,0,1,633.58,1825.93Z"/><path d="M977,1930.56H531.36a35.12,35.12,0,0,1-35.08-35.07v-51.66a35.12,35.12,0,0,1,35.08-35.07H977a9.69,9.69,0,0,1,0,19.38H633.58a21,21,0,0,0-21,21v41a21,21,0,0,0,21,21H977a9.69,9.69,0,1,1,0,19.38ZM531.36,1813.19a30.68,30.68,0,0,0-30.65,30.64v51.66a30.68,30.68,0,0,0,30.65,30.64H977a5.26,5.26,0,0,0,0-10.52H633.58a25.46,25.46,0,0,1-25.43-25.43v-41a25.46,25.46,0,0,1,25.43-25.43H977a5.26,5.26,0,0,0,0-10.52Z"/><path d="M967.46,1846h-57.2a2.22,2.22,0,1,1,0-4.43h57.2a2.22,2.22,0,0,1,0,4.43Z"/><path d="M966.25,1858.66H790.09a2.22,2.22,0,0,1,0-4.43H966.25a2.22,2.22,0,0,1,0,4.43Z"/><path d="M966.25,1885.1H814.68a2.22,2.22,0,1,1,0-4.43H966.25a2.22,2.22,0,0,1,0,4.43Z"/><path class="cls-1" d="M500,2025.21c12.15-25,13.3-50.18,0-75.62l9.55-11.45,261.09,8.59-9,82.94-252.73,2.91Z"/><path d="M508.93,2034.8a2.18,2.18,0,0,1-1.41-.51l-8.91-7.37a2.24,2.24,0,0,1-.58-2.68c12.49-25.69,12.5-49.78,0-73.62a2.22,2.22,0,0,1,.26-2.44l9.55-11.45a2.22,2.22,0,0,1,1.77-.8l261.09,8.59a2.2,2.2,0,0,1,2.13,2.45l-9,82.94a2.21,2.21,0,0,1-2.17,2L509,2034.8Zm-6.16-10.19,7,5.75,249.95-2.88,8.53-78.61-257.62-8.48-7.92,9.5C514.72,1973.83,514.75,1999,502.77,2024.61Z"/><path class="cls-1" d="M979.78,1929H495.18a10.26,10.26,0,0,0,0,20.52H718a29.54,29.54,0,0,1,29.54,29.53v16.61A29.54,29.54,0,0,1,718,2025.21H495.18a10.26,10.26,0,1,0,0,20.51h484.6a54.47,54.47,0,0,0,54.47-54.46v-7.78A54.47,54.47,0,0,0,979.78,1929Z"/><path d="M979.78,2047.94H495.18a12.47,12.47,0,1,1,0-24.94H718a27.35,27.35,0,0,0,27.32-27.33v-16.61A27.35,27.35,0,0,0,718,1951.74H495.18a12.47,12.47,0,0,1,0-24.94h484.6a56.75,56.75,0,0,1,56.68,56.68v7.78A56.75,56.75,0,0,1,979.78,2047.94Zm-484.6-20.51a8,8,0,0,0,0,16.08h484.6a52.31,52.31,0,0,0,52.25-52.25v-7.78a52.31,52.31,0,0,0-52.25-52.25H495.18a8,8,0,0,0,0,16.08H718a31.79,31.79,0,0,1,31.75,31.75v16.61A31.79,31.79,0,0,1,718,2027.43Z"/><path d="M629.1,1986.09H509.58a2.22,2.22,0,0,1,0-4.43H629.1a2.22,2.22,0,0,1,0,4.43Z"/><path d="M654.75,2008.24H508.66a2.22,2.22,0,1,1,0-4.43H654.75a2.22,2.22,0,0,1,0,4.43Z"/><path class="cls-1" d="M1723.17,1581.1a3.17,3.17,0,0,0,.7,4.7"/><path class="cls-1" d="M1821.86,1277.93a3.12,3.12,0,0,0-3.13,3.94"/><path d="M1816.59,1282.46a5.27,5.27,0,0,1,.94-4.69,5.41,5.41,0,0,1,4.39-2.06m-99.24,312a5.37,5.37,0,0,1-1.21-8m3.4,2.84a1,1,0,0,0-.22.77,1,1,0,0,0,.42.64m100.24-303.75c-1.17,0-2.33,0-3.5,0h0a1,1,0,0,0-.77.36.88.88,0,0,0-.15.79"/><path d="M1853.64,1560.76m12.91-2.36a11.12,11.12,0,0,0-9.23,4.83"/><path d="M1787.05,1691.65a2.23,2.23,0,0,1,.32-1.74m5,.51"/><path class="cls-1" d="M973.54,1991.44S897,1823.57,940.88,1606c0,0,118.7,99.46,75.91,385.49Z"/><path d="M1016.79,1993.65H973.54a2.21,2.21,0,0,1-2-1.29c-.77-1.69-76.38-171-32.81-386.85a2.23,2.23,0,0,1,1.44-1.65,2.2,2.2,0,0,1,2.15.39c1.23,1,30.39,25.92,54.64,86.36,22.29,55.56,44.22,152.91,22,301.16A2.22,2.22,0,0,1,1016.79,1993.65Zm-41.8-4.43h39.89c21.53-146,0-241.83-21.91-296.62-19.51-48.76-42.75-74.46-50.69-82.31C902.62,1812.93,968.13,1973.26,975,1989.22Z"/><path d="M992.27,1976.15h-.13a2.22,2.22,0,0,1-2.09-2.33c5.87-107.33-42.53-336.42-43-338.72a2.21,2.21,0,1,1,4.33-.92c.49,2.31,49,232,43.11,339.88A2.21,2.21,0,0,1,992.27,1976.15Z"/><path class="cls-1" d="M1062.26,1719.31s-98.68,178.28-39.32,255.42h31.75S1118.14,1835.38,1062.26,1719.31Z"/><path d="M1054.69,1977h-31.75a2.23,2.23,0,0,1-1.76-.86c-25.08-32.61-26.08-86-2.95-158.67,17.12-53.8,41.84-98.73,42.09-99.18a2.21,2.21,0,0,1,3.93.11c55.69,115.66-6.91,255.9-7.55,257.3A2.21,2.21,0,0,1,1054.69,1977Zm-30.65-4.43h29.2c6.07-14.19,57.67-141.2,8.89-248.26C1048.37,1750.55,972.34,1903.22,1024,1972.52Z"/><path d="M1037.76,1981.67a2.21,2.21,0,0,1-2.21-2.13c-2.86-73.59,21.89-233.72,22.14-235.33a2.22,2.22,0,0,1,4.38.69c-.25,1.6-24.93,161.3-22.09,234.47a2.23,2.23,0,0,1-2.13,2.3Z"/><path class="cls-1" d="M862.2,1785s84,28.67,114.49,198.46H943.63S874.63,1890.19,862.2,1785Z"/><path d="M976.69,1985.66H943.63a2.22,2.22,0,0,1-1.78-.9c-.7-.94-69.49-94.93-81.85-199.52a2.21,2.21,0,0,1,2.91-2.36c.88.3,21.86,7.69,46.79,36.2,22.83,26.12,53.36,75.76,69.17,164a2.22,2.22,0,0,1-2.18,2.61Zm-31.93-4.43H974c-26.67-144.8-93.35-185-109.16-192.68C877.58,1885,937.81,1971.51,944.76,1981.23Z"/><path d="M958.62,1980.87a2.22,2.22,0,0,1-2.19-1.85c-12.51-75.62-66.65-151.76-67.2-152.52a2.21,2.21,0,0,1,3.6-2.58c.56.76,55.3,77.75,68,154.38a2.22,2.22,0,0,1-1.83,2.54Z"/><path class="cls-2" d="M894.62,1970H1102l4.65,98.09a42.17,42.17,0,0,1-42.12,44.17H946.09a51.55,51.55,0,0,1-51.55-51.6Z"/><rect class="cls-1" x="1308.11" y="422.33" width="54.33" height="611.3"/><path d="M1308.11,1035.84a2.21,2.21,0,0,1-2.21-2.21V422.33a2.22,2.22,0,1,1,4.43,0v611.3A2.22,2.22,0,0,1,1308.11,1035.84Z"/><path d="M1362.44,1035.84a2.21,2.21,0,0,1-2.21-2.21V422.33a2.22,2.22,0,1,1,4.43,0v611.3A2.21,2.21,0,0,1,1362.44,1035.84Z"/><polygon class="cls-1" points="1531.11 593.16 1747.99 656.24 1901.91 485.04 1531.11 593.16"/><path d="M1748,658.45a2.21,2.21,0,0,1-.62-.09l-216.88-63.07a2.22,2.22,0,0,1,0-4.26L1901.3,482.92a2.21,2.21,0,0,1,2.26,3.6l-153.92,171.2A2.24,2.24,0,0,1,1748,658.45Zm-209-65.29,208.24,60.56,147.8-164.37Z"/><polygon class="cls-1" points="1639.17 694.94 1608.9 615.78 1848.57 514.74 1647.02 626.87 1692.36 640.06 1639.17 694.94"/><path d="M1639.17,697.15a2.28,2.28,0,0,1-.45,0,2.2,2.2,0,0,1-1.62-1.38l-30.27-79.15a2.23,2.23,0,0,1,1.21-2.84l239.67-101a2.22,2.22,0,0,1,1.94,4L1652.74,626.23l40.24,11.7a2.22,2.22,0,0,1,1,3.67l-53.19,54.88A2.23,2.23,0,0,1,1639.17,697.15ZM1611.74,617,1640,690.9l48.22-49.74L1646.4,629a2.22,2.22,0,0,1-1.58-1.88,2.19,2.19,0,0,1,1.13-2.18l166-92.35Z"/><path d="M1641.93,673.25h-.26a2.22,2.22,0,0,1-1.94-2.46l5.09-44.16a2.21,2.21,0,1,1,4.4.51l-5.09,44.16A2.22,2.22,0,0,1,1641.93,673.25Z"/><path d="M1195.29,2122c-14.85,0-29.87-.41-44.64-1.22a2.21,2.21,0,1,1,.24-4.42c14.69.8,29.63,1.21,44.4,1.21a803.08,803.08,0,0,0,224.54-31.86,2.21,2.21,0,1,1,1.24,4.25A807.4,807.4,0,0,1,1195.29,2122Z"/><path d="M1656.08,1977a2.22,2.22,0,0,1-1.27-4c21.76-15.24,43-31.75,63.17-49.09a2.22,2.22,0,0,1,2.89,3.36c-20.27,17.43-41.64,34-63.52,49.36A2.2,2.2,0,0,1,1656.08,1977Z"/><path d="M938.85,555.28a2.22,2.22,0,0,1-.7-4.32,805.26,805.26,0,0,1,257.14-41.86c14.47,0,29.11.39,43.51,1.15a2.22,2.22,0,0,1-.23,4.43c-14.33-.77-28.89-1.15-43.28-1.15a800.74,800.74,0,0,0-255.73,41.63A2.21,2.21,0,0,1,938.85,555.28Z"/><path d="M872.22,581.05a2.23,2.23,0,0,1-2-1.33,2.21,2.21,0,0,1,1.14-2.91c9.32-4.1,18.85-8.06,28.31-11.8a2.22,2.22,0,0,1,1.62,4.13c-9.41,3.71-18.88,7.65-28.15,11.72A2.16,2.16,0,0,1,872.22,581.05Z"/><path d="M416.59,1116a2.15,2.15,0,0,1-.56-.07,2.22,2.22,0,0,1-1.59-2.7,802.38,802.38,0,0,1,70.31-179.43,2.21,2.21,0,0,1,3.9,2.1,798,798,0,0,0-69.92,178.44A2.22,2.22,0,0,1,416.59,1116Z"/><path d="M475.58,1677a2.22,2.22,0,0,1-2-1.23c-56.23-112.43-84.74-233.63-84.74-360.25a811.86,811.86,0,0,1,18.25-171.41,2.22,2.22,0,1,1,4.33.94,807.58,807.58,0,0,0-18.15,170.47c0,125.92,28.35,246.46,84.28,358.27a2.21,2.21,0,0,1-1,3A2.15,2.15,0,0,1,475.58,1677Z"/><path d="M554,966.52a2.29,2.29,0,0,1-1.14-.32,2.22,2.22,0,0,1-.75-3,730,730,0,0,1,97.32-127.48,2.21,2.21,0,0,1,3.2,3.06,725.53,725.53,0,0,0-96.73,126.7A2.2,2.2,0,0,1,554,966.52Z"/><path d="M514.94,1636.85a2.21,2.21,0,0,1-2-1.3c-42.63-94.16-64.24-194.73-64.24-298.92,0-117,27-228.75,80.27-332.05a2.22,2.22,0,1,1,3.94,2c-52.94,102.67-79.78,213.7-79.78,330,0,103.56,21.48,203.52,63.85,297.1a2.22,2.22,0,0,1-1.1,2.93A2.3,2.3,0,0,1,514.94,1636.85Z"/><path d="M1611.68,1983a2.17,2.17,0,0,1-1.53-.62,2.2,2.2,0,0,1-.07-3.13l8.15-8.5a2.21,2.21,0,1,1,3.2,3.06l-8.15,8.51A2.24,2.24,0,0,1,1611.68,1983Z"/><path d="M1583.16,2012.8a2.24,2.24,0,0,1-1.54-.62,2.21,2.21,0,0,1-.06-3.13l8.15-8.51a2.22,2.22,0,1,1,3.2,3.07l-8.15,8.5A2.21,2.21,0,0,1,1583.16,2012.8Z"/><path d="M1591.15,1983.48a2.22,2.22,0,0,1-1.55-.64l-8.27-8.14a2.21,2.21,0,1,1,3.1-3.16l8.28,8.14a2.22,2.22,0,0,1-1.56,3.8Z"/><path d="M1620.11,2012a2.22,2.22,0,0,1-1.56-.63l-8.27-8.14a2.22,2.22,0,1,1,3.11-3.16l8.27,8.14a2.21,2.21,0,0,1,0,3.13A2.19,2.19,0,0,1,1620.11,2012Z"/><path d="M1061.82,1069a2.17,2.17,0,0,1-1.65-.75,57.53,57.53,0,0,1-12.61-24.28,2.21,2.21,0,0,1,4.29-1.09,53.23,53.23,0,0,0,11.63,22.43,2.22,2.22,0,0,1-.19,3.13A2.17,2.17,0,0,1,1061.82,1069Zm-14.22-49.74h-.14a2.21,2.21,0,0,1-2.07-2.35,143.31,143.31,0,0,1,4.44-26.6,2.22,2.22,0,0,1,4.29,1.11,138.72,138.72,0,0,0-4.31,25.77A2.22,2.22,0,0,1,1047.6,1019.29Zm12.76-51.4a2.19,2.19,0,0,1-.83-.16,2.23,2.23,0,0,1-1.23-2.88,262.1,262.1,0,0,1,11.29-24.32,2.22,2.22,0,0,1,3.92,2.07,258.31,258.31,0,0,0-11.1,23.9A2.23,2.23,0,0,1,1060.36,967.89Zm24.76-47a2.24,2.24,0,0,1-1.23-.37,2.21,2.21,0,0,1-.61-3.07,182.94,182.94,0,0,1,12.11-16.28q2.13-2.55,4.34-5a2.21,2.21,0,1,1,3.29,3c-1.44,1.59-2.85,3.22-4.25,4.87A181.55,181.55,0,0,0,1087,919.94,2.2,2.2,0,0,1,1085.12,920.92Zm35.29-39.49a2.21,2.21,0,0,1-1.43-3.9,204.11,204.11,0,0,1,21.61-15.94,2.22,2.22,0,1,1,2.39,3.73,199,199,0,0,0-21.14,15.59A2.19,2.19,0,0,1,1120.41,881.43ZM1165,852.77a2.21,2.21,0,0,1-1-4.21,250.71,250.71,0,0,1,24.75-10.23,2.22,2.22,0,1,1,1.47,4.18,247.67,247.67,0,0,0-24.31,10A2.26,2.26,0,0,1,1165,852.77Zm49.94-17.8a2.21,2.21,0,0,1-.54-4.36c8.3-2.11,17.09-4,26.13-5.59a2.21,2.21,0,1,1,.77,4.36c-8.93,1.58-17.62,3.44-25.81,5.52A2,2,0,0,1,1214.93,835Zm52.27-9.36a2.22,2.22,0,0,1-.26-4.42c8.4-1,17.34-1.79,26.58-2.44a2.22,2.22,0,0,1,.3,4.42c-9.17.64-18,1.45-26.37,2.42Zm185.91-3h0c-10-.1-19.46-.35-26.62-.57a2.21,2.21,0,1,1,.13-4.42c7.14.21,16.61.46,26.53.56a2.22,2.22,0,0,1,0,4.43Zm26.58-.23a2.22,2.22,0,0,1-.06-4.43c9.47-.28,18.11-.77,26.42-1.5a2.21,2.21,0,1,1,.39,4.41c-8.39.74-17.12,1.24-26.68,1.52Zm-159.46-.59a2.22,2.22,0,0,1-.08-4.43c8.22-.29,16.93-.5,26.63-.63h0a2.22,2.22,0,0,1,0,4.43c-9.66.13-18.34.33-26.53.63Zm79.74-.55h-.06c-6.9-.18-12.33-.26-17.1-.26l-.42-2.22V821h-9a2.22,2.22,0,0,1,0-4.43h9.42c4.81,0,10.28.08,17.22.27a2.22,2.22,0,0,1-.06,4.43Zm132.64-3.78a2.21,2.21,0,0,1-.38-4.39,210.49,210.49,0,0,0,25.58-6.06,2.21,2.21,0,0,1,1.31,4.23,215.36,215.36,0,0,1-26.13,6.19A2.34,2.34,0,0,1,1532.61,817.47ZM1583,801.32a2.21,2.21,0,0,1-1-4.17,96.4,96.4,0,0,0,21.12-14.94,2.21,2.21,0,1,1,3.05,3.21,100.48,100.48,0,0,1-22.09,15.64A2.17,2.17,0,0,1,1583,801.32ZM1620.62,765a2.27,2.27,0,0,1-1-.25,2.22,2.22,0,0,1-.92-3,87.74,87.74,0,0,0,8.38-24.36,2.21,2.21,0,0,1,4.35.83,91.67,91.67,0,0,1-8.82,25.6A2.2,2.2,0,0,1,1620.62,765Z"/></g></g></svg>