<svg xmlns="http://www.w3.org/2000/svg" viewBox="0 0 500 500"><defs><style>.cls-1{isolation:isolate;}.cls-2{fill:#ebebeb;}.cls-3{fill:#00a579;}.cls-4{fill:#fff;}.cls-5{fill:#263238;}.cls-6{fill:#ffc727;}.cls-7{opacity:0.4;}.cls-8{opacity:0.3;mix-blend-mode:multiply;}.cls-9{opacity:0.64;}.cls-10,.cls-11{fill:#49514f;}.cls-11,.cls-14,.cls-19{opacity:0.1;}.cls-12{fill:#c7c7c7;}.cls-13{fill:#d3766a;}.cls-15{fill:#455a64;}.cls-16{opacity:0.2;}.cls-17{opacity:0.5;}.cls-18{fill:#9e9e9e;}</style></defs><g class="cls-1"><g id="Background_Complete" data-name="Background Complete"><polygon class="cls-2" points="84.18 45.68 84.22 92.56 62.78 92.58 62.75 45.69 84.18 45.68"/><rect class="cls-2" x="28.98" y="45.73" width="4.08" height="46.88"/><polygon class="cls-2" points="215.13 113.61 215.12 92.63 93.71 92.56 93.65 45.66 215.05 45.75 215.03 24.77 291.99 69.13 215.13 113.61"/><polygon class="cls-2" points="54.27 45.7 54.31 92.58 40.44 92.6 40.39 45.73 54.27 45.7"/><path class="cls-2" d="M283.17,354.84l0-47.89,22.43,0,0,47.89Zm1-46.89,0,45.89,20.44,0,0-45.89Z"/><path class="cls-2" d="M249.39,354.87l0-47.88h5.09l0,47.88Zm1-46.88,0,45.88h3.08l0-45.89Z"/><path class="cls-2" d="M394.6,376.12l0-21.35-80.48.05-.06-47.9,80.47,0V285.55l.75.43L473,330.78Zm1-22.35v20.61L471,330.78l-75.46-43.5v20.61l-80.47,0,.06,45.9Z"/><path class="cls-2" d="M260.83,354.86,260.78,307l14.88,0,0,47.88Zm.95-46.87.05,45.86H274.7l0-45.88Z"/><polygon class="cls-2" points="209.4 177.13 209.44 224.01 188 224.04 187.97 177.14 209.4 177.13"/><rect class="cls-2" x="154.2" y="177.18" width="4.08" height="46.88"/><polygon class="cls-2" points="299.43 244.95 299.42 223.97 218.93 224.01 218.88 177.12 299.35 177.09 299.33 156.11 376.29 200.47 299.43 244.95"/><polygon class="cls-2" points="179.49 177.15 179.54 224.04 165.66 224.05 165.62 177.18 179.49 177.15"/><rect class="cls-2" y="426.65" width="500" height="10.48"/><rect class="cls-2" y="489.52" width="500" height="10.48"/><rect class="cls-2" y="458.1" width="500" height="10.48"/></g><g id="Start_line" data-name="Start line"><polygon class="cls-3" points="456.35 500 399.83 500 318.17 426.65 374.68 426.65 456.35 500"/><path class="cls-4" d="M347.61,433.77c1.29.36,2.16,1,1.95,1.46-.42.89-.35,2.41,1.32,3.83a15.33,15.33,0,0,0,4.33,2.51,11.1,11.1,0,0,0,3.84.86,2.38,2.38,0,0,0,1.06-.18.79.79,0,0,0,.5-.6,4.45,4.45,0,0,0-1.27-2.75l0,0a7,7,0,0,1-1.41-2.58,1.57,1.57,0,0,1,1-1.87,6.46,6.46,0,0,1,2.73-.46,22.71,22.71,0,0,1,7.62,1.6,21.27,21.27,0,0,1,6.06,3.47c2.2,1.92,2,3.35,1.82,4.37-.11.46-1.22.6-2.49.28s-2.31-.94-2.22-1.42a3,3,0,0,0-1.15-3.23,13.51,13.51,0,0,0-3.92-2.24,9.84,9.84,0,0,0-3.36-.77,2.14,2.14,0,0,0-.95.14.78.78,0,0,0-.42.55c-.12.52.28,1.42,1.12,2.5l.05,0a7.52,7.52,0,0,1,1.49,2.77,1.68,1.68,0,0,1-1,2,6.75,6.75,0,0,1-2.82.48,23.8,23.8,0,0,1-8.12-1.72,22.36,22.36,0,0,1-6.5-3.71c-2.43-2.16-2.37-4-1.89-5.13C345.11,433.49,346.35,433.43,347.61,433.77Z"/><path class="cls-4" d="M389.3,455.85l-3.64-3.19H364.48a5.92,5.92,0,0,1-3.44-1.1c-.69-.6-.31-1.1.92-1.1h21.18l-3.62-3.17c-.71-.62-.23-1.1,1-1.1a5.92,5.92,0,0,1,3.44,1.1l9.78,8.56c.69.6.31,1.1-.92,1.1A6.26,6.26,0,0,1,389.3,455.85Z"/><path class="cls-4" d="M383.52,465.51,378,460.64l-6.27-1a5.53,5.53,0,0,1-2.58-1.05,1.29,1.29,0,0,1-.32-.38c-.22-.58.72-.86,2.1-.66L399.3,462a5.54,5.54,0,0,1,2.6,1.06c.57.46.5.88-.17,1.06l-18.3,4.43a6.22,6.22,0,0,1-3.61-.66,3,3,0,0,1-.55-.38c-.51-.44-.47-.86.22-1Zm3.42-.82,6.67-1.63-10.38-1.62Z"/><path class="cls-4" d="M397.48,480.57a6.09,6.09,0,0,1-3.57-.7,4.13,4.13,0,0,1-.63-.44l0,0c-.23-.2-.49-.5-.46-.78s.29-.48.66-.64a14.31,14.31,0,0,1,4.28-.42,3.5,3.5,0,0,0,1.43-.24.73.73,0,0,0,.46-.6,1.81,1.81,0,0,0-.33-1.13l-2.7-2.36H388a6.1,6.1,0,0,1-3.46-1.12c-.71-.62-.27-1.1.92-1.1h23.4a5.92,5.92,0,0,1,3.44,1.1l0,0,4.08,3.57c2.72,2.38,1.09,4.28-3.63,4.28a25.65,25.65,0,0,1-8.29-1.56,1.37,1.37,0,0,1-.66.7,7.41,7.41,0,0,1-3.53.66,17.16,17.16,0,0,0-2.25.08C398.2,480.19,398,480.45,397.48,480.57Zm12.74-2.8c2.3,0,3.07-.92,1.77-2.06l-2.82-2.47H401l2.82,2.47A11.24,11.24,0,0,0,410.22,477.77Z"/><path class="cls-4" d="M430.6,492,427,488.81H405.78a5.92,5.92,0,0,1-3.44-1.1c-.68-.61-.31-1.11.92-1.11h21.18l-3.62-3.16c-.71-.62-.23-1.1,1-1.1a6,6,0,0,1,3.45,1.1L435,492c.69.6.31,1.11-.92,1.11A6.26,6.26,0,0,1,430.6,492Z"/><polygon class="cls-3" points="420.87 437.13 403.6 437.13 391.93 426.65 409.21 426.65 420.87 437.13"/><polygon class="cls-3" points="420.87 437.13 403.6 437.13 391.93 426.65 409.21 426.65 420.87 437.13"/><polygon class="cls-3" points="444.2 458.08 426.93 458.08 415.26 447.61 432.54 447.61 444.2 458.08"/><polygon class="cls-3" points="467.53 479.04 450.26 479.04 438.59 468.56 455.87 468.56 467.53 479.04"/><polygon class="cls-3" points="490.85 499.99 473.58 499.99 461.91 489.51 479.19 489.51 490.85 499.99"/><polygon class="cls-3" points="449.81 447.61 432.54 447.61 420.87 437.13 438.15 437.13 449.81 447.61"/><polygon class="cls-3" points="473.13 468.56 455.87 468.56 444.2 458.08 461.48 458.08 473.13 468.56"/><polygon class="cls-3" points="415.26 447.61 397.99 447.61 386.32 437.13 403.6 437.13 415.26 447.61"/><polygon class="cls-3" points="438.59 468.56 421.32 468.56 409.65 458.08 426.93 458.08 438.59 468.56"/><polygon class="cls-3" points="496.53 489.51 479.26 489.51 467.59 479.04 484.87 479.04 496.53 489.51"/><polygon class="cls-3" points="461.91 489.51 444.64 489.51 432.97 479.04 450.25 479.04 461.91 489.51"/></g><g id="Floor"><path class="cls-5" d="M30.82,426.65c140.42-.52,297.94-.52,438.36,0-140.42.52-297.94.52-438.36,0Z"/></g><g id="Sign"><path class="cls-6" d="M359.39,426.65H339.91l4.54-359.8c.05-4.55,2.27-8.19,5-8.19h.44c2.72,0,4.93,3.64,5,8.19Z"/><path class="cls-7" d="M359.39,426.65H339.91l4.54-359.8c.05-4.55,2.27-8.19,5-8.19h.44c2.72,0,4.93,3.64,5,8.19Z"/><g class="cls-8"><path d="M347.91,72.5c-1.16,42.86-2.23,85.82-.89,128.7.27,9.61,1.38,20.1,1.75,29.65.62,52.79-8.22,105.49-3.16,158.29-1.18-13.15-1.72-26.36-1.73-39.57-.33-39.62,5.3-79.09,4.4-118.7-.4-9.53-1.46-20.06-1.71-29.65-1.23-42.89-.16-85.86,1.34-128.72Z"/><path d="M348.69,64.89c2.14,42,4.1,84.39,1,126.35l.49-7.88c1.62-39.38.06-79.1-1.45-118.47Z"/><path d="M346.34,350.74c3.52-25.63,6-51.42,7-77.29a280.19,280.19,0,0,0-1.14-38.76L351,227c3,15.28,3,30.95,2.71,46.45a647.7,647.7,0,0,1-7.4,77.28Z"/><path d="M353.31,174.26c-1.14,12.18-2.31,24.4-2.45,36.64.24,21.31,4.11,8.47,3.54-3.12a49.72,49.72,0,0,0-1.09-9.1A53.79,53.79,0,0,1,354.4,217c-.11,1-.94,7.8-2.74,5.38-1.45-3.62-1.18-7.65-1.3-11.46a330.37,330.37,0,0,1,2.95-36.63Z"/><path d="M354.65,306.33c-1.29,15.39-2.61,30.8-4.67,46.11-1.5,9.14-2.8,18.34-2.45,27.62.27,4.52.3,9.37,2.4,13.46,3.78,5.53,4.15-6.72,4.37-8.81.27-6.9.37-13.95-1.08-20.72-.23-.77-.76-2.88-1.74-1.74a8.34,8.34,0,0,0-1,3.22,54.65,54.65,0,0,0-.58,9.22c.19,3-.08,6.33,1.27,9.1a5.59,5.59,0,0,1-.77-2.17c-.68-2.18-1.64-21.28,2.08-19.84,1.11,1.17,1.19,2.91,1.52,4.41a95,95,0,0,1,.32,23.17c-.31,1.54-.59,6.53-2.9,6a3.25,3.25,0,0,1-1.85-1.57c-2.19-4.19-2.25-9.08-2.49-13.69-.31-9.31,1.05-18.54,2.59-27.68,2.08-15.3,3.51-30.69,5-46.06Z"/><path d="M345.17,426.65c-1.28-17.16-2.33-36.06-2.95-53.26,1.28,17.16,2.33,36.06,2.95,53.26Z"/><path d="M350.29,426.65a33.28,33.28,0,0,0-1.59-21.42c-3.1-6.71-4-14.17-4.71-21.44.94,7.21,2,14.62,5.12,21.25a30.24,30.24,0,0,1,1.18,21.61Z"/><path d="M354.65,318.57c-.64,13.53-.93,27.16.65,40.62a194.43,194.43,0,0,1,2.39,27,64.73,64.73,0,0,1-1.13,13.54,75.35,75.35,0,0,0-2.21,13.34,130.34,130.34,0,0,0-.46,13.55,120.49,120.49,0,0,1,.19-13.57,76.76,76.76,0,0,1,2.11-13.4,64.42,64.42,0,0,0,1-13.45,207,207,0,0,0-2.25-27c-1.56-13.49-1.14-27.13-.32-40.66Z"/><path d="M351,58.9c.85,10.89,1.44,21.79,1.92,32.71s.87,21.85.16,32.76c.41-19-1.41-46.26-2.08-65.47Z"/></g><polygon class="cls-3" points="446.37 99.94 426.29 123.1 270.75 134.71 267.36 91.83 422.89 80.22 446.37 99.94"/><g class="cls-9"><polygon class="cls-10" points="422.89 80.22 429.34 83 451.42 101.2 428.95 126.89 272.1 138.28 270.75 134.71 426.29 123.1 446.37 99.94 422.89 80.22"/><polygon class="cls-11" points="422.89 80.22 429.34 83 451.42 101.2 428.95 126.89 272.1 138.28 270.75 134.71 426.29 123.1 446.37 99.94 422.89 80.22"/></g><path class="cls-12" d="M353.06,91.87a2.4,2.4,0,1,1-2.64-2.13A2.4,2.4,0,0,1,353.06,91.87Z"/><path class="cls-4" d="M306.94,111.06a9.71,9.71,0,0,1,8.86-10.31,9.93,9.93,0,0,1,6.26,1.54,1.52,1.52,0,0,1-1.64,2.56,6.58,6.58,0,0,0-4.36-1.09,7,7,0,0,0-4.58,2.3,6.43,6.43,0,0,0,.77,9.16,7,7,0,0,0,4.9,1.5,6.62,6.62,0,0,0,4.12-1.81,1.61,1.61,0,0,1,2.14.11,1.57,1.57,0,0,1-.09,2.13,9.91,9.91,0,0,1-5.91,2.57A9.66,9.66,0,0,1,306.94,111.06Z"/><path class="cls-4" d="M339.16,111.27l.44,5.16a1.41,1.41,0,0,1-1.28,1.52,1.45,1.45,0,0,1-1.46-1,6,6,0,0,1-3.41,1.43,6.14,6.14,0,0,1-4.64-1.54,6.76,6.76,0,0,1-2.18-4.49,6.66,6.66,0,0,1,1.39-4.79,6,6,0,0,1,7.92-1.49,1.4,1.4,0,0,1,2.79,0Zm-2.79.23a3.85,3.85,0,0,0-1.26-2.62,3.25,3.25,0,0,0-2.54-.87,3.2,3.2,0,0,0-2.36,1.28,4.19,4.19,0,0,0,.47,5.43,3.3,3.3,0,0,0,2.53.82,3.41,3.41,0,0,0,2.36-1.23A4,4,0,0,0,336.37,111.5Z"/><path class="cls-4" d="M352,104.93a1.41,1.41,0,0,1-1.28,1.51,2.55,2.55,0,0,0-1.54.64,4,4,0,0,0-1.1,1.36,8.15,8.15,0,0,0-.89,2.31l.42,5a1.44,1.44,0,0,1-1.33,1.52,1.4,1.4,0,0,1-1.51-1.28l-.89-10.37a1.39,1.39,0,0,1,1.29-1.49,1.41,1.41,0,0,1,1.56,1.24l0,.19a3.54,3.54,0,0,1,.5-.58,5.8,5.8,0,0,1,3.24-1.3A1.37,1.37,0,0,1,352,104.93Z"/><path class="cls-4" d="M353.65,110a6.55,6.55,0,0,1,5.87-7.13,6.34,6.34,0,0,1,6.87,5.58v.13a1,1,0,0,1,0,.24,1.27,1.27,0,0,1-1.28,1.17l-8.38.71a3.5,3.5,0,0,0,1,1.66,4,4,0,0,0,2.63,1,4.3,4.3,0,0,0,2.68-.89,1.5,1.5,0,0,1,2-.25,1.22,1.22,0,0,1,.14,1.72,6.64,6.64,0,0,1-4.56,2.13A6.57,6.57,0,0,1,353.65,110Zm2.76-1.53,7.46-.63a4.34,4.34,0,0,0-4.14-2.46A3.69,3.69,0,0,0,356.41,108.48Z"/><path class="cls-4" d="M369.69,108.65a6.55,6.55,0,0,1,5.87-7.13,6.33,6.33,0,0,1,6.87,5.58v.13a1,1,0,0,1,0,.24,1.27,1.27,0,0,1-1.28,1.17l-8.37.71a3.48,3.48,0,0,0,1,1.66,4.07,4.07,0,0,0,2.63,1,4.3,4.3,0,0,0,2.68-.89,1.5,1.5,0,0,1,2-.25,1.23,1.23,0,0,1,.15,1.72,6.66,6.66,0,0,1-4.57,2.13A6.56,6.56,0,0,1,369.69,108.65Zm2.76-1.53,7.46-.63a4.34,4.34,0,0,0-4.14-2.46A3.69,3.69,0,0,0,372.45,107.12Z"/><path class="cls-4" d="M393.78,101.39a1.42,1.42,0,0,1-1.28,1.51,2.51,2.51,0,0,0-1.54.63,4,4,0,0,0-1.1,1.37,8,8,0,0,0-.9,2.31l.43,5a1.45,1.45,0,0,1-1.33,1.52,1.42,1.42,0,0,1-1.52-1.28l-.88-10.38a1.4,1.4,0,0,1,1.28-1.49,1.44,1.44,0,0,1,1.57,1.25V102a4.15,4.15,0,0,1,.51-.58,5.85,5.85,0,0,1,3.23-1.31A1.39,1.39,0,0,1,393.78,101.39Z"/></g><g id="Character"><path class="cls-5" d="M242.63,176.57c-10.17,7.64-13.82,30.49-13.82,30.49s-10.63,13.54-9.36,21.85a14.74,14.74,0,0,0,7.9,11.16l-.23-4.54s2.07,6.08,11.34,9.72,22.38,2.45,29.45,0a25.64,25.64,0,0,0,10.89-7.18l-3.37,6.08s9.35,1,16.27-8.15-7-25.59-7.89-28.85-.47-34.43-24.52-33.87C259.29,173.32,249.63,171.31,242.63,176.57Z"/><path class="cls-5" d="M224,239c-2.19-2.18-4.31-4.64-5.3-7.38a13.75,13.75,0,0,1-.26-9c1.16-3.52,3.52-6.44,5.81-9.3s4.95-5.73,7.26-8.72c.13-.16-.12-.35-.26-.22a83.19,83.19,0,0,0-6.92,6.88,39.64,39.64,0,0,0-5.72,7.24,14.91,14.91,0,0,0-2.23,8.08,14.38,14.38,0,0,0,2.07,6.59c1.43,2.4,3.44,4.09,5.39,6C224,239.32,224.15,239.14,224,239Z"/><path class="cls-5" d="M295.11,226.12c-1.67-8.62-8.34-14.87-11.83-22.68-1.9-4.22-3.18-8.79-5.88-12.6-.07-.11-.25,0-.18.12,2.18,3.4,3.17,7.27,4.57,11a60.75,60.75,0,0,0,5.63,10.67c3.88,6.25,8.54,13.63,6.37,21.31-1,3.54-3.69,7.24-7.55,7.84-.15,0-.09.27.06.23a11.65,11.65,0,0,0,7.36-5.58A14.9,14.9,0,0,0,295.11,226.12Z"/><path class="cls-5" d="M295.14,228.39a15.24,15.24,0,0,0-.81-9.22c-1.25-2.88-3.53-5.15-5.84-7.2-2.67-2.37-5.51-4.66-6.94-8-.06-.14-.27,0-.21.11,2.25,5.52,7.55,8.7,10.76,13.53,3.67,5.53,2.67,12.7-1.12,17.9a25.12,25.12,0,0,1-9,7.45,0,0,0,1,0,0,.09C288.05,240.16,293.73,235.24,295.14,228.39Z"/><path class="cls-13" d="M252.85,237.76c13.42,47,23.24,114.79,29,127.92,4,8.91-45.55,11.28-45.43,4.59.15-8.34-2-72.66.82-125.35C238.42,223.46,248.76,223.46,252.85,237.76Z"/><path class="cls-13" d="M245.84,383.21c-6.26-6.23-9.22-21.28-9.22-21.28l41.93-8a165.13,165.13,0,0,0,7.12,16.24c2.94,5.55,10.68,25,10.67,25-.48.06-21.68,9.78-27.11,8.18S246.53,384.66,245.84,383.21Z"/><path class="cls-13" d="M293.36,389.24c5.22,9.19,9.11,11.26,10.85,15.14s15.83,25.32,15.43,28.2-5.16,3.88-11.31-1.65-16.19-18.56-17-19.17-17.7-6.41-19.07-7.43S293.36,389.24,293.36,389.24Z"/><path class="cls-13" d="M291.62,387.9s7.59,15.37,8.7,19.5,11.37,32.2,10.51,35-6,1.53-11.2-5-12.41-24.86-13.13-25.6S272.57,398.28,271.37,397,291.62,387.9,291.62,387.9Z"/><path class="cls-13" d="M273.23,384.76s8.31,13.78,10,17.12,8.33,32.6,8.14,35-3.7,2.32-9.69-4.39c-5-5.63-10.45-22.54-11.2-23.1s-11-11.23-12.28-12.17S273.23,384.76,273.23,384.76Z"/><path class="cls-13" d="M236.62,361.93c-2.51,20.62,1.74,29.1,1.28,32.2-1.06,7.09-9.25,20.93-7.36,24.19s12.85-1.94,16.9-11.75c4.87-11.81,17-3.28,17-3.28Z"/><path class="cls-5" d="M286.1,411.52c-1.13-2.71-1.74-5.78-2.92-8.45-1.19-2.38-2.91-5.69-3.88-8.14a53.47,53.47,0,0,1,4.78,7.7,33.25,33.25,0,0,1,2,8.89Z"/><path class="cls-5" d="M307.78,429.93c-2.93-7.13-5.18-14.54-7.88-21.74-2.73-5.34-6.56-10.05-9.12-15.5a49.08,49.08,0,0,0,2.88,4.27c1.76,2.51,4.26,5.94,5.83,8.52a19.44,19.44,0,0,1,2.25,4.74c2.16,6.53,4.24,13.08,6,19.71Z"/><path class="cls-3" d="M290.24,359l-54.08,15s-5.59-92.41-3-129.09c1.89-26.94,16.22-24.15,22.62-5.46C264.52,264.93,290.24,359,290.24,359Z"/><path class="cls-5" d="M239.15,358.32c7.26-1.48,36.75-8.62,43-10.59.44-.14.46-.45,0-.36-21.87,3.91-36,8.85-43,10.66C238.92,358.08,239,358.36,239.15,358.32Z"/><path class="cls-14" d="M288.43,359.45l-52.27,14.46s-5.6-92.39-3-129.08c1.26-18,8.1-22.74,14.39-18.3Z"/><path class="cls-13" d="M353.4,450.18c-3.41,1.07-100.23-.86-103.86-3.27-.52-.34-.29-14.49.23-25.92l10.35-56.3h57.44l-7.69,51.19s36.72,17.31,40.45,20.39S356.8,449.12,353.4,450.18Z"/><path class="cls-5" d="M353.4,450.18c-1.5.47-21,.36-42.76-.11l-4.32-.1c-3.71-.08-7.46-.18-11.17-.29l-4.31-.14h-.07l-4.25-.15c-2.17-.06-4.29-.14-6.35-.22-1.35-.06-2.68-.12-4-.16h-.05l-3.8-.17h-.05c-1.86-.08-3.65-.17-5.35-.27-1.14,0-2.27-.1-3.34-.18q-3.17-.17-5.73-.38c-.85,0-1.66-.12-2.41-.19-1.85-.17-3.33-.33-4.35-.51a5,5,0,0,1-1.58-.43c-.49-.31-.22-11.46-.22-24.39,9.32,2.3,27.32,5.94,53.42,10,42.93,6.71,30.25-5,23-9l-.21-.13,1.36.66a1.2,1.2,0,0,1,.23.11l2.48,1.21,2.71,1.34c1.5.74,3,1.47,4.43,2.21s2.83,1.42,4.15,2.1l2.26,1.16c.36.18.71.38,1.06.56s.93.48,1.36.73q1.46.77,2.55,1.41a5,5,0,0,1,.5.29,16.52,16.52,0,0,1,1.69,1.11C354,439.33,356.79,449.12,353.4,450.18Z"/><path class="cls-5" d="M190,291.34s-8.14,54.13,13.74,65.35c12.92,6.63,41.14,9.93,55.69-2.43,10.29-8.75,4.4-17.46,4.4-17.46l-14,67.72,64.29.81a937.42,937.42,0,0,0,14.23-115.48c1.31-22-27.58-27.94-40.46-22.5-24.73,10.46-41.28,30.7-46.58,35.36l-3-11.37Z"/><path class="cls-15" d="M259.44,354.26c1.75-6.89,4.4-17.46,8.87-30.28,1.31-3.75,2.28-7.61,3.38-11.42s2.51-7.89,3.38-11.91a.16.16,0,0,1,.31.08c-1.08,3.48-1.77,7.08-2.69,10.61s-1.82,6.91-2.79,10.34c-.41,1.49-.85,3-1.27,4.45l.55-.92q1.2-2.08,2.46-4.14c1.74-2.83,3.84-5.48,5.37-8.43.09-.18.37,0,.27.15-1.75,2.82-3,5.95-4.64,8.84-.8,1.4-1.63,2.77-2.48,4.13a27.36,27.36,0,0,1-2.48,3.66c-1.26,4.36-4.74,17.1-7.27,24.05C260.27,353.87,259.34,354.67,259.44,354.26Z"/><path class="cls-15" d="M261.19,386.45c.95-4.58,2.27-9.08,3.48-13.6s2.43-9,3.68-13.55c2.49-9,5.1-18,7.69-27,1.48-5.11,3.07-10.19,4.64-15.27,0-.14.27-.09.23.06Q274,344.29,266,371.23c-1.5,5.1-2.87,10.26-4.66,15.26A.08.08,0,0,1,261.19,386.45Z"/><path class="cls-15" d="M258.37,391.16c6.78-.2,13.59-.47,20.39-.5s13.62.07,20.42.27l5.77.21c.91,0,1.83.06,2.74.12a23.29,23.29,0,0,1,2.77.19.08.08,0,0,1,0,.16,39.2,39.2,0,0,1-5.2.23c-1.64,0-3.28.09-4.92.12-3.38.06-6.75.11-10.13.13-6.77.05-13.53-.09-20.29-.27-3.84-.11-7.69-.21-11.53-.33A.17.17,0,1,1,258.37,391.16Z"/><path class="cls-16" d="M239.44,362.14c-13.12,1.63-27.49-1.24-35.69-5.45C181.87,345.47,190,291.35,190,291.35h38.8Z"/><path class="cls-13" d="M25.1,442.39c.3-1.83,3.52-26.74,15.85-49.68,11.61-21.58,26-45,27.86-46,.48-.28,7.11,3.47,19.28,10.73l56.79,21.79L126.35,428.5,71.27,412.37s-9.84,8.73-19.4,16.69c-1.71,1.42-13,18.18-14.88,19C32.55,450,24.51,445.94,25.1,442.39Z"/><path class="cls-5" d="M25.1,442.4c.3-1.83,3.52-26.74,15.84-49.69,11.61-21.59,26-45,27.88-46,.44-.27,8.43,4.29,19.27,10.72C78,370.35,49.38,411.07,46.42,417.51c-3.45,7.41-8.32,18.72-5.08,18.76,2.82.06,8.78-5.5,10.21-6.9C49.1,432.09,38.78,447.3,37,448.06,32.56,450,24.51,445.94,25.1,442.4Z"/><path class="cls-5" d="M238.24,291.34s-.49,20-2.77,29.65c-.41,1.74-10.1,6.53-10.1,6.53s20.77,49.91,23.75,82.52c1.06,11.55-4.53,28.66-27.18,38.52-25.3,11-131.33-28.9-131.33-28.9l20.56-59.58,65.56,24.19s-19.06-24.19-20.5-46.69c-1.2-18.75,10.4-46.24,10.4-46.24Z"/><path class="cls-15" d="M106,418.51c1.94-6.51,3.82-13.06,5.93-19.52s4.34-12.91,6.67-19.31c.66-1.8,1.34-3.6,2-5.4.31-.86.63-1.72,1-2.57a23.12,23.12,0,0,1,1.06-2.57c0-.09.16,0,.15.06a37.94,37.94,0,0,1-1.42,5c-.48,1.57-.95,3.15-1.43,4.72-1,3.22-2,6.44-3.06,9.66-2.08,6.44-4.34,12.81-6.63,19.17q-2,5.43-3.94,10.84A.16.16,0,1,1,106,418.51Z"/><path class="cls-15" d="M231.23,292.27a.13.13,0,0,1,.25,0c-.14,2.25-1.58,14.92-2,19.72-.16,1.7-.78,4.69,1.68,5.12,1.94.34,3.28-1.61,3.79-3.22.61-2,2.11-16.7,2.71-21.59,0-.14.24-.11.25,0,0,5-1,20.76-1.86,22.83a5,5,0,0,1-3.69,3.35,31.07,31.07,0,0,1-1.09,5.71c0,.15-.54.11-.56,0h0c.29-1.12.46-5.63.48-5.65a3.54,3.54,0,0,1-2.87-2C227,314,230.2,297.84,231.23,292.27Z"/><path class="cls-15" d="M219.51,330.29c1.79-1.23,3.63-2.35,5.49-3.45s3.75-2.14,5.65-3.16,3.83-2,5.8-2.88,3.94-1.78,6-2.5c-.93.57-1.88,1.07-2.81,1.63l-2.82,1.57c-1.88,1.05-3.79,2.06-5.69,3.08s-3.81,2-5.75,2.94l-2.91,1.42C221.48,329.39,220.51,329.86,219.51,330.29Z"/><path class="cls-15" d="M181.14,318.2c3.48,0,14.3.62,19.46-3.74,4.18-3.52,6-15.57,6.73-18.87,0-.16.28-.11.28,0a38,38,0,0,1-1.4,11.06c-.84,3.05-2,6.45-4.43,8.59s-6.12,3-9.43,3.45a43.44,43.44,0,0,1-11.22-.16A.19.19,0,0,1,181.14,318.2Z"/><path class="cls-15" d="M175.05,294.88c-2.18,6.95-4.1,14-5.71,21.09s-3.11,14.28-2.82,21.51c.55,7.22,3.45,14.07,6.55,20.55,5.58,11.4,12.83,22,19.88,32.57a12.92,12.92,0,0,1,1.8,3.28.6.6,0,0,1-.14.38c-.59.52-1.6.15-2.27.1-7.2-1.39-14.17-3.46-21.22-5.42-12.22-3.43-29.58-8.79-41.89-12.54,12.49,3.45,29.8,8.46,42.1,11.8,6.63,1.68,16.35,4.62,22.59,5.46a.4.4,0,0,0-.09.24,20.69,20.69,0,0,0-1.66-2.79c-9.75-14.69-25-35.87-26.42-53.59-.19-7.36,1.47-14.55,3.12-21.67s3.85-14.07,6.18-21Z"/><rect class="cls-2" x="59.55" y="298.37" width="69.67" height="119.97" transform="translate(-241.86 202.58) rotate(-50.39)"/><rect class="cls-17" x="59.55" y="298.37" width="69.67" height="119.97" transform="translate(-241.86 202.58) rotate(-50.39)"/><rect class="cls-14" x="87.44" y="285.24" width="35.6" height="119.97" transform="translate(-227.74 206.01) rotate(-50.36)"/><rect class="cls-18" x="49.61" y="318.9" width="125.64" height="35.28" transform="translate(240.57 5.66) rotate(39.64)"/><rect class="cls-17" x="49.61" y="318.9" width="125.64" height="35.28" transform="translate(240.57 5.66) rotate(39.64)"/><polygon class="cls-3" points="145.34 324.27 137.16 334.14 132.7 330.44 137.35 324.83 120.34 310.74 115.69 316.35 111.23 312.65 119.41 302.79 145.34 324.27"/><polygon class="cls-14" points="145.34 324.27 137.16 334.14 132.7 330.44 137.35 324.83 120.34 310.74 115.69 316.35 111.23 312.65 119.41 302.79 145.34 324.27"/><rect class="cls-3" x="66.95" y="316.76" width="8.19" height="16.85" transform="translate(223.81 29.46) rotate(39.64)"/><rect class="cls-3" x="127.2" y="366.64" width="8.19" height="16.85" transform="matrix(0.77, 0.64, -0.64, 0.77, 269.48, 2.48)"/><path class="cls-2" d="M245.09,306.59l-82-8.36s42.66-63,66.19-72.8c10.7-4.45,17.22-.07,20.95,7.59.93,1.92,8.79,33.75,6.66,42.64-1.89,7.85-11.4,13.21-11.4,13.21Z"/><polygon class="cls-5" points="243.16 247.74 248.18 243.46 250.82 249.66 248.48 254.02 243.8 252.49 243.16 247.74"/><polygon class="cls-5" points="243.8 252.49 229.39 292.53 237.04 312.49 244.35 293.12 248.48 254.02 243.8 252.49"/><path class="cls-3" d="M250.17,232.68s2.4,25.19.43,31.23c-2.11,6.49-9.32,25.2-9.32,25.2s-6.65-27.22-6.4-35.56c.4-12.94,6-29.4,6-29.4s-6-5.26-19.15,5c-19.72,15.32-46.25,49.14-61.25,69.78l73.75,23,4.05-12.61,2.9,9.27,8.77-9.88-4.46-19.77s10.35-3.81,12-15C259.3,261.76,250.17,232.68,250.17,232.68Z"/><path class="cls-16" d="M241.28,289.11,255.94,268l-2.47-9,5.12,1.21s-7.83-25.41-8.42-27.51c-.07.94,2.39,25.65.43,31.23S241.91,288.06,241.28,289.11Z"/><path class="cls-16" d="M233.06,251.7,227,258.89l14.25,30.25c-.06-.82-6.61-27.39-6.36-35.59.39-12.94,6-29.4,6-29.4L228.31,247.7Z"/><path class="cls-5" d="M241.28,289.11a135.56,135.56,0,0,1-3,20.14,134.27,134.27,0,0,1,3-20.14Z"/><path class="cls-5" d="M233.84,296.06a1.38,1.38,0,1,0,2.67.68,1.38,1.38,0,0,0-2.67-.68Zm0,0a1.75,1.75,0,0,1,3.4.87,1.75,1.75,0,0,1-3.4-.87Z"/><path class="cls-5" d="M231.9,305.67a1.38,1.38,0,0,0,2.68.68,1.38,1.38,0,0,0-2.68-.68Zm0,0a1.75,1.75,0,0,1,3.4.87,1.75,1.75,0,0,1-3.4-.87Z"/><polygon class="cls-14" points="213.34 291.3 195.83 279.2 194.11 281.39 211.76 293.59 213.34 291.3"/><g class="cls-19"><path d="M243.71,287.53a42,42,0,0,0-8.31.16c-1.39.19-2.77.46-4.16.78-.69.15-1.38.28-2.07.4A6.86,6.86,0,0,1,227,289c-.06,0-.09.11,0,.13a11,11,0,0,0,2,.36,12,12,0,0,0,2-.1c1.41-.18,2.82-.44,4.23-.63,2.84-.39,5.68-.78,8.51-.9C243.81,287.84,243.84,287.54,243.71,287.53Z"/><path d="M245.06,290.12a11.49,11.49,0,0,0-3.23-1.08,7.67,7.67,0,0,0-1.73-.05c-.27,0-.56.05-.84.08s-.64.2-.95.23c0,0-.06.13,0,.13a4.77,4.77,0,0,1,.84.15l.84.1c.56.07,1.12.16,1.69.21,1.13.12,2.25.26,3.36.48C245.07,290.38,245.11,290.15,245.06,290.12Z"/></g><path class="cls-13" d="M240,226.86c-.38,1.52,1.55,13.63,7.88,16.53,2.07,1,7.71-10.09,7.71-10.09l.6-.72,8.43-10.08-9-15.5-1.35-2.13s-2.12,2.91-4.73,6.56l-.37.52c-.15.2-.3.39-.43.58-.4.54-.8,1.1-1.19,1.66s-.59.83-.89,1.29l-.91,1.35A84.19,84.19,0,0,0,240,226.86Z"/><path class="cls-5" d="M249.61,211.43a26.39,26.39,0,0,0,6.61,21.15l8.43-10.08-9-15.5-1.35-2.13S252.22,207.78,249.61,211.43Z"/><path class="cls-13" d="M282.46,196.86c7,22-5.33,28.65-10.07,30.17-4.3,1.37-19.12,5.49-28.38-15.63s-1.28-31.33,8.39-35S275.43,174.9,282.46,196.86Z"/><path class="cls-5" d="M278.2,193.14c-.53.1-1,.11-1.58.16a2.59,2.59,0,0,1-1.65-.15.82.82,0,0,1-.3-1,2,2,0,0,1,1.77-1.06,3,3,0,0,1,2.11.43A.88.88,0,0,1,278.2,193.14Z"/><path class="cls-5" d="M264.24,200.17a15.7,15.7,0,0,0,1.51-.5,2.67,2.67,0,0,0,1.45-.82.83.83,0,0,0-.12-1,2,2,0,0,0-2.05-.24,3,3,0,0,0-1.74,1.27A.87.87,0,0,0,264.24,200.17Z"/><path class="cls-5" d="M268.47,201.74c0-.06-.09.1-.07.17.48,1.49.79,3.28-.43,4.18,0,0,0,.1,0,.08C269.6,205.45,269.17,203.08,268.47,201.74Z"/><path class="cls-5" d="M266.67,200.55c-2.48.53-1.26,5.45,1,5S268.75,200.12,266.67,200.55Z"/><path class="cls-5" d="M265.77,201.05c-.36.39-.66,1-1.17,1.17s-1.16-.2-1.68-.6c-.05,0-.09,0-.07.08.22,1,.82,1.83,1.87,1.72s1.41-1.11,1.41-2.11C266.13,201.12,265.91,200.9,265.77,201.05Z"/><path class="cls-5" d="M276.9,199.24c0-.06.13,0,.15.1.39,1.52,1.1,3.2,2.61,3.3,0,0,.07.08,0,.09C277.94,203,277,200.75,276.9,199.24Z"/><path class="cls-5" d="M277.78,197.27c2.37-.89,4,3.92,1.79,4.74S275.79,198,277.78,197.27Z"/><path class="cls-5" d="M278.89,197.25c.46.13,1,.47,1.46.34s.75-.79.92-1.4c0-.07.07,0,.09,0,.34.91.35,2-.47,2.44s-1.61-.16-2.13-1C278.66,197.5,278.7,197.2,278.89,197.25Z"/><path class="cls-5" d="M271.24,213.87c.42.32.85.78,1.42.76a4.16,4.16,0,0,0,1.63-.59.05.05,0,0,1,.08.07,2.1,2.1,0,0,1-1.88,1.08A1.67,1.67,0,0,1,271.1,214,.09.09,0,0,1,271.24,213.87Z"/><path class="cls-5" d="M276.71,207.13s.73,2.25.93,3.34c0,.1-.24.2-.6.29,0,0,0,0-.05,0a5.24,5.24,0,0,1-5.37-1,.11.11,0,0,1,.13-.18,8,8,0,0,0,5,.51c0-.32-1.38-3.82-1.21-3.86a9.58,9.58,0,0,1,2.58.12c-1.39-4.74-3.52-9.22-4.83-14a.15.15,0,0,1,.27-.12c2.57,4.54,4.28,9.95,5.84,14.81C279.57,207.65,277.18,207.23,276.71,207.13Z"/><path class="cls-5" d="M245,212.6c3.79-.7,2.56-8.72,2.56-8.72s7.55-2,7.13-13.51a17.3,17.3,0,0,1-.94,9.87s12.93-5,15.55-17.6c0,0-.72,6.27-2.27,8.84,0,0,5.16-3,6.67-8.3,0,0,4.26,5.95,6.53,7.24,0,0-2.86-27.58-27.89-15,0,0-13.75,2.45-15.74,14.44S245,212.6,245,212.6Z"/><path class="cls-13" d="M249.65,208.83s-6.21-6.21-9.11-3.88,2.64,12,6.66,12.69a3.89,3.89,0,0,0,4.78-3Z"/><path class="cls-5" d="M242.19,207.67c-.06,0-.05.09,0,.11,2.84.6,4.67,2.81,6.09,5.18a2.15,2.15,0,0,0-3.27,0c-.06.06,0,.16.1.13a2.4,2.4,0,0,1,2.74.37,11.23,11.23,0,0,1,1.62,1.88c.16.21.57,0,.43-.25l0,0C249.34,211.63,245.88,207.37,242.19,207.67Z"/><path class="cls-6" d="M250.94,217.87a1.93,1.93,0,1,1-2.16-1.68A1.93,1.93,0,0,1,250.94,217.87Z"/><path class="cls-2" d="M256.21,232.79,248.58,241l-7.4-16.94-4.94,2.65S240.61,250.83,241,250l7.22-6.87,3.56,8,5.13-14.84Z"/><path class="cls-5" d="M254.75,244c.77-2.48,1.6-4.95,2.25-7.46,0-.09-.09-.18-.15-.09-1.38,2.15-4.25,11.65-5.11,13.86v0c-.15-.34-3.41-7.19-3.49-7.13-1.38,1-6.66,6-7.07,6.47-.69-3.82-3.55-17.86-4.64-21.65,0-.11-.19-.09-.18,0,.4,3.91,4.09,22.76,4.25,22.77a101.19,101.19,0,0,0,7.58-7.27c.46,1.39,3.54,8.88,3.69,8.53A79,79,0,0,0,254.75,244Z"/><path class="cls-13" d="M225,220.1c-36.1-8.43-67-11-75.13-3.07-10.94,10.64-23.24,44.09-24.58,59.67-.47,5.5,38.24,18,39.63,12.23,1.68-6.93,9.82-42.93,10.19-43.55.8-1.31,37.1-8.7,47.14-10.4C239.07,232.14,241.06,223.83,225,220.1Z"/><path class="cls-13" d="M145.49,327.51c-4.39-.09-5.66-4.46-5.66-4.46a9.41,9.41,0,0,1-6.26,1.2c-3.78-.79-4.2-7.06-4.2-7.06a11.51,11.51,0,0,1-6.8.21c-3.54-1.12-4.86-7.38-4.86-7.38a10.13,10.13,0,0,1-6.1-3.59c-3.9-5.2-.31-14.46,1.91-20.37s14.06-20.6,16-23.63l38.06,13.93s-2.42,29.34-6,35.92C158.57,317.82,150.42,327.61,145.49,327.51Z"/><path class="cls-5" d="M140.53,323c4.64-5.12,7.51-11.33,10.73-17.36a.12.12,0,0,0-.21-.11c-3.13,6-7.42,11.38-10.79,17.29C140.17,323,140.41,323.15,140.53,323Z"/><path class="cls-5" d="M129.91,317.25a17.82,17.82,0,0,0,2.3-4.11q1.06-2.26,2-4.56,2-4.6,3.73-9.31c0-.13-.15-.25-.21-.1-1.32,3.05-2.69,6.09-4.14,9.08q-1.08,2.25-2.21,4.49a20.69,20.69,0,0,0-1.92,4.3A.24.24,0,0,0,129.91,317.25Z"/><path class="cls-5" d="M117.77,309.89a12.5,12.5,0,0,0,1.86-3.81l1.74-4.22c1.18-2.81,2.36-5.62,3.63-8.38a.12.12,0,0,0-.21-.11c-1.3,2.8-2.65,5.58-3.94,8.4q-.94,2.07-1.87,4.16a11.75,11.75,0,0,0-1.36,3.91A.09.09,0,0,0,117.77,309.89Z"/><path class="cls-3" d="M171.57,263.68l-42-15.86S143,219.42,152.23,215s43.53-2.47,68.62,3.52c21.76,5.2,20.91,13.7-4.46,18.7-25.72,5.07-39.71,8.5-40,9.16S171.57,263.68,171.57,263.68Z"/><path class="cls-5" d="M172.19,253.44c.14.05.22-.17.09-.23a352.22,352.22,0,0,0-35.7-13.65c-.13,0-.21.18-.08.23A347.37,347.37,0,0,0,172.19,253.44Z"/><path class="cls-5" d="M171.57,263.68c1.13-4.35,3.45-13.06,4.64-17.38l0-.12.12,0c13.7-3.41,27.46-6.55,41.33-9.2-10.29,2.35-31,7.17-41.23,9.61l.15-.15c-1.22,4.31-3.76,13-5,17.27Z"/></g></g></svg>