<svg id="OBJECTS" xmlns="http://www.w3.org/2000/svg" viewBox="0 0 750 500"><defs><style>.cls-1{fill:#dbdbdb;}.cls-2{fill:#01a578;}.cls-3{fill:#cdbfbc;}.cls-4{fill:#af9f9d;}.cls-5{fill:#008c61;}.cls-6{fill:#fdbb92;}.cls-7{fill:#fd967d;}.cls-8{fill:#002029;}.cls-9{fill:#173953;}.cls-10{fill:#fff;}.cls-11{fill:#2a5b74;}.cls-12{fill:#016b52;}.cls-13{fill:#f2f2f2;}.cls-14{fill:#9ff7dc;}.cls-15{opacity:0.3;}.cls-16{fill:#05cc8e;}.cls-17{fill:#5a95ff;}</style></defs><path class="cls-1" d="M499.06,339.23l-2.88,0a.76.76,0,0,1-.74-.77.74.74,0,0,1,.75-.73h0c1.89,0,3.83,0,5.75,0h0a.76.76,0,0,1,0,1.51Zm-8.38-.19h0c-1.91-.08-3.86-.19-5.78-.33a.75.75,0,0,1,.11-1.5c1.91.14,3.84.25,5.74.33a.76.76,0,0,1,.72.79A.75.75,0,0,1,490.68,339Zm16.8,0a.75.75,0,0,1,0-1.5c1.92-.09,3.85-.2,5.74-.35a.75.75,0,0,1,.8.69.76.76,0,0,1-.69.81c-1.91.14-3.85.26-5.78.35Zm-28.06-.81h-.07c-1.91-.19-3.84-.41-5.76-.66a.74.74,0,0,1-.64-.84.75.75,0,0,1,.84-.65c1.9.25,3.82.47,5.71.66a.75.75,0,0,1-.08,1.49Zm39.31-.05a.75.75,0,0,1-.75-.67.77.77,0,0,1,.67-.83c1.9-.2,3.82-.44,5.7-.71a.75.75,0,0,1,.21,1.49c-1.9.27-3.83.51-5.75.72Zm-50.5-1.38h-.12c-1.89-.29-3.81-.62-5.71-1a.75.75,0,0,1,.27-1.48c1.89.34,3.79.67,5.67,1a.75.75,0,0,1-.11,1.49Zm61.67-.19a.76.76,0,0,1-.74-.62.75.75,0,0,1,.61-.87c1.88-.33,3.78-.69,5.64-1.08a.75.75,0,1,1,.31,1.46c-1.88.4-3.79.77-5.69,1.1Zm-72.77-1.83-.16,0c-1.87-.39-3.77-.81-5.65-1.25a.76.76,0,1,1,.35-1.47c1.86.44,3.75.86,5.61,1.25a.77.77,0,0,1,.58.89A.76.76,0,0,1,457.13,334.78Zm83.81-.48a.75.75,0,0,1-.17-1.48c1.86-.46,3.72-.95,5.55-1.47a.75.75,0,0,1,.41,1.45c-1.84.52-3.73,1-5.61,1.48Zm-94.8-2.1a.63.63,0,0,1-.19,0c-1.85-.48-3.73-1-5.58-1.53a.75.75,0,0,1-.51-.93.73.73,0,0,1,.92-.51c1.85.53,3.71,1,5.55,1.52a.75.75,0,0,1,.54.91A.77.77,0,0,1,446.14,332.2Zm105.66-1a.75.75,0,0,1-.23-1.47c1.83-.58,3.65-1.21,5.44-1.86a.75.75,0,0,1,1,.45.76.76,0,0,1-.45,1c-1.8.65-3.65,1.28-5.49,1.87A.59.59,0,0,1,551.8,331.23Zm-116.51-2.15a.83.83,0,0,1-.22,0c-1.83-.57-3.69-1.18-5.5-1.79a.75.75,0,0,1,.48-1.42c1.8.61,3.64,1.21,5.47,1.78a.75.75,0,0,1-.23,1.46Zm127.12-1.7a.75.75,0,0,1-.28-1.44c1.77-.72,3.55-1.48,5.28-2.26a.75.75,0,1,1,.61,1.37c-1.74.78-3.54,1.55-5.33,2.28A.87.87,0,0,1,562.41,327.38Zm-137.81-1.9a.7.7,0,0,1-.25-.05l-5.44-1.9a.75.75,0,1,1,.49-1.42c1.8.62,3.63,1.26,5.45,1.91a.75.75,0,0,1-.25,1.46Zm148.1-2.73a.76.76,0,0,1-.34-1.43c1.72-.85,3.43-1.75,5.09-2.66a.74.74,0,0,1,1,.29.75.75,0,0,1-.29,1c-1.68.93-3.4,1.83-5.14,2.7A.76.76,0,0,1,572.7,322.75Zm-158.77-.95a1,1,0,0,1-.24,0c-1.83-.62-3.67-1.22-5.47-1.8a.75.75,0,0,1,.46-1.43c1.8.58,3.65,1.19,5.49,1.8a.76.76,0,0,1,.47.95A.75.75,0,0,1,413.93,321.8Zm-10.74-3.47a.85.85,0,0,1-.22,0c-1.83-.57-3.69-1.14-5.51-1.68a.75.75,0,0,1,.43-1.44c1.83.55,3.69,1.12,5.52,1.69a.75.75,0,0,1,.5.94A.76.76,0,0,1,403.19,318.33Zm179.4-1a.75.75,0,0,1-.39-1.4c1.63-1,3.26-2,4.84-3.07a.75.75,0,0,1,1,.2.77.77,0,0,1-.21,1c-1.6,1.06-3.24,2.11-4.9,3.11A.76.76,0,0,1,582.59,317.31ZM169.45,316h0c-1.93,0-3.88-.17-5.79-.35a.75.75,0,0,1,.13-1.5c1.89.18,3.81.3,5.7.35a.75.75,0,0,1,0,1.5Zm5.52,0a.75.75,0,0,1,0-1.5c1.9-.06,3.82-.19,5.71-.37a.75.75,0,0,1,.82.68.74.74,0,0,1-.67.81c-1.93.19-3.88.32-5.81.38Zm217.41-.87a.75.75,0,0,1-.21,0c-1.85-.54-3.72-1.06-5.54-1.56a.76.76,0,0,1-.52-.93.74.74,0,0,1,.92-.52c1.83.5,3.7,1,5.56,1.56a.75.75,0,0,1,.51.93A.74.74,0,0,1,392.38,315.08Zm-234.14-.14h-.11c-1.9-.3-3.82-.66-5.71-1.07a.75.75,0,0,1,.32-1.47c1.86.41,3.75.76,5.62,1.05a.76.76,0,0,1-.12,1.5Zm27.95-.06a.75.75,0,0,1-.11-1.49c1.87-.3,3.76-.66,5.62-1.08a.74.74,0,0,1,.89.57.76.76,0,0,1-.57.9c-1.88.42-3.8.79-5.71,1.09Zm11.05-2.3a.76.76,0,0,1-.73-.59.74.74,0,0,1,.57-.89l5.64-1.25a.76.76,0,0,1,.89.58.75.75,0,0,1-.58.89l-5.62,1.24Zm-50-.05-.21,0c-1.85-.52-3.71-1.11-5.54-1.75a.75.75,0,0,1-.45-1,.74.74,0,0,1,1-.46c1.8.63,3.63,1.21,5.45,1.73a.76.76,0,0,1,.52.93A.74.74,0,0,1,147.24,312.53Zm234.26-.43a.63.63,0,0,1-.19,0c-1.86-.49-3.73-1-5.58-1.42a.75.75,0,1,1,.36-1.46c1.85.46,3.74.94,5.6,1.43a.75.75,0,0,1,.54.91A.77.77,0,0,1,381.5,312.1ZM592,311.05a.74.74,0,0,1-.61-.31.75.75,0,0,1,.16-1c1.55-1.13,3.08-2.31,4.55-3.49a.75.75,0,1,1,.94,1.16c-1.49,1.2-3,2.39-4.6,3.54A.79.79,0,0,1,592,311.05Zm-383.71-.86a.75.75,0,0,1-.15-1.49l5.65-1.17a.77.77,0,0,1,.89.59.76.76,0,0,1-.59.89c-1.85.37-3.75.76-5.64,1.16Zm162.28-.81a.47.47,0,0,1-.17,0c-1.88-.44-3.77-.86-5.62-1.27a.75.75,0,0,1-.57-.89.74.74,0,0,1,.89-.57c1.85.4,3.75.83,5.64,1.27a.75.75,0,0,1,.56.9A.75.75,0,0,1,370.55,309.38Zm-234-.57a.71.71,0,0,1-.28-.06c-1.78-.74-3.56-1.55-5.3-2.4a.76.76,0,0,1-.34-1,.75.75,0,0,1,1-.34c1.71.84,3.47,1.64,5.21,2.37a.75.75,0,0,1-.29,1.44Zm82.75-.86a.75.75,0,0,1-.15-1.49l5.68-1.07a.77.77,0,0,1,.88.61.75.75,0,0,1-.61.87l-5.66,1.07Zm140.18-1-.15,0c-1.89-.38-3.79-.75-5.65-1.1a.75.75,0,0,1-.59-.88.74.74,0,0,1,.87-.6c1.87.35,3.77.73,5.67,1.11a.75.75,0,0,1-.15,1.49Zm-129.08-1.05a.75.75,0,0,1-.12-1.49c1.9-.33,3.82-.65,5.69-.95a.75.75,0,1,1,.24,1.48c-1.87.3-3.78.62-5.68,1Zm118-1h-.12c-1.89-.32-3.8-.64-5.68-.93a.76.76,0,0,1-.63-.86.74.74,0,0,1,.86-.62c1.89.29,3.81.61,5.7.93a.75.75,0,0,1-.13,1.49Zm-106.84-.76a.74.74,0,0,1-.74-.64.75.75,0,0,1,.63-.85l5.72-.81a.75.75,0,0,1,.2,1.49c-1.88.25-3.8.52-5.7.81ZM600.77,304a.79.79,0,0,1-.57-.25.76.76,0,0,1,.07-1.06c1.43-1.27,2.84-2.59,4.19-3.91a.75.75,0,0,1,1.06,0,.75.75,0,0,1,0,1.06c-1.36,1.34-2.79,2.68-4.25,4A.72.72,0,0,1,600.77,304Zm-474.31-.12a.82.82,0,0,1-.37-.1c-1.68-.95-3.35-1.95-5-3a.76.76,0,0,1-.23-1,.75.75,0,0,1,1-.22c1.6,1,3.25,2,4.9,2.95a.75.75,0,0,1-.36,1.41Zm210.82-.71h-.1c-1.9-.27-3.82-.52-5.71-.74a.75.75,0,0,1-.65-.84.74.74,0,0,1,.83-.65c1.9.23,3.83.48,5.74.74a.76.76,0,0,1,.64.85A.77.77,0,0,1,337.28,303.15Zm-84.51-.53a.75.75,0,0,1-.09-1.5c1.92-.23,3.85-.45,5.75-.65a.75.75,0,0,1,.82.67.74.74,0,0,1-.67.82c-1.89.2-3.81.42-5.72.65Zm73.31-.84H326c-1.9-.2-3.83-.38-5.72-.55a.75.75,0,1,1,.12-1.49c1.91.16,3.84.35,5.76.55a.75.75,0,0,1-.08,1.49ZM264,301.43a.74.74,0,0,1-.75-.68.76.76,0,0,1,.68-.82c1.91-.17,3.85-.33,5.76-.47a.76.76,0,0,1,.8.7.75.75,0,0,1-.69.8c-1.9.14-3.83.3-5.74.47Zm50.84-.62h0c-1.91-.13-3.85-.25-5.75-.34a.75.75,0,1,1,.08-1.5c1.91.09,3.85.21,5.77.34a.75.75,0,0,1-.05,1.5Zm-39.59-.21a.75.75,0,0,1-.75-.71.76.76,0,0,1,.71-.79c1.92-.11,3.86-.2,5.77-.28a.77.77,0,0,1,.78.72.74.74,0,0,1-.72.78c-1.9.08-3.83.17-5.75.28Zm28.32-.36h0c-1.92-.06-3.85-.11-5.76-.13a.76.76,0,0,1-.74-.76.75.75,0,0,1,.75-.74h0c1.92,0,3.86.07,5.78.13a.75.75,0,0,1,0,1.5Zm-17.05-.08a.75.75,0,0,1-.75-.74.74.74,0,0,1,.74-.76c1.91-.05,3.85-.07,5.77-.08h0a.75.75,0,0,1,0,1.5c-1.91,0-3.85,0-5.75.08ZM117,297.77a.73.73,0,0,1-.44-.15c-1.56-1.13-3.12-2.32-4.62-3.54a.75.75,0,0,1,1-1.16c1.48,1.2,3,2.37,4.55,3.49a.75.75,0,0,1-.44,1.36Zm491.88-1.68a.78.78,0,0,1-.51-.2.75.75,0,0,1,0-1.06l.23-.25c1.3-1.42,2.6-2.86,3.85-4.27a.75.75,0,0,1,1.13,1c-1.27,1.43-2.57,2.87-3.87,4.29l-.24.26A.75.75,0,0,1,608.83,296.09Zm-500.65-5.44a.78.78,0,0,1-.51-.2c-1.42-1.3-2.84-2.65-4.19-4a.75.75,0,0,1,1.07-1.05c1.33,1.36,2.72,2.69,4.13,4a.75.75,0,0,1-.5,1.31Zm508.37-3.25a.75.75,0,0,1-.57-1.24c1.25-1.46,2.49-2.94,3.7-4.4a.75.75,0,0,1,1.16.95c-1.22,1.47-2.47,3-3.72,4.43A.76.76,0,0,1,616.55,287.4Zm-516.31-4.79a.74.74,0,0,1-.56-.26c-1.28-1.44-2.54-2.94-3.74-4.46a.75.75,0,0,1,.12-1.05.76.76,0,0,1,1.06.12c1.18,1.49,2.42,3,3.68,4.4a.75.75,0,0,1-.06,1.06A.8.8,0,0,1,100.24,282.61Zm523.49-3.91a.72.72,0,0,1-.46-.16.75.75,0,0,1-.12-1.06c1.2-1.5,2.39-3,3.53-4.53a.76.76,0,0,1,1.06-.14.75.75,0,0,1,.14,1.05c-1.16,1.51-2.35,3-3.56,4.56A.74.74,0,0,1,623.73,278.7ZM93.22,273.76a.74.74,0,0,1-.61-.31c-1.12-1.57-2.21-3.2-3.24-4.83a.75.75,0,0,1,1.27-.8c1,1.61,2.09,3.21,3.19,4.76a.74.74,0,0,1-.61,1.18Zm537.37-4a.76.76,0,0,1-.61-1.2c1.14-1.56,2.27-3.13,3.36-4.68a.75.75,0,0,1,1-.18.76.76,0,0,1,.19,1.05c-1.09,1.55-2.23,3.13-3.38,4.7A.74.74,0,0,1,630.59,269.74ZM87.18,264.23a.72.72,0,0,1-.65-.38c-1-1.68-1.86-3.4-2.71-5.14a.75.75,0,0,1,.34-1,.76.76,0,0,1,1,.34c.84,1.71,1.74,3.41,2.67,5.07a.75.75,0,0,1-.29,1A.81.81,0,0,1,87.18,264.23Zm549.89-3.74a.72.72,0,0,1-.42-.13.75.75,0,0,1-.21-1c1.07-1.6,2.13-3.22,3.15-4.82a.75.75,0,0,1,1.26.8c-1,1.61-2.08,3.25-3.16,4.86A.75.75,0,0,1,637.07,260.49ZM82.18,254.12a.74.74,0,0,1-.69-.45c-.76-1.77-1.49-3.58-2.15-5.39a.75.75,0,1,1,1.4-.52c.66,1.78,1.38,3.57,2.13,5.32a.75.75,0,0,1-.39,1A.65.65,0,0,1,82.18,254.12ZM643.12,251a.81.81,0,0,1-.39-.1.75.75,0,0,1-.25-1c1-1.65,2-3.32,2.9-5a.75.75,0,1,1,1.3.74c-.94,1.66-1.92,3.34-2.92,5A.74.74,0,0,1,643.12,251Zm-564.86-7.4a.76.76,0,0,1-.72-.53c-.57-1.83-1.1-3.71-1.58-5.58a.76.76,0,0,1,.54-.92.75.75,0,0,1,.91.55c.47,1.84,1,3.69,1.57,5.5a.75.75,0,0,1-.5.94A.57.57,0,0,1,78.26,243.55Zm570.43-2.43a.78.78,0,0,1-.36-.08.77.77,0,0,1-.31-1c.91-1.7,1.79-3.42,2.63-5.12a.75.75,0,1,1,1.34.67c-.84,1.71-1.73,3.44-2.64,5.16A.76.76,0,0,1,648.69,241.12ZM75.45,232.63a.77.77,0,0,1-.74-.6c-.38-1.89-.72-3.81-1-5.72a.75.75,0,0,1,1.48-.22c.29,1.88.62,3.78,1,5.64a.74.74,0,0,1-.58.88ZM653.69,231a.7.7,0,0,1-.31-.07.75.75,0,0,1-.37-1c.8-1.75,1.58-3.52,2.31-5.27a.76.76,0,0,1,1-.4.75.75,0,0,1,.4,1c-.74,1.76-1.53,3.55-2.33,5.31A.75.75,0,0,1,653.69,231ZM73.75,221.48a.75.75,0,0,1-.74-.68c-.2-1.91-.34-3.86-.44-5.79a.75.75,0,0,1,1.5-.07c.09,1.9.24,3.83.43,5.71a.75.75,0,0,1-.67.82Zm584.32-.89a.86.86,0,0,1-.27-.05.75.75,0,0,1-.43-1c.68-1.8,1.34-3.61,2-5.41a.75.75,0,0,1,1.42.49c-.62,1.81-1.28,3.64-2,5.45A.75.75,0,0,1,658.07,220.59ZM73.17,210.21a.75.75,0,0,1-.75-.74v-.41c0-1.79,0-3.6.12-5.4a.75.75,0,0,1,1.5.07c-.08,1.77-.12,3.56-.12,5.33v.4a.74.74,0,0,1-.75.75Zm588.55-.31a.75.75,0,0,1-.72-1c.56-1.84,1.08-3.7,1.55-5.53a.75.75,0,0,1,1.46.38c-.48,1.85-1,3.73-1.57,5.59A.76.76,0,0,1,661.72,209.9ZM664.56,199l-.16,0a.75.75,0,0,1-.57-.89c.41-1.87.78-3.77,1.1-5.63a.75.75,0,0,1,1.48.25c-.33,1.89-.7,3.81-1.11,5.7A.76.76,0,0,1,664.56,199Zm-590.9,0H73.6a.75.75,0,0,1-.68-.82c.17-1.91.39-3.85.66-5.77a.75.75,0,0,1,.84-.64.75.75,0,0,1,.64.85c-.26,1.89-.48,3.81-.65,5.7A.74.74,0,0,1,73.66,198.94ZM666.5,187.86h-.1a.74.74,0,0,1-.64-.84c.24-1.9.45-3.81.61-5.7a.75.75,0,0,1,1.49.13c-.16,1.9-.36,3.84-.61,5.76A.75.75,0,0,1,666.5,187.86Zm-591.31-.1h-.13a.77.77,0,0,1-.61-.88c.35-1.88.74-3.79,1.17-5.68a.75.75,0,0,1,1.46.33c-.42,1.87-.81,3.76-1.15,5.62A.76.76,0,0,1,75.19,187.76Zm2.5-11a.71.71,0,0,1-.2,0,.74.74,0,0,1-.52-.92c.5-1.85,1-3.72,1.63-5.57a.76.76,0,0,1,1.44.46c-.58,1.82-1.13,3.67-1.63,5.5A.74.74,0,0,1,77.69,176.75Zm589.77-.12h0a.74.74,0,0,1-.72-.78c.06-1.57.09-3.16.09-4.73v-1a.74.74,0,0,1,.74-.75h0a.75.75,0,0,1,.75.74v1c0,1.59,0,3.2-.09,4.79A.75.75,0,0,1,667.46,176.63ZM81.09,166a.78.78,0,0,1-.26,0,.75.75,0,0,1-.45-1c.65-1.8,1.35-3.62,2.07-5.42a.75.75,0,0,1,1.39.57c-.72,1.77-1.41,3.58-2,5.36A.74.74,0,0,1,81.09,166Zm586.28-.64a.76.76,0,0,1-.75-.71c-.06-1.15-.14-2.32-.24-3.47,0-.59-.1-1.18-.16-1.77,0-.16,0-.32,0-.47a.76.76,0,0,1,.67-.83.75.75,0,0,1,.82.68c0,.16,0,.32.05.48,0,.59.11,1.19.16,1.78.1,1.17.18,2.35.24,3.52a.74.74,0,0,1-.71.79ZM85.31,155.53a.67.67,0,0,1-.31-.07.75.75,0,0,1-.38-1c.8-1.78,1.63-3.54,2.47-5.24a.75.75,0,1,1,1.35.67c-.84,1.68-1.66,3.42-2.45,5.18A.75.75,0,0,1,85.31,155.53Zm580.8-1.38a.75.75,0,0,1-.73-.61c-.36-1.83-.81-3.69-1.34-5.54a.75.75,0,1,1,1.44-.41c.55,1.89,1,3.79,1.37,5.66a.74.74,0,0,1-.59.88ZM90.33,145.43a.81.81,0,0,1-.37-.09.75.75,0,0,1-.29-1c.94-1.71,1.93-3.4,2.92-5a.75.75,0,1,1,1.28.78c-1,1.6-2,3.27-2.89,4.95A.73.73,0,0,1,90.33,145.43ZM663,143.31a.74.74,0,0,1-.7-.48c-.66-1.75-1.4-3.53-2.21-5.27a.76.76,0,0,1,.37-1,.75.75,0,0,1,1,.37c.83,1.78,1.58,3.58,2.25,5.37a.74.74,0,0,1-.43,1A.65.65,0,0,1,663,143.31ZM96.24,135.83a.72.72,0,0,1-.42-.13.76.76,0,0,1-.2-1c1.11-1.6,2.26-3.18,3.42-4.69a.74.74,0,0,1,1-.13.75.75,0,0,1,.14,1c-1.15,1.49-2.28,3-3.37,4.62A.74.74,0,0,1,96.24,135.83Zm562.07-2.76a.75.75,0,0,1-.66-.39c-.9-1.65-1.88-3.3-2.91-4.93A.75.75,0,0,1,656,127c1,1.65,2,3.33,3,5a.77.77,0,0,1-.3,1A.8.8,0,0,1,658.31,133.07Zm-293.9-3.86c-1.25,0-2.54,0-3.82-.08a.75.75,0,0,1-.72-.77.76.76,0,0,1,.78-.73c1.94.08,3.87.09,5.72.06a.75.75,0,0,1,0,1.5Zm7.48-.3a.75.75,0,0,1-.06-1.5c1.91-.16,3.81-.38,5.66-.66a.76.76,0,0,1,.86.63.75.75,0,0,1-.63.85c-1.89.29-3.82.51-5.77.67Zm-16.77-.12h-.07c-1.88-.17-3.82-.38-5.77-.64a.75.75,0,0,1-.64-.85.74.74,0,0,1,.84-.64c1.93.26,3.85.47,5.7.63a.75.75,0,0,1-.06,1.5Zm-11.19-1.48h-.13c-1.85-.32-3.77-.69-5.69-1.09a.76.76,0,0,1-.58-.89.74.74,0,0,1,.89-.58c1.9.4,3.8.77,5.64,1.09a.75.75,0,0,1-.13,1.48Zm39.08-.09a.75.75,0,0,1-.16-1.48c1.84-.41,3.7-.9,5.51-1.45a.74.74,0,0,1,.93.5.75.75,0,0,1-.5.94c-1.84.56-3.73,1-5.61,1.48Zm-279.89-.32a.75.75,0,0,1-.57-1.24c1.27-1.47,2.6-2.91,3.93-4.28a.75.75,0,0,1,1.08,1.05c-1.32,1.35-2.62,2.76-3.87,4.21A.76.76,0,0,1,103.12,126.9ZM332.89,125a.57.57,0,0,1-.18,0c-1.83-.44-3.72-.93-5.61-1.44a.75.75,0,0,1,.4-1.45c1.87.51,3.75,1,5.56,1.44a.74.74,0,0,1,.55.9A.75.75,0,0,1,332.89,125Zm60.9-1a.75.75,0,0,1-.27-1.45c1.74-.66,3.51-1.4,5.27-2.2a.75.75,0,0,1,.62,1.36c-1.79.82-3.59,1.57-5.36,2.24A.85.85,0,0,1,393.79,124Zm258.5-.45a.77.77,0,0,1-.61-.31c-1.1-1.53-2.27-3.06-3.47-4.55a.75.75,0,0,1,1.17-1c1.22,1.52,2.41,3.07,3.52,4.62a.76.76,0,0,1-.17,1A.74.74,0,0,1,652.29,123.53ZM322,122.06a.76.76,0,0,1-.21,0l-5.54-1.6a.75.75,0,1,1,.42-1.44l5.53,1.6a.75.75,0,0,1-.2,1.47Zm82-2.72a.75.75,0,0,1-.35-1.42c1.63-.85,3.27-1.76,5-2.77a.75.75,0,0,1,.75,1.29c-1.75,1-3.41,2-5.07,2.81A.72.72,0,0,1,404,119.34Zm-92.88-.41a.76.76,0,0,1-.21,0l-5.53-1.6a.75.75,0,0,1,.41-1.45l5.54,1.6a.76.76,0,0,1-.21,1.48ZM111,118.83a.75.75,0,0,1-.56-.25.76.76,0,0,1,.06-1.06c1.43-1.3,2.92-2.56,4.43-3.76a.75.75,0,0,1,1,.12.76.76,0,0,1-.12,1.06c-1.48,1.17-2.95,2.42-4.36,3.7A.73.73,0,0,1,111,118.83Zm189.33-3a.76.76,0,0,1-.21,0l-5.54-1.58a.75.75,0,1,1,.41-1.44l5.55,1.58a.75.75,0,0,1-.21,1.47Zm344.89-1a.78.78,0,0,1-.56-.25c-1.26-1.41-2.58-2.81-3.93-4.17a.75.75,0,0,1,1.06-1.06c1.37,1.38,2.71,2.8,4,4.22a.75.75,0,0,1-.06,1.06A.74.74,0,0,1,645.21,114.75Zm-231.42-1.06a.75.75,0,0,1-.4-1.39c1.49-.94,3.07-2,4.83-3.12a.75.75,0,1,1,.82,1.26c-1.76,1.16-3.35,2.19-4.85,3.13A.77.77,0,0,1,413.79,113.69Zm-124.33-1-.2,0-5.56-1.55a.75.75,0,1,1,.4-1.44l5.56,1.54a.76.76,0,0,1,.52.93A.74.74,0,0,1,289.46,112.72Zm-169.65-.91a.78.78,0,0,1-.62-.32.76.76,0,0,1,.19-1c1.58-1.1,3.22-2.17,4.87-3.16a.75.75,0,1,1,.78,1.28c-1.63,1-3.24,2-4.8,3.11A.75.75,0,0,1,119.81,111.81Zm158.76-2.08a.63.63,0,0,1-.19,0l-5.58-1.49a.74.74,0,0,1-.53-.91.75.75,0,0,1,.91-.54l5.59,1.49a.75.75,0,0,1-.2,1.48Zm144.64-2.23a.76.76,0,0,1-.42-1.38q1.4-.93,2.79-1.89l2-1.34a.75.75,0,1,1,.84,1.24l-2,1.35-2.8,1.89A.8.8,0,0,1,423.21,107.5Zm-155.57-.65-.18,0c-1.89-.49-3.78-1-5.6-1.42a.75.75,0,1,1,.36-1.45l5.61,1.41a.75.75,0,0,1-.19,1.48Zm369.63-.11a.76.76,0,0,1-.51-.2c-1.4-1.28-2.85-2.54-4.32-3.77a.75.75,0,1,1,1-1.15c1.49,1.24,3,2.52,4.37,3.81a.75.75,0,0,1,.05,1.06A.76.76,0,0,1,637.27,106.74ZM129.44,106a.73.73,0,0,1-.66-.4.75.75,0,0,1,.32-1c1.7-.89,3.46-1.74,5.23-2.53a.76.76,0,0,1,1,.39.75.75,0,0,1-.38,1c-1.74.77-3.48,1.6-5.15,2.48A.72.72,0,0,1,129.44,106Zm127.23-1.84-.17,0c-1.9-.46-3.79-.9-5.62-1.32a.74.74,0,0,1-.57-.89.75.75,0,0,1,.9-.57c1.83.42,3.73.86,5.64,1.32a.75.75,0,0,1-.18,1.48Zm-11-2.52h-.16c-1.91-.42-3.8-.82-5.64-1.19a.75.75,0,0,1-.58-.89.74.74,0,0,1,.88-.58c1.84.37,3.75.77,5.66,1.19a.75.75,0,0,1-.16,1.48Zm-105.92-.23a.75.75,0,0,1-.7-.49.74.74,0,0,1,.44-1c1.78-.68,3.63-1.31,5.49-1.89a.75.75,0,0,1,.45,1.43c-1.83.57-3.65,1.2-5.42,1.86A.75.75,0,0,1,139.74,101.38Zm292.82-.19a.74.74,0,0,1-.62-.34.75.75,0,0,1,.21-1c1.74-1.16,3.32-2.19,4.83-3.16a.76.76,0,0,1,1,.23.74.74,0,0,1-.23,1c-1.5,1-3.07,2-4.81,3.15A.72.72,0,0,1,432.56,101.19Zm196-1.68a.79.79,0,0,1-.46-.15c-1.5-1.14-3.07-2.28-4.64-3.36a.75.75,0,0,1,.85-1.24c1.59,1.1,3.18,2.25,4.7,3.41a.75.75,0,0,1-.45,1.34Zm-394-.16h-.14c-1.91-.37-3.81-.72-5.67-1a.75.75,0,0,1,.26-1.48c1.87.33,3.78.68,5.69,1a.75.75,0,0,1-.14,1.49ZM150.5,98a.75.75,0,0,1-.18-1.48c1.84-.47,3.74-.91,5.65-1.29a.75.75,0,0,1,.89.58.76.76,0,0,1-.59.89c-1.88.38-3.76.81-5.58,1.28Zm73-.61h-.12c-1.91-.3-3.83-.59-5.69-.85a.75.75,0,1,1,.21-1.49c1.87.26,3.8.55,5.72.86a.75.75,0,0,1-.12,1.49Zm-11.17-1.58h-.1c-1.92-.23-3.85-.45-5.71-.64a.73.73,0,0,1-.67-.82.75.75,0,0,1,.82-.67c1.87.19,3.81.41,5.75.64a.75.75,0,0,1-.09,1.5Zm-50.76-.07a.76.76,0,0,1-.74-.64.75.75,0,0,1,.63-.85c1.87-.3,3.81-.56,5.75-.78a.75.75,0,0,1,.16,1.5c-1.91.21-3.83.47-5.68.76Zm280.51-.64a.75.75,0,0,1-.4-1.39c1.69-1,3.36-2,5-2.95a.75.75,0,0,1,.75,1.3c-1.61.92-3.27,1.91-4.94,2.93A.7.7,0,0,1,442.06,95.1Zm-241-.42H201c-1.93-.15-3.87-.27-5.74-.37a.75.75,0,0,1,.08-1.5c1.89.1,3.83.23,5.77.38a.74.74,0,0,1,.69.8A.75.75,0,0,1,201.08,94.68Zm-28.32-.22a.75.75,0,0,1,0-1.5c1.89-.14,3.83-.25,5.78-.32a.75.75,0,1,1,.06,1.5c-1.93.07-3.86.18-5.73.32Zm17.05-.38h0c-1.94,0-3.87-.07-5.75-.06h0a.74.74,0,0,1-.75-.74.75.75,0,0,1,.74-.76c1.9,0,3.84,0,5.79.06a.75.75,0,0,1,0,1.5Zm429.52-1a.77.77,0,0,1-.41-.11c-1.6-1-3.25-2-4.91-3a.74.74,0,0,1-.27-1,.75.75,0,0,1,1-.28c1.68,1,3.35,2,5,3a.75.75,0,0,1-.4,1.38ZM451.84,89.49a.77.77,0,0,1-.67-.4.75.75,0,0,1,.31-1c1.71-.92,3.44-1.81,5.15-2.65a.77.77,0,0,1,1,.35.75.75,0,0,1-.35,1c-1.69.83-3.41,1.71-5.1,2.62A.76.76,0,0,1,451.84,89.49Zm157.71-2a.73.73,0,0,1-.35-.09c-1.68-.88-3.41-1.74-5.13-2.56a.74.74,0,0,1-.36-1,.77.77,0,0,1,1-.36c1.74.83,3.49,1.7,5.19,2.59a.76.76,0,0,1,.32,1A.77.77,0,0,1,609.55,87.45ZM462,84.52a.74.74,0,0,1-.68-.45.75.75,0,0,1,.37-1c1.76-.79,3.55-1.55,5.33-2.27a.76.76,0,0,1,1,.42.74.74,0,0,1-.42,1c-1.76.72-3.53,1.47-5.27,2.25A.7.7,0,0,1,462,84.52ZM599.36,82.6a.72.72,0,0,1-.29-.06c-1.75-.75-3.54-1.47-5.32-2.16a.75.75,0,0,1-.43-1,.75.75,0,0,1,1-.43c1.8.69,3.6,1.43,5.37,2.18a.76.76,0,0,1,.39,1A.75.75,0,0,1,599.36,82.6Zm-127-2.32a.75.75,0,0,1-.26-1.45c1.8-.66,3.64-1.29,5.48-1.88a.75.75,0,0,1,.46,1.43c-1.82.59-3.64,1.21-5.43,1.86A.73.73,0,0,1,472.4,80.28Zm116.43-1.73a.67.67,0,0,1-.24,0c-1.8-.62-3.64-1.21-5.46-1.76a.75.75,0,1,1,.43-1.44c1.84.56,3.7,1.16,5.52,1.78a.74.74,0,0,1,.46,1A.75.75,0,0,1,588.83,78.55ZM483.12,76.81a.74.74,0,0,1-.72-.54.76.76,0,0,1,.52-.93c1.83-.52,3.71-1,5.59-1.49a.75.75,0,1,1,.36,1.46c-1.86.46-3.73,1-5.54,1.48A.75.75,0,0,1,483.12,76.81ZM578,75.28l-.19,0c-1.83-.48-3.71-.94-5.57-1.36a.75.75,0,1,1,.33-1.47c1.88.43,3.77.89,5.63,1.38a.75.75,0,0,1-.2,1.48Zm-84-1.19a.75.75,0,0,1-.16-1.49c1.86-.4,3.77-.78,5.67-1.12a.75.75,0,1,1,.27,1.47c-1.89.35-3.78.72-5.62,1.12Zm73-1.31h-.14c-1.87-.36-3.77-.69-5.66-1a.74.74,0,0,1-.62-.86.73.73,0,0,1,.85-.62c1.91.29,3.83.62,5.71,1a.75.75,0,0,1-.14,1.49Zm-61.89-.73a.76.76,0,0,1-.74-.64.75.75,0,0,1,.63-.85l1-.15c1.59-.23,3.2-.45,4.78-.65a.74.74,0,0,1,.83.65.75.75,0,0,1-.65.84c-1.57.19-3.16.41-4.74.65l-.95.14Zm50.74-1h-.09c-1.88-.23-3.8-.43-5.71-.6a.75.75,0,0,1-.68-.81.76.76,0,0,1,.81-.69c1.93.17,3.86.38,5.76.61a.74.74,0,0,1,.66.83A.76.76,0,0,1,555.88,71Zm-39.54-.39a.75.75,0,0,1-.07-1.5c1.92-.18,3.86-.34,5.77-.47a.75.75,0,1,1,.1,1.5c-1.89.12-3.82.28-5.73.46Zm28.31-.6h0c-1.89-.1-3.82-.18-5.73-.23a.75.75,0,0,1-.74-.76.76.76,0,0,1,.77-.74c1.93,0,3.88.13,5.79.24a.75.75,0,0,1,.71.79A.76.76,0,0,1,544.65,70.05Zm-17-.16a.75.75,0,0,1,0-1.5c1.93-.07,3.88-.11,5.79-.12a.75.75,0,1,1,0,1.5c-1.9,0-3.83,0-5.74.12Z"/><path class="cls-1" d="M484.84,145l2-10-9.39-1.84a22.67,22.67,0,0,0-1.24-7.34l7.74-5.19-5.7-8.48-7.4,5a22.84,22.84,0,0,0-7.6-5.11l1.84-9.39-10-2-1.89,9.67a23,23,0,0,0-6.1,1.19l-5.2-7.74-8.47,5.7,5,7.4a22.79,22.79,0,0,0-5.11,7.6L425,122.85l-2,10,8.5,1.67a22.91,22.91,0,0,0,1.8,7.73l-7.4,5,5.69,8.48,7.74-5.2a22.91,22.91,0,0,0,7.46,4.34L445,164.3l10,2L457,156a22.68,22.68,0,0,0,6.48-1.71l5,7.4L477,156l-5.19-7.74a22.55,22.55,0,0,0,3.4-5.19Zm-25.17-4a9.36,9.36,0,1,1,2.55-13A9.37,9.37,0,0,1,459.67,141Z"/><path class="cls-1" d="M436.82,89.55l1.05-5.36-5-1a12.37,12.37,0,0,0-.66-3.93l4.13-2.78-3-4.53-4,2.66a12.28,12.28,0,0,0-4.07-2.74l1-5-5.36-1.05-1,5.18a12.3,12.3,0,0,0-3.26.63l-2.78-4.14-4.54,3.05,2.66,4a12.3,12.3,0,0,0-2.73,4.07l-4.39-.87-1.06,5.36,4.55.9a12,12,0,0,0,1,4.13l-4,2.66,3.05,4.54,4.14-2.78a12.35,12.35,0,0,0,4,2.32l-1,5,5.36,1.05,1.08-5.47a12.3,12.3,0,0,0,3.47-.92l2.66,4,4.53-3-2.78-4.14a12.22,12.22,0,0,0,1.82-2.78Zm-13.46-2.14a5,5,0,1,1,1.36-7A5,5,0,0,1,423.36,87.41Z"/><path class="cls-1" d="M119.15,140.08l1.39-7.1-6.65-1.31a16,16,0,0,0-.88-5.19l5.48-3.68-4-6-5.25,3.53a16.14,16.14,0,0,0-5.38-3.63l1.31-6.65L98,108.65l-1.35,6.86a15.89,15.89,0,0,0-4.32.84l-3.68-5.48-6,4,3.52,5.24a16.4,16.4,0,0,0-3.62,5.39l-5.81-1.14-1.4,7.09,6,1.19a16,16,0,0,0,1.28,5.47l-5.25,3.53,4,6L87,144a16.17,16.17,0,0,0,5.28,3.07l-1.31,6.69,7.1,1.4,1.42-7.26a16.05,16.05,0,0,0,4.6-1.21l3.52,5.25,6-4-3.68-5.48a16.44,16.44,0,0,0,2.41-3.68Zm-17.83-2.84a6.63,6.63,0,1,1,1.81-9.21A6.65,6.65,0,0,1,101.32,137.24Z"/><path class="cls-1" d="M713.25,243.38l1.39-7.1L708,235a16.09,16.09,0,0,0-.88-5.2l5.48-3.68-4-6-5.25,3.52a16.06,16.06,0,0,0-5.38-3.62l1.3-6.66-7.1-1.39-1.34,6.86a16.13,16.13,0,0,0-4.32.84l-3.68-5.48-6,4,3.53,5.25a16,16,0,0,0-3.62,5.38l-5.82-1.14-1.39,7.1,6,1.18a16.26,16.26,0,0,0,1.27,5.48L671.53,245l4,6,5.48-3.68a16.21,16.21,0,0,0,5.29,3.07l-1.31,6.7,7.1,1.39,1.42-7.26a15.9,15.9,0,0,0,4.59-1.21l3.53,5.25,6-4L704,245.71a15.78,15.78,0,0,0,2.41-3.68Zm-17.83-2.84a6.63,6.63,0,1,1,1.81-9.2A6.63,6.63,0,0,1,695.42,240.54Z"/><path class="cls-2" d="M669.42,81.66h1.1a.56.56,0,0,0,.48-.28.54.54,0,0,0,0-.55l-.55-1a.56.56,0,0,0-.76-.2.55.55,0,0,0-.2.75l.08.13h-.15a.56.56,0,1,0,0,1.11Z"/><path class="cls-2" d="M668.51,78.72l-1-1.7a.55.55,0,1,1,1-.55l1,1.7a.55.55,0,0,1-.21.75A.53.53,0,0,1,669,79,.55.55,0,0,1,668.51,78.72Zm-2-3.4-1-1.7a.56.56,0,0,1,1-.56l1,1.7a.56.56,0,0,1-.2.76.57.57,0,0,1-.76-.2Zm-2-3.41-1-1.7a.55.55,0,1,1,.95-.55l1,1.7a.56.56,0,0,1-.21.76.52.52,0,0,1-.27.07A.55.55,0,0,1,664.58,71.91Z"/><path class="cls-2" d="M662,68.79a.54.54,0,0,0,.48-.28l.08-.13.07.13a.56.56,0,0,0,.76.2.55.55,0,0,0,.2-.75L663,67a.55.55,0,0,0-1,0l-.55,1a.54.54,0,0,0,.2.75A.56.56,0,0,0,662,68.79Z"/><path class="cls-2" d="M655.81,78.92a.55.55,0,0,1-.2-.75l1-1.7a.56.56,0,0,1,.76-.21.57.57,0,0,1,.2.76l-1,1.7a.55.55,0,0,1-.48.28A.57.57,0,0,1,655.81,78.92Zm2-3.4a.54.54,0,0,1-.2-.76l1-1.7a.56.56,0,0,1,1,.56l-1,1.7a.53.53,0,0,1-.48.27A.52.52,0,0,1,657.78,75.52Zm2-3.4a.57.57,0,0,1-.2-.76l1-1.7a.55.55,0,0,1,.76-.2.55.55,0,0,1,.2.75l-1,1.7a.55.55,0,0,1-.48.28A.58.58,0,0,1,659.74,72.12Z"/><path class="cls-2" d="M654.55,81.66h1.11a.56.56,0,0,0,0-1.11h-.15l.08-.13a.55.55,0,0,0-.21-.75.55.55,0,0,0-.75.2l-.56,1a.59.59,0,0,0,0,.55A.57.57,0,0,0,654.55,81.66Z"/><path class="cls-2" d="M657.07,81.11a.56.56,0,0,1,.56-.56h2a.56.56,0,0,1,0,1.11h-2A.56.56,0,0,1,657.07,81.11Zm3.93,0a.56.56,0,0,1,.56-.56h2a.56.56,0,0,1,0,1.11h-2A.56.56,0,0,1,661,81.11Zm3.93,0a.56.56,0,0,1,.56-.56h2a.56.56,0,1,1,0,1.11h-2A.56.56,0,0,1,664.93,81.11Z"/><path class="cls-2" d="M634.89,88.39a.56.56,0,0,1,.47-.63,7.36,7.36,0,0,0,2-.57.55.55,0,1,1,.46,1,8.48,8.48,0,0,1-2.27.67h-.07A.56.56,0,0,1,634.89,88.39Zm-1.74.47a8.52,8.52,0,0,1-2.26-.67.55.55,0,1,1,.46-1,7.36,7.36,0,0,0,2,.57.55.55,0,0,1-.08,1.1Zm-4.25-2a8.48,8.48,0,0,1-1.55-1.78.56.56,0,0,1,.17-.77.55.55,0,0,1,.76.17,7.36,7.36,0,0,0,1.34,1.55.55.55,0,0,1,.06.78.57.57,0,0,1-.42.19A.54.54,0,0,1,628.9,86.91Zm10.09,0a.55.55,0,0,1,0-.78,7.13,7.13,0,0,0,1.35-1.55.55.55,0,0,1,.76-.17.56.56,0,0,1,.17.77,8.48,8.48,0,0,1-1.55,1.78.56.56,0,0,1-.36.14A.57.57,0,0,1,639,86.86ZM626.37,83a8.37,8.37,0,0,1-.33-2.34.55.55,0,0,1,.55-.55.55.55,0,0,1,.55.55,7.32,7.32,0,0,0,.29,2,.54.54,0,0,1-.37.68l-.16,0A.56.56,0,0,1,626.37,83Zm15.24.37a.54.54,0,0,1-.37-.68,7.32,7.32,0,0,0,.29-2,.55.55,0,0,1,1.1,0A8.37,8.37,0,0,1,642.3,83a.56.56,0,0,1-.53.4A.45.45,0,0,1,641.61,83.35ZM626.74,79a.55.55,0,0,1-.37-.69,8.34,8.34,0,0,1,1-2.15.56.56,0,0,1,.77-.16.55.55,0,0,1,.16.76,7.18,7.18,0,0,0-.85,1.87.55.55,0,0,1-.53.39A.47.47,0,0,1,626.74,79Zm14.5-.38a7.62,7.62,0,0,0-.85-1.86.54.54,0,0,1,.16-.76.56.56,0,0,1,.77.16,8.19,8.19,0,0,1,1,2.15.56.56,0,0,1-.38.69l-.15,0A.56.56,0,0,1,641.24,78.61Zm-12.4-3.46a.55.55,0,0,1,.06-.78,8.35,8.35,0,0,1,2-1.28.56.56,0,0,1,.73.27.56.56,0,0,1-.27.74,7,7,0,0,0-1.73,1.11.53.53,0,0,1-.36.13A.55.55,0,0,1,628.84,75.15Zm10.2,0a7.09,7.09,0,0,0-1.72-1.1.55.55,0,0,1,.46-1,8.35,8.35,0,0,1,2,1.28.55.55,0,0,1,.05.78.53.53,0,0,1-.41.19A.54.54,0,0,1,639,75.2Zm-6.36-2.15a.55.55,0,0,1,.47-.62,8.11,8.11,0,0,1,2.36,0,.54.54,0,0,1,.47.62.55.55,0,0,1-.62.47,7.82,7.82,0,0,0-2.05,0h-.08A.56.56,0,0,1,632.68,73.05Z"/><path class="cls-2" d="M674,111.58a.57.57,0,0,1,.47-.63,7,7,0,0,0,2-.57.55.55,0,1,1,.46,1,8.17,8.17,0,0,1-2.26.67h-.08A.56.56,0,0,1,674,111.58Zm-1.74.47a8.17,8.17,0,0,1-2.26-.67.55.55,0,1,1,.46-1,7,7,0,0,0,2,.57.57.57,0,0,1,.47.63.56.56,0,0,1-.55.47Zm-4.25-2a8,8,0,0,1-1.55-1.78.55.55,0,0,1,.17-.76.54.54,0,0,1,.76.16,7.36,7.36,0,0,0,1.34,1.55.55.55,0,0,1,.06.78.54.54,0,0,1-.42.19A.5.5,0,0,1,668,110.1Zm10.09,0a.55.55,0,0,1,0-.78,7.13,7.13,0,0,0,1.35-1.55.55.55,0,0,1,.76-.17.56.56,0,0,1,.17.77,8.23,8.23,0,0,1-1.55,1.78.56.56,0,0,1-.36.14A.57.57,0,0,1,678.07,110.05Zm-12.62-3.88a8.37,8.37,0,0,1-.33-2.34.55.55,0,0,1,.55-.55.55.55,0,0,1,.55.55,7.32,7.32,0,0,0,.29,2,.56.56,0,0,1-.37.69l-.16,0A.56.56,0,0,1,665.45,106.17Zm15.24.38a.56.56,0,0,1-.37-.69,7.32,7.32,0,0,0,.29-2,.55.55,0,1,1,1.1,0,8.37,8.37,0,0,1-.33,2.34.56.56,0,0,1-.53.4Zm-14.87-4.37a.54.54,0,0,1-.37-.68,8,8,0,0,1,1-2.15.55.55,0,1,1,.93.6,7,7,0,0,0-.85,1.86.55.55,0,0,1-.53.39A.47.47,0,0,1,665.82,102.18Zm14.5-.37a7.52,7.52,0,0,0-.85-1.87.54.54,0,0,1,.16-.76.56.56,0,0,1,.77.16,8.19,8.19,0,0,1,1,2.15.55.55,0,0,1-.38.69.39.39,0,0,1-.15,0A.55.55,0,0,1,680.32,101.81Zm-12.4-3.47a.55.55,0,0,1,.06-.78,8.35,8.35,0,0,1,2-1.28.55.55,0,0,1,.46,1,7,7,0,0,0-1.73,1.11.53.53,0,0,1-.36.13A.55.55,0,0,1,667.92,98.34Zm10.2.06a7.13,7.13,0,0,0-1.72-1.11.55.55,0,0,1,.46-1,8.35,8.35,0,0,1,2,1.28.55.55,0,0,1,0,.78.53.53,0,0,1-.41.19A.58.58,0,0,1,678.12,98.4Zm-6.36-2.16a.55.55,0,0,1,.47-.62,8.48,8.48,0,0,1,2.36,0,.54.54,0,0,1,.47.62.54.54,0,0,1-.62.47,7.82,7.82,0,0,0-2.05,0h-.08A.56.56,0,0,1,671.76,96.24Z"/><path class="cls-2" d="M98.11,264.12h1.11a.56.56,0,0,0,.48-.28.54.54,0,0,0,0-.55l-.56-1a.55.55,0,1,0-1,.55l.07.13h-.15a.56.56,0,0,0,0,1.11Z"/><path class="cls-2" d="M97.2,261.18l-1-1.7a.56.56,0,1,1,1-.56l1,1.71a.55.55,0,0,1-.2.75.54.54,0,0,1-.76-.2Zm-2-3.41-1-1.7a.55.55,0,0,1,.95-.55l1,1.7A.56.56,0,0,1,96,258a.52.52,0,0,1-.27.07A.55.55,0,0,1,95.24,257.77Zm-2-3.4-1-1.7a.56.56,0,1,1,1-.56l1,1.71a.55.55,0,0,1-.2.75.57.57,0,0,1-.28.08A.55.55,0,0,1,93.27,254.37Z"/><path class="cls-2" d="M90.68,251.24a.56.56,0,0,0,.48-.27l.07-.13.08.13a.56.56,0,0,0,1-.56l-.56-1a.55.55,0,0,0-.48-.27.56.56,0,0,0-.48.27l-.55,1a.56.56,0,0,0,.2.76A.58.58,0,0,0,90.68,251.24Z"/><path class="cls-2" d="M84.51,261.38a.55.55,0,0,1-.21-.75l1-1.71a.55.55,0,0,1,.75-.2.54.54,0,0,1,.2.76l-1,1.7a.55.55,0,0,1-.48.28A.53.53,0,0,1,84.51,261.38Zm2-3.4a.56.56,0,0,1-.2-.76l1-1.7a.54.54,0,0,1,.76-.2.55.55,0,0,1,.2.75l-1,1.7a.56.56,0,0,1-.76.21Zm2-3.41a.55.55,0,0,1-.21-.75l1-1.71a.56.56,0,0,1,1,.56l-1,1.7a.55.55,0,0,1-.48.28A.53.53,0,0,1,88.44,254.57Z"/><path class="cls-2" d="M83.25,264.12h1.1a.56.56,0,1,0,0-1.11h-.14l.07-.13a.57.57,0,0,0-.2-.76.56.56,0,0,0-.76.21l-.55,1a.54.54,0,0,0,0,.55A.56.56,0,0,0,83.25,264.12Z"/><path class="cls-2" d="M85.77,263.56a.55.55,0,0,1,.55-.55h2a.56.56,0,1,1,0,1.11h-2A.55.55,0,0,1,85.77,263.56Zm3.93,0a.55.55,0,0,1,.55-.55h2a.56.56,0,0,1,0,1.11h-2A.55.55,0,0,1,89.7,263.56Zm3.93,0a.55.55,0,0,1,.55-.55h2a.56.56,0,0,1,0,1.11h-2A.56.56,0,0,1,93.63,263.56Z"/><path class="cls-2" d="M63.58,270.84a.55.55,0,0,1,.47-.62,7.19,7.19,0,0,0,2-.58.56.56,0,0,1,.73.27.56.56,0,0,1-.27.74,8.21,8.21,0,0,1-2.27.66h-.08A.56.56,0,0,1,63.58,270.84Zm-1.73.47a8.11,8.11,0,0,1-2.27-.66.56.56,0,0,1-.27-.74.55.55,0,0,1,.73-.27,7,7,0,0,0,2,.58.54.54,0,0,1,.47.62.55.55,0,0,1-.54.48Zm-4.26-1.94a8.24,8.24,0,0,1-1.54-1.79A.55.55,0,1,1,57,267a7.27,7.27,0,0,0,1.34,1.54.55.55,0,0,1,0,.78.53.53,0,0,1-.41.19A.58.58,0,0,1,57.59,269.37Zm10.09-.06a.55.55,0,0,1,.06-.78A7.27,7.27,0,0,0,69.08,267a.55.55,0,1,1,.93.59,8.29,8.29,0,0,1-1.55,1.79.53.53,0,0,1-.36.13A.55.55,0,0,1,67.68,269.31Zm-12.62-3.87a8.43,8.43,0,0,1-.33-2.34.56.56,0,1,1,1.11,0,6.85,6.85,0,0,0,.29,2,.56.56,0,0,1-.38.69.41.41,0,0,1-.16,0A.55.55,0,0,1,55.06,265.44Zm15.25.37a.56.56,0,0,1-.38-.69,7.2,7.2,0,0,0,.29-2,.56.56,0,1,1,1.11,0,8.08,8.08,0,0,1-.34,2.34.55.55,0,0,1-.53.39A.39.39,0,0,1,70.31,265.81Zm-14.87-4.36a.57.57,0,0,1-.38-.69,8.56,8.56,0,0,1,1-2.15.54.54,0,0,1,.76-.16.55.55,0,0,1,.17.76,6.8,6.8,0,0,0-.85,1.86.58.58,0,0,1-.54.4Zm14.49-.38a7.11,7.11,0,0,0-.85-1.86.55.55,0,1,1,.93-.6,8.19,8.19,0,0,1,1,2.15.56.56,0,0,1-.37.69l-.16,0A.56.56,0,0,1,69.93,261.07Zm-12.39-3.46a.55.55,0,0,1,.05-.78,8.35,8.35,0,0,1,2-1.28.55.55,0,0,1,.46,1,7.44,7.44,0,0,0-1.72,1.11.58.58,0,0,1-.36.14A.57.57,0,0,1,57.54,257.61Zm10.2.05A7.44,7.44,0,0,0,66,256.55a.55.55,0,1,1,.46-1,8.49,8.49,0,0,1,2,1.28.55.55,0,0,1,.06.78.59.59,0,0,1-.42.19A.54.54,0,0,1,67.74,257.66Zm-6.36-2.15a.55.55,0,0,1,.47-.63,8.48,8.48,0,0,1,2.36,0,.57.57,0,0,1,.47.63.56.56,0,0,1-.63.47,7,7,0,0,0-2,0h-.08A.55.55,0,0,1,61.38,255.51Z"/><path class="cls-2" d="M102.66,294a.55.55,0,0,1,.47-.62,7.19,7.19,0,0,0,2-.58.55.55,0,0,1,.46,1,8.21,8.21,0,0,1-2.27.66h-.08A.56.56,0,0,1,102.66,294Zm-1.73.47a8.11,8.11,0,0,1-2.27-.66.55.55,0,0,1-.27-.73.55.55,0,0,1,.73-.28,7,7,0,0,0,2,.58.54.54,0,0,1,.47.62.55.55,0,0,1-.54.48Zm-4.26-1.94a8.73,8.73,0,0,1-1.54-1.78.55.55,0,1,1,.93-.6,7.33,7.33,0,0,0,1.34,1.55.55.55,0,0,1-.36,1A.59.59,0,0,1,96.67,292.56Zm10.09-.05a.57.57,0,0,1,.06-.79,7.27,7.27,0,0,0,1.34-1.54.55.55,0,1,1,.93.6,8.48,8.48,0,0,1-1.55,1.78.54.54,0,0,1-.36.14A.59.59,0,0,1,106.76,292.51Zm-12.62-3.88a8.43,8.43,0,0,1-.33-2.34.56.56,0,0,1,1.11,0,7,7,0,0,0,.29,2,.56.56,0,0,1-.38.68.41.41,0,0,1-.16,0A.56.56,0,0,1,94.14,288.63Zm15.25.37a.55.55,0,0,1-.38-.68,7.32,7.32,0,0,0,.29-2,.56.56,0,0,1,1.11,0,8.08,8.08,0,0,1-.34,2.34.55.55,0,0,1-.53.39A.39.39,0,0,1,109.39,289Zm-14.87-4.36a.57.57,0,0,1-.38-.69,8.56,8.56,0,0,1,1-2.15.55.55,0,0,1,.93.6,6.94,6.94,0,0,0-.85,1.86.58.58,0,0,1-.54.4Zm14.49-.38a7.11,7.11,0,0,0-.85-1.86.55.55,0,0,1,.93-.6,8.19,8.19,0,0,1,1,2.15.56.56,0,0,1-.37.69l-.16,0A.56.56,0,0,1,109,284.26ZM96.62,280.8a.55.55,0,0,1,0-.78,8.35,8.35,0,0,1,2-1.28.54.54,0,0,1,.73.27.56.56,0,0,1-.27.74,7.09,7.09,0,0,0-1.72,1.1A.58.58,0,0,1,97,281,.57.57,0,0,1,96.62,280.8Zm10.2.05a7.44,7.44,0,0,0-1.72-1.11.55.55,0,1,1,.46-1,8.29,8.29,0,0,1,2,1.28.55.55,0,0,1,.06.78.57.57,0,0,1-.42.19A.54.54,0,0,1,106.82,280.85Zm-6.36-2.15a.56.56,0,0,1,.47-.63,8.48,8.48,0,0,1,2.36,0,.57.57,0,0,1,.47.63.56.56,0,0,1-.63.47,7,7,0,0,0-2,0H101A.54.54,0,0,1,100.46,278.7Z"/><path class="cls-1" d="M83.18,389.78a5,5,0,0,1-3,1.1,7.45,7.45,0,0,1-2.09-.14,11.55,11.55,0,0,1-2.88-1s.46-19.68-7.5-33.24-18.49-32.28-10.07-41.89,22,3.75,26.46,26.23S83.18,389.78,83.18,389.78Z"/><path class="cls-3" d="M80.2,390.88a7.45,7.45,0,0,1-2.09-.14c2.55-34.94-13.31-61.92-13.47-62.2a1,1,0,1,1,1.8-1.08C66.61,327.73,82.81,355.26,80.2,390.88Z"/><path class="cls-1" d="M110.48,358c-18.62,30.1-17.34,37.06-17.34,37.06l-2.44-.43-2.08-.37-3-.52C84,380.4,94.26,324,112.54,324,131.16,324,116.82,347.77,110.48,358Z"/><path class="cls-3" d="M109.78,340.69c-.18.3-15.77,28.12-19.08,54l-2.08-.37C92,368,107.77,340,107.94,339.65a1.06,1.06,0,0,1,1.84,1Z"/><path class="cls-1" d="M75.06,392.45l-2.15.57-2,.56-1.23.33c.08-.27-.85-2.57-13.95-20.08-5.41-7.23-19.84-26.69-6.61-29.95C61.2,340.88,75.41,382.37,75.06,392.45Z"/><path class="cls-3" d="M72.91,393l-2,.56C67.08,376.71,51.75,356,51.58,355.79a1.08,1.08,0,0,1,.22-1.48,1.05,1.05,0,0,1,1.47.22C54,355.44,69,375.77,72.91,393Z"/><path class="cls-3" d="M101,437a348.65,348.65,0,0,1-41.65,0V387.52a1,1,0,0,1,1-1H100a1,1,0,0,1,1,1Z"/><path class="cls-3" d="M513.45,434.56c4-8.06,10.58-23.21,13.13-38.63,4-24.37,15.39-26,19.87-19.24,10.84,16.24-10.72,44.48-22.47,57.87Z"/><path class="cls-4" d="M532.37,408.44a160.12,160.12,0,0,1-13.82,26.12h-1.3A158.81,158.81,0,0,0,531.36,408a165.84,165.84,0,0,0,6.73-18.81.54.54,0,0,1,.67-.38.53.53,0,0,1,.38.66A168.46,168.46,0,0,1,532.37,408.44Z"/><path class="cls-1" d="M517.36,434.56c9.42-9.84,25.5-28.21,36-48.77,16.94-33,33.93-30.07,37.27-18.4,7.14,25-26.49,51.82-50.21,67.17Z"/><path class="cls-3" d="M527.64,434.56h-2.56A242,242,0,0,0,554.7,405.3,252.09,252.09,0,0,0,573,381.47a.81.81,0,0,1,1.13-.24.82.82,0,0,1,.24,1.13,254.94,254.94,0,0,1-18.38,24A246.76,246.76,0,0,1,527.64,434.56Z"/><path class="cls-1" d="M630,358.75c.8-16.06,4.52-31.11,11.78-26.11s.39,30.8-13,46.41l-3.3,6.4c9.58-11.55,26.4-20,32-14.95s-6.17,9.57-17.56,12c-8.66,1.83-13.92,5-16.42,6.9L607.89,419.6c15.23-18.24,41.78-31.49,50.59-23.56s-9.78,15.17-27.85,19c-13.65,2.88-22,7.89-26,10.88l-3.1,6-3.39-1.15,18.52-36A45.91,45.91,0,0,0,612.89,381c-4.66-10.66-7.73-22.85-.46-21.24,6.31,1.4,9.35,15.4,7.61,28.54l6.41-12.45A66.73,66.73,0,0,0,630,358.75Z"/><path class="cls-1" d="M190.65,358.75c-.8-16.06-4.52-31.11-11.79-26.11s-.38,30.8,13,46.41l3.3,6.4c-9.59-11.55-26.4-20-32-14.95s6.17,9.57,17.55,12c8.67,1.83,13.93,5,16.43,6.9l15.56,30.23C197.55,401.36,171,388.11,162.18,396S172,411.21,190,415c13.65,2.88,22,7.89,26,10.88l3.1,6,3.38-1.15-18.51-36A45.61,45.61,0,0,1,207.78,381c4.66-10.66,7.73-22.85.46-21.24-6.31,1.4-9.35,15.4-7.62,28.54l-6.4-12.45A66.3,66.3,0,0,1,190.65,358.75Z"/><ellipse class="cls-1" cx="156.05" cy="435.18" rx="52.98" ry="6.57"/><path class="cls-5" d="M242.66,159.77a99.32,99.32,0,0,1-12.84,14.14A87.54,87.54,0,0,1,214,185.29a7.23,7.23,0,0,1-7.27-.1l-.82-.5-31-18.64a10.32,10.32,0,0,1,10.64-17.69,12.07,12.07,0,0,1,1.08.74l24.94,19.7a73.68,73.68,0,0,0,9.55-5.71,86.1,86.1,0,0,0,12.55-11l0,0a5.92,5.92,0,0,1,9,7.65Z"/><path class="cls-6" d="M247.19,154.47h0l-.24.06s-.1.18-.28.47c-.89,1.41-3.78,5.4-7.21,4.06-.27-.1-.53-.22-.78-.34s-.53-.29-.78-.45a11.45,11.45,0,0,1-4.21-5s-.82-7,2-8.7c1.64-1,2.6-.7,3.11-.3a1.72,1.72,0,0,1,.51.64l.42-.52c1.5-1.87,6.6-8.13,7.86-8.27,1.48-.15-3.75,8.74-3.75,8.74s1.24-.38,3.8,2.18S251.14,153.43,247.19,154.47Z"/><path class="cls-7" d="M243,150.82a.37.37,0,0,1-.36-.31.36.36,0,0,1,.3-.41s1.05-.23,2.09-2a.37.37,0,1,1,.63.37c-1.25,2.14-2.55,2.37-2.61,2.38Z"/><path class="cls-7" d="M244.55,153.21a.38.38,0,0,1-.36-.27.37.37,0,0,1,.26-.45,4.27,4.27,0,0,0,2.53-2.18.37.37,0,0,1,.48-.19.37.37,0,0,1,.19.48,4.94,4.94,0,0,1-3,2.59Z"/><path class="cls-7" d="M241.27,148.59a2,2,0,0,1-1.56.51,15.77,15.77,0,0,1-4.55-1,.38.38,0,0,1-.22-.47.37.37,0,0,1,.47-.22c1.83.68,4.78,1.39,5.29.75.18-.22,0-.74-.41-1.44l-1.48-2.42a1.72,1.72,0,0,1,.51.64l.42-.52,1.17,1.92C241.14,146.68,241.88,147.84,241.27,148.59Z"/><path class="cls-7" d="M247.18,154.47l-.24.06s-.1.18-.28.47c-6-3.51-4.4-8.61-4.38-8.66a.36.36,0,0,1,.46-.23.37.37,0,0,1,.23.46C242.9,146.77,241.51,151.27,247.18,154.47Z"/><polygon class="cls-8" points="159.85 292.58 151.87 413.1 164.97 412.29 193.28 261.95 162.45 263 159.85 292.58"/><path class="cls-6" d="M152.79,412.25l-.93,11.46a15.8,15.8,0,0,0,10,1.22l1.9-13.55Z"/><path class="cls-9" d="M166.68,409.85a11.36,11.36,0,0,1-.52,7l-15.71-.74a18.22,18.22,0,0,1-.13-6.9Z"/><path class="cls-5" d="M189.17,436.84c-.85,1.81-38.18-.13-38.18-.13s-1.19-11.09,0-14.5,6.61.42,10.35-.44c0,0,2.23-3.09,4.05-3,.66,0,3,1.55,5.95,3.49l1.47,1c.35.24.71.47,1.07.7l1.77,1.16.67.43h0c.54.36,1.09.7,1.63,1,3.27,2,6.37,3.76,8.16,4.08C190.9,431.49,190,435,189.17,436.84Z"/><path class="cls-10" d="M175.63,425.09a3.4,3.4,0,0,0-2,.4,9,9,0,0,0-2.89,3.15.65.65,0,0,1-.38.31.66.66,0,0,1-.53-.05.67.67,0,0,1-.26-.91A10.26,10.26,0,0,1,173,424.3a5.1,5.1,0,0,1,.89-.37C174.84,424,175.66,424.24,175.63,425.09Z"/><path class="cls-10" d="M172.79,423.23a3.74,3.74,0,0,0-1.23.4,9,9,0,0,0-2.88,3.15.7.7,0,0,1-.39.31.63.63,0,0,1-.52,0,.66.66,0,0,1-.27-.91,10.36,10.36,0,0,1,3.44-3.69l.38-.17C172,422.32,172.65,422.28,172.79,423.23Z"/><path class="cls-10" d="M177.94,426.56a3.48,3.48,0,0,0-1.62.42,9.26,9.26,0,0,0-2.89,3.15.63.63,0,0,1-.38.32.68.68,0,0,1-.79-1,10.26,10.26,0,0,1,3.44-3.68,6.37,6.37,0,0,1,.6-.28h0C177.37,425.42,178,425.69,177.94,426.56Z"/><path class="cls-9" d="M122.28,413.56l11.66.53,29.88-70.61L170,267l-27.36-4.16-1.52-.23-4.57-.7c2,16.34,4.85,74.12,4.85,74.12a255.24,255.24,0,0,0-9,26.14C128.34,376.42,122.28,413.56,122.28,413.56Z"/><path class="cls-8" d="M124.88,412.79H125a.75.75,0,0,0,.74-.61c.07-.39,7.12-39.14,11.31-51.44,2.75-8.1,9.67-24.29,9.74-24.45a.66.66,0,0,0,.06-.34l-4.27-73.08-1.52-.23,4.29,73.22c-.74,1.73-7.1,16.68-9.72,24.39-4.23,12.41-11.3,51.27-11.37,51.66A.75.75,0,0,0,124.88,412.79Z"/><path class="cls-6" d="M123.94,412.05l-3.38,11.66a15.78,15.78,0,0,0,10,1.22l3.37-13.67Z"/><path class="cls-11" d="M137.13,410.8c.58,2.8.41,4.87-1.72,6.58l-16.4-1a11.2,11.2,0,0,1,.57-6.68Z"/><path class="cls-2" d="M157.15,436.84c-.85,1.81-38.19-.13-38.19-.13s-1.18-11.09,0-14.5,6.61.42,10.34-.44c0,0,2.24-3.09,4.05-3,.67,0,3,1.55,5.95,3.49l1.48,1,1.06.7,1.77,1.16.68.43h0c.54.36,1.09.7,1.63,1,3.28,2,6.37,3.76,8.17,4.08C158.88,431.49,158,435,157.15,436.84Z"/><path class="cls-10" d="M143.6,425.09a3.41,3.41,0,0,0-2,.4,9.2,9.2,0,0,0-2.89,3.15.65.65,0,0,1-.38.31.66.66,0,0,1-.53-.05.67.67,0,0,1-.26-.91,10.26,10.26,0,0,1,3.44-3.69,5.1,5.1,0,0,1,.89-.37C142.81,424,143.63,424.24,143.6,425.09Z"/><path class="cls-10" d="M140.77,423.23a3.71,3.71,0,0,0-1.24.4,9.1,9.1,0,0,0-2.88,3.15.7.7,0,0,1-.39.31.64.64,0,0,1-.52,0,.66.66,0,0,1-.26-.91,10.2,10.2,0,0,1,3.43-3.69l.38-.17C139.92,422.32,140.62,422.28,140.77,423.23Z"/><path class="cls-10" d="M145.91,426.56a3.48,3.48,0,0,0-1.62.42,9.08,9.08,0,0,0-2.88,3.15.68.68,0,0,1-.39.32.68.68,0,0,1-.79-1,10.36,10.36,0,0,1,3.44-3.68,5.51,5.51,0,0,1,.61-.28h0C145.34,425.42,146,425.69,145.91,426.56Z"/><path class="cls-2" d="M191.22,267c-5.8,3-44.12,2.46-52.7-2.44-2.65-1.51-3.87-11.27-4.24-24.35,0-.59,0-1.19,0-1.79-.06-2.4-.08-4.9-.08-7.47v-.78c0-1.14,0-2.29,0-3.45,0-.94,0-1.9,0-2.86,0-1.17,0-2.36.06-3.54,0-.22,0-.44,0-.66,0-.55,0-1.1,0-1.65l0-1.41,0-1.23c0-.39,0-.77,0-1.16.06-2.07.13-4.15.2-6.22,0-.61,0-1.21.07-1.82.13-3.15.27-6.27.42-9.33,0-.26,0-.52,0-.78l.12-2.19c0-.31,0-.63.05-.94s0-.68.05-1,0-.87.08-1.3,0-.68.05-1l.06-.94c0-.8.09-1.58.14-2.36,0-.26,0-.52.05-.77.85-13.59,1.82-24.36,2.36-27.48,1.74-10.17,26.28-20.28,26.28-20.28l11.13,3.61c.65.21,1.28.45,1.9.72.39.17.78.35,1.15.54a21.27,21.27,0,0,1,11.55,21.19c-.38,3.6-.53,7.57-.55,11.68,0,.68,0,1.36,0,2.05,0,2,0,3.95.09,5.92l.06,2v.08c0,.34,0,.68,0,1l0,.94,0,1c0,1.08.09,2.15.13,3.21,0,.32,0,.64,0,1,0,.87.07,1.74.11,2.58,0,.33,0,.65,0,1,.06,1.49.12,2.94.16,4.34,0,.41,0,.82,0,1.22l0,1.11q0,.58,0,1.14c.05,2,.06,3.82,0,5.44,0,.17,0,.33,0,.5,0,.51,0,1,0,1.57,0,2.13,0,4.48.19,7l.06,1c0,.31,0,.61,0,.92s.05.66.07,1c.06.79.11,1.6.18,2.42,0,.4.07.8.1,1.21a.57.57,0,0,0,0,.13v.06c0,.3.05.61.08.92,0,0,0,.08,0,.12l.15,1.74c0,.26,0,.52.07.78.07.8.15,1.6.22,2.41l.42,4.35C193.42,250.69,194.81,265.16,191.22,267Z"/><path class="cls-12" d="M179.11,248.38a43.13,43.13,0,0,1-19.9-5.31,50.7,50.7,0,0,1-10.65-7.42.62.62,0,0,1,.86-.9A51.09,51.09,0,0,0,159.83,242c5.83,3.08,14.89,6.4,24.91,4.66a.62.62,0,0,1,.72.51.63.63,0,0,1-.51.73A34.61,34.61,0,0,1,179.11,248.38Z"/><path class="cls-12" d="M167.83,164.79a.63.63,0,0,1-.16-1.23c.09,0,9.64-2.73,14.38-11.68a.62.62,0,0,1,1.1.58c-5,9.45-14.74,12.2-15.15,12.31Z"/><path class="cls-12" d="M152.68,206.89a.64.64,0,0,1-.58-.38c-6.07-14,2.26-39.68,2.62-40.77a.62.62,0,0,1,.79-.39.62.62,0,0,1,.39.78c-.08.27-8.53,26.34-2.65,39.89a.63.63,0,0,1-.32.82A.74.74,0,0,1,152.68,206.89Z"/><path class="cls-12" d="M154,171.2a.62.62,0,0,1-.34-1.15l4.67-3a.63.63,0,1,1,.68,1.05l-4.67,3A.61.61,0,0,1,154,171.2Z"/><path class="cls-12" d="M134.31,218.05c1.7,3.37,3.47,6.35,4.81,7.36.3.22.92.68,4.86,1,3.68.34,10.23.59,22.1.49,7.49-.06,19.9-.41,25-.56,0,0,0-.08,0-.12,0-.31-.05-.62-.08-.92-18.81.56-49,.74-51.18-.9-1.4-1.05-3.51-4.89-5.48-9Z"/><path class="cls-2" d="M138.15,155.55l-.25.6-.2.5-.38,1c-.25.64-.48,1.27-.71,1.91-.45,1.26-.87,2.52-1.27,3.78-.8,2.53-1.51,5.07-2.13,7.65a101,101,0,0,0-2.55,15.87,73.28,73.28,0,0,0,.56,16.68,56.11,56.11,0,0,0,2,8.49c.44,1.41,1,2.81,1.53,4.19s1.23,2.75,1.93,4.09h0l.48.83a8.36,8.36,0,0,0,7.26,4.19c4.79,0,9.54,0,14.3-.09s9.53-.11,14.29-.2c9.53-.17,22.76-2.08,32.33-2.51,1.44-.22,1.67-1,1.53-4.06a5.48,5.48,0,0,0-5-5.22h0c-9.35-.9-18.72-2-28.09-3.16-4.69-.58-9.37-1.19-14-1.8s-9.38-1.25-14-1.9l7.73,5h0A34,34,0,0,1,150,200.58a53.67,53.67,0,0,1-.39-12.34,81.18,81.18,0,0,1,2.07-12.83c.51-2.14,1.11-4.27,1.77-6.36.33-1.05.68-2.09,1.05-3.11.18-.51.37-1,.56-1.51l.28-.72.24-.58.12-.3a9.5,9.5,0,0,0-17.55-7.28Z"/><path class="cls-12" d="M144.3,211.22a.61.61,0,0,0,.41-.16s5.45-4.73,10.63-3.7a.63.63,0,0,0,.74-.49.62.62,0,0,0-.49-.73c-5.8-1.15-11.47,3.78-11.71,4a.62.62,0,0,0,0,.88A.61.61,0,0,0,144.3,211.22Z"/><path class="cls-12" d="M150.48,207.76a.62.62,0,0,0,.51-.26.62.62,0,0,0-.14-.87c-2.08-1.52-6.08-1.84-6.25-1.85a.62.62,0,0,0-.67.57.63.63,0,0,0,.58.67s3.81.31,5.61,1.62A.62.62,0,0,0,150.48,207.76Z"/><path class="cls-8" d="M191.2,114.34s3.81-.24,5.77-7.09c2.32-8.07-6.58-1.9-13.31-2.7s-16.64-.19-20,5.48-1,12-1,12Z"/><path class="cls-6" d="M165.29,141.27s-1.81-1.68-2.66-2.58c2-2.47,5.86-8,6.28-13.51l13.9,10.14s-.36.66-1,1.73l-.1.18a.05.05,0,0,0,0,0c-.45.75-1,1.68-1.66,2.71l-.75,1.16c-.23.35-.47.72-.72,1.08a54.28,54.28,0,0,1-4.11,5.38C171.34,146.23,165.29,141.27,165.29,141.27Z"/><path class="cls-7" d="M181.83,137.05l-.1.18a.05.05,0,0,0,0,0c-.45.75-1,1.68-1.66,2.71l-.75,1.16c-.23.35-.47.72-.72,1.08-1.42-3-1.61-7.73-1.65-7.83Z"/><path class="cls-6" d="M164.52,125.24a44.76,44.76,0,0,0,5.32,4.86c6.55,5.23,15.49,10.58,18.07,11,1.91.33,3.29-.75,4.16-4.07.13-.52.26-1,.38-1.61L193,132c.06-.39.11-.8.16-1.21,1-.13,3-.49,2.69-1.08-.36-.74-2.23-4.37-2.3-4.52h0a35.58,35.58,0,0,0-.54-7.35,7.12,7.12,0,0,0-.79-2.12,7.2,7.2,0,0,0-3.57-3.09c-4.61-1.85-13.3-5-18.06-4.23C163.94,109.44,159.09,119.13,164.52,125.24Z"/><path class="cls-7" d="M183.54,128.2c0,.82,1.22,1.55,2.82,1.63s2.93-.52,3-1.34-1.22-1.54-2.82-1.62S183.58,127.38,183.54,128.2Z"/><path class="cls-8" d="M193.2,130.82s-4.57-2-7.63-.46-3.58-1.44-3-3.27,0-5.89,0-5.89l-1.3.08s.35,5.87-1.68,7.3-1.15,9.31,1.81,11.46,7.09,4,9.6,2.14S193.2,130.82,193.2,130.82Z"/><path class="cls-11" d="M191,134.69h.21a.37.37,0,0,0,.35-.37.35.35,0,0,0-.37-.35,2.79,2.79,0,0,1-2.39-1.57.36.36,0,0,0-.48-.17.36.36,0,0,0-.17.48A3.53,3.53,0,0,0,191,134.69Z"/><path class="cls-8" d="M191.57,124c0,.67-.22,1.23-.59,1.25s-.7-.49-.74-1.16.22-1.23.59-1.25S191.53,123.31,191.57,124Z"/><path class="cls-8" d="M187.93,122.68a.73.73,0,0,1-.25-.08.59.59,0,0,1-.2-.8A4,4,0,0,1,192.1,120a.58.58,0,1,1-.36,1.1,2.89,2.89,0,0,0-3.27,1.32A.59.59,0,0,1,187.93,122.68Z"/><path class="cls-7" d="M178.72,126.23a.4.4,0,0,1-.36-.36,6.76,6.76,0,0,0-2.23-4.27.4.4,0,0,1-.06-.56.39.39,0,0,1,.56-.07,7.37,7.37,0,0,1,2.53,4.81.41.41,0,0,1-.36.45Z"/><path class="cls-7" d="M175.78,124.05a.39.39,0,0,1-.33-.24.4.4,0,0,1,.21-.53,4.53,4.53,0,0,1,2.44-.33.4.4,0,0,1,.29.49.39.39,0,0,1-.49.29A3.58,3.58,0,0,0,176,124,.35.35,0,0,1,175.78,124.05Z"/><path class="cls-8" d="M170.62,108.42c4.76-.73,13.45,2.38,18.06,4.23a7.26,7.26,0,0,1,2.52,1.69,23.66,23.66,0,0,1-4.28-1c-1.07,1.45-2.53,2.67-3.94,2.67-.08,1.78-.35,3.41-.44,5.23a6.35,6.35,0,0,1-1.3.08s-2.86-5.13-7.05-2.17c-2.39,1.68-1.82,4.87-.09,7.17-.95,2.52-2.77,3.91-4.26,3.82a44.76,44.76,0,0,1-5.32-4.86C159.09,119.13,163.94,109.44,170.62,108.42Z"/><path class="cls-10" d="M191.79,118.51c-1.29-.14-2.56,2-2.88,4.91s.44,5.27,1.74,5.42,2.48-1.88,2.85-4.64l0-.27a2,2,0,0,0,0-.23C193.81,120.91,193.05,118.65,191.79,118.51Zm-1.09,9.83c-.86-.09-1.6-2.12-1.3-4.87s1.48-4.56,2.34-4.47,1.59,2,1.31,4.76c0,0,0,.07,0,.12s0,.32-.07.48C192.59,126.87,191.53,128.44,190.7,128.34Z"/><path class="cls-10" d="M194,124.42a.24.24,0,0,1-.34-.06.48.48,0,0,0-.16-.16l-.08,0a.53.53,0,0,0-.3.12.21.21,0,0,1-.15.07c0-.16.05-.32.07-.48s0-.09,0-.12a.71.71,0,0,1,.42-.08l.08,0a.82.82,0,0,1,.52.38A.24.24,0,0,1,194,124.42Z"/><path class="cls-10" d="M189.25,122.69l-6.65-.93c0,.17.05.34.08.51l6.51.91h0a.25.25,0,1,0,.06-.49Z"/><rect class="cls-9" x="187.51" y="211.88" width="51.68" height="4.61"/><polygon class="cls-9" points="252.27 170.57 235.12 214.91 239.2 216.49 256.88 170.57 252.27 170.57"/><path class="cls-6" d="M217.88,218.08a11.8,11.8,0,0,1-1.78,1.3c-2.87,1.76-7.95,4-13.55,2.73a15.57,15.57,0,0,1-8.6-5.6s.59-3.52,2.74-4.3c1.83-.67.52,2.22,1,3.13s7.14,1.25,11.07.85a45.43,45.43,0,0,1,6.3-.16l.81,0,1.32.09a1,1,0,0,1,.58.21,1.09,1.09,0,0,1,.07,1.72Z"/><path class="cls-7" d="M218.15,216.76a14.17,14.17,0,0,1-5.88,3.28h-.07a.26.26,0,0,1-.08-.51,13.61,13.61,0,0,0,5.69-3.18A1.1,1.1,0,0,1,218.15,216.76Z"/><path class="cls-7" d="M215.91,216.06a15.22,15.22,0,0,1-5.32,2.77h-.08a.26.26,0,0,1-.25-.18.26.26,0,0,1,.17-.32A15.51,15.51,0,0,0,215.1,216Z"/><path class="cls-13" d="M574.39,98.91V309.14a7.17,7.17,0,0,1-7.16,7.16H473.34a7.17,7.17,0,0,1-7.16-7.16V98.91a5.34,5.34,0,0,1,5.34-5.33h97.53A5.34,5.34,0,0,1,574.39,98.91Z"/><path class="cls-14" d="M558.19,219.7H486.1a2.37,2.37,0,0,1-2.37-2.38h0A2.37,2.37,0,0,1,486.1,215h72.09a2.37,2.37,0,0,1,2.37,2.37h0A2.37,2.37,0,0,1,558.19,219.7Z"/><path class="cls-14" d="M558.19,234.78H486.1a2.38,2.38,0,0,1-2.37-2.38h0A2.38,2.38,0,0,1,486.1,230h72.09a2.38,2.38,0,0,1,2.37,2.38h0A2.38,2.38,0,0,1,558.19,234.78Z"/><g class="cls-15"><path class="cls-14" d="M558.19,249.85H486.1a2.37,2.37,0,0,1-2.37-2.37h0a2.37,2.37,0,0,1,2.37-2.38h72.09a2.37,2.37,0,0,1,2.37,2.38h0A2.37,2.37,0,0,1,558.19,249.85Z"/></g><g class="cls-15"><path class="cls-14" d="M558.19,264.93H486.1a2.37,2.37,0,0,1-2.37-2.38h0a2.37,2.37,0,0,1,2.37-2.37h72.09a2.37,2.37,0,0,1,2.37,2.37h0A2.37,2.37,0,0,1,558.19,264.93Z"/></g><path class="cls-14" d="M558.19,280H486.1a2.38,2.38,0,0,1-2.37-2.38h0a2.38,2.38,0,0,1,2.37-2.38h72.09a2.38,2.38,0,0,1,2.37,2.38h0A2.38,2.38,0,0,1,558.19,280Z"/><path class="cls-14" d="M558.19,295.09H486.1a2.38,2.38,0,0,1-2.37-2.38h0a2.38,2.38,0,0,1,2.37-2.38h72.09a2.38,2.38,0,0,1,2.37,2.38h0A2.38,2.38,0,0,1,558.19,295.09Z"/><path class="cls-16" d="M574.39,98.91v14.8H466.18V98.91a5.34,5.34,0,0,1,5.34-5.33h97.53A5.34,5.34,0,0,1,574.39,98.91Z"/><path class="cls-2" d="M548.19,102.67a3.52,3.52,0,1,1-3.52-3.51A3.52,3.52,0,0,1,548.19,102.67Z"/><path class="cls-12" d="M559.59,102.67a3.52,3.52,0,1,1-3.52-3.51A3.52,3.52,0,0,1,559.59,102.67Z"/><path class="cls-8" d="M570.51,102.67A3.52,3.52,0,1,1,567,99.16,3.52,3.52,0,0,1,570.51,102.67Z"/><path class="cls-12" d="M550.14,142.35A35.57,35.57,0,0,0,523,129.74h-1.08c-.59,0-1.19.05-1.78.1l-.35,0-.52.05-.38,0-.48.06-.45.06-.54.08-.37.06-.34.06-.31.06-.43.08-.52.11-.48.11q-.78.18-1.56.39l-.36.11c-.47.14-.94.28-1.41.44s-.92.32-1.38.5-.91.35-1.36.55l-.44.2-.44.2c-.15.06-.3.14-.44.21l-.39.18-.08.05c-.28.13-.56.28-.83.42l-.33.18c-.18.09-.35.19-.52.29l-.42.24-.42.25-.84.53c-.79.51-1.57,1-2.32,1.62l0,0c-.64.49-1.26,1-1.86,1.52l-.37.32-.7.65-.35.34-.34.33-.67.69-.33.35-.64.72-.32.36c-.1.13-.2.25-.31.37l-.34.42-.49.62a35.66,35.66,0,0,0,27.09,57.33l1.22,0a35.65,35.65,0,0,0,27.18-58.73Zm-25.76,48.26c-.47,0-1,0-1.42,0a25.27,25.27,0,0,1-25.24-25.24A25,25,0,0,1,501,153a23.84,23.84,0,0,1,1.35-2.13q.44-.61.9-1.2a25.23,25.23,0,1,1,21.15,40.91Z"/><path class="cls-16" d="M524.38,190.61l-2.64,10.45a35.66,35.66,0,0,1-27.09-57.33c.27-.35.55-.7.83-1l6.85,8.21A25.22,25.22,0,0,0,523,190.65C523.43,190.65,523.91,190.63,524.38,190.61Z"/><path class="cls-2" d="M550.14,142.35l-5.67,9.88a25.21,25.21,0,0,0-41.24-2.53q-.47.59-.9,1.2A23.84,23.84,0,0,0,501,153l-6.33-9.3.49-.62.34-.42c.11-.12.21-.24.31-.37l.32-.36.64-.72.33-.35.67-.69.34-.33.35-.34.7-.65.37-.32c.6-.53,1.22-1,1.86-1.52l0,0c.75-.57,1.53-1.11,2.32-1.62l.84-.53.42-.25.42-.24c.17-.1.34-.2.52-.29l.33-.18c.27-.15.55-.29.83-.42l.08-.05.39-.18c.14-.07.29-.15.44-.21l.44-.2.44-.2c.45-.2.9-.38,1.36-.55s.92-.35,1.38-.5.94-.31,1.41-.44l.36-.11q.78-.21,1.56-.39l.48-.11.52-.11.43-.08.31-.06.34-.06.37-.06.54-.08.45-.06.48-.06.38,0,.52-.05.35,0c.59-.05,1.19-.08,1.78-.1H523A35.57,35.57,0,0,1,550.14,142.35Z"/><ellipse class="cls-1" cx="622.31" cy="435.53" rx="74.38" ry="6.57"/><path class="cls-8" d="M595.52,174.93c-3.74-1.29-.18-16.82,1.17-19.12,3.84-6.55-1-16-1-16,3-.88,10.65,3.76,12.33,13.26.63,3.57.23,8.78-.78,14.11C603.08,166.14,599.72,175.75,595.52,174.93Z"/><path class="cls-5" d="M605.75,158.83a9.38,9.38,0,0,0-9.53,9.21s0,.06,0,.1l0,.13,0,.27-.11.55-.23,1.11c-.15.75-.32,1.5-.49,2.26q-.51,2.25-1.08,4.5c-.77,3-1.62,5.93-2.57,8.78a64.57,64.57,0,0,1-3.21,8,27.08,27.08,0,0,1-1.81,3.17c-.3.43-.59.8-.81,1.06s-.38.39-.33.41h0a0,0,0,0,1,0,0s0,0,0,0h0l0,0-.09,0a2.33,2.33,0,0,1-.5.2,10.09,10.09,0,0,1-1.54.39,30.52,30.52,0,0,1-4,.43c-1.43.08-2.92.09-4.43.06l-.55,0v13.3c1.61.19,3.24.33,4.93.41a44.56,44.56,0,0,0,5.75-.07,28.16,28.16,0,0,0,3.27-.46,17.21,17.21,0,0,0,1.83-.48l.49-.16.24-.08.12,0,.14-.05.6-.26.3-.13.27-.13a17.1,17.1,0,0,0,3.6-2.45,23.65,23.65,0,0,0,2.5-2.52,40.83,40.83,0,0,0,3.59-4.94,80,80,0,0,0,5-9.67c1.43-3.21,2.69-6.42,3.87-9.65q.87-2.41,1.68-4.86c.26-.81.53-1.63.79-2.45l.38-1.25L614,173l.2-.69.44-1.53a9.85,9.85,0,0,0,.35-2.39A9.37,9.37,0,0,0,605.75,158.83Z"/><path class="cls-8" d="M649.36,263.7l5.56,71.84s8.87,9.89,14.29,31C672.16,378,681,403.12,681,403.12l-10.87,4.26S640,352.17,636.51,339.3s-19-67.09-19-67.09Z"/><path class="cls-6" d="M678.84,400.92l4.73,10.14a17.17,17.17,0,0,1-8.51,5.65L670,404.52Z"/><path class="cls-9" d="M666.7,403.48a11,11,0,0,0,3,6.06l13.69-6.42a17.3,17.3,0,0,0-2.41-6.18Z"/><path class="cls-2" d="M660.78,437.61l16.61-.05c.3-.08.68-.42,1.49-1.25l13-13.42a1.79,1.79,0,0,0,.29-2.1c-1.5-2.72-5.24-9.37-6.9-10.93-2.09-2-3.51-.54-3.51-.54s-3.56,4.59-5.37,3.81c-2.13-.92-4-1.68-4.41,2.88a31.51,31.51,0,0,1-2.76,9.71S667,429.48,664,431C658.58,433.63,660.78,437.61,660.78,437.61Z"/><path class="cls-10" d="M670.15,422.79a3.34,3.34,0,0,1,1.68-1.11,8.67,8.67,0,0,1,4.1.21.59.59,0,0,0,.47-.05.66.66,0,0,0,.33-.38.65.65,0,0,0-.44-.81,10,10,0,0,0-4.84-.2,4,4,0,0,0-.86.35C670,421.51,669.56,422.22,670.15,422.79Z"/><path class="cls-10" d="M670.84,419.6A3.45,3.45,0,0,1,672,419a8.66,8.66,0,0,1,4.1.21.62.62,0,0,0,.48-.05.6.6,0,0,0,.32-.39.64.64,0,0,0-.43-.8,10,10,0,0,0-4.85-.21l-.38.14C670.81,418.4,670.3,418.85,670.84,419.6Z"/><path class="cls-10" d="M669.56,425.35a3.29,3.29,0,0,1,1.4-.8,8.64,8.64,0,0,1,4.1.21.66.66,0,0,0,.48-.05.6.6,0,0,0,.32-.39.64.64,0,0,0-.43-.8,10,10,0,0,0-4.85-.21,5.33,5.33,0,0,0-.6.23h0C669.18,424.18,668.93,424.8,669.56,425.35Z"/><path class="cls-9" d="M636,266.23c0,4.31-29.79,64-28,71.94.57,17.72-12.44,77.67-14.24,76.74h-9.46l1.19-81.84,13.81-65.85S620.85,260.67,636,266.23Z"/><path class="cls-8" d="M591.16,414a.72.72,0,0,0,.71-.6c.07-.41,7.08-41.68,9.21-51.17,2.1-9.34,2.4-26.89,2.43-28.5,3-10.61,28.22-67.07,28.47-67.64a.72.72,0,1,0-1.32-.59c-1,2.34-25.7,57.45-28.57,67.93a1.08,1.08,0,0,0,0,.19c0,.18-.26,18.86-2.39,28.29s-9.15,50.84-9.22,51.25a.71.71,0,0,0,.59.83Z"/><path class="cls-6" d="M593,414l-.33,11.18a17.16,17.16,0,0,1-10.14,1.23l1-13.17Z"/><path class="cls-11" d="M581,410.84a11,11,0,0,0,0,6.78l15.11.42a17.2,17.2,0,0,0,.63-6.61Z"/><path class="cls-2" d="M558.46,437.39c.82,1.74,36.74-.13,36.74-.13s1.14-10.66,0-13.95-6.36.41-10-.42c0,0-2.15-3-3.89-2.87-.65,0-2.9,1.49-5.73,3.35l-1.42.93-1,.67-1.71,1.12-.65.41h0l-1.57,1c-3.15,2-6.13,3.62-7.85,3.92C556.8,432.24,557.64,435.64,558.46,437.39Z"/><path class="cls-10" d="M571.49,426.09a3.3,3.3,0,0,1,2,.38,8.76,8.76,0,0,1,2.77,3,.68.68,0,0,0,.37.3.65.65,0,0,0,.51-.05.63.63,0,0,0,.25-.87,9.71,9.71,0,0,0-3.31-3.55,6,6,0,0,0-.85-.36C572.25,425.05,571.47,425.26,571.49,426.09Z"/><path class="cls-10" d="M574.22,424.3a3.63,3.63,0,0,1,1.19.38,8.85,8.85,0,0,1,2.77,3,.61.61,0,0,0,.37.3.65.65,0,0,0,.51-.05.64.64,0,0,0,.25-.87,9.91,9.91,0,0,0-3.31-3.55l-.36-.17C575,423.42,574.36,423.38,574.22,424.3Z"/><path class="cls-10" d="M569.27,427.5a3.33,3.33,0,0,1,1.56.41,8.83,8.83,0,0,1,2.78,3,.6.6,0,0,0,.37.31.63.63,0,0,0,.5-.05.66.66,0,0,0,.26-.88,10,10,0,0,0-3.31-3.54,6.07,6.07,0,0,0-.59-.27h0C569.82,426.4,569.21,426.66,569.27,427.5Z"/><path class="cls-2" d="M593.8,269.6c1.44,3.68,8.5,4.94,20.35,1.09s31.13-2.18,35.21-7c2.42-2.85,3.65-10.83.6-23.17-.23-.94-.47-1.89-.7-2.84-.31-1.23-.62-2.47-.92-3.71l-.69-2.83c-.31-1.27-.61-2.52-.89-3.75-.22-1-.44-1.92-.64-2.85-.65-3-1.2-5.8-1.57-8.31a86.26,86.26,0,0,1-.3-17.47h0c.45-7.34,1.21-14.49.71-20.64h0a25.73,25.73,0,0,0-2.09-8.82c-3.09-6.6-10.11-12-15.42-15.28a19.94,19.94,0,0,0-13.87-2.76c-6.59,1.1-14.22,11-15.42,14.77-.82,2.62-1.26,4.72-1.38,11.17-.16,8.39-.3,15.86,1,24.56h0l.12.81c.91,5.86.17,15.92-1,26.53l-.12,1.08c0,.08,0,.17,0,.26l-.3,2.65L596,237c-.11,1-.22,1.94-.34,2.91-.15,1.28-.3,2.55-.45,3.8-.12,1-.23,2-.34,2.9C593.62,257.55,592.71,266.79,593.8,269.6Z"/><path class="cls-12" d="M600,253.23a.64.64,0,0,1-.62-.5.62.62,0,0,1,.49-.73c.15,0,15.48-3.38,23.06-17.81a.63.63,0,0,1,1.11.59,36.46,36.46,0,0,1-14.93,14.89,35.4,35.4,0,0,1-9,3.55Z"/><path class="cls-10" d="M608,171.71a2.68,2.68,0,0,1-2.54-1.94c-1.58-4,.78-12.89,4.29-16.16l.51.55c-3.27,3.05-5.57,11.64-4.1,15.34A1.93,1.93,0,0,0,608,171h0c7.72-.07,13.84-17.4,13.9-17.57l.71.24c-.26.74-6.36,18-14.6,18.08Z"/><path class="cls-12" d="M596.78,230.46a54.16,54.16,0,0,0,7.78,4.44,4.6,4.6,0,0,0,1.69.3,12,12,0,0,0,5.16-1.56c10.14-5.52,17.56-15.52,22-22.94,5.22-8.71,8-16.5,8.42-18.72a.6.6,0,0,0-.47-.71.59.59,0,0,0-.7.47c-.45,2.15-3.14,9.76-8.28,18.35-4.36,7.28-11.64,17.1-21.55,22.49-.87.48-3.89,2-5.82,1.21a57.79,57.79,0,0,1-8.09-4.67l-.12,1.08C596.79,230.28,596.79,230.37,596.78,230.46Z"/><path class="cls-12" d="M610.64,209a.64.64,0,0,0,.49-.23c6.93-9.08,11.11-22.72,11.16-22.86a.61.61,0,0,0-.41-.75.6.6,0,0,0-.75.4c0,.14-4.16,13.58-11,22.48a.59.59,0,0,0,.47,1Z"/><path class="cls-6" d="M602.35,146.87s.32.67.89,1.75l.09.19,0,0c.41.77.92,1.72,1.52,2.76.22.38.45.78.69,1.18s.43.73.67,1.11a43.26,43.26,0,0,0,5.69,7.61c5.87-2.21,9.89-5.12,11.28-9,0,0-6.41-7.69-6.65-15Z"/><path class="cls-7" d="M603.24,148.62l.09.19,0,0c.41.77.92,1.72,1.52,2.76.22.38.45.78.69,1.18s.43.73.67,1.11c1.53-2.91,1.94-7.58,2-7.68Z"/><path class="cls-6" d="M592.81,146.54c.09.56.2,1.1.3,1.61.71,3.33,2,4.45,3.93,4.22,3.41-.42,18.21-8.85,23.86-14.65s1.29-15.6-5.28-16.92c-4.68-.93-13.41,1.75-18,3.37a7.07,7.07,0,0,0-4.55,5,34.77,34.77,0,0,0-.87,7.24h0c-.09.14-2.1,3.66-2.49,4.37s1.68,1,2.62,1.19c0,.4.06.81.1,1.21Z"/><path class="cls-7" d="M594.12,145.6a3.63,3.63,0,0,0,2.77-1.52.36.36,0,0,0-.09-.5.37.37,0,0,0-.51.09,2.78,2.78,0,0,1-2.61,1.16.38.38,0,0,0-.42.3.36.36,0,0,0,.29.41A2.91,2.91,0,0,0,594.12,145.6Z"/><path class="cls-7" d="M596.68,141.05c.18.8,1.6,1.15,3.16.79s2.67-1.3,2.49-2.09-1.6-1.15-3.16-.79S596.5,140.26,596.68,141.05Z"/><path class="cls-8" d="M594.2,135.25c-.08.66.16,1.22.52,1.26s.72-.46.79-1.12-.16-1.22-.53-1.26S594.27,134.59,594.2,135.25Z"/><path class="cls-8" d="M597.86,134.13a.59.59,0,0,0,.25-.07.57.57,0,0,0,.23-.77,4,4,0,0,0-4.48-2,.57.57,0,0,0-.41.7.59.59,0,0,0,.71.4,2.85,2.85,0,0,1,3.17,1.45A.58.58,0,0,0,597.86,134.13Z"/><path class="cls-7" d="M606.81,138.06a.4.4,0,0,0,.37-.34,6.69,6.69,0,0,1,2.39-4.12.4.4,0,0,0,.1-.55.41.41,0,0,0-.56-.1,7.39,7.39,0,0,0-2.72,4.65.4.4,0,0,0,.34.45Z"/><path class="cls-7" d="M609.81,136a.41.41,0,0,0,.34-.23.4.4,0,0,0-.18-.53,4.39,4.39,0,0,0-2.41-.43.39.39,0,0,0-.3.47.4.4,0,0,0,.47.31,3.58,3.58,0,0,1,1.89.37A.43.43,0,0,0,609.81,136Z"/><path class="cls-8" d="M593.43,127.93c2.26,2.23,7,5.13,11.1,5.12,0,0,3.07-4.94,7.08-1.83s-1.19,10.43-5.49,9.45a10.54,10.54,0,0,0,2.34,9.39c10.16,5.29,22.65-.58,22.65-.58a52.73,52.73,0,0,0-.67-16.15h0c-1.08-9.87-4.55-23.69-23.87-18.38-9.63,2.65-12.47,5.77-13.31,8.4C592.53,125.6,592.68,127.19,593.43,127.93Z"/><path class="cls-8" d="M606.12,140.67s-2.56,7.67,2.91,11.73,9.57,6,8.39,13.54c-1.84,11.82,14.9,23.95,25.41,13.46,8.93-8.91-7-14.78-7.08-27.13s-7.32-28.36-7.32-28.36S622.58,140.59,606.12,140.67Z"/><path class="cls-10" d="M605.8,140.4a1.28,1.28,0,1,0,1.27-1.27A1.27,1.27,0,0,0,605.8,140.4Z"/><path class="cls-2" d="M554.66,196a5.29,5.29,0,0,1,7.08-2.43h0c8.11,4,16.35,7.8,24.61,11.57q6.21,2.82,12.43,5.6c2.11.94,4.22,1.89,6.34,2.82l.19.09.64.28.63-.54.47-.42a36.92,36.92,0,0,0,3.66-3.9,54.44,54.44,0,0,0,6.53-10.46A83.5,83.5,0,0,0,622,186.5c.45-1.45.86-2.92,1.24-4.4,3.79,3.35,8.92,4.94,14.46,1.87a10.84,10.84,0,0,0,3.52-2.88h1c-.22,1.08-.45,2.14-.7,3.2-.59,2.55-1.28,5.06-2,7.57a102.34,102.34,0,0,1-5.77,14.79,72.84,72.84,0,0,1-8.79,14c-.91,1.1-1.85,2.18-2.85,3.23s-2,2.08-3.15,3.06-2.26,1.92-3.47,2.82-2.49,1.72-3.8,2.5l-.8.43a8,8,0,0,1-8.07-.22c-3.92-2.42-7.79-4.84-11.67-7.28s-7.75-4.9-11.61-7.36c-7.72-5-15.41-9.94-23-15.12A5.29,5.29,0,0,1,554.66,196Z"/><path class="cls-6" d="M557.25,202.37c1.71-.32,6.24-4.6,4.52-10-1.59-5-1-6.51-2.68-10-1.44-3-1.82-.17-2.12,2.53s.22,3.83-2.06,3-9.67-8-12.32-8.45,6.73,8.58,6.73,8.58-9.14-6.31-10.46-5.51c-1.58,1,7.8,8.26,7.8,8.26s-8.53-4.24-8.94-3.63c-.78,1.18,7,6.75,7,6.75s-6-2.62-6-1.44S549.12,201.37,557.25,202.37Z"/><path class="cls-12" d="M605.14,213.59l.3.34s0,0,0,0a17.8,17.8,0,0,1,3.19,5.73.6.6,0,0,0,.58.42l.17,0a.59.59,0,0,0,.4-.75,19.3,19.3,0,0,0-2.59-5.11q-.3-.4-.63-.81L606,214l-.64-.28Z"/><path class="cls-12" d="M605.33,213.68a.8.8,0,0,0,.11.25s0,0,0,0a.59.59,0,0,0,.49.19,5.48,5.48,0,0,1,1.26.07,17.33,17.33,0,0,1,4.15,1.43.52.52,0,0,0,.27.07.61.61,0,0,0,.54-.33.6.6,0,0,0-.26-.8,16.85,16.85,0,0,0-4.86-1.6l-.47.42L606,214Z"/><ellipse class="cls-1" cx="366.04" cy="435.53" rx="179.14" ry="6.57"/><path class="cls-12" d="M448.82,387.3H425.53a1.63,1.63,0,0,1,0-3.25H447.2V241.89H430a1.63,1.63,0,1,1,0-3.25h18.84a1.62,1.62,0,0,1,1.63,1.62V385.67A1.63,1.63,0,0,1,448.82,387.3Z"/><path class="cls-16" d="M438.59,236.09h5a0,0,0,0,1,0,0v8.35a0,0,0,0,1,0,0h-5a3.37,3.37,0,0,1-3.37-3.37v-1.61A3.37,3.37,0,0,1,438.59,236.09Z" transform="translate(878.79 480.53) rotate(180)"/><path class="cls-16" d="M436.75,381.5h5a0,0,0,0,1,0,0v8.35a0,0,0,0,1,0,0h-5a3.37,3.37,0,0,1-3.37-3.37v-1.61A3.37,3.37,0,0,1,436.75,381.5Z" transform="translate(875.12 771.34) rotate(180)"/><path class="cls-12" d="M276,346.17H257.77a1.62,1.62,0,0,1-1.62-1.62V199.14a1.63,1.63,0,0,1,1.62-1.63h14.72a1.63,1.63,0,0,1,0,3.26H259.4V342.92H276a1.63,1.63,0,1,1,0,3.25Z"/><path class="cls-16" d="M267.5,194.67h5a0,0,0,0,1,0,0V203a0,0,0,0,1,0,0h-5a3.37,3.37,0,0,1-3.37-3.37V198A3.37,3.37,0,0,1,267.5,194.67Z"/><path class="cls-16" d="M271,340.37h5a0,0,0,0,1,0,0v8.35a0,0,0,0,1,0,0h-5a3.37,3.37,0,0,1-3.37-3.37v-1.61a3.37,3.37,0,0,1,3.37-3.37Z"/><polygon class="cls-8" points="337.75 256.46 330.71 282.13 377 282.13 369.96 256.46 337.75 256.46"/><path class="cls-9" d="M304.71,282.13H405a8.51,8.51,0,0,1,8.51,8.51v2a0,0,0,0,1,0,0H296.21a0,0,0,0,1,0,0v-2A8.51,8.51,0,0,1,304.71,282.13Z"/><rect class="cls-9" x="272.49" y="136.51" width="162.74" height="119.95" rx="5.23"/><path class="cls-10" d="M427.75,146v87.6a2.41,2.41,0,0,1-2.4,2.41h-143a2.4,2.4,0,0,1-2.4-2.41V146a3,3,0,0,1,3-3H424.77A3,3,0,0,1,427.75,146Z"/><rect class="cls-16" x="370.33" y="162.07" width="7.72" height="7.72"/><rect class="cls-5" x="370.33" y="175.82" width="7.72" height="7.72"/><path class="cls-14" d="M411.18,177.51H385.56a2.29,2.29,0,0,0-2.39,2.17h0a2.29,2.29,0,0,0,2.39,2.18h25.62a2.29,2.29,0,0,0,2.39-2.18h0A2.29,2.29,0,0,0,411.18,177.51Z"/><path class="cls-14" d="M411.18,163.75H385.56a2.29,2.29,0,0,0-2.39,2.18h0a2.29,2.29,0,0,0,2.39,2.17h25.62a2.29,2.29,0,0,0,2.39-2.17h0A2.29,2.29,0,0,0,411.18,163.75Z"/><g class="cls-15"><path class="cls-14" d="M370.45,222.35h0a2.17,2.17,0,0,0,2.17,2.17h38.55a2.17,2.17,0,0,0,2.18-2.17h0a2.18,2.18,0,0,0-2.18-2.18H372.62A2.18,2.18,0,0,0,370.45,222.35Z"/></g><g class="cls-15"><path class="cls-14" d="M370.41,213.61h0a2.17,2.17,0,0,0,2.17,2.17h38.55a2.18,2.18,0,0,0,2.18-2.17h0a2.18,2.18,0,0,0-2.18-2.17H372.58A2.17,2.17,0,0,0,370.41,213.61Z"/></g><g class="cls-15"><path class="cls-14" d="M370.37,204.88h0a2.17,2.17,0,0,0,2.17,2.17h38.55a2.18,2.18,0,0,0,2.18-2.17h0a2.19,2.19,0,0,0-2.18-2.18H372.54A2.18,2.18,0,0,0,370.37,204.88Z"/></g><g class="cls-15"><path class="cls-14" d="M370.33,196.14h0a2.17,2.17,0,0,0,2.17,2.17h38.55a2.18,2.18,0,0,0,2.18-2.17h0a2.18,2.18,0,0,0-2.18-2.17H372.5A2.17,2.17,0,0,0,370.33,196.14Z"/></g><path class="cls-5" d="M354.06,195.78a28.75,28.75,0,1,1-55.26-11.11l26.52,11.11L324,167.07c.44,0,.9,0,1.36,0A28.75,28.75,0,0,1,354.06,195.78Z"/><path class="cls-16" d="M321.36,162.54a28.64,28.64,0,0,0-21.19,10.88,28.3,28.3,0,0,0-4,6.72l26.51,11.11Z"/><g class="cls-15"><path class="cls-17" d="M427.75,146v6.27H280V146a3,3,0,0,1,3-3H424.77A3,3,0,0,1,427.75,146Z"/></g><path class="cls-2" d="M410.62,147.65a2.1,2.1,0,1,1-2.1-2.1A2.1,2.1,0,0,1,410.62,147.65Z"/><circle class="cls-12" cx="415.33" cy="147.65" r="2.1"/><circle class="cls-8" cx="421.84" cy="147.65" r="2.1"/><path class="cls-11" d="M360,246.44a6.18,6.18,0,1,1-6.18-6.18A6.18,6.18,0,0,1,360,246.44Z"/><rect class="cls-2" x="275.95" y="292.67" width="157.43" height="144.94" rx="7.35"/><path class="cls-5" d="M399.53,309.69H291.44a2.33,2.33,0,0,1-2.33-2.32h0a2.33,2.33,0,0,1,2.33-2.33H399.53a2.33,2.33,0,0,1,2.33,2.33h0A2.33,2.33,0,0,1,399.53,309.69Z"/><path class="cls-5" d="M399.53,322.09H291.44a2.33,2.33,0,0,1-2.33-2.33h0a2.33,2.33,0,0,1,2.33-2.33H399.53a2.33,2.33,0,0,1,2.33,2.33h0A2.33,2.33,0,0,1,399.53,322.09Z"/><path class="cls-5" d="M399.53,334.48H291.44a2.33,2.33,0,0,1-2.33-2.33h0a2.33,2.33,0,0,1,2.33-2.32H399.53a2.33,2.33,0,0,1,2.33,2.32h0A2.33,2.33,0,0,1,399.53,334.48Z"/><path class="cls-5" d="M399.53,346.88H291.44a2.34,2.34,0,0,1-2.33-2.33h0a2.33,2.33,0,0,1,2.33-2.33H399.53a2.33,2.33,0,0,1,2.33,2.33h0A2.34,2.34,0,0,1,399.53,346.88Z"/><path class="cls-5" d="M399.53,359.27H291.44a2.33,2.33,0,0,1-2.33-2.33h0a2.34,2.34,0,0,1,2.33-2.33H399.53a2.34,2.34,0,0,1,2.33,2.33h0A2.33,2.33,0,0,1,399.53,359.27Z"/><path class="cls-5" d="M399.53,371.66H291.44a2.33,2.33,0,0,1-2.33-2.32h0a2.33,2.33,0,0,1,2.33-2.33H399.53a2.33,2.33,0,0,1,2.33,2.33h0A2.33,2.33,0,0,1,399.53,371.66Z"/><path class="cls-10" d="M418,305h0a2.23,2.23,0,0,0-2.24,2.23v.19a2.23,2.23,0,0,0,2.24,2.23h0a2.23,2.23,0,0,0,2.23-2.23v-.19A2.23,2.23,0,0,0,418,305Z"/><path class="cls-10" d="M418,317.43h0a2.24,2.24,0,0,0-2.24,2.24v.18a2.24,2.24,0,0,0,2.24,2.24h0a2.23,2.23,0,0,0,2.23-2.24v-.18A2.23,2.23,0,0,0,418,317.43Z"/><path class="cls-10" d="M418,329.83h0a2.23,2.23,0,0,0-2.24,2.23v.19a2.23,2.23,0,0,0,2.24,2.23h0a2.23,2.23,0,0,0,2.23-2.23v-.19A2.23,2.23,0,0,0,418,329.83Z"/><path class="cls-10" d="M418,342.22h0a2.23,2.23,0,0,0-2.24,2.23v.19a2.24,2.24,0,0,0,2.24,2.24h0a2.23,2.23,0,0,0,2.23-2.24v-.19A2.23,2.23,0,0,0,418,342.22Z"/><path class="cls-10" d="M418,354.61h0a2.24,2.24,0,0,0-2.24,2.24V357a2.23,2.23,0,0,0,2.24,2.23h0a2.23,2.23,0,0,0,2.23-2.23v-.19A2.23,2.23,0,0,0,418,354.61Z"/><path class="cls-10" d="M418,367h0a2.23,2.23,0,0,0-2.24,2.23v.19a2.23,2.23,0,0,0,2.24,2.23h0a2.23,2.23,0,0,0,2.23-2.23v-.19A2.23,2.23,0,0,0,418,367Z"/><rect class="cls-5" x="289.11" y="384.23" width="131.11" height="44.64" rx="7.45"/><path class="cls-16" d="M314.18,428a21.48,21.48,0,1,1,21.48-21.48A21.5,21.5,0,0,1,314.18,428Zm0-35.67a14.2,14.2,0,1,0,14.2,14.19A14.21,14.21,0,0,0,314.18,392.36Z"/><path class="cls-16" d="M314.12,404.85a1.7,1.7,0,0,1-1.7-1.69v-7.52a1.7,1.7,0,0,1,3.4,0v7.52A1.7,1.7,0,0,1,314.12,404.85Z"/><path class="cls-16" d="M314.12,419.09a1.7,1.7,0,0,1-1.7-1.7v-7.52a1.7,1.7,0,0,1,3.4,0v7.52A1.7,1.7,0,0,1,314.12,419.09Z"/><path class="cls-16" d="M310.77,408.21h-7.53a1.7,1.7,0,0,1,0-3.4h7.53a1.7,1.7,0,0,1,0,3.4Z"/><path class="cls-16" d="M325,408.21h-7.52a1.7,1.7,0,0,1,0-3.4H325a1.7,1.7,0,0,1,0,3.4Z"/><path class="cls-16" d="M359.78,428a21.48,21.48,0,1,1,21.47-21.48A21.51,21.51,0,0,1,359.78,428Zm0-35.67A14.2,14.2,0,1,0,374,406.55,14.21,14.21,0,0,0,359.78,392.36Z"/><path class="cls-16" d="M359.72,404.85a1.7,1.7,0,0,1-1.7-1.69v-7.52a1.7,1.7,0,1,1,3.39,0v7.52A1.69,1.69,0,0,1,359.72,404.85Z"/><path class="cls-16" d="M359.72,419.09a1.7,1.7,0,0,1-1.7-1.7v-7.52a1.7,1.7,0,1,1,3.39,0v7.52A1.7,1.7,0,0,1,359.72,419.09Z"/><path class="cls-16" d="M356.36,408.21h-7.52a1.7,1.7,0,0,1,0-3.4h7.52a1.7,1.7,0,0,1,0,3.4Z"/><path class="cls-16" d="M370.59,408.21h-7.52a1.7,1.7,0,0,1,0-3.4h7.52a1.7,1.7,0,1,1,0,3.4Z"/><rect class="cls-16" x="386.01" y="390.38" width="30.58" height="8.09" rx="1.82"/><path class="cls-10" d="M393.57,395.81a4,4,0,0,1-1.68-.37,7.37,7.37,0,0,0-3.15-.65h-1.36a.37.37,0,0,1-.36-.37.36.36,0,0,1,.36-.36h1.36a8.25,8.25,0,0,1,3.45.71,3.25,3.25,0,0,0,3.64-.61,4,4,0,0,1,5.55,0h0a3.29,3.29,0,0,0,4.55,0,4,4,0,0,1,4.7-.62,4,4,0,0,0,1.88.52h2.41a.36.36,0,0,1,.36.36.37.37,0,0,1-.36.37h-2.41a4.68,4.68,0,0,1-2.23-.61,3.25,3.25,0,0,0-3.85.5,4,4,0,0,1-5.54,0h0a3.27,3.27,0,0,0-4.54,0A4,4,0,0,1,393.57,395.81Z"/><path class="cls-16" d="M405.26,424.51h-18a1.25,1.25,0,0,1-1.26-1.26h0a1.25,1.25,0,0,1,1.26-1.25h18a1.25,1.25,0,0,1,1.25,1.25h0A1.25,1.25,0,0,1,405.26,424.51Z"/><path class="cls-16" d="M405.26,417.94h-18a1.25,1.25,0,0,1-1.26-1.25h0a1.25,1.25,0,0,1,1.26-1.25h18a1.25,1.25,0,0,1,1.25,1.25h0A1.25,1.25,0,0,1,405.26,417.94Z"/><path class="cls-16" d="M405.26,411.38h-18a1.25,1.25,0,0,1-1.26-1.26h0a1.25,1.25,0,0,1,1.26-1.25h18a1.25,1.25,0,0,1,1.25,1.25h0A1.25,1.25,0,0,1,405.26,411.38Z"/><path class="cls-16" d="M405.26,404.81h-18a1.25,1.25,0,0,1-1.26-1.25h0a1.25,1.25,0,0,1,1.26-1.25h18a1.25,1.25,0,0,1,1.25,1.25h0A1.25,1.25,0,0,1,405.26,404.81Z"/><path class="cls-16" d="M413.5,422h0a1.25,1.25,0,0,0-1.25,1.25h0a1.25,1.25,0,0,0,1.25,1.26h0a1.25,1.25,0,0,0,1.26-1.26h0A1.25,1.25,0,0,0,413.5,422Z"/><path class="cls-16" d="M413.5,415.44h0a1.25,1.25,0,0,0-1.25,1.25h0a1.25,1.25,0,0,0,1.25,1.25h0a1.25,1.25,0,0,0,1.26-1.25h0A1.25,1.25,0,0,0,413.5,415.44Z"/><path class="cls-16" d="M413.5,408.87h0a1.25,1.25,0,0,0-1.25,1.25h0a1.25,1.25,0,0,0,1.25,1.26h0a1.25,1.25,0,0,0,1.26-1.26h0A1.25,1.25,0,0,0,413.5,408.87Z"/><path class="cls-16" d="M413.5,402.31h0a1.25,1.25,0,0,0-1.25,1.25h0a1.25,1.25,0,0,0,1.25,1.25h0a1.25,1.25,0,0,0,1.26-1.25h0A1.25,1.25,0,0,0,413.5,402.31Z"/><path class="cls-2" d="M253.57,358.73v75.86a3,3,0,0,1-3,3h-44a3,3,0,0,1-3-3V358.73a3,3,0,0,1,3-3h44a3,3,0,0,1,1.61.47A3,3,0,0,1,253.57,358.73Z"/><path class="cls-16" d="M239.87,370.34H210.51a2.08,2.08,0,0,1-2.08-2.08h0a2.08,2.08,0,0,1,2.08-2.08h29.36a2.08,2.08,0,0,1,2.08,2.08h0A2.08,2.08,0,0,1,239.87,370.34Z"/><rect class="cls-16" x="208.43" y="375.65" width="33.52" height="4.16" rx="2.08"/><path class="cls-16" d="M239.87,389.27H210.51a2.08,2.08,0,0,1-2.08-2.08h0a2.08,2.08,0,0,1,2.08-2.08h29.36a2.08,2.08,0,0,1,2.08,2.08h0A2.08,2.08,0,0,1,239.87,389.27Z"/><path class="cls-16" d="M239.87,398.74H210.51a2.08,2.08,0,0,1-2.08-2.08h0a2.08,2.08,0,0,1,2.08-2.08h29.36a2.08,2.08,0,0,1,2.08,2.08h0A2.08,2.08,0,0,1,239.87,398.74Z"/><path class="cls-16" d="M239.87,408.2H210.51a2.08,2.08,0,0,1-2.08-2.07h0a2.08,2.08,0,0,1,2.08-2.08h29.36a2.08,2.08,0,0,1,2.08,2.08h0A2.08,2.08,0,0,1,239.87,408.2Z"/><path class="cls-16" d="M239.87,417.67H210.51a2.08,2.08,0,0,1-2.08-2.08h0a2.08,2.08,0,0,1,2.08-2.08h29.36a2.08,2.08,0,0,1,2.08,2.08h0A2.08,2.08,0,0,1,239.87,417.67Z"/><path class="cls-16" d="M239.87,427.14H210.51a2.08,2.08,0,0,1-2.08-2.08h0a2.08,2.08,0,0,1,2.08-2.08h29.36a2.08,2.08,0,0,1,2.08,2.08h0A2.08,2.08,0,0,1,239.87,427.14Z"/><path class="cls-9" d="M247.89,367.07a.89.89,0,1,1-.89-.89A.89.89,0,0,1,247.89,367.07Z"/><path class="cls-5" d="M247.89,369.45a.89.89,0,1,1-.89-.89A.89.89,0,0,1,247.89,369.45Z"/><path class="cls-10" d="M247.89,376.54a.89.89,0,1,1-.89-.89A.89.89,0,0,1,247.89,376.54Z"/><path class="cls-5" d="M247.89,378.91A.89.89,0,1,1,247,378,.89.89,0,0,1,247.89,378.91Z"/><path class="cls-10" d="M247.89,395.47a.89.89,0,1,1-.89-.89A.89.89,0,0,1,247.89,395.47Z"/><path class="cls-5" d="M247.89,397.85A.89.89,0,1,1,247,397,.89.89,0,0,1,247.89,397.85Z"/><path class="cls-9" d="M247.89,386a.89.89,0,1,1-.89-.89A.89.89,0,0,1,247.89,386Z"/><path class="cls-5" d="M247.89,388.38a.89.89,0,1,1-.89-.89A.89.89,0,0,1,247.89,388.38Z"/><path class="cls-9" d="M247.89,404.94a.89.89,0,1,1-.89-.89A.89.89,0,0,1,247.89,404.94Z"/><path class="cls-5" d="M247.89,407.31a.89.89,0,1,1-.89-.89A.89.89,0,0,1,247.89,407.31Z"/><path class="cls-10" d="M247.89,414.4a.89.89,0,1,1-.89-.89A.89.89,0,0,1,247.89,414.4Z"/><path class="cls-5" d="M247.89,416.78a.89.89,0,1,1-.89-.89A.89.89,0,0,1,247.89,416.78Z"/><path class="cls-9" d="M247.89,423.87A.89.89,0,1,1,247,423,.89.89,0,0,1,247.89,423.87Z"/><path class="cls-5" d="M247.89,426.25a.89.89,0,1,1-.89-.89A.89.89,0,0,1,247.89,426.25Z"/><path class="cls-12" d="M228.57,353.91a1.63,1.63,0,0,1-1.63-1.63V270.46a1.63,1.63,0,0,1,1.63-1.63h29.2a1.63,1.63,0,1,1,0,3.25H230.2v80.2A1.63,1.63,0,0,1,228.57,353.91Z"/><path class="cls-9" d="M244,355.71H213.1a3.44,3.44,0,0,1,3.43-3.43h24.08a3.44,3.44,0,0,1,3.43,3.43Z"/><path class="cls-16" d="M251.26,266.28h5a0,0,0,0,1,0,0v8.35a0,0,0,0,1,0,0h-5a3.37,3.37,0,0,1-3.37-3.37v-1.61A3.37,3.37,0,0,1,251.26,266.28Z"/><path class="cls-12" d="M491.43,353.91a1.62,1.62,0,0,1-1.62-1.63v-17h-41a1.63,1.63,0,0,1,0-3.25h42.61a1.63,1.63,0,0,1,1.63,1.62v18.63A1.63,1.63,0,0,1,491.43,353.91Z"/><path class="cls-16" d="M453.76,329.27h5a0,0,0,0,1,0,0v8.35a0,0,0,0,1,0,0h-5a3.37,3.37,0,0,1-3.37-3.37v-1.61A3.37,3.37,0,0,1,453.76,329.27Z" transform="translate(909.12 666.88) rotate(180)"/><path class="cls-16" d="M490.63,343.93h5a0,0,0,0,1,0,0v8.35a0,0,0,0,1,0,0h-5a3.37,3.37,0,0,1-3.37-3.37V347.3A3.37,3.37,0,0,1,490.63,343.93Z" transform="translate(839.54 -143.32) rotate(90)"/><path class="cls-9" d="M471.84,352.28a4.47,4.47,0,0,0-4.46,4.47l.11,76.23a4.39,4.39,0,0,0,4.41,4.4l38.67-.05a4.42,4.42,0,0,0,4.4-4.42l-.11-76.18a4.45,4.45,0,0,0-4.45-4.45Z"/><path class="cls-8" d="M467.4,372.85h0a1.61,1.61,0,0,1-1.61-1.61v-7a1.61,1.61,0,0,1,1.61-1.62h0Z"/><path class="cls-8" d="M514.88,372.4h0a1.32,1.32,0,0,0,1.32-1.32v-5.71a1.32,1.32,0,0,0-1.32-1.32h0Z"/><path class="cls-8" d="M467.42,384.5h0a1.62,1.62,0,0,1-1.62-1.61v-7a1.62,1.62,0,0,1,1.61-1.62h0Z"/><path class="cls-10" d="M508.83,431.05l-28.61,0h-6.07A1.83,1.83,0,0,1,472.5,430a1.71,1.71,0,0,1-.15-.71l0-14.3,0-13.95,0-16.91v-9l0-15.18a1.8,1.8,0,0,1,1.79-1.8l13.94,0h8.49l12.25,0a1.81,1.81,0,0,1,1.78,1.59,1.27,1.27,0,0,1,0,.2l0,14,0,15.36v9.15l0,30.76A1.78,1.78,0,0,1,508.83,431.05Z"/><path class="cls-12" d="M492.11,380.14a15.67,15.67,0,1,0,15.67,15.67A15.69,15.69,0,0,0,492.11,380.14Zm.63,21.45V396.1h7.09a21,21,0,0,1-.84,5.49Zm4.44,6.26a17.51,17.51,0,0,0,2.73-5h4.77a14.36,14.36,0,0,1-9.38,7A16.37,16.37,0,0,0,497.18,407.85Zm1.38-5a15.92,15.92,0,0,1-2.34,4.18,12.94,12.94,0,0,1-3.48,3.17v-7.35Zm-5.82-14.76v-6.68l.56,0a19.39,19.39,0,0,1,4.92,6.64Zm6.85,0a20.91,20.91,0,0,0-4.09-6.29,14.51,14.51,0,0,1,8.78,6.29Zm-6.85,6.75v-5.49h6a17.86,17.86,0,0,1,1.09,5.49Zm8.34,0a19.49,19.49,0,0,0-1-5.49H505a14.23,14.23,0,0,1,1.5,5.49Zm5.44,1.26a14.34,14.34,0,0,1-1.21,5.49h-5a22,22,0,0,0,.79-5.49Zm-22.45,5.49h-5.15a14.16,14.16,0,0,1-1.21-5.49h5.58A22,22,0,0,0,484.07,401.59Zm2.08-13.5a19.78,19.78,0,0,1,1.76-3.1,18.24,18.24,0,0,1,3.18-3.56l.39,0v6.68Zm5.33,1.26v5.49h-6.92a17.9,17.9,0,0,1,1.08-5.49ZM480,388.09a14.48,14.48,0,0,1,9-6.33,20.6,20.6,0,0,0-4.14,6.33Zm11.53,8v5.49h-6.1a20.49,20.49,0,0,1-.83-5.49Zm-13.74-1.26a14.1,14.1,0,0,1,1.5-5.49h5.07a19.15,19.15,0,0,0-1,5.49Zm6.73,8a17.49,17.49,0,0,0,2.72,5,16.39,16.39,0,0,0,1.93,2,14.53,14.53,0,0,1-9.57-7Zm7,0v7.26a14.8,14.8,0,0,1-5.67-7.26Z"/><path class="cls-9" d="M504.17,358l-1.79,2.74a2.71,2.71,0,0,1-2.26,1.22l-17.36,0a2.73,2.73,0,0,1-2.27-1.22l-1.8-2.73a.52.52,0,0,1,.52-.52l24.45,0A.51.51,0,0,1,504.17,358Z"/><path class="cls-11" d="M497.5,359.67l-14.88,0a.55.55,0,0,1-.55-.55h0a.55.55,0,0,1,.55-.55l14.87,0a.54.54,0,0,1,.55.55h0A.55.55,0,0,1,497.5,359.67Z"/><path class="cls-11" d="M501,359a.66.66,0,1,1-.52-.52A.66.66,0,0,1,501,359Z"/></svg>