<svg xmlns="http://www.w3.org/2000/svg" viewBox="0 0 500 500"><defs><style>.cls-1{fill:#ebebeb;}.cls-2{fill:#dbdbdb;}.cls-3{fill:#c7c7c7;}.cls-4{fill:#263238;}.cls-5{fill:#455a64;}.cls-6{fill:#fff;}.cls-7{fill:#37474f;}.cls-11,.cls-8{fill:#00a579;}.cls-9{fill:#ffc727;}.cls-10{opacity:0.1;}.cls-11{opacity:0.6;}.cls-12{fill:#fdfdfd;}.cls-13{fill:#dd6a57;}.cls-14{opacity:0.3;}.cls-15{fill:#a6a6a6;}.cls-16{fill:none;stroke:#dd6a57;stroke-linecap:round;stroke-linejoin:round;stroke-width:0;}.cls-17{fill:#ff99ba;}</style></defs><g id="Background_Complete" data-name="Background Complete"><path class="cls-1" d="M368.73,226.41l9.69,6,1.84-3a2.71,2.71,0,0,1,2.56-1.26c.56,0,1.13.06,1.7.05a2.69,2.69,0,0,1,2.46,1.42l1.66,3.07,10.06-5.39L397,224.27a2.7,2.7,0,0,1,.19-2.83c.32-.47.62-1,.9-1.45a2.69,2.69,0,0,1,2.46-1.43l3.49.11.35-11.41-3.5-.1a2.71,2.71,0,0,1-2.36-1.59c-.12-.26-.25-.51-.38-.75s-.27-.5-.42-.73a2.71,2.71,0,0,1,0-2.84l1.86-3-9.7-6-1.85,3a2.71,2.71,0,0,1-2.55,1.26,16.1,16.1,0,0,0-1.7-.06,2.71,2.71,0,0,1-2.46-1.41l-1.65-3.08-10.06,5.39,1.65,3.08a2.72,2.72,0,0,1-.18,2.83,14.45,14.45,0,0,0-.89,1.45,2.73,2.73,0,0,1-2.46,1.43l-3.5-.11-.36,11.41,3.5.11a2.69,2.69,0,0,1,2.35,1.58c.12.26.25.51.39.76s.27.49.41.73a2.73,2.73,0,0,1,0,2.85Zm7.2-9.66a9.34,9.34,0,1,1,12.65,3.83A9.34,9.34,0,0,1,375.93,216.75Z"/><path class="cls-1" d="M408.78,190.93l4,6.93,2.12-1.23a1.9,1.9,0,0,1,2,.07,10.62,10.62,0,0,0,1,.6A1.9,1.9,0,0,1,419,199v2.44h8V199a1.89,1.89,0,0,1,1-1.69,9.69,9.69,0,0,0,1-.6,1.9,1.9,0,0,1,2-.07l2.12,1.23,4-6.93L435,189.71a1.89,1.89,0,0,1-.93-1.77c0-.19,0-.39,0-.59s0-.39,0-.58A1.89,1.89,0,0,1,435,185l2.14-1.23-4-6.93-2.12,1.23a1.92,1.92,0,0,1-2-.07,9.55,9.55,0,0,0-1-.6,1.89,1.89,0,0,1-1-1.69v-2.44h-8v2.44a1.91,1.91,0,0,1-1.05,1.69,9.55,9.55,0,0,0-1,.6,1.92,1.92,0,0,1-2,.07l-2.12-1.23-4,6.93,2.13,1.22a1.93,1.93,0,0,1,.93,1.76c0,.2,0,.4,0,.59s0,.4,0,.59a1.92,1.92,0,0,1-.94,1.77Zm7.65-3.58a6.55,6.55,0,1,1,6.54,6.56A6.54,6.54,0,0,1,416.43,187.35Z"/><path class="cls-1" d="M113.73,95.11,121,107.78l3.88-2.24a3.48,3.48,0,0,1,3.65.12,19.79,19.79,0,0,0,1.89,1.1,3.48,3.48,0,0,1,1.93,3.09v4.48H147v-4.48a3.48,3.48,0,0,1,1.93-3.09,19.79,19.79,0,0,0,1.89-1.1,3.48,3.48,0,0,1,3.65-.12l3.88,2.24,7.31-12.67-3.9-2.24a3.48,3.48,0,0,1-1.7-3.23c0-.36,0-.72,0-1.08s0-.72,0-1.07a3.47,3.47,0,0,1,1.69-3.22L165.68,82l-7.31-12.67-3.89,2.25a3.5,3.5,0,0,1-3.65-.13,19.7,19.7,0,0,0-1.89-1.09A3.48,3.48,0,0,1,147,67.28V62.8H132.39v4.48a3.48,3.48,0,0,1-1.92,3.09,19.7,19.7,0,0,0-1.89,1.09,3.5,3.5,0,0,1-3.65.13L121,69.34,113.73,82l3.89,2.25a3.47,3.47,0,0,1,1.7,3.22q0,.54,0,1.08t0,1.08a3.48,3.48,0,0,1-1.7,3.23Zm14-6.55a12,12,0,1,1,12,12A12,12,0,0,1,127.72,88.56Z"/><path class="cls-1" d="M382,115a32.92,32.92,0,1,1-32.56-37.75v32.92Z"/><path class="cls-2" d="M389.09,103.46a31.89,31.89,0,0,1-.36,4.82l-32.56-4.82V70.54a32.9,32.9,0,0,1,32.92,32.92Z"/><rect class="cls-3" x="366.17" y="127.98" width="35.01" height="0.83"/><path class="cls-3" d="M403.63,131.26a2.87,2.87,0,1,1,2.87-2.87A2.88,2.88,0,0,1,403.63,131.26Zm0-4.91a2,2,0,1,0,2,2A2,2,0,0,0,403.63,126.35Z"/><rect class="cls-3" x="412.53" y="126.55" width="27.19" height="1.23"/><rect class="cls-3" x="412.53" y="129" width="15.39" height="1.23"/></g><g id="Shadow"><ellipse class="cls-1" cx="260.42" cy="416.72" rx="208.62" ry="13.87"/><ellipse class="cls-1" cx="116.08" cy="452.84" rx="90.06" ry="11.91"/></g><g id="Floor"><polygon class="cls-4" points="29.71 392.48 84.78 392.24 139.85 392.15 250 391.98 360.15 392.15 415.22 392.23 470.29 392.48 415.22 392.72 360.15 392.81 250 392.98 139.85 392.81 84.78 392.72 29.71 392.48"/></g><g id="Device"><polygon class="cls-5" points="202.98 415.44 448.42 415.44 467.42 248.75 221.98 248.75 202.98 415.44"/><polygon class="cls-6" points="216.35 404.26 437.6 404.26 454.05 259.93 232.81 259.93 216.35 404.26"/><rect class="cls-5" x="130.95" y="404.26" width="315.75" height="11.18" transform="translate(577.65 819.7) rotate(180)"/><rect class="cls-7" x="62.38" y="404.26" width="315.75" height="11.18" transform="translate(440.51 819.7) rotate(180)"/><polygon class="cls-3" points="250.93 274.93 273.59 274.8 296.24 274.76 341.55 274.68 386.86 274.76 409.52 274.8 432.17 274.93 409.52 275.05 386.86 275.09 341.55 275.18 296.24 275.09 273.59 275.05 250.93 274.93"/><polygon class="cls-3" points="250.03 282.32 272.68 282.19 295.34 282.15 340.65 282.07 385.96 282.15 408.61 282.19 431.27 282.32 408.61 282.44 385.96 282.48 340.65 282.57 295.34 282.48 272.68 282.44 250.03 282.32"/><polygon class="cls-3" points="249.12 289.71 271.77 289.58 294.43 289.54 339.74 289.46 385.05 289.54 407.7 289.58 430.36 289.71 407.7 289.83 385.05 289.87 339.74 289.96 294.43 289.87 271.77 289.83 249.12 289.71"/><polygon class="cls-3" points="248.21 297.1 270.87 296.98 293.52 296.93 338.83 296.85 384.14 296.93 406.8 296.98 429.45 297.1 406.8 297.22 384.14 297.26 338.83 297.35 293.52 297.26 270.87 297.22 248.21 297.1"/><polygon class="cls-3" points="247.3 304.49 269.96 304.37 292.61 304.32 337.92 304.24 383.23 304.32 405.89 304.37 428.54 304.49 405.89 304.61 383.23 304.65 337.92 304.74 292.61 304.65 269.96 304.61 247.3 304.49"/><polygon class="cls-3" points="246.4 311.88 269.05 311.76 291.71 311.71 337.02 311.63 382.33 311.71 404.98 311.76 427.64 311.88 404.98 312 382.33 312.05 337.02 312.13 291.71 312.04 269.05 312 246.4 311.88"/><polygon class="cls-3" points="245.49 319.27 268.14 319.15 290.8 319.1 336.11 319.02 381.42 319.1 404.07 319.15 426.73 319.27 404.07 319.39 381.42 319.44 336.11 319.52 290.8 319.44 268.14 319.39 245.49 319.27"/><polygon class="cls-3" points="244.58 326.66 267.24 326.54 289.89 326.49 335.2 326.41 380.51 326.49 403.17 326.54 425.82 326.66 403.17 326.78 380.51 326.83 335.2 326.91 289.89 326.82 267.24 326.78 244.58 326.66"/><polygon class="cls-3" points="243.68 334.05 266.33 333.93 288.99 333.88 334.3 333.8 379.6 333.88 402.26 333.93 424.91 334.05 402.26 334.17 379.6 334.22 334.3 334.3 288.99 334.22 266.33 334.17 243.68 334.05"/><polygon class="cls-3" points="242.77 341.44 265.42 341.32 288.08 341.27 333.39 341.19 378.7 341.27 401.35 341.32 424.01 341.44 401.35 341.56 378.7 341.61 333.39 341.69 288.08 341.61 265.42 341.56 242.77 341.44"/><polygon class="cls-3" points="241.86 348.83 264.51 348.71 287.17 348.67 332.48 348.58 377.79 348.67 400.44 348.71 423.1 348.83 400.44 348.95 377.79 349 332.48 349.08 287.17 349 264.51 348.95 241.86 348.83"/><polygon class="cls-3" points="240.95 356.22 263.61 356.1 286.26 356.06 331.57 355.97 376.88 356.06 399.54 356.1 422.19 356.22 399.54 356.34 376.88 356.39 331.57 356.47 286.26 356.39 263.61 356.34 240.95 356.22"/><polygon class="cls-3" points="240.04 363.61 262.7 363.49 285.36 363.45 330.67 363.36 375.98 363.45 398.63 363.49 421.29 363.61 398.63 363.74 375.98 363.78 330.67 363.86 285.36 363.78 262.7 363.73 240.04 363.61"/><polygon class="cls-3" points="239.14 371 261.79 370.88 284.45 370.84 329.76 370.75 375.07 370.84 397.72 370.88 420.38 371 397.72 371.13 375.07 371.17 329.76 371.25 284.45 371.17 261.79 371.13 239.14 371"/><polygon class="cls-3" points="238.23 378.39 260.88 378.27 283.54 378.23 328.85 378.14 374.16 378.23 396.81 378.27 419.47 378.39 396.81 378.52 374.16 378.56 328.85 378.64 283.54 378.56 260.88 378.51 238.23 378.39"/><polygon class="cls-8" points="277.49 326.66 263.75 326.66 256.34 387.01 270.08 387.01 277.49 326.66"/><polygon class="cls-8" points="304.79 311.94 291.05 311.94 281.83 387.01 295.58 387.01 304.79 311.94"/><polygon class="cls-8" points="329.36 319.52 315.62 319.52 307.33 387.01 321.07 387.01 329.36 319.52"/><polygon class="cls-8" points="357.61 297.1 343.87 297.1 332.83 387.01 346.57 387.01 357.61 297.1"/><polygon class="cls-8" points="381.63 309.15 367.88 309.15 358.32 387.01 372.07 387.01 381.63 309.15"/><polygon class="cls-8" points="410.42 282.32 396.67 282.32 383.82 387.01 397.56 387.01 410.42 282.32"/><path class="cls-3" d="M256.49,269.74l-3.2,29.37c-1.06,9.79-2.23,19.56-3.35,29.34l-3.4,29.35L243,387.12l-.92-1c14.69,0,29.39-.1,44.08,0l44.08.1,44.08.31,22,.24,22,.31-22,.31-22,.24-44.08.3-44.08.11c-14.69.07-29.39,0-44.08,0H241l.13-1,3.67-29.31,3.8-29.3c1.28-9.76,2.51-19.53,3.85-29.28Z"/><polygon class="cls-3" points="269.17 394.45 255.42 394.45 255.58 393.21 269.32 393.21 269.17 394.45"/><polygon class="cls-3" points="294.66 394.45 280.92 394.45 281.07 393.21 294.82 393.21 294.66 394.45"/><polygon class="cls-3" points="320.16 394.45 306.42 394.45 306.57 393.21 320.31 393.21 320.16 394.45"/><polygon class="cls-3" points="345.66 394.45 331.91 394.45 332.06 393.21 345.81 393.21 345.66 394.45"/><polygon class="cls-3" points="371.15 394.45 357.41 394.45 357.56 393.21 371.31 393.21 371.15 394.45"/><polygon class="cls-3" points="396.65 394.45 382.9 394.45 383.06 393.21 396.8 393.21 396.65 394.45"/><polygon class="cls-4" points="232.01 266.93 232.81 259.93 454.05 259.93 453.25 266.93 232.01 266.93"/><path class="cls-3" d="M238.65,263.43a2,2,0,0,1-2,1.74,1.51,1.51,0,0,1-1.53-1.74,2,2,0,0,1,2-1.74A1.5,1.5,0,0,1,238.65,263.43Z"/><path class="cls-6" d="M245.75,263.43a2,2,0,0,1-1.95,1.74,1.51,1.51,0,0,1-1.53-1.74,2,2,0,0,1,2-1.74A1.5,1.5,0,0,1,245.75,263.43Z"/><path class="cls-9" d="M252.86,263.43a2,2,0,0,1-2,1.74,1.5,1.5,0,0,1-1.52-1.74,2,2,0,0,1,2-1.74A1.51,1.51,0,0,1,252.86,263.43Z"/></g><g id="Rocket"><path class="cls-8" d="M222.23,184.43c-.9,0-34.36,15.44-36.34,53.47-1.82,35,22.35,68.17,25.47,66,3.82-2.69-2.67-24.47,4.76-49.39,2.63-8.84,14.15-16.68,14.15-16.68Z"/><path class="cls-10" d="M230.28,237.8a52.81,52.81,0,0,0-9.16,8.25c-5-11.11-14.26-31.85-20.26-45.29,9.8-11.33,20.86-16.33,21.37-16.33Z"/><path class="cls-8" d="M307.39,184.49c.89,0,34.33,15.49,36.26,53.52,1.77,35-22.46,68.14-25.57,65.94-3.82-2.7,2.71-24.47-4.68-49.4-2.62-8.84-14.14-16.7-14.14-16.7Z"/><path class="cls-10" d="M328.86,201c-6.06,13.56-15.36,34.34-20.28,45.32a53.13,53.13,0,0,0-9.31-8.45l8.12-53.37C307.9,184.48,319.05,189.55,328.86,201Z"/><path class="cls-1" d="M290.11,271.92l-50.49,0s-23.78-42.53-21-93.23c1.42-25.31,8-50.79,16-71.88C245.6,77.65,259.15,57,265,57s19.38,20.68,30.32,49.82c7.91,21.09,14.49,46.59,15.87,71.9C314,229.42,290.11,271.92,290.11,271.92Z"/><path class="cls-3" d="M295.15,172.15A29.12,29.12,0,1,1,266.06,143,29.11,29.11,0,0,1,295.15,172.15Z"/><path class="cls-8" d="M294.12,169.19A29.12,29.12,0,1,1,265,140.05,29.11,29.11,0,0,1,294.12,169.19Z"/><circle class="cls-6" cx="265" cy="169.17" r="20.19" transform="translate(70.45 416.14) rotate(-84.32)"/><path class="cls-1" d="M285.2,169.16a20,20,0,0,1-1.37,7.32L272.33,188a20.25,20.25,0,0,1-12.72.62l24.85-24.85A20.06,20.06,0,0,1,285.2,169.16Z"/><path class="cls-1" d="M268,149.19,245,172.13a20.62,20.62,0,0,1-.22-3A20.2,20.2,0,0,1,265,149,20.62,20.62,0,0,1,268,149.19Z"/><path class="cls-1" d="M282.68,159.39l-27.45,27.44a16.35,16.35,0,0,1-1.54-1l28-28C282.06,158.33,282.38,158.85,282.68,159.39Z"/><path class="cls-8" d="M295.34,106.82l-60.69,0C245.6,77.65,259.15,57,265,57S284.4,77.68,295.34,106.82Z"/><path class="cls-6" d="M245.1,100.51a1.7,1.7,0,1,1-1.7-1.7A1.7,1.7,0,0,1,245.1,100.51Z"/><path class="cls-6" d="M255.9,100.52a1.7,1.7,0,1,1-1.7-1.7A1.7,1.7,0,0,1,255.9,100.52Z"/><path class="cls-6" d="M266.69,100.53A1.7,1.7,0,1,1,265,98.82,1.7,1.7,0,0,1,266.69,100.53Z"/><path class="cls-6" d="M277.49,100.53a1.7,1.7,0,1,1-1.7-1.7A1.7,1.7,0,0,1,277.49,100.53Z"/><path class="cls-6" d="M288.29,100.54a1.7,1.7,0,1,1-1.7-1.7A1.7,1.7,0,0,1,288.29,100.54Z"/><path class="cls-3" d="M245,264.12a1.7,1.7,0,1,1-1.7-1.7A1.7,1.7,0,0,1,245,264.12Z"/><path class="cls-3" d="M255.83,264.13a1.7,1.7,0,1,1-1.7-1.7A1.7,1.7,0,0,1,255.83,264.13Z"/><path class="cls-3" d="M266.62,264.14a1.7,1.7,0,1,1-1.69-1.7A1.69,1.69,0,0,1,266.62,264.14Z"/><path class="cls-3" d="M277.42,264.14a1.7,1.7,0,1,1-1.7-1.7A1.7,1.7,0,0,1,277.42,264.14Z"/><path class="cls-3" d="M288.22,264.15a1.7,1.7,0,1,1-1.7-1.7A1.7,1.7,0,0,1,288.22,264.15Z"/><polygon class="cls-8" points="285.45 287.1 244.39 287.06 242.47 271.89 287.39 271.92 285.45 287.1"/><polygon class="cls-10" points="287.39 271.93 286.44 279.31 243.21 277.69 242.48 271.89 287.39 271.93"/><path class="cls-11" d="M171.22,361a7.25,7.25,0,1,1-7.25-7.25A7.25,7.25,0,0,1,171.22,361Z"/><circle class="cls-11" cx="176.5" cy="347.14" r="3.53"/><path class="cls-11" d="M335.1,357.48a3.53,3.53,0,1,1-3.53-3.54A3.53,3.53,0,0,1,335.1,357.48Z"/><path class="cls-11" d="M405.84,389.72a3.53,3.53,0,1,1-3.53-3.53A3.54,3.54,0,0,1,405.84,389.72Z"/><path class="cls-11" d="M400.43,400.05a4.21,4.21,0,0,1-4.22,4.21H133.59a4.21,4.21,0,0,1,0-8.42,4.15,4.15,0,0,1,1,.12,8.3,8.3,0,0,1,14.24-5.81l.08,0c0-.51-.08-1-.08-1.55a15.68,15.68,0,0,1,15.68-15.68,15.49,15.49,0,0,1,6.9,1.6,11.19,11.19,0,0,1,21.6-3.4,15.69,15.69,0,0,1,16.28-7,20.09,20.09,0,0,1-.32-3.66A21.22,21.22,0,0,1,244,344.31a4.22,4.22,0,0,1,3.74-2.28,4.33,4.33,0,0,1,1.62.32L253.33,287h23.14l3.94,55.32A4.33,4.33,0,0,1,282,342a4.22,4.22,0,0,1,3.74,2.28,21.22,21.22,0,0,1,34.75,19.74,15.47,15.47,0,0,1,3-.29,15.65,15.65,0,0,1,13.28,7.33,11.19,11.19,0,0,1,21.6,3.4,15.49,15.49,0,0,1,6.9-1.6A15.68,15.68,0,0,1,381,388.57c0,.52,0,1-.08,1.55l.08,0A8.3,8.3,0,0,1,395.21,396a4.15,4.15,0,0,1,1-.12A4.22,4.22,0,0,1,400.43,400.05Z"/><polygon class="cls-12" points="333.84 365.38 328.38 366.39 327.16 372.15 325.94 366.39 320.48 365.38 325.91 364.05 327.16 358.61 328.4 364.05 333.84 365.38"/><polygon class="cls-12" points="280.72 319.21 275.26 320.22 274.04 325.98 272.81 320.22 267.35 319.21 272.79 317.88 274.04 312.44 275.28 317.88 280.72 319.21"/><polygon class="cls-12" points="201.35 376.34 198.29 376.91 197.61 380.13 196.93 376.91 193.88 376.34 196.92 375.6 197.61 372.56 198.31 375.6 201.35 376.34"/><polygon class="cls-12" points="365.6 385.94 362.54 386.51 361.86 389.72 361.18 386.51 358.13 385.94 361.17 385.2 361.86 382.16 362.56 385.2 365.6 385.94"/><polygon class="cls-12" points="159.34 397.22 156.28 397.78 155.6 401 154.92 397.78 151.87 397.22 154.91 396.48 155.6 393.44 156.29 396.48 159.34 397.22"/><polygon class="cls-12" points="292.12 394.54 289.07 395.11 288.39 398.32 287.7 395.11 284.65 394.54 287.69 393.8 288.39 390.76 289.08 393.8 292.12 394.54"/><polygon class="cls-12" points="269.77 310.46 266.72 311.02 266.04 314.24 265.36 311.02 262.3 310.45 265.34 309.71 266.04 306.67 266.73 309.71 269.77 310.46"/><path class="cls-12" d="M372.82,392.9a.89.89,0,0,0,0,1.77A.89.89,0,0,0,372.82,392.9Z"/><path class="cls-12" d="M258,299.29a.89.89,0,0,0,0,1.77A.89.89,0,0,0,258,299.29Z"/><path class="cls-12" d="M182.46,397.22a.89.89,0,0,0,0,1.77A.89.89,0,0,0,182.46,397.22Z"/><path class="cls-12" d="M238.55,385.06a.89.89,0,0,0,0,1.77A.89.89,0,0,0,238.55,385.06Z"/><path class="cls-12" d="M350.65,377a.63.63,0,0,0,0,1.25A.63.63,0,0,0,350.65,377Z"/><path class="cls-12" d="M273.3,367.6a.63.63,0,0,0,0,1.26A.63.63,0,0,0,273.3,367.6Z"/><path class="cls-12" d="M216.68,355.37a.63.63,0,0,0,0,1.25A.63.63,0,0,0,216.68,355.37Z"/><path class="cls-12" d="M313.55,357.92a1.7,1.7,0,0,0,0,3.4A1.7,1.7,0,0,0,313.55,357.92Z"/><path class="cls-12" d="M224.69,349.61a1.7,1.7,0,0,0,0,3.4A1.7,1.7,0,0,0,224.69,349.61Z"/></g><g id="Character"><path class="cls-13" d="M152.86,454.81c-2,.65-59.27-.1-61.43-1.51-.83-.52-1.21-8.87-1.37-19V434c0-2.08-.07-4.23-.07-6.4,0-.3,0-.6,0-.89L92.75,397l38.31.38-3.78,29.43,0,1.17-.23,6.09,0,.62s21.79,10.09,24,11.9S154.87,454.17,152.86,454.81Z"/><path class="cls-1" d="M152.86,454.81c-2,.65-59.27-.1-61.43-1.51-.83-.52-1.21-8.87-1.37-19V434c0-2.08-.07-4.23-.07-6.4,0-.3,0-.6,0-.89l37.3.1,0,1.17-.23,6.09,0,.62s21.79,10.09,24,11.9S154.87,454.17,152.86,454.81Z"/><path class="cls-8" d="M152.87,454.81c-1,.33-16.59.29-31.8,0-3.06-.06-6.1-.13-9-.21-10.84-.3-19.8-.75-20.63-1.29s-1.2-8.64-1.37-18.55c0-.14,0-.28,0-.42s0-.22,0-.33h0l36.9.07,0,.63s21.8,10.08,24,11.89S154.87,454.17,152.87,454.81Z"/><path class="cls-4" d="M152.24,452.58c-9.65-.36-48.6-.91-58.16-.54-.08,0-.08.06,0,.06,9.56.57,48.52.81,58.17.64C152.44,452.74,152.45,452.59,152.24,452.58Z"/><path class="cls-4" d="M131.11,434.23c-3.79-.75-8.44-.23-11.38,2.44-.11.1,0,.26.16.22a53.87,53.87,0,0,1,11.2-2.18A.24.24,0,0,0,131.11,434.23Z"/><path class="cls-4" d="M133.83,435.92c-3.79-.76-8.44-.23-11.38,2.44-.11.1,0,.26.16.22a53.87,53.87,0,0,1,11.2-2.18A.24.24,0,0,0,133.83,435.92Z"/><path class="cls-4" d="M136.55,437.61c-3.79-.76-8.44-.23-11.38,2.43-.11.11,0,.27.16.23a53.22,53.22,0,0,1,11.2-2.18A.24.24,0,0,0,136.55,437.61Z"/><path class="cls-4" d="M121.07,454.8c-3.06-.06-6.1-.13-9-.21-10.84-.3-19.8-.75-20.63-1.29s-1.2-8.64-1.37-18.55c0-.14,0-.28,0-.42s0-.22,0-.33h0C95.15,437.55,113,449.41,121.07,454.8Z"/><path class="cls-5" d="M129.51,434.2H88.28s8.3-96.31,8-98c-.42-2.16-2.85-11.91-6.09-24.64-1-4-2.11-8.26-3.25-12.69-3.08-12-6.47-25.08-9.42-36.48-4.43-17.07-7.89-30.33-7.89-30.33h35s4.07,12.91,9.21,29.71c8.36,27.3,19.54,64.88,20.64,74C136.2,350.55,129.51,434.2,129.51,434.2Z"/><path class="cls-4" d="M127.69,427.17c-6.3-.13-4.49-.18-10.79-.25-3.08,0-23.34-.2-26.22.28a.06.06,0,0,0,0,.12c2.88.48,23.14.3,26.22.27,6.3-.06,4.49-.11,10.79-.24A.09.09,0,1,0,127.69,427.17Z"/><path class="cls-4" d="M104,330.32c-1.36-6-3.38-11.8-5.14-17.65Q93.53,294.83,88.1,277q-2.71-8.91-5.44-17.81c-.93-3-1.85-6-2.78-9s-2-5.83-2.79-8.79c-.34-1.2-.52-.54-.09,1,.87,3.07,1.72,6.15,2.62,9.22q2.67,9.12,5.36,18.22Q90.35,288,95.8,306.09l5.46,18.14a73.78,73.78,0,0,1,2.23,8.78,40.42,40.42,0,0,1,.36,9.39c-.39,6.31-1.12,12.61-1.71,18.91s-1.16,12.61-1.75,18.92q-1.74,18.82-3.45,37.66c-.14,1.59-.28,3.18-.41,4.78,0,.53.77.49.82,0,1.36-12.42,2.4-24.87,3.57-37.3l3.48-37.11c.29-3.11.62-6.22.62-9.34A38.68,38.68,0,0,0,104,330.32Z"/><path class="cls-4" d="M100.59,232.07c-2.42,18.77-7,54-10.42,79.5-7.88-30.94-20.56-79.5-20.56-79.5Z"/><path class="cls-13" d="M109.18,455.36c-2,.66-59.27.12-61.44-1.28-.83-.52-1.24-8.87-1.44-19,0-.11,0-.21,0-.32,0-2.08-.08-4.22-.09-6.4,0-.3,0-.6,0-.89-.14-14.58.92-29.71.92-29.71l37.42.25-1,29.43,0,1.16-.21,6.09,0,.63s21.83,10,24,11.8S111.18,454.71,109.18,455.36Z"/><path class="cls-1" d="M109.18,455.36c-2,.66-59.27.12-61.44-1.28-.83-.52-1.24-8.87-1.44-19,0-.11,0-.21,0-.32,0-2.08-.08-4.22-.09-6.4,0-.3,0-.6,0-.89l37.3,0,0,1.16-.21,6.09,0,.63s21.83,10,24,11.8S111.18,454.71,109.18,455.36Z"/><path class="cls-8" d="M109.18,455.36c-2,.66-59.27.12-61.44-1.28-.83-.52-1.24-8.87-1.44-19,0-.11,0-.21,0-.32l36.95-.07,0,.63s21.83,10,24,11.8S111.18,454.71,109.18,455.36Z"/><path class="cls-4" d="M108.55,453.13c-9.65-.32-48.61-.73-58.17-.32-.08,0-.08.06,0,.06,9.56.53,48.51.63,58.17.42C108.75,453.29,108.75,453.14,108.55,453.13Z"/><path class="cls-4" d="M87.35,434.87c-3.79-.75-8.44-.21-11.37,2.47-.11.1,0,.26.16.23a52.7,52.7,0,0,1,11.19-2.22A.24.24,0,0,0,87.35,434.87Z"/><path class="cls-4" d="M90.08,436.54c-3.79-.74-8.44-.2-11.37,2.48-.12.1,0,.26.16.22A53.84,53.84,0,0,1,90.06,437,.24.24,0,0,0,90.08,436.54Z"/><path class="cls-4" d="M92.8,438.22c-3.79-.74-8.44-.2-11.37,2.48-.11.1,0,.26.16.22a54,54,0,0,1,11.19-2.22A.24.24,0,0,0,92.8,438.22Z"/><path class="cls-5" d="M103.43,232.07s-.81,16.72-4.63,30c-.31,1.1-.64,2.18-1,3.21a62.52,62.52,0,0,0-10.08,5.18s-.4,13.45-.8,28.46c-.45,16.77-.91,35.48-.82,39.45.35,14.84-1.85,96.48-1.85,96.48L43,435s7.45-91.16,7.4-96.6c-.08-8.74,2-47.38,3.6-75.56,1-17.36,1.79-30.74,1.79-30.74Z"/><path class="cls-4" d="M82.83,427.47c-6.29-.1-4.49-.16-10.78-.19-3.09,0-23.34-.11-26.22.38-.06,0-.06.12,0,.13,2.88.46,23.14.2,26.22.16,6.3-.09,4.49-.13,10.79-.29A.1.1,0,0,0,82.83,427.47Z"/><path class="cls-4" d="M59.27,238c-.76,23-1.56,46-2.59,69s-2.42,46.14-4.35,69.15c-1.08,12.86-2.1,30.95-3.49,43.77a.07.07,0,0,0,.14,0c3-22.81,4.67-51,6.15-74s2.47-46,3.26-68.95c.44-13,.78-26,1.17-39C59.56,237.84,59.28,237.86,59.27,238Z"/><path class="cls-4" d="M99.51,264.24a77.38,77.38,0,0,0-11.79,6.18.14.14,0,0,0,.13.24c4-1.93,8-3.79,11.9-5.94A.27.27,0,0,0,99.51,264.24Z"/><path class="cls-4" d="M99.74,250.06c-.27,1.46-.63,2.91-.94,4.37s-.52,2.76-.88,4.11A7.07,7.07,0,0,1,96,262c-.54.5-1.13.94-1.7,1.39-.31.25-.64.49-1,.74,0-.2.07-.39.11-.59.09-.56.19-1.11.28-1.67.21-1.24.41-2.47.6-3.71.37-2.43.71-4.89,1.22-7.29,0-.1-.13-.14-.15,0-.61,2.38-1.28,4.74-1.81,7.15-.26,1.18-1.18,7-1.22,7.42s-.08.85-.09,1.28a4.72,4.72,0,0,0,0,1.3c0,.11.15.09.19,0h0a5.14,5.14,0,0,0,.37-1.27c.11-.42.2-.84.28-1.26,0-.15,0-.31.07-.47.57-.34,1.1-.8,1.64-1.19s1.17-.83,1.71-1.29a6.54,6.54,0,0,0,2.1-3.27,23.62,23.62,0,0,0,.68-4.19c.19-1.65.32-3.31.55-5C99.91,250,99.76,250,99.74,250.06Z"/><path class="cls-13" d="M89.71,192.77c15.92,8.87,39,11.83,45.49,7.95,6.86-4.09,16.42-24.1,17.11-37.54.15-3-22.24-1.79-22.79.23-1.61,6-6.45,17.16-7.48,17.19-1.35,0-18.46.81-30.35-.64C76.92,178.17,81,187.89,89.71,192.77Z"/><path class="cls-13" d="M153.26,151.12c.84,4.72-1.21,15-2.66,17.36s-19.13-.6-20.46-3.06-2.95-18.57-.61-22.87S152.38,146.23,153.26,151.12Z"/><path class="cls-13" d="M127.26,149.89c1.68,1.9,3-1.16,3-1.16s-.79,4.86,1.7,6.16,3.83-2.52,3.94-2.79c0,.26-.65,4.75,2,5.8s3.53-2.94,3.58-3.2c0,.26.61,3.62,2.79,4,3.76.59,2.53-8.06,4.48-10.44,0,0,4.41,2.85,4.56,2.9s-1-8.25-4.36-10.7a2.65,2.65,0,0,0-3.32.11s0-2.7-2.08-3.59c-1.06-.45-2.72.83-2.72.83a3.32,3.32,0,0,0-2-2.84c-1.49-.54-2.93.83-2.93.83s-1.06-2-2.77-2.08C129.65,133.54,123.68,145.8,127.26,149.89Z"/><path class="cls-4" d="M135.6,135.94s0-.08,0,0a23.64,23.64,0,0,0-5.41,13c0,.16.24.24.28.07A48.47,48.47,0,0,1,135.6,135.94Z"/><path class="cls-4" d="M140.79,137.7a.05.05,0,0,0-.09,0,22.09,22.09,0,0,0-5,14.53c0,.19.2.34.21.13C136,148.72,138.52,141.48,140.79,137.7Z"/><path class="cls-4" d="M141.58,155.07c-.07-5.17,1.53-9.84,3.86-14.4,0-.06-.05-.09-.09,0a19.76,19.76,0,0,0-3.65,7.44,13.57,13.57,0,0,0-.3,7C141.42,155.17,141.58,155.18,141.58,155.07Z"/><path class="cls-4" d="M130.23,148.73a15.84,15.84,0,0,0,.06,2.84,5.38,5.38,0,0,0,.9,2.56,1.79,1.79,0,0,0,1.05.64,2.56,2.56,0,0,0,1.26-.11,3,3,0,0,0,1.64-1.85l.71-2,0,2.09a8.33,8.33,0,0,0,.43,2.72,3,3,0,0,0,1.58,1.93,1.75,1.75,0,0,0,2.14-.5,5.21,5.21,0,0,0,1-2.44l.41-2.43.41,2.42a7.89,7.89,0,0,0,.58,2,3.3,3.3,0,0,0,1.19,1.49,1.54,1.54,0,0,0,1.65,0,3.36,3.36,0,0,0,1.08-1.61,26.8,26.8,0,0,0,1-4.15c.15-.71.29-1.42.47-2.12a5.16,5.16,0,0,1,.85-2,5.61,5.61,0,0,0-.65,2c-.13.71-.22,1.42-.31,2.14a23.33,23.33,0,0,1-.84,4.3,4.08,4.08,0,0,1-1.23,2,2.25,2.25,0,0,1-2.44.08,4.06,4.06,0,0,1-1.52-1.81,8.65,8.65,0,0,1-.69-2.18h.82a6,6,0,0,1-1.15,2.89,2.56,2.56,0,0,1-1.45.91,2.82,2.82,0,0,1-1.68-.2,3.81,3.81,0,0,1-2-2.44,9,9,0,0,1-.44-3l.73.13a3.64,3.64,0,0,1-2.16,2.18,3.06,3.06,0,0,1-1.56.06,2.19,2.19,0,0,1-1.3-.87,5.45,5.45,0,0,1-.79-2.82A12.37,12.37,0,0,1,130.23,148.73Z"/><path class="cls-13" d="M129.38,162.73s-11.18-17-2.39-18.12c2.61-.33,13.72,1.43,13.41,3.67-.4,2.89-5.17,3-8.19,2.63,0,0,4.62,5.25,1.93,9.55A5.05,5.05,0,0,1,129.38,162.73Z"/><path class="cls-4" d="M126.26,144.75a10.68,10.68,0,0,1,3.09-.3,23,23,0,0,1,3.1.27,35.24,35.24,0,0,1,6.08,1.42,5.65,5.65,0,0,1,1.48.73,2.07,2.07,0,0,1,.64.7,1.78,1.78,0,0,1,.19.48,1.81,1.81,0,0,1,0,.52,2.63,2.63,0,0,1-.88,1.59,4.84,4.84,0,0,1-1.48.83,9.42,9.42,0,0,1-3.17.5,21.79,21.79,0,0,1-3.14-.22l.31-.6a12.24,12.24,0,0,1,1.33,2,12,12,0,0,1,.93,2.18,8.07,8.07,0,0,1,.33,2.34,6,6,0,0,1-.44,2.29,6.78,6.78,0,0,0,.19-2.28,8.37,8.37,0,0,0-.52-2.21,11.25,11.25,0,0,0-1-2,12.71,12.71,0,0,0-1.35-1.79l-.63-.68.94.08a23.62,23.62,0,0,0,3,.12,9.22,9.22,0,0,0,2.89-.48c.87-.33,1.71-.94,1.81-1.73s-.85-1.21-1.75-1.56-1.92-.64-2.9-.91-2-.53-3-.73A19.51,19.51,0,0,0,126.26,144.75Z"/><path class="cls-8" d="M125.87,168.52l27.39,1.81s-8,28.88-20,32.06S99.06,200.26,88.58,193s-10.07-14.17,1.9-13.53,30,1,31.26,0S125.87,168.52,125.87,168.52Z"/><path class="cls-8" d="M153.26,170.33s-.13.48-.4,1.34l-.13.44c-.2.63-.45,1.42-.76,2.33a.93.93,0,0,1,0,.13c-.13.38-.26.78-.41,1.2l-.12.34-.27.78-.17.45c-.27.74-.56,1.52-.87,2.33a.61.61,0,0,0-.05.12c-.3.75-.61,1.54-.95,2.33a.08.08,0,0,1,0,0l-.16.39c-.09.22-.18.43-.28.65-.24.56-.49,1.12-.74,1.68l-.06.12c-.35.77-.72,1.55-1.11,2.33-.07.15-.15.3-.23.45l-.19.38c0,.08-.08.17-.13.25-.29.57-.59,1.13-.9,1.69a.83.83,0,0,0-.07.13c-.44.78-.88,1.54-1.35,2.29,0,0,0,0,0,0l-.28.44-.15.23c-.47.72-1,1.43-1.45,2.1a.83.83,0,0,1-.08.12c-.26.35-.52.69-.79,1l-.13.16c-.32.4-.65.78-1,1.15l-.4.44c-.31.32-.62.63-.94.92a5.31,5.31,0,0,1-.44.4c-.41.37-.83.7-1.25,1l-.19.13a9.53,9.53,0,0,1-.89.57l-.12.07a9.87,9.87,0,0,1-2.33,1,1.39,1.39,0,0,1-.19.06l-.25.06a22.85,22.85,0,0,1-2.33.47l-.13,0-.45.07c-.61.08-1.23.15-1.87.2l-.45,0c-.75,0-1.53.09-2.32.09h-.13l-2.33,0-.44,0c-.76,0-1.54-.08-2.33-.15h-.12l-1.27-.12-1.06-.12c-.15,0-.3,0-.44-.06-.77-.09-1.55-.2-2.33-.33l-.13,0c-.77-.12-1.54-.26-2.32-.41a3.58,3.58,0,0,1-.45-.09c-.78-.15-1.56-.31-2.33-.49l-.12,0c-.78-.18-1.56-.37-2.33-.57a3.17,3.17,0,0,1-.44-.12l-.31-.08-.47-.13c-.52-.13-1-.28-1.55-.44l-.12,0c-.78-.23-1.56-.48-2.33-.73l-.45-.15c-.79-.27-1.56-.55-2.32-.83l-.13,0-.26-.1-1.12-.44-1-.39-.44-.19c-.8-.34-1.58-.69-2.33-1.05l-.12-.06c-.43-.21-.86-.42-1.27-.64l-.23-.12-.83-.45-.44-.24c-.82-.47-1.61-1-2.33-1.44l-.13-.09-.13-.09,0,0-.62-.44c-.55-.39-1.06-.79-1.54-1.18-.16-.12-.3-.24-.45-.37-.31-.26-.61-.52-.89-.78l-.14-.13q-.72-.68-1.29-1.32l-.13-.14c-.26-.29-.49-.58-.7-.86s-.23-.3-.33-.45A8.28,8.28,0,0,1,81.3,185a.27.27,0,0,1,0-.12,2.08,2.08,0,0,1-.11-.48,3.16,3.16,0,0,1,0-1.37,2.42,2.42,0,0,1,.13-.48,2,2,0,0,1,.21-.44,4.09,4.09,0,0,1,2-1.72l.13-.06a9.24,9.24,0,0,1,1.77-.55l.55-.1.11,0,.34,0a16.55,16.55,0,0,1,2.32-.15h.13c.51,0,1.06,0,1.64,0l.69,0,.44,0c.76,0,1.53.08,2.33.12h.12l2.33.09.44,0h0l2.32.08h.13l2.32.08h.45l2.33.06h.12l2.33.05h.44l2.33,0h2.9l2.32,0H115c.84,0,1.62,0,2.33-.06l.44,0c.91,0,1.7-.09,2.33-.16h.12l.55-.07.61-.12a1.09,1.09,0,0,0,.4-.17,4.16,4.16,0,0,0,.77-1.24c.13-.27.27-.58.4-.92a.36.36,0,0,0,0-.09l.15-.36c.28-.71.57-1.51.85-2.32,0,0,0-.09,0-.13.27-.79.53-1.59.77-2.33,0-.15.09-.3.14-.44l.37-1.18c0-.15.09-.29.13-.43s.16-.51.22-.72a.56.56,0,0,1,0-.12c.12-.44.2-.7.2-.7l1.86.12.45,0,2.32.16h.13L133,169l.44,0,2.33.15h.12l.61,0,1.72.11h.1l.34,0,2.33.16h.13l2.32.15.45,0,2.32.15h.13l2.33.15.44,0,2.33.16h.12Z"/><g class="cls-14"><path class="cls-6" d="M81.16,183v1.37A3.16,3.16,0,0,1,81.16,183Z"/><path class="cls-6" d="M83.62,180.34v8.45l-.13-.14V180.4Z"/><path class="cls-6" d="M86.39,179.62v11.77c-.16-.12-.3-.24-.45-.37V179.67h.11Z"/><path class="cls-6" d="M88.84,179.46v13.75l-.13-.09V179.47Z"/><path class="cls-6" d="M91.61,179.55v15.34l-.44-.24V179.53Z"/><path class="cls-6" d="M94.06,179.67v16.49l-.12-.06V179.67Z"/><path class="cls-6" d="M96.83,179.79V197.4l-.44-.19V179.77Z"/><path class="cls-6" d="M99.29,179.88v18.5l-.13,0V179.87Z"/><path class="cls-6" d="M102.06,180v19.39l-.45-.15V180Z"/><path class="cls-6" d="M104.51,180v20.09l-.12,0V180Z"/><path class="cls-6" d="M107.28,180.09v20.8a3.17,3.17,0,0,1-.44-.12V180.08Z"/><path class="cls-6" d="M109.73,180.12v21.37l-.12,0V180.12Z"/><path class="cls-6" d="M112.51,180.13v21.94a3.58,3.58,0,0,1-.45-.09V180.13Z"/><path class="cls-6" d="M115,180.11V202.5l-.13,0V180.11Z"/><path class="cls-6" d="M117.73,180v22.86c-.15,0-.3,0-.44-.06V180.05Z"/><path class="cls-6" d="M120.18,179.86v23.28h-.12V179.87Z"/><path class="cls-6" d="M123,177.25v26.06l-.44,0v-25c.13-.27.27-.58.4-.92A.36.36,0,0,0,123,177.25Z"/><path class="cls-6" d="M125.41,170.06v33.27h-.13V170.49C125.32,170.34,125.37,170.2,125.41,170.06Z"/><path class="cls-6" d="M128.18,168.67v34.54l-.45,0v-34.6Z"/><path class="cls-6" d="M130.63,168.83v34.09l-.13,0V168.83Z"/><path class="cls-6" d="M133.4,169v33.31a1.39,1.39,0,0,1-.19.06l-.25.06V169Z"/><path class="cls-6" d="M135.85,169.18v32.08l-.12.07V169.17Z"/><path class="cls-6" d="M138.62,169.34v29.81a5.31,5.31,0,0,1-.44.4V169.33h.44Z"/><path class="cls-6" d="M141.08,169.53v26.95l-.13.16V169.52Z"/><path class="cls-6" d="M143.85,169.71v22.86h0l-.28.44-.15.23V169.68Z"/><path class="cls-6" d="M146.3,169.87v18.3c0,.08-.08.17-.13.25V169.86Z"/><path class="cls-6" d="M149.07,170.05v12.12l-.16.39c-.09.22-.18.43-.28.65V170Z"/><path class="cls-6" d="M151.52,170.22v5.55l-.12.34v-5.9Z"/></g><g class="cls-14"><path class="cls-6" d="M138.28,169.34H125.63a.56.56,0,0,1,0-.12h10.79l1.72.11Z"/><path class="cls-6" d="M152.86,171.67l-.13.44h-28c0-.15.09-.3.14-.44Z"/><path class="cls-6" d="M152,174.44a.93.93,0,0,1,0,.13H124s0-.09,0-.13Z"/><path class="cls-6" d="M151.13,176.89l-.17.45H122.91a.36.36,0,0,0,0-.09l.15-.36Z"/><path class="cls-6" d="M96.83,179.79H85.39l.55-.1v0h8.12l2.33.09Z"/><path class="cls-6" d="M150.09,179.67a.61.61,0,0,0-.05.12H120.73l.61-.12Z"/><path class="cls-6" d="M149.09,182.12a.08.08,0,0,1,0,0l-.16.39H81.29a2,2,0,0,1,.21-.44Z"/><path class="cls-6" d="M147.89,184.89l-.06.12H81.3a.27.27,0,0,1,0-.12Z"/><path class="cls-6" d="M146.72,187.34c-.07.15-.15.3-.23.45H82.79q-.18-.22-.33-.45Z"/><path class="cls-6" d="M145.27,190.11a.83.83,0,0,0-.07.13H85.05l-.14-.13Z"/><path class="cls-6" d="M143.83,192.57l-.28.44h-55l-.62-.44Z"/><path class="cls-6" d="M142,195.34a.83.83,0,0,1-.08.12H92.67l-.23-.12Z"/><path class="cls-6" d="M140,197.79l-.4.44H98.9l-1.12-.44Z"/><path class="cls-6" d="M136.93,200.56l-.19.13H106.53l-.47-.13Z"/><path class="cls-6" d="M130.05,203c-.61.08-1.23.15-1.87.2l-.45,0c-.75,0-1.53.09-2.32.09h-.13l-2.33,0-.44,0c-.76,0-1.54-.08-2.33-.15h-.12l-1.27-.12Z"/></g><path class="cls-4" d="M102.59,199.53a55.56,55.56,0,0,1-14-6.5c-9.2-6.35-10-12.46-2-13.43Z"/><path class="cls-4" d="M125.47,173.35c1.06.24,2.17.28,3.25.42s2.16.23,3.25.32c2.09.17,4.19.31,6.28.44l6.29.39c2.17.13,4.37.37,6.54.32a.08.08,0,0,0,0-.15c-2.14-.36-4.35-.45-6.51-.64l-6.39-.55c-2.13-.17-4.27-.34-6.4-.48-1-.06-2.1-.12-3.15-.14a30.56,30.56,0,0,0-3.17-.07C125.38,173.22,125.4,173.34,125.47,173.35Z"/><path class="cls-8" d="M51.51,256.91c.15.15,60.56-4,61.07-4.64.7-.93-17.61-65.39-24.39-73-1.45-1.64-5.86-1.81-9.54-1.08a17.27,17.27,0,0,0-2.83.79l-.09,0a6.88,6.88,0,0,0-2,1.18c-9.76,9-16.4,38.49-17.81,47.3C53.54,242,51,256.38,51.51,256.91Z"/><g class="cls-14"><path class="cls-6" d="M52.27,249.64v7.24h-.12V250h.06Z"/><path class="cls-6" d="M55,232.63v24.1l-.44,0V235.32c0-.17.06-.34.08-.52s0-.29.08-.44C54.85,233.79,55,233.21,55,232.63Z"/><path class="cls-6" d="M57.5,219.36v37.21h-.13V219.93C57.41,219.75,57.45,219.55,57.5,219.36Z"/><path class="cls-6" d="M60.27,208.51v47.88l-.44,0V210.06l.39-1.38A1.09,1.09,0,0,1,60.27,208.51Z"/><path class="cls-6" d="M62.72,200.7v55.53H62.6V201.05Z"/><path class="cls-6" d="M65.49,193.44V256l-.44,0V194.49Z"/><path class="cls-6" d="M67.94,188.25v67.62h-.12V188.47Z"/><path class="cls-6" d="M70.72,183.65v72h-.15l-.3,0V184.3Z"/><path class="cls-6" d="M73.17,180.68v74.83H73V180.81A1.59,1.59,0,0,0,73.17,180.68Z"/><path class="cls-6" d="M75.94,178.91v76.41l-.44,0V179.09l.23-.1.09,0Z"/><path class="cls-6" d="M78.39,178.21v76.93h-.12V178.24Z"/><path class="cls-6" d="M81.16,177.82v77.12l-.44,0V177.85Z"/><path class="cls-6" d="M83.62,177.77v77h-.13v-77Z"/><path class="cls-6" d="M86.39,178.21v76.36l-.45,0V178.08Z"/><path class="cls-6" d="M88.84,180.09v74.3h-.13V179.9Z"/><path class="cls-6" d="M91.61,185.4v68.77l-.44,0V184.44c.07.15.14.3.2.45l.06.12Z"/><path class="cls-6" d="M93.94,191.06l.12.3V254h-.12Z"/><path class="cls-6" d="M96.83,198.92v54.86l-.44,0V197.67s0,.08,0,.12.11.29.16.44Z"/><path class="cls-6" d="M99.29,206.12v47.47h-.13V205.74s0,0,0,0a.5.5,0,0,1,0,.13C99.24,206,99.27,206.05,99.29,206.12Z"/><path class="cls-6" d="M102.06,214.68v38.68l-.45,0V213.26a1.17,1.17,0,0,1,.06.2c0,.15.1.29.14.44S102,214.42,102.06,214.68Z"/><path class="cls-6" d="M104.51,222.57v30.59h-.12v-31Z"/><path class="cls-6" d="M107.28,231.87v21h-.12l-.32,0V230.36C107,230.87,107.13,231.37,107.28,231.87Z"/><path class="cls-6" d="M109.73,240.5v12.18h-.12V240.07Z"/><path class="cls-6" d="M112.51,251.45v.85a3.27,3.27,0,0,1-.45.1v-3c.06.23.11.44.15.64s.07.3.1.44C112.4,250.86,112.46,251.19,112.51,251.45Z"/></g><g class="cls-14"><path class="cls-6" d="M88.63,179.79H74.19l.17-.12H88.54Z"/><path class="cls-6" d="M90.26,182.56H71.53c.11-.15.23-.29.35-.44H90C90.11,182.26,90.18,182.41,90.26,182.56Z"/><path class="cls-6" d="M91.43,185H69.8a.83.83,0,0,0,.08-.12H91.37Z"/><path class="cls-6" d="M92.63,187.79H68.19l.24-.45h24C92.51,187.49,92.57,187.64,92.63,187.79Z"/><path class="cls-6" d="M93.62,190.24H66.94l.06-.13H93.57S93.6,190.2,93.62,190.24Z"/><path class="cls-6" d="M94.68,193h-29c.06-.15.12-.29.19-.44H94.52C94.57,192.72,94.63,192.86,94.68,193Z"/><path class="cls-6" d="M95.59,195.46H64.66a.61.61,0,0,1,0-.12H95.55S95.58,195.42,95.59,195.46Z"/><path class="cls-6" d="M96.59,198.23h-33c0-.15.1-.29.16-.44H96.43C96.48,197.93,96.54,198.08,96.59,198.23Z"/><path class="cls-6" d="M97.45,200.69H62.72s0-.09.05-.13H97.41A.65.65,0,0,0,97.45,200.69Z"/><path class="cls-6" d="M98.4,203.46H61.8c.05-.15.09-.3.14-.45H98.25Z"/><path class="cls-6" d="M99.22,205.91H61a.65.65,0,0,0,0-.13h38.1A.5.5,0,0,1,99.22,205.91Z"/><path class="cls-6" d="M100.14,208.68H60.22a1.09,1.09,0,0,1,.05-.17,2.76,2.76,0,0,1,.08-.27H100Z"/><path class="cls-6" d="M100.93,211.13H59.54l0-.12h41.32S100.92,211.09,100.93,211.13Z"/><path class="cls-6" d="M101.81,213.9h-43l.11-.44h42.75C101.72,213.61,101.77,213.75,101.81,213.9Z"/><path class="cls-6" d="M102.59,216.36H58.2l0-.13h44.32S102.58,216.31,102.59,216.36Z"/><path class="cls-6" d="M103.46,219.13H57.55c0-.15.07-.3.11-.45h45.66C103.36,218.83,103.41,219,103.46,219.13Z"/><path class="cls-6" d="M104.21,221.58H57l0-.12h47.13A.56.56,0,0,1,104.21,221.58Z"/><path class="cls-6" d="M105.05,224.35H56.45l.09-.44h48.38C105,224.06,105,224.21,105.05,224.35Z"/><path class="cls-6" d="M105.78,226.8H56s0-.08,0-.12h49.73Z"/><path class="cls-6" d="M106.61,229.57H55.55c0-.15.05-.29.07-.44h50.86C106.52,229.28,106.56,229.43,106.61,229.57Z"/><path class="cls-6" d="M107.33,232H55.14a.51.51,0,0,0,0-.13h52.13A.65.65,0,0,0,107.33,232Z"/><path class="cls-6" d="M108.12,234.8H54.68c0-.14,0-.29.08-.44H108Z"/><path class="cls-6" d="M108.83,237.25H54.28a.5.5,0,0,0,0-.12h54.49A.56.56,0,0,0,108.83,237.25Z"/><path class="cls-6" d="M109.6,240H53.82c0-.15,0-.29.08-.44h55.57C109.52,239.73,109.56,239.88,109.6,240Z"/><path class="cls-6" d="M110.27,242.47H53.42s0-.08,0-.12h56.8Z"/><path class="cls-6" d="M111,245.25H53c0-.14,0-.29.08-.45H110.9Z"/><path class="cls-6" d="M111.65,247.7H52.58a.59.59,0,0,1,0-.13h59Z"/><path class="cls-6" d="M112.31,250.47H52.15V250h60.06C112.25,250.19,112.28,250.33,112.31,250.47Z"/><path class="cls-6" d="M108.46,252.8l-1.18.11H51.79a.5.5,0,0,0,0-.12Z"/><path class="cls-6" d="M76.87,255.25l-.93.07-.44,0-2.33.16H73l-2.32.16H51.48c0-.13,0-.28,0-.44Z"/></g><path class="cls-4" d="M73.18,255.51c-11.77.83-21.61,1.46-21.67,1.4-.54-.53,2-14.91,4.38-29.44,1.37-8.57,7.7-36.74,17-46.53Z"/><path class="cls-4" d="M89.74,181.91s0,0,0,0c.35,2.73,1,9.07-3.32,9a9.2,9.2,0,0,1-4.79-2,24.09,24.09,0,0,1-3.9-3.45A35.65,35.65,0,0,1,74,181c0-.07-.15,0-.1.08,1.13,1.6,2.1,3.29,3.39,4.78a21.05,21.05,0,0,0,4.22,3.83,9.12,9.12,0,0,0,5.08,1.9,3.48,3.48,0,0,0,3.35-2.85A15.42,15.42,0,0,0,89.74,181.91Z"/><polygon class="cls-15" points="100.35 262.73 134.41 268.55 149.07 221.46 115.02 215.64 100.35 262.73"/><polygon class="cls-2" points="102.03 263.02 136.08 268.83 150.74 221.74 116.69 215.93 102.03 263.02"/><path class="cls-6" d="M131.22,241a3.74,3.74,0,0,1-4.17,2.7,3,3,0,0,1-2.46-3.83,3.74,3.74,0,0,1,4.17-2.69A3,3,0,0,1,131.22,241Z"/><path class="cls-13" d="M69.21,184.31c-10.32,13.39-33.81,48.78-27.55,56C52,252.25,77.16,262.73,85,265.09c3.4,1,15.48-23.72,12.27-25.75-3.84-2.44-29.2-10.68-29.07-13,.08-1.32,3.41-15.47,6.1-29.57C77.45,180.42,72.74,179.72,69.21,184.31Z"/><path class="cls-13" d="M84.93,237.61s10.35-3,17.21-4.7c3.83-.93,10.54-1.94,13.66-1.34,4.68.9,23.65,7.66,22.11,12.3-1.39,4.2-17-3.68-17-3.68s16.4,6.56,13.8,11.3-19-6.49-19-6.49,16.7,7.12,13.24,11.59c-2.62,3.37-18-6-18-6s14.31,6.22,11.77,9.8c-2.81,4-17.59-3.76-17.59-3.76-8,8-15.09,8.58-20.18,8.38C83.72,265,84.93,237.61,84.93,237.61Z"/><path class="cls-4" d="M116.19,237.89c12.46,3.91,17.37,9.64,17.21,9.52-3.81-3-10.52-6.2-12.41-7.08s-2.95-1.5-4.83-2.37C116.11,237.94,116.15,237.88,116.19,237.89Z"/><path class="cls-4" d="M112.15,244.31A44.32,44.32,0,0,1,126.41,251c.16.12.06.16-.12.07-2.37-1.18-11.75-5.62-14.17-6.67A0,0,0,0,1,112.15,244.31Z"/><path class="cls-4" d="M108.3,249.6a33,33,0,0,1,10.88,5.48c.17.12,0,.17-.16.07-3.58-1.89-6.38-3.39-10.77-5.42C108.18,249.7,108.22,249.57,108.3,249.6Z"/><path class="cls-8" d="M82.21,232.44l-13,28.32s-27.58-13.2-29.5-23.34,23-45.93,27.75-51.77c1.34-1.65,5-5.4,6.79-5,2,.49,1.82,3.44,1.72,10.29-.14,9.12-7.25,34.21-6.7,35.23S82.21,232.44,82.21,232.44Z"/><g class="cls-14"><path class="cls-6" d="M41.83,227.51V241.8l-.13-.18V227.83C41.74,227.72,41.78,227.62,41.83,227.51Z"/><path class="cls-6" d="M44.6,221.48v23.4l-.08-.08-.37-.36V222.38c.13-.26.26-.53.4-.8Z"/><path class="cls-6" d="M47.05,216.84v30.22l-.12-.1v-29.9Z"/><path class="cls-6" d="M49.82,212v37.28l-.44-.33v-36.2C49.53,212.46,49.68,212.21,49.82,212Z"/><path class="cls-6" d="M52.27,207.89V251l-.12-.09V208.09Z"/><path class="cls-6" d="M55,203.47v49.36l0,0-.4-.26V204.17Z"/><path class="cls-6" d="M57.5,199.69v54.67l-.13-.08V199.89Z"/><path class="cls-6" d="M60.27,195.56V256l-.44-.26V196.2Z"/><path class="cls-6" d="M62.6,192.2l.12-.17v65.36l-.12-.07Z"/><path class="cls-6" d="M65.49,188.17v70.72l-.44-.24V188.77Z"/><path class="cls-6" d="M67.94,185.05v75.1l-.12-.06V185.18A.74.74,0,0,1,67.94,185.05Z"/><path class="cls-6" d="M70.72,182.33V218.5a1.16,1.16,0,0,1,0,.18c0,.15-.07.3-.1.45-.11.46-.21.91-.31,1.33V182.71l.17-.15Z"/><path class="cls-6" d="M70.27,227l.45.24v30.18l-.29.63-.06.13-.1.22Z"/><path class="cls-6" d="M73.17,180.79v27.07c0,.13-.06.25-.08.38s0,.13,0,.2v-27.6Z"/><path class="cls-6" d="M73,228.38l.13.06v23.63l-.13.29Z"/><path class="cls-6" d="M75.94,229.71v16.35l-.44.95V229.52l.12,0Z"/><path class="cls-6" d="M75.94,184.41v5.92c0,.21,0,.42,0,.64,0,.49,0,1-.08,1.6,0,.14,0,.29,0,.44-.06.72-.15,1.5-.27,2.33,0,0,0,.08,0,.12l0,.21V181.85a1.69,1.69,0,0,1,.1.27,2.55,2.55,0,0,1,.12.44A9.87,9.87,0,0,1,75.94,184.41Z"/><path class="cls-6" d="M78.39,230.8v9.94l-.12.26V230.75Z"/><path class="cls-6" d="M80.94,231.9l.22.09v2.73l0,.08-.4.88v-3.87Z"/></g><g class="cls-14"><path class="cls-6" d="M75.72,182.56H70.44l.28-.23.26-.21H75.6A2.55,2.55,0,0,1,75.72,182.56Z"/><path class="cls-6" d="M76,184.89V185H68l.1-.12Z"/><path class="cls-6" d="M76,187.34v.45H65.77l.33-.45Z"/><path class="cls-6" d="M75.94,190.11v.13H64a.77.77,0,0,0,.09-.13Z"/><path class="cls-6" d="M75.85,192.57c0,.14,0,.29,0,.44H62l.31-.44Z"/><path class="cls-6" d="M75.54,195.34s0,.08,0,.12H60.34l.08-.12Z"/><path class="cls-6" d="M75.17,197.79c0,.15,0,.29-.08.44H58.46c.11-.15.21-.29.3-.44Z"/><path class="cls-6" d="M74.68,200.56l0,.13H56.84l.09-.13Z"/><path class="cls-6" d="M74.19,203a3.58,3.58,0,0,1-.09.45h-19c.1-.15.19-.3.28-.45Z"/><path class="cls-6" d="M73.62,205.78l0,.13H53.5l.08-.13Z"/><path class="cls-6" d="M73.09,208.24c0,.07,0,.13,0,.2a2.1,2.1,0,0,1-.06.24H51.79l.27-.44Z"/><path class="cls-6" d="M72.47,211a.53.53,0,0,0,0,.12H50.31a.75.75,0,0,0,.07-.12Z"/><path class="cls-6" d="M71.9,213.46c0,.14-.07.29-.1.44H48.7l.25-.44Z"/><path class="cls-6" d="M71.26,216.23a.31.31,0,0,0,0,.13H47.31l.07-.13Z"/><path class="cls-6" d="M70.68,218.68c0,.15-.07.3-.1.45H45.82c.07-.15.15-.3.23-.45Z"/><path class="cls-6" d="M70.05,221.46l0,.12H44.55l.05-.1v0Z"/><path class="cls-6" d="M69.52,223.91c0,.16-.06.3-.09.44H43.21c.07-.14.13-.29.21-.44Z"/><path class="cls-6" d="M70,226.8H42.12l.06-.12H69.81Z"/><path class="cls-6" d="M75.62,229.57H41c.06-.15.11-.29.16-.44H74.65l.85.39Z"/><path class="cls-6" d="M81.25,232h-41a.79.79,0,0,1,0-.13H80.94l.22.09Z"/><path class="cls-6" d="M81.33,234.36l-.17.36,0,.08H39.66c0-.14,0-.29.06-.44Z"/><path class="cls-6" d="M80.05,237.13l0,.12H39.65a.25.25,0,0,1,0-.12Z"/><path class="cls-6" d="M78.92,239.58l-.2.44H40.66c-.08-.14-.16-.29-.23-.44Z"/><path class="cls-6" d="M77.65,242.35l-.06.12H42.36a.94.94,0,0,1-.09-.12Z"/><path class="cls-6" d="M76.52,244.8l-.21.45H45l-.39-.37-.08-.08Z"/><path class="cls-6" d="M75.24,247.57l-.06.13H47.83l-.16-.13Z"/><path class="cls-6" d="M74.11,250l-.2.44H51.53L50.9,250Z"/><path class="cls-6" d="M72.84,252.8l-.06.12H55.19l-.15-.09,0,0Z"/><path class="cls-6" d="M71.71,255.25l-.21.44H59.72l-.73-.44Z"/><path class="cls-6" d="M70.43,258l-.06.13H64.11l-.24-.13Z"/><path class="cls-6" d="M69.3,260.47l-.13.29-.6-.29Z"/></g><path class="cls-4" d="M66.22,255.15c.61-.91,1-1.93,1.55-2.89s1-1.94,1.47-2.92q1.37-2.84,2.67-5.7c.87-1.91,1.75-3.82,2.61-5.73s1.91-3.95,2.65-6a.07.07,0,0,0-.13-.07c-1.11,1.87-2,3.9-2.93,5.85s-1.88,3.85-2.81,5.77-1.85,3.86-2.75,5.8c-.44,1-.86,1.92-1.26,2.89s-.9,1.93-1.2,2.94C66.06,255.18,66.18,255.21,66.22,255.15Z"/><path class="cls-4" d="M82.09,232.43c-.92-.58-9.39-5.26-12.67-6.14a.08.08,0,0,0-.07.14c3.07,2.27,11.68,5.85,12.7,6.14C82.14,232.59,82.16,232.47,82.09,232.43Z"/><path class="cls-13" d="M86.41,188c-3.07.51-8.6-4.88-10.41-8.76-.12-.27.45-3,1-6.24.33-2,.63-4.23.77-6.29,0-.42,1.41.45,1.41.45l2.62.82,8.67,2.71a33.12,33.12,0,0,0-1.77,7.82,4.71,4.71,0,0,0,0,.85s0,.09,0,.15C88.89,181.1,89.38,187.46,86.41,188Z"/><path class="cls-4" d="M88.73,179.33s0,.09,0,.15a8.55,8.55,0,0,1-1.33,0c-8.68-.77-9-11.89-9-11.89l3.42.38,8.67,2.71a33.12,33.12,0,0,0-1.77,7.82A4.71,4.71,0,0,0,88.73,179.33Z"/><path class="cls-4" d="M91.41,147.34s4.07,1.21,5.19,5.1.66,8.14.33,8.37S91.41,147.34,91.41,147.34Z"/><path class="cls-13" d="M74.68,154.15c-.85,4.72,3.12,17.59,6.71,20.14,5.2,3.69,12.94,3.18,15.88-2.89,2.85-5.89-2.62-22.57-6.55-24.81C84.92,143.3,75.93,147.17,74.68,154.15Z"/><path class="cls-16" d="M81.05,174.2h0"/><path class="cls-4" d="M88.24,161.21s-.06.06,0,.09c.29.86.48,1.9-.22,2.42,0,0,0,.06,0,.05C88.91,163.34,88.65,162,88.24,161.21Z"/><path class="cls-4" d="M87.19,160.53c-1.43.32-.69,3.16.63,2.86S88.38,160.27,87.19,160.53Z"/><path class="cls-4" d="M93.59,159.68s.08,0,.09.06c.2.89.58,1.87,1.45,1.95,0,0,0,.05,0,.05C94.13,161.86,93.64,160.55,93.59,159.68Z"/><path class="cls-4" d="M94.13,158.56c1.39-.47,2.24,2.33,1,2.77S93,159,94.13,158.56Z"/><path class="cls-4" d="M85.73,159.53c.36-.2.66-.44,1-.67s.71-.43.88-.88a.61.61,0,0,0-.28-.7,1.54,1.54,0,0,0-1.54.23,2.29,2.29,0,0,0-1,1.28A.66.66,0,0,0,85.73,159.53Z"/><path class="cls-4" d="M94.86,156.85a9.61,9.61,0,0,1-1.2,0,1.93,1.93,0,0,1-1.23-.23.63.63,0,0,1-.16-.74,1.56,1.56,0,0,1,1.41-.67,2.24,2.24,0,0,1,1.55.49A.66.66,0,0,1,94.86,156.85Z"/><path class="cls-4" d="M89.54,169.26c.26.15.55.38.87.32a2.29,2.29,0,0,0,.89-.46,0,0,0,0,1,0,0,1.22,1.22,0,0,1-1,.77,1,1,0,0,1-.89-.6S89.5,169.24,89.54,169.26Z"/><path class="cls-4" d="M89.78,166.39a3.07,3.07,0,0,0,2.34.81,3.72,3.72,0,0,0,1.09-.23l.2-.08a.71.71,0,0,0,.18-.08.23.23,0,0,0,.13-.24h0a.13.13,0,0,0,0-.08h0l0-.08c-.16-.68-.49-1.69-.49-1.69.28.06,1.68.3,1.57,0a45.79,45.79,0,0,0-3.52-8.74c0-.09-.19,0-.15.06.79,2.8,2.07,5.45,2.91,8.25a5.34,5.34,0,0,0-1.53-.06c-.08.05.68,1.94.73,2.25v0a4.26,4.26,0,0,1-3.34-.16C89.76,166.26,89.71,166.34,89.78,166.39Z"/><path class="cls-4" d="M92.72,166.73a3.65,3.65,0,0,1-1.13,1.47,1.67,1.67,0,0,1-1,.32c-.75,0-.93-.64-.95-1.23a4,4,0,0,1,.1-.92A4.73,4.73,0,0,0,92.72,166.73Z"/><path class="cls-17" d="M91.59,168.2a1.67,1.67,0,0,1-1,.32c-.75,0-.93-.64-.95-1.23A1.71,1.71,0,0,1,91.59,168.2Z"/><path class="cls-4" d="M78,165.3c1.55-.05,1.71-4.81,1.61-6.59-.09-1.56-1.19-6.25-1.23-6.58s7.49,1.9,10.66-.34,4.44-6.23,4-7.72-6.14-3.74-10-2.62-7.33,7.69-7.33,7.69a18.41,18.41,0,0,0,.91-2.83,4.38,4.38,0,0,0-2.08,3.57s-.27-2.35-.47-2.33-1.46,2.55-.54,3.83c0,0-1.54,2.66-1,4.82S76.14,165.36,78,165.3Z"/><path class="cls-4" d="M91.24,150.19a12.68,12.68,0,0,1-2.92,2.34,8.46,8.46,0,0,1-4,.7,12.81,12.81,0,0,1-4-.83c-1.13-.42-2.22-1-3.38-1.35-.29-.08-.45.35-.23.52a13.48,13.48,0,0,0,8,2.51,7.69,7.69,0,0,0,6.56-3.87S91.26,150.17,91.24,150.19Z"/><path class="cls-13" d="M78.77,164.53s-3.56-3.83-5.34-2.5,1.31,7.17,3.69,7.69A2.32,2.32,0,0,0,80,168.06Z"/><path class="cls-4" d="M74.36,163.68s0,.06,0,.06A5.87,5.87,0,0,1,77.86,167a1.27,1.27,0,0,0-1.94-.08s0,.09,0,.08a1.43,1.43,0,0,1,1.63.28,6.83,6.83,0,0,1,.92,1.15c.09.13.34,0,.26-.13l0,0C78.52,166.19,76.56,163.58,74.36,163.68Z"/><path class="cls-1" d="M88.79,179.25l-3.15,7.59-9.37-9.75-2.72,3.06s9.09,15.44,9.16,14.75l3.22-6.54L90.41,193l-.23-11.48Z"/><path class="cls-4" d="M90.62,187.3c-.11-1.9-.16-3.81-.35-5.69,0-.07-.11-.1-.12,0-.41,1.82,0,9.06,0,10.8l0,0c-.19-.2-4.16-4.07-4.2-4-.69,1-3.06,5.79-3.22,6.23-1.44-2.45-6.95-11.37-8.66-13.69a.07.07,0,0,0-.12.06c1.27,2.59,8.57,14.59,8.68,14.56A74.49,74.49,0,0,0,86,188.61c.67.84,4.67,5.21,4.69,4.92A61.68,61.68,0,0,0,90.62,187.3Z"/></g></svg>