<svg xmlns="http://www.w3.org/2000/svg" viewBox="0 0 500 500"><defs><style>.cls-1{fill:#ebebeb;}.cls-2{fill:#dbdbdb;}.cls-3{fill:#c7c7c7;}.cls-4{fill:#263238;}.cls-5{fill:#455a64;}.cls-6{fill:#fff;}.cls-7{fill:#37474f;}.cls-11,.cls-8{fill:#00a579;}.cls-9{fill:#ffc727;}.cls-10{opacity:0.1;}.cls-11{opacity:0.6;}.cls-12{fill:#fdfdfd;}.cls-13{fill:#dd6a57;}.cls-14{opacity:0.3;}.cls-15{fill:#a6a6a6;}.cls-16{fill:none;stroke:#dd6a57;stroke-linecap:round;stroke-linejoin:round;stroke-width:0;}.cls-17{fill:#ff99ba;}</style></defs><g id="Background_Complete" data-name="Background Complete"><path class="cls-1" d="M125.75,223.44a2.73,2.73,0,0,1,0-2.85c.14-.24.28-.48.41-.73s.26-.5.38-.76a2.72,2.72,0,0,1,2.36-1.58l3.5-.11L132.06,206l-3.5.11a2.73,2.73,0,0,1-2.46-1.43,16.56,16.56,0,0,0-.89-1.45,2.72,2.72,0,0,1-.18-2.83l1.65-3.08-10.06-5.39L115,195a2.71,2.71,0,0,1-2.46,1.41,16,16,0,0,0-1.7.06,2.71,2.71,0,0,1-2.55-1.26l-1.85-3-9.7,6,1.86,3a2.74,2.74,0,0,1,0,2.84c-.15.23-.29.48-.42.73s-.26.49-.38.75a2.71,2.71,0,0,1-2.36,1.59l-3.5.1.35,11.41,3.49-.11A2.67,2.67,0,0,1,98.19,220c.28.49.58,1,.9,1.45a2.68,2.68,0,0,1,.18,2.83l-1.65,3.08,10.06,5.39,1.65-3.07a2.72,2.72,0,0,1,2.47-1.42c.57,0,1.14,0,1.7-.05a2.69,2.69,0,0,1,2.55,1.26l1.84,3,9.7-6Zm-18-2.86a9.35,9.35,0,1,1,12.65-3.83A9.36,9.36,0,0,1,107.74,220.58Z"/><path class="cls-1" d="M85.41,189.71a1.93,1.93,0,0,1-.93-1.77c0-.19,0-.39,0-.59s0-.39,0-.59a1.93,1.93,0,0,1,.93-1.76l2.13-1.22-4-6.93-2.12,1.23a1.92,1.92,0,0,1-2-.07,9.55,9.55,0,0,0-1-.6,1.89,1.89,0,0,1-1-1.69v-2.44h-8v2.44a1.89,1.89,0,0,1-1,1.69,9.55,9.55,0,0,0-1,.6,1.92,1.92,0,0,1-2,.07l-2.12-1.23-4,6.93L61.29,185a1.89,1.89,0,0,1,.92,1.76c0,.19,0,.39,0,.58s0,.4,0,.59a1.89,1.89,0,0,1-.93,1.77l-2.13,1.22,4,6.93,2.12-1.23a1.9,1.9,0,0,1,2,.07,9.69,9.69,0,0,0,1,.6,1.89,1.89,0,0,1,1,1.69v2.44h8V199a1.91,1.91,0,0,1,1-1.69,9.69,9.69,0,0,0,1-.6,1.9,1.9,0,0,1,2-.07l2.12,1.23,4-6.93Zm-12.06,4.2a6.55,6.55,0,1,1,6.54-6.56A6.56,6.56,0,0,1,73.35,193.91Z"/><path class="cls-1" d="M378.7,92.87a3.48,3.48,0,0,1-1.7-3.23q0-.54,0-1.08t0-1.08a3.47,3.47,0,0,1,1.7-3.22L382.59,82l-7.32-12.67-3.88,2.25a3.5,3.5,0,0,1-3.65-.13,19.7,19.7,0,0,0-1.89-1.09,3.48,3.48,0,0,1-1.92-3.09V62.8H349.3v4.48a3.48,3.48,0,0,1-1.92,3.09,19.7,19.7,0,0,0-1.89,1.09,3.5,3.5,0,0,1-3.65.13L338,69.34,330.64,82l3.91,2.26a3.49,3.49,0,0,1,1.69,3.22c0,.35,0,.71,0,1.07s0,.72,0,1.08a3.48,3.48,0,0,1-1.7,3.23l-3.9,2.24L338,107.78l3.88-2.24a3.48,3.48,0,0,1,3.65.12,19.79,19.79,0,0,0,1.89,1.1,3.48,3.48,0,0,1,1.93,3.09v4.48h14.63v-4.48a3.46,3.46,0,0,1,1.93-3.09,19.79,19.79,0,0,0,1.89-1.1,3.48,3.48,0,0,1,3.65-.12l3.87,2.24,7.32-12.67Zm-22.08,7.68a12,12,0,1,1,12-12A12,12,0,0,1,356.62,100.55Z"/><path class="cls-1" d="M114.29,115a32.92,32.92,0,1,0,32.56-37.75v32.92Z"/><path class="cls-2" d="M107.23,103.46a31.89,31.89,0,0,0,.36,4.82l32.56-4.82V70.54a32.9,32.9,0,0,0-32.92,32.92Z"/><rect class="cls-3" x="95.14" y="127.98" width="35.01" height="0.83"/><path class="cls-3" d="M89.82,128.39a2.87,2.87,0,1,1,2.87,2.87A2.88,2.88,0,0,1,89.82,128.39Zm.83,0a2,2,0,1,0,2-2A2,2,0,0,0,90.65,128.39Z"/><rect class="cls-3" x="56.6" y="126.55" width="27.19" height="1.23" transform="translate(140.39 254.33) rotate(-180)"/><rect class="cls-3" x="68.4" y="129" width="15.39" height="1.23" transform="translate(152.19 259.23) rotate(-180)"/></g><g id="Shadow"><ellipse class="cls-1" cx="204.55" cy="420.86" rx="184.6" ry="12.27"/><ellipse class="cls-1" cx="380.24" cy="452.84" rx="90.06" ry="11.91"/></g><g id="Floor"><polygon class="cls-4" points="466.61 392.48 411.54 392.24 356.47 392.15 246.32 391.98 136.17 392.15 81.1 392.23 26.03 392.48 81.1 392.72 136.17 392.81 246.32 392.98 356.47 392.81 411.54 392.72 466.61 392.48"/></g><g id="Device"><polygon class="cls-5" points="141.83 423.5 359.01 423.5 375.83 276 158.64 276 141.83 423.5"/><polygon class="cls-6" points="153.66 413.61 349.43 413.61 363.99 285.89 168.22 285.89 153.66 413.61"/><rect class="cls-5" x="78.09" y="413.61" width="279.4" height="9.89" transform="translate(435.59 837.11) rotate(-180)"/><rect class="cls-7" x="17.42" y="413.61" width="279.4" height="9.89" transform="translate(314.23 837.11) rotate(180)"/><polygon class="cls-3" points="184.26 299.16 204.31 299.06 224.35 299.02 264.45 298.94 304.54 299.02 324.59 299.06 344.63 299.16 324.59 299.27 304.54 299.31 264.45 299.38 224.35 299.31 204.31 299.27 184.26 299.16"/><polygon class="cls-3" points="183.46 305.7 203.51 305.6 223.55 305.56 263.64 305.48 303.74 305.56 323.79 305.6 343.83 305.7 323.79 305.81 303.74 305.85 263.64 305.92 223.55 305.85 203.51 305.81 183.46 305.7"/><polygon class="cls-3" points="182.66 312.24 202.7 312.13 222.75 312.1 262.84 312.02 302.94 312.1 322.98 312.13 343.03 312.24 322.98 312.35 302.94 312.39 262.84 312.46 222.75 312.39 202.7 312.35 182.66 312.24"/><polygon class="cls-3" points="181.85 318.78 201.9 318.68 221.95 318.64 262.04 318.56 302.13 318.63 322.18 318.67 342.23 318.78 322.18 318.89 302.13 318.93 262.04 319 221.95 318.93 201.9 318.89 181.85 318.78"/><polygon class="cls-3" points="181.05 325.32 201.1 325.21 221.14 325.18 261.24 325.1 301.33 325.18 321.38 325.21 341.42 325.32 321.38 325.43 301.33 325.47 261.24 325.54 221.14 325.47 201.1 325.43 181.05 325.32"/><polygon class="cls-3" points="180.25 331.86 200.29 331.75 220.34 331.71 260.43 331.64 300.53 331.71 320.57 331.75 340.62 331.86 320.57 331.97 300.53 332.01 260.43 332.08 220.34 332.01 200.29 331.97 180.25 331.86"/><polygon class="cls-3" points="179.44 338.4 199.49 338.29 219.54 338.25 259.63 338.18 299.72 338.25 319.77 338.29 339.82 338.4 319.77 338.51 299.72 338.55 259.63 338.62 219.54 338.55 199.49 338.51 179.44 338.4"/><polygon class="cls-3" points="178.64 344.94 198.69 344.83 218.74 344.8 258.83 344.72 298.92 344.79 318.97 344.83 339.01 344.94 318.97 345.05 298.92 345.09 258.83 345.16 218.74 345.09 198.69 345.05 178.64 344.94"/><polygon class="cls-3" points="177.84 351.48 197.88 351.37 217.93 351.33 258.02 351.26 298.12 351.33 318.16 351.37 338.21 351.48 318.16 351.59 298.12 351.63 258.02 351.7 217.93 351.63 197.88 351.59 177.84 351.48"/><polygon class="cls-3" points="177.04 358.02 197.08 357.91 217.13 357.87 257.22 357.8 297.31 357.87 317.36 357.91 337.41 358.02 317.36 358.13 297.31 358.17 257.22 358.24 217.13 358.17 197.08 358.13 177.04 358.02"/><polygon class="cls-3" points="176.23 364.56 196.28 364.45 216.33 364.41 256.42 364.34 296.51 364.41 316.56 364.45 336.61 364.56 316.56 364.67 296.51 364.71 256.42 364.78 216.33 364.71 196.28 364.67 176.23 364.56"/><polygon class="cls-3" points="175.43 371.1 195.48 370.99 215.52 370.95 255.62 370.88 295.71 370.95 315.75 370.99 335.8 371.1 315.75 371.21 295.71 371.25 255.62 371.32 215.52 371.25 195.48 371.21 175.43 371.1"/><polygon class="cls-3" points="174.63 377.64 194.67 377.53 214.72 377.49 254.81 377.42 294.91 377.49 314.95 377.53 335 377.64 314.95 377.75 294.91 377.79 254.81 377.86 214.72 377.79 194.67 377.75 174.63 377.64"/><polygon class="cls-3" points="173.82 384.18 193.87 384.07 213.92 384.03 254.01 383.96 294.1 384.03 314.15 384.07 334.2 384.18 314.15 384.29 294.1 384.33 254.01 384.4 213.92 384.33 193.87 384.29 173.82 384.18"/><polygon class="cls-3" points="173.02 390.72 193.07 390.61 213.11 390.57 253.21 390.5 293.3 390.57 313.35 390.61 333.39 390.72 313.35 390.83 293.3 390.87 253.21 390.94 213.11 390.87 193.07 390.83 173.02 390.72"/><polygon class="cls-8" points="207.76 344.94 195.6 344.94 189.04 398.34 201.21 398.34 207.76 344.94"/><polygon class="cls-8" points="231.92 331.92 219.76 331.92 211.6 398.34 223.76 398.34 231.92 331.92"/><polygon class="cls-8" points="253.66 338.63 241.5 338.63 234.16 398.34 246.33 398.34 253.66 338.63"/><polygon class="cls-8" points="278.65 318.78 266.49 318.78 256.73 398.34 268.89 398.34 278.65 318.78"/><polygon class="cls-8" points="299.91 329.45 287.75 329.45 279.29 398.34 291.45 398.34 299.91 329.45"/><polygon class="cls-8" points="325.38 305.7 313.22 305.7 301.85 398.34 314.01 398.34 325.38 305.7"/><path class="cls-3" d="M189.18,294.57l-2.84,26c-.93,8.66-2,17.31-3,26l-3,26-3.12,25.95-.81-.92c13,0,26-.09,39,0l39,.1,39,.27,19.5.21,19.51.27-19.51.28-19.5.21-39,.27-39,.1c-13,.06-26,0-39,0h-.93l.11-.92,3.25-25.93,3.36-25.92c1.14-8.64,2.23-17.28,3.41-25.92Z"/><polygon class="cls-3" points="200.4 404.93 188.24 404.93 188.37 403.82 200.53 403.82 200.4 404.93"/><polygon class="cls-3" points="222.96 404.93 210.8 404.93 210.93 403.82 223.09 403.82 222.96 404.93"/><polygon class="cls-3" points="245.52 404.93 233.36 404.93 233.49 403.82 245.65 403.82 245.52 404.93"/><polygon class="cls-3" points="268.08 404.93 255.92 404.93 256.05 403.82 268.21 403.82 268.08 404.93"/><polygon class="cls-3" points="290.64 404.93 278.48 404.93 278.61 403.82 290.77 403.82 290.64 404.93"/><polygon class="cls-3" points="313.2 404.93 301.04 404.93 301.17 403.82 313.33 403.82 313.2 404.93"/><polygon class="cls-4" points="167.51 292.09 168.22 285.89 363.99 285.89 363.29 292.09 167.51 292.09"/><path class="cls-3" d="M173.39,289a1.79,1.79,0,0,1-1.73,1.54,1.34,1.34,0,0,1-1.35-1.54,1.8,1.8,0,0,1,1.73-1.54A1.33,1.33,0,0,1,173.39,289Z"/><path class="cls-6" d="M179.68,289a1.8,1.8,0,0,1-1.73,1.54A1.34,1.34,0,0,1,176.6,289a1.79,1.79,0,0,1,1.73-1.54A1.34,1.34,0,0,1,179.68,289Z"/><path class="cls-9" d="M186,289a1.78,1.78,0,0,1-1.72,1.54,1.33,1.33,0,0,1-1.35-1.54,1.78,1.78,0,0,1,1.72-1.54A1.33,1.33,0,0,1,186,289Z"/></g><g id="Rocket"><path class="cls-8" d="M277.34,221.94c.79,0,30.4,13.66,32.15,47.31,1.61,30.95-19.78,60.33-22.54,58.38-3.38-2.38,2.37-21.66-4.2-43.71-2.33-7.82-12.53-14.76-12.53-14.76Z"/><path class="cls-10" d="M270.22,269.16a46.84,46.84,0,0,1,8.1,7.3c4.41-9.83,12.62-28.18,17.93-40.07-8.67-10-18.46-14.45-18.91-14.45Z"/><path class="cls-8" d="M202,222c-.8,0-30.39,13.71-32.09,47.36-1.57,30.95,19.87,60.3,22.62,58.35,3.38-2.39-2.4-21.66,4.15-43.71,2.32-7.83,12.5-14.78,12.5-14.78Z"/><path class="cls-10" d="M183,236.59c5.36,12,13.59,30.38,17.94,40.09a47.17,47.17,0,0,1,8.24-7.48L202,222C201.53,222,191.67,226.47,183,236.59Z"/><path class="cls-1" d="M217.27,299.36l44.68,0S283,261.69,280.5,216.82c-1.25-22.39-7.11-44.94-14.15-63.6-9.7-25.77-21.68-44-26.88-44s-17.15,18.3-26.83,44.08c-7,18.67-12.81,41.23-14,63.62C196.17,261.75,217.27,299.36,217.27,299.36Z"/><path class="cls-3" d="M212.81,211.08a25.77,25.77,0,1,0,25.74-25.78A25.76,25.76,0,0,0,212.81,211.08Z"/><path class="cls-8" d="M213.72,208.45a25.77,25.77,0,1,0,25.75-25.78A25.77,25.77,0,0,0,213.72,208.45Z"/><circle class="cls-6" cx="239.49" cy="208.43" r="17.87" transform="translate(-19.45 24.72) rotate(-5.68)"/><path class="cls-1" d="M221.62,208.43a17.68,17.68,0,0,0,1.21,6.48L233,225.09a17.8,17.8,0,0,0,6.47,1.21,17.52,17.52,0,0,0,4.78-.66l-22-22A17.91,17.91,0,0,0,221.62,208.43Z"/><path class="cls-1" d="M236.86,190.76l20.3,20.3a17.47,17.47,0,0,0,.2-2.62,17.86,17.86,0,0,0-17.88-17.87A17.57,17.57,0,0,0,236.86,190.76Z"/><path class="cls-1" d="M223.85,199.78l24.28,24.28a14,14,0,0,0,1.37-.84l-24.81-24.81C224.39,198.85,224.12,199.31,223.85,199.78Z"/><path class="cls-8" d="M212.64,153.26l53.71,0c-9.7-25.77-21.68-44-26.88-44S222.32,127.48,212.64,153.26Z"/><path class="cls-6" d="M257.1,147.68a1.51,1.51,0,1,0,1.5-1.5A1.51,1.51,0,0,0,257.1,147.68Z"/><path class="cls-6" d="M247.55,147.69a1.5,1.5,0,1,0,1.5-1.51A1.5,1.5,0,0,0,247.55,147.69Z"/><path class="cls-6" d="M238,147.7a1.51,1.51,0,1,0,1.5-1.51A1.51,1.51,0,0,0,238,147.7Z"/><path class="cls-6" d="M228.44,147.7a1.5,1.5,0,1,0,1.5-1.5A1.51,1.51,0,0,0,228.44,147.7Z"/><path class="cls-6" d="M218.88,147.71a1.51,1.51,0,1,0,1.51-1.51A1.51,1.51,0,0,0,218.88,147.71Z"/><path class="cls-3" d="M257.16,292.45a1.51,1.51,0,1,0,1.5-1.5A1.51,1.51,0,0,0,257.16,292.45Z"/><path class="cls-3" d="M247.61,292.46a1.51,1.51,0,0,0,3,0,1.51,1.51,0,0,0-3,0Z"/><path class="cls-3" d="M238.05,292.47a1.51,1.51,0,1,0,1.51-1.51A1.51,1.51,0,0,0,238.05,292.47Z"/><path class="cls-3" d="M228.5,292.48A1.51,1.51,0,1,0,230,291,1.5,1.5,0,0,0,228.5,292.48Z"/><path class="cls-3" d="M219,292.48a1.5,1.5,0,1,0,1.5-1.5A1.51,1.51,0,0,0,219,292.48Z"/><polygon class="cls-8" points="221.4 312.79 257.73 312.76 259.43 299.33 219.68 299.36 221.4 312.79"/><polygon class="cls-10" points="219.68 299.36 220.52 305.9 258.78 304.47 259.42 299.33 219.68 299.36"/><path class="cls-11" d="M322.47,378.16a6.42,6.42,0,1,0,6.42-6.41A6.41,6.41,0,0,0,322.47,378.16Z"/><circle class="cls-11" cx="317.8" cy="365.92" r="3.13"/><path class="cls-11" d="M177.46,375.06a3.13,3.13,0,1,0,3.12-3.12A3.13,3.13,0,0,0,177.46,375.06Z"/><path class="cls-11" d="M114.87,403.6a3.13,3.13,0,1,0,3.12-3.13A3.12,3.12,0,0,0,114.87,403.6Z"/><path class="cls-11" d="M119.66,412.73a3.73,3.73,0,0,0,3.72,3.73H355.77a3.73,3.73,0,1,0,0-7.45,4.24,4.24,0,0,0-.88.1A7.35,7.35,0,0,0,342.28,404l-.06,0c0-.46.06-.91.06-1.37a13.87,13.87,0,0,0-20-12.46,9.9,9.9,0,0,0-19.11-3,13.86,13.86,0,0,0-11.75-6.49,13.61,13.61,0,0,0-2.65.26,18.33,18.33,0,0,0,.28-3.24,18.78,18.78,0,0,0-31-14.23,3.72,3.72,0,0,0-3.31-2,3.8,3.8,0,0,0-1.43.29l-3.49-48.95H229.34l-3.48,48.95a3.81,3.81,0,0,0-1.44-.29,3.71,3.71,0,0,0-3.3,2,18.78,18.78,0,0,0-31,14.23,18.33,18.33,0,0,0,.29,3.24,13.71,13.71,0,0,0-2.66-.26A13.85,13.85,0,0,0,176,387.11a9.9,9.9,0,0,0-19.12,3,13.72,13.72,0,0,0-6.1-1.42,13.88,13.88,0,0,0-13.88,13.88c0,.46,0,.91.07,1.37l-.07,0a7.34,7.34,0,0,0-12.6,5.13,4.26,4.26,0,0,0-.89-.1A3.73,3.73,0,0,0,119.66,412.73Z"/><polygon class="cls-12" points="178.58 382.06 183.41 382.95 184.49 388.04 185.57 382.95 190.4 382.05 185.59 380.88 184.49 376.06 183.39 380.88 178.58 382.06"/><polygon class="cls-12" points="225.58 341.2 230.42 342.09 231.5 347.19 232.58 342.09 237.41 341.2 232.6 340.02 231.5 335.21 230.4 340.02 225.58 341.2"/><polygon class="cls-12" points="295.82 391.76 298.52 392.26 299.12 395.1 299.72 392.26 302.43 391.75 299.74 391.1 299.12 388.41 298.5 391.1 295.82 391.76"/><polygon class="cls-12" points="150.48 400.25 153.18 400.75 153.78 403.6 154.39 400.75 157.09 400.25 154.4 399.59 153.78 396.9 153.17 399.59 150.48 400.25"/><polygon class="cls-12" points="332.99 410.23 335.69 410.73 336.29 413.58 336.9 410.73 339.6 410.23 336.91 409.57 336.29 406.88 335.68 409.57 332.99 410.23"/><polygon class="cls-12" points="215.49 407.86 218.19 408.36 218.8 411.21 219.4 408.36 222.1 407.86 219.41 407.2 218.8 404.51 218.18 407.2 215.49 407.86"/><polygon class="cls-12" points="235.27 333.46 237.97 333.95 238.57 336.8 239.18 333.95 241.88 333.45 239.19 332.8 238.57 330.11 237.96 332.8 235.27 333.46"/><path class="cls-12" d="M144.09,406.41a.78.78,0,0,1,0,1.56A.78.78,0,0,1,144.09,406.41Z"/><path class="cls-12" d="M245.72,323.58a.78.78,0,0,1,0,1.56A.78.78,0,0,1,245.72,323.58Z"/><path class="cls-12" d="M312.52,410.23a.78.78,0,0,1,0,1.56A.78.78,0,0,1,312.52,410.23Z"/><path class="cls-12" d="M262.9,399.47a.78.78,0,0,1,0,1.56A.78.78,0,0,1,262.9,399.47Z"/><path class="cls-12" d="M163.7,392.33a.55.55,0,0,1,0,1.1A.55.55,0,0,1,163.7,392.33Z"/><path class="cls-12" d="M232.15,384a.56.56,0,0,1,0,1.11A.56.56,0,0,1,232.15,384Z"/><path class="cls-12" d="M282.25,373.2a.56.56,0,0,1,0,1.11A.56.56,0,0,1,282.25,373.2Z"/><path class="cls-12" d="M196.53,375.46a1.5,1.5,0,0,1,0,3A1.5,1.5,0,0,1,196.53,375.46Z"/><path class="cls-12" d="M275.16,368.1a1.51,1.51,0,0,1,0,3A1.51,1.51,0,0,1,275.16,368.1Z"/></g><g id="Character"><path class="cls-13" d="M343.46,454.81c2,.65,59.27-.1,61.43-1.51.83-.52,1.2-8.87,1.37-19V434c0-2.08.07-4.23.07-6.4,0-.3,0-.6,0-.89L403.57,397l-38.31.38L369,426.82l0,1.17.23,6.09,0,.62s-21.79,10.09-24,11.9S341.45,454.17,343.46,454.81Z"/><path class="cls-1" d="M343.46,454.81c2,.65,59.27-.1,61.43-1.51.83-.52,1.2-8.87,1.37-19V434c0-2.08.07-4.23.07-6.4,0-.3,0-.6,0-.89l-37.3.1,0,1.17.23,6.09,0,.62s-21.79,10.09-24,11.9S341.45,454.17,343.46,454.81Z"/><path class="cls-8" d="M343.45,454.81c1,.33,16.59.29,31.8,0,3.06-.06,6.1-.13,9-.21,10.85-.3,19.81-.75,20.64-1.29s1.2-8.64,1.37-18.55c0-.14,0-.28,0-.42V434h0l-36.9.07,0,.63s-21.8,10.08-24,11.89S341.45,454.17,343.45,454.81Z"/><path class="cls-4" d="M344.08,452.58c9.65-.36,48.6-.91,58.16-.54.08,0,.08.06,0,.06-9.55.57-48.51.81-58.16.64C343.88,452.74,343.87,452.59,344.08,452.58Z"/><path class="cls-4" d="M365.21,434.23c3.79-.75,8.44-.23,11.38,2.44.11.1,0,.26-.16.22a53.87,53.87,0,0,0-11.2-2.18A.24.24,0,0,1,365.21,434.23Z"/><path class="cls-4" d="M362.49,435.92c3.79-.76,8.44-.23,11.38,2.44.11.1,0,.26-.16.22a53.87,53.87,0,0,0-11.2-2.18A.24.24,0,0,1,362.49,435.92Z"/><path class="cls-4" d="M359.77,437.61c3.79-.76,8.44-.23,11.38,2.43.11.11,0,.27-.16.23a53.22,53.22,0,0,0-11.2-2.18A.24.24,0,0,1,359.77,437.61Z"/><path class="cls-4" d="M375.25,454.8c3.06-.06,6.1-.13,9-.21,10.85-.3,19.81-.75,20.64-1.29s1.2-8.64,1.37-18.55c0-.14,0-.28,0-.42V434h0C401.17,437.55,383.35,449.41,375.25,454.8Z"/><path class="cls-5" d="M366.81,434.2H408s-8.3-96.31-8-98c.42-2.16,2.85-11.91,6.09-24.64,1-4,2.11-8.26,3.25-12.69,3.08-12,6.46-25.08,9.42-36.48,4.43-17.07,7.89-30.33,7.89-30.33H391.76s-4.07,12.91-9.21,29.71c-8.36,27.3-19.54,64.88-20.64,74C360.12,350.55,366.81,434.2,366.81,434.2Z"/><path class="cls-4" d="M368.63,427.17c6.3-.13,4.49-.18,10.79-.25,3.08,0,23.34-.2,26.22.28a.06.06,0,0,1,0,.12c-2.88.48-23.14.3-26.22.27-6.3-.06-4.49-.11-10.79-.24A.09.09,0,1,1,368.63,427.17Z"/><path class="cls-4" d="M392.3,330.32c1.36-6,3.38-11.8,5.14-17.65q5.35-17.84,10.78-35.65,2.71-8.91,5.44-17.81,1.38-4.5,2.78-9c.92-2.93,2-5.83,2.79-8.79.34-1.2.52-.54.09,1-.87,3.07-1.73,6.15-2.62,9.22q-2.67,9.12-5.36,18.22Q406,288,400.52,306.09l-5.46,18.14a73.78,73.78,0,0,0-2.23,8.78,40.42,40.42,0,0,0-.36,9.39c.39,6.31,1.12,12.61,1.7,18.91s1.17,12.61,1.76,18.92q1.74,18.82,3.45,37.66c.14,1.59.28,3.18.41,4.78,0,.53-.77.49-.83,0-1.35-12.42-2.4-24.87-3.56-37.3l-3.48-37.11c-.29-3.11-.62-6.22-.62-9.34A38.68,38.68,0,0,1,392.3,330.32Z"/><path class="cls-4" d="M395.73,232.07c2.42,18.77,7,54,10.42,79.5,7.88-30.94,20.56-79.5,20.56-79.5Z"/><path class="cls-13" d="M387.14,455.36c2,.66,59.27.12,61.44-1.28.83-.52,1.24-8.87,1.44-19v-.32c.05-2.08.09-4.22.1-6.4,0-.3,0-.6,0-.89.13-14.58-.92-29.71-.92-29.71l-37.43.25,1.05,29.43,0,1.16.21,6.09,0,.63s-21.83,10-24.05,11.8S385.14,454.71,387.14,455.36Z"/><path class="cls-1" d="M387.14,455.36c2,.66,59.27.12,61.44-1.28.83-.52,1.24-8.87,1.44-19v-.32c.05-2.08.09-4.22.1-6.4,0-.3,0-.6,0-.89l-37.3,0,0,1.16.21,6.09,0,.63s-21.83,10-24.05,11.8S385.14,454.71,387.14,455.36Z"/><path class="cls-8" d="M387.14,455.36c2,.66,59.27.12,61.44-1.28.83-.52,1.24-8.87,1.44-19v-.32l-36.94-.07,0,.63s-21.83,10-24.05,11.8S385.14,454.71,387.14,455.36Z"/><path class="cls-4" d="M387.77,453.13c9.65-.32,48.6-.73,58.17-.32.08,0,.08.06,0,.06-9.56.53-48.51.63-58.17.42C387.57,453.29,387.57,453.14,387.77,453.13Z"/><path class="cls-4" d="M409,434.87c3.79-.75,8.44-.21,11.37,2.47.11.1,0,.26-.16.23A52.7,52.7,0,0,0,409,435.35.24.24,0,0,1,409,434.87Z"/><path class="cls-4" d="M406.24,436.54c3.79-.74,8.44-.2,11.37,2.48.12.1,0,.26-.16.22A53.84,53.84,0,0,0,406.26,437,.24.24,0,0,1,406.24,436.54Z"/><path class="cls-4" d="M403.51,438.22c3.8-.74,8.45-.2,11.38,2.48.11.1,0,.26-.16.22a53.94,53.94,0,0,0-11.2-2.22A.24.24,0,0,1,403.51,438.22Z"/><path class="cls-5" d="M392.89,232.07s.81,16.72,4.63,30c.31,1.09.64,2.17,1,3.2a62.24,62.24,0,0,1,10.07,5.18s.41,13.45.81,28.46c.45,16.77.91,35.48.82,39.45-.36,14.84,1.85,96.48,1.85,96.48l41.23.16s-7.45-91.16-7.4-96.6c.08-8.74-2-47.38-3.6-75.56-1-17.36-1.79-30.74-1.79-30.74Z"/><path class="cls-4" d="M413.48,427.47c6.3-.1,4.49-.16,10.79-.19,3.09,0,23.34-.11,26.22.38.06,0,.06.12,0,.13-2.88.46-23.14.2-26.22.16-6.3-.09-4.49-.13-10.79-.29A.1.1,0,0,1,413.48,427.47Z"/><path class="cls-4" d="M437.05,238c.76,23,1.56,46,2.59,69s2.42,46.14,4.35,69.15c1.08,12.86,2.1,30.95,3.49,43.77,0,.09-.13.12-.14,0-3-22.81-4.67-51-6.15-74s-2.48-46-3.26-68.95c-.44-13-.78-26-1.17-39C436.76,237.84,437,237.86,437.05,238Z"/><path class="cls-4" d="M396.81,264.24a77.27,77.27,0,0,1,11.78,6.18.13.13,0,0,1-.12.24c-4-1.93-8-3.79-11.9-5.94A.27.27,0,0,1,396.81,264.24Z"/><path class="cls-4" d="M396.58,250.06c.27,1.46.62,2.91.94,4.37s.52,2.76.88,4.11a7.07,7.07,0,0,0,1.91,3.45c.54.5,1.13.94,1.7,1.39.31.25.64.49,1,.74,0-.2-.07-.39-.11-.59-.1-.56-.19-1.11-.28-1.67-.21-1.24-.41-2.47-.6-3.71-.37-2.43-.71-4.89-1.22-7.29,0-.1.13-.14.15,0,.61,2.38,1.28,4.74,1.81,7.15.25,1.18,1.18,7,1.22,7.42s.08.85.09,1.28a4.72,4.72,0,0,1,0,1.3c0,.11-.15.09-.2,0h0a5.14,5.14,0,0,1-.37-1.27c-.11-.42-.2-.84-.28-1.26,0-.15-.05-.31-.07-.46-.57-.35-1.11-.81-1.64-1.2s-1.17-.83-1.72-1.29a6.59,6.59,0,0,1-2.09-3.27,23.62,23.62,0,0,1-.68-4.19c-.19-1.65-.32-3.31-.55-5C396.41,250,396.56,250,396.58,250.06Z"/><path class="cls-13" d="M406.61,192.77c-15.92,8.87-39,11.83-45.49,7.95-6.86-4.09-16.42-24.1-17.11-37.54-.15-3,22.24-1.79,22.79.23,1.61,6,6.45,17.16,7.48,17.19,1.35,0,18.46.81,30.35-.64C419.4,178.17,415.37,187.89,406.61,192.77Z"/><path class="cls-13" d="M343.06,151.12c-.84,4.72,1.21,15,2.66,17.36s19.13-.6,20.46-3.06,2.95-18.57.61-22.87S343.94,146.23,343.06,151.12Z"/><path class="cls-13" d="M369.06,149.89c-1.68,1.9-3-1.16-3-1.16s.79,4.86-1.7,6.16-3.83-2.52-3.94-2.79c0,.26.65,4.75-2,5.8s-3.53-2.94-3.58-3.2c0,.26-.61,3.62-2.8,4-3.75.59-2.52-8.06-4.47-10.44,0,0-4.41,2.85-4.56,2.9s1-8.25,4.36-10.7a2.65,2.65,0,0,1,3.32.11s0-2.7,2.08-3.59c1.05-.45,2.72.83,2.72.83a3.33,3.33,0,0,1,2-2.84,3.2,3.2,0,0,1,2.93.83s1.07-2,2.78-2.08C366.67,133.54,372.64,145.8,369.06,149.89Z"/><path class="cls-4" d="M360.72,135.94s0-.08,0,0a23.64,23.64,0,0,1,5.41,13c0,.16-.24.24-.28.07A48.47,48.47,0,0,0,360.72,135.94Z"/><path class="cls-4" d="M355.53,137.7a.05.05,0,0,1,.09,0,22.09,22.09,0,0,1,5,14.53c0,.19-.2.34-.21.13C360.34,148.72,357.8,141.48,355.53,137.7Z"/><path class="cls-4" d="M354.74,155.07c.07-5.17-1.53-9.84-3.86-14.4,0-.06.05-.09.09,0,1.75,1.92,2.93,5,3.65,7.44a13.57,13.57,0,0,1,.3,7C354.9,155.17,354.74,155.18,354.74,155.07Z"/><path class="cls-4" d="M366.09,148.73a15,15,0,0,1-.07,2.84,5.27,5.27,0,0,1-.89,2.56,1.79,1.79,0,0,1-1.05.64,2.56,2.56,0,0,1-1.26-.11,3,3,0,0,1-1.64-1.85l-.72-2v2.09a8.33,8.33,0,0,1-.43,2.72,3,3,0,0,1-1.59,1.93,1.74,1.74,0,0,1-2.13-.5,5.21,5.21,0,0,1-1-2.44l-.42-2.43-.4,2.42a8.34,8.34,0,0,1-.58,2,3.3,3.3,0,0,1-1.19,1.49,1.54,1.54,0,0,1-1.65,0,3.45,3.45,0,0,1-1.09-1.61,28,28,0,0,1-1-4.15c-.15-.71-.29-1.42-.47-2.12a5.16,5.16,0,0,0-.85-2,5.61,5.61,0,0,1,.65,2c.13.71.22,1.42.31,2.14a24.16,24.16,0,0,0,.83,4.3,4.1,4.1,0,0,0,1.24,2,2.25,2.25,0,0,0,2.44.08,4.06,4.06,0,0,0,1.52-1.81,8.65,8.65,0,0,0,.69-2.18h-.82a6,6,0,0,0,1.15,2.89,2.56,2.56,0,0,0,1.45.91,2.82,2.82,0,0,0,1.68-.2,3.81,3.81,0,0,0,2-2.44,9,9,0,0,0,.44-3l-.73.13a3.64,3.64,0,0,0,2.16,2.18,3.06,3.06,0,0,0,1.56.06,2.22,2.22,0,0,0,1.3-.87,5.45,5.45,0,0,0,.79-2.82A13.58,13.58,0,0,0,366.09,148.73Z"/><path class="cls-13" d="M366.94,162.73s11.18-17,2.39-18.12c-2.61-.33-13.72,1.43-13.41,3.67.4,2.89,5.17,3,8.18,2.63,0,0-4.61,5.25-1.92,9.55A5.05,5.05,0,0,0,366.94,162.73Z"/><path class="cls-4" d="M370.06,144.75a10.68,10.68,0,0,0-3.09-.3,23,23,0,0,0-3.1.27,35,35,0,0,0-6.08,1.42,5.65,5.65,0,0,0-1.48.73,2.07,2.07,0,0,0-.64.7,1.38,1.38,0,0,0-.19,1,2.63,2.63,0,0,0,.88,1.59,4.84,4.84,0,0,0,1.48.83,9.42,9.42,0,0,0,3.17.5,21.9,21.9,0,0,0,3.14-.22l-.31-.6a12.24,12.24,0,0,0-1.33,2,11.35,11.35,0,0,0-.93,2.18,8.44,8.44,0,0,0-.34,2.34,6.15,6.15,0,0,0,.45,2.29,6.78,6.78,0,0,1-.19-2.28A8.37,8.37,0,0,1,362,155a11.25,11.25,0,0,1,1-2,12.71,12.71,0,0,1,1.35-1.79l.63-.68-.94.08a23.69,23.69,0,0,1-3,.12,9.22,9.22,0,0,1-2.89-.48c-.87-.33-1.71-.94-1.81-1.73s.85-1.21,1.75-1.56,1.92-.64,2.9-.91,2-.53,3-.73A19.58,19.58,0,0,1,370.06,144.75Z"/><path class="cls-8" d="M370.45,168.52l-27.39,1.81s8,28.88,20.05,32.06,34.15-2.13,44.63-9.36,10.07-14.18-1.9-13.53-30,1-31.26,0S370.45,168.52,370.45,168.52Z"/><path class="cls-8" d="M343.06,170.33s.13.48.4,1.34l.13.44c.2.63.45,1.42.76,2.33a.93.93,0,0,0,0,.13c.13.38.26.78.41,1.2l.12.34q.13.38.27.78l.17.45c.27.74.56,1.52.87,2.33a.61.61,0,0,1,0,.12c.3.75.61,1.54,1,2.33a.08.08,0,0,0,0,0l.16.39c.09.22.18.43.28.65.24.56.49,1.12.74,1.68l.06.12c.35.77.72,1.55,1.11,2.33.07.15.15.3.23.45l.19.38c0,.08.08.17.13.25.29.57.59,1.13.9,1.69a.83.83,0,0,1,.07.13c.44.78.88,1.54,1.35,2.29,0,0,0,0,0,0l.28.44.15.23c.47.72.95,1.43,1.45,2.1a.83.83,0,0,0,.08.12c.26.35.52.69.79,1l.13.16c.32.4.65.78,1,1.15l.4.44c.31.32.62.63.94.92a5.31,5.31,0,0,0,.44.4c.41.37.83.7,1.25,1l.19.13a9.53,9.53,0,0,0,.89.57l.12.07a9.87,9.87,0,0,0,2.33,1,1.39,1.39,0,0,0,.19.06l.25.06a22.85,22.85,0,0,0,2.33.47l.13,0,.45.07c.61.08,1.23.15,1.87.2l.45,0c.75,0,1.53.09,2.32.09H371l2.33,0,.44,0c.76,0,1.54-.08,2.33-.15h.12l1.27-.12,1.06-.12c.15,0,.3,0,.44-.06.77-.09,1.55-.2,2.33-.33l.13,0c.77-.12,1.54-.26,2.32-.41a3.58,3.58,0,0,0,.45-.09c.78-.15,1.56-.31,2.33-.49l.12,0c.78-.18,1.56-.37,2.33-.57a3.17,3.17,0,0,0,.44-.12l.31-.08.47-.13c.52-.13,1-.28,1.55-.44l.12,0c.78-.23,1.56-.48,2.33-.73l.45-.15c.79-.27,1.56-.55,2.32-.83l.13,0,.26-.1,1.12-.44.95-.39.44-.19c.8-.34,1.58-.69,2.33-1.05l.12-.06c.43-.21.86-.42,1.27-.64l.23-.12.83-.45.44-.24c.82-.47,1.61-1,2.33-1.44l.13-.09.13-.09,0,0,.62-.44c.55-.39,1.06-.79,1.54-1.18.16-.12.3-.24.45-.37.31-.26.61-.52.89-.78l.14-.13q.72-.68,1.29-1.32l.13-.14c.26-.29.49-.58.7-.86s.23-.3.33-.45A8.28,8.28,0,0,0,415,185a.27.27,0,0,0,0-.12,2.08,2.08,0,0,0,.11-.48,3.16,3.16,0,0,0,0-1.37,2.42,2.42,0,0,0-.13-.48,2,2,0,0,0-.21-.44,4.09,4.09,0,0,0-2-1.72l-.13-.06a9.24,9.24,0,0,0-1.77-.55l-.55-.1-.11,0-.34,0a16.55,16.55,0,0,0-2.32-.15h-.13c-.51,0-1.06,0-1.64,0l-.69,0-.44,0c-.76,0-1.53.08-2.33.12h-.12l-2.33.09-.44,0h0l-2.32.08H397l-2.32.08h-.45l-2.33.06h-.12l-2.33.05H389l-2.33,0h-2.9l-2.32,0h-.13c-.84,0-1.62,0-2.33-.06l-.44,0c-.91,0-1.7-.09-2.33-.16h-.12l-.55-.07-.61-.12a1.09,1.09,0,0,1-.4-.17,4.16,4.16,0,0,1-.77-1.24c-.13-.27-.27-.58-.4-.92a.36.36,0,0,1,0-.09l-.15-.36c-.28-.71-.57-1.51-.85-2.32,0,0,0-.09-.05-.13-.27-.79-.53-1.59-.77-2.33-.05-.15-.09-.3-.14-.44l-.37-1.18c0-.15-.09-.29-.13-.43s-.16-.51-.22-.72a.56.56,0,0,0,0-.12c-.12-.44-.2-.7-.2-.7l-1.86.12-.45,0-2.32.16h-.13l-2.33.16-.44,0-2.33.15h-.12l-.61,0-1.72.11H358l-.34,0-2.33.16h-.13l-2.32.15-.45,0-2.32.15H350l-2.33.15-.44,0-2.33.16h-.12Z"/><g class="cls-14"><path class="cls-6" d="M415.16,183v1.37A3.16,3.16,0,0,0,415.16,183Z"/><path class="cls-6" d="M412.7,180.34v8.45l.13-.14V180.4Z"/><path class="cls-6" d="M409.93,179.62v11.77c.16-.12.3-.24.45-.37V179.67h-.11Z"/><path class="cls-6" d="M407.48,179.46v13.75l.13-.09V179.47Z"/><path class="cls-6" d="M404.71,179.55v15.34l.44-.24V179.53Z"/><path class="cls-6" d="M402.26,179.67v16.49l.12-.06V179.67Z"/><path class="cls-6" d="M399.49,179.79V197.4l.44-.19V179.77Z"/><path class="cls-6" d="M397,179.88v18.5l.13,0V179.87Z"/><path class="cls-6" d="M394.26,180v19.39l.45-.15V180Z"/><path class="cls-6" d="M391.81,180v20.09l.12,0V180Z"/><path class="cls-6" d="M389,180.09v20.8a3.17,3.17,0,0,0,.44-.12V180.08Z"/><path class="cls-6" d="M386.59,180.12v21.37l.12,0V180.12Z"/><path class="cls-6" d="M383.81,180.13v21.94a3.58,3.58,0,0,0,.45-.09V180.13Z"/><path class="cls-6" d="M381.36,180.11V202.5l.13,0V180.11Z"/><path class="cls-6" d="M378.59,180v22.86c.15,0,.3,0,.44-.06V180.05Z"/><path class="cls-6" d="M376.14,179.86v23.28h.12V179.87Z"/><path class="cls-6" d="M373.37,177.25v26.06l.44,0v-25c-.13-.27-.27-.58-.4-.92A.36.36,0,0,1,373.37,177.25Z"/><path class="cls-6" d="M370.91,170.06v33.27H371V170.49C371,170.34,371,170.2,370.91,170.06Z"/><path class="cls-6" d="M368.14,168.67v34.54l.45,0v-34.6Z"/><path class="cls-6" d="M365.69,168.83v34.09l.13,0V168.83Z"/><path class="cls-6" d="M362.92,169v33.31a1.39,1.39,0,0,0,.19.06l.25.06V169Z"/><path class="cls-6" d="M360.47,169.18v32.08l.12.07V169.17Z"/><path class="cls-6" d="M357.7,169.34v29.81a5.31,5.31,0,0,0,.44.4V169.33h-.44Z"/><path class="cls-6" d="M355.24,169.53v26.95l.13.16V169.52Z"/><path class="cls-6" d="M352.47,169.71v22.86h0l.28.44.15.23V169.68Z"/><path class="cls-6" d="M350,169.87v18.3c0,.08.08.17.13.25V169.86Z"/><path class="cls-6" d="M347.25,170.05v12.12l.16.39c.09.22.18.43.28.65V170Z"/><path class="cls-6" d="M344.8,170.22v5.55l.12.34v-5.9Z"/></g><g class="cls-14"><path class="cls-6" d="M358,169.34h12.65a.56.56,0,0,0,0-.12H359.86l-1.72.11Z"/><path class="cls-6" d="M343.46,171.67l.13.44h28c-.05-.15-.09-.3-.14-.44Z"/><path class="cls-6" d="M344.35,174.44a.93.93,0,0,0,0,.13h28s0-.09-.05-.13Z"/><path class="cls-6" d="M345.19,176.89l.17.45h28.05a.36.36,0,0,1,0-.09l-.15-.36Z"/><path class="cls-6" d="M399.49,179.79h11.44l-.55-.1v0h-8.12l-2.33.09Z"/><path class="cls-6" d="M346.23,179.67a.61.61,0,0,1,0,.12h29.31l-.61-.12Z"/><path class="cls-6" d="M347.23,182.12a.08.08,0,0,0,0,0l.16.39H415a2,2,0,0,0-.21-.44Z"/><path class="cls-6" d="M348.43,184.89l.06.12H415a.27.27,0,0,0,0-.12Z"/><path class="cls-6" d="M349.6,187.34c.07.15.15.3.23.45h63.7q.18-.22.33-.45Z"/><path class="cls-6" d="M351.05,190.11a.83.83,0,0,1,.07.13h60.15l.14-.13Z"/><path class="cls-6" d="M352.49,192.57l.28.44h55l.62-.44Z"/><path class="cls-6" d="M354.37,195.34a.83.83,0,0,0,.08.12h49.2l.23-.12Z"/><path class="cls-6" d="M356.36,197.79l.4.44h40.66l1.12-.44Z"/><path class="cls-6" d="M359.39,200.56l.19.13h30.21l.47-.13Z"/><path class="cls-6" d="M366.27,203c.61.08,1.23.15,1.87.2l.45,0c.75,0,1.53.09,2.32.09H371l2.33,0,.44,0c.76,0,1.54-.08,2.33-.15h.12l1.27-.12Z"/></g><path class="cls-4" d="M393.73,199.53a55.56,55.56,0,0,0,14-6.5c9.2-6.35,10-12.46,2-13.43Z"/><path class="cls-4" d="M370.85,173.35c-1.06.24-2.17.28-3.25.42s-2.16.23-3.25.32c-2.09.17-4.19.31-6.28.45l-6.29.38c-2.17.13-4.37.37-6.54.32a.08.08,0,0,1,0-.15c2.14-.36,4.35-.45,6.51-.64l6.39-.55c2.13-.17,4.27-.34,6.4-.48,1.05-.06,2.1-.12,3.15-.14a30.49,30.49,0,0,1,3.17-.07C370.94,173.22,370.92,173.34,370.85,173.35Z"/><path class="cls-8" d="M444.81,256.91c-.15.15-60.56-4-61.07-4.64-.7-.93,17.61-65.39,24.39-73,1.45-1.64,5.86-1.81,9.54-1.08a17.14,17.14,0,0,1,2.82.79l.1,0a6.88,6.88,0,0,1,2,1.18c9.75,9,16.4,38.49,17.81,47.3C442.78,242,445.35,256.38,444.81,256.91Z"/><g class="cls-14"><path class="cls-6" d="M444.05,249.64v7.24h.12V250h-.06Z"/><path class="cls-6" d="M441.28,232.63v24.1l.44,0V235.32c0-.17-.06-.34-.08-.52s-.05-.29-.08-.44C441.47,233.79,441.37,233.21,441.28,232.63Z"/><path class="cls-6" d="M438.82,219.36v37.21H439V219.93C438.91,219.75,438.87,219.55,438.82,219.36Z"/><path class="cls-6" d="M436.05,208.51v47.88l.44,0V210.06l-.39-1.38A1.09,1.09,0,0,0,436.05,208.51Z"/><path class="cls-6" d="M433.6,200.7v55.53h.12V201.05Z"/><path class="cls-6" d="M430.83,193.44V256l.44,0V194.49Z"/><path class="cls-6" d="M428.38,188.25v67.62h.12V188.47Z"/><path class="cls-6" d="M425.6,183.65v72h.15l.3,0V184.3Z"/><path class="cls-6" d="M423.15,180.68v74.83h.13V180.81Z"/><path class="cls-6" d="M420.38,178.91v76.41l.44,0V179.09l-.23-.1-.09,0Z"/><path class="cls-6" d="M417.93,178.21v76.93h.12V178.24Z"/><path class="cls-6" d="M415.16,177.82v77.12l.44,0V177.85Z"/><path class="cls-6" d="M412.7,177.77v77h.13v-77Z"/><path class="cls-6" d="M409.93,178.21v76.36l.45,0V178.08Z"/><path class="cls-6" d="M407.48,180.09v74.3h.13V179.9Z"/><path class="cls-6" d="M404.71,185.4v68.77l.44,0V184.44c-.07.15-.14.3-.2.45l-.06.12Z"/><path class="cls-6" d="M402.38,191.06l-.12.3V254h.12Z"/><path class="cls-6" d="M399.49,198.92v54.86l.44,0V197.67s0,.08,0,.12-.11.29-.16.44Z"/><path class="cls-6" d="M397,206.12v47.47h.13V205.74s0,0,0,0a.5.5,0,0,0,0,.13Z"/><path class="cls-6" d="M394.26,214.68v38.68l.45,0V213.26a1.17,1.17,0,0,0-.06.2c0,.15-.1.29-.14.44S394.34,214.42,394.26,214.68Z"/><path class="cls-6" d="M391.81,222.57v30.59h.12v-31Z"/><path class="cls-6" d="M389,231.87v21h.12l.32,0V230.36C389.33,230.87,389.19,231.37,389,231.87Z"/><path class="cls-6" d="M386.59,240.5v12.18h.12V240.07Z"/><path class="cls-6" d="M383.81,251.45v.85a3.27,3.27,0,0,0,.45.1v-3c-.06.23-.11.44-.15.64s-.07.3-.1.44C383.92,250.86,383.86,251.19,383.81,251.45Z"/></g><g class="cls-14"><path class="cls-6" d="M407.69,179.79h14.44l-.17-.12H407.78Z"/><path class="cls-6" d="M406.06,182.56h18.73c-.11-.15-.23-.29-.35-.44H406.29C406.21,182.26,406.14,182.41,406.06,182.56Z"/><path class="cls-6" d="M404.89,185h21.63a.83.83,0,0,1-.08-.12H405Z"/><path class="cls-6" d="M403.69,187.79h24.44l-.24-.45h-24C403.81,187.49,403.75,187.64,403.69,187.79Z"/><path class="cls-6" d="M402.7,190.24h26.68l-.06-.13H402.75S402.72,190.2,402.7,190.24Z"/><path class="cls-6" d="M401.64,193h29c-.06-.15-.12-.29-.19-.44H401.8C401.75,192.72,401.69,192.86,401.64,193Z"/><path class="cls-6" d="M400.73,195.46h30.93a.61.61,0,0,0-.05-.12H400.77S400.74,195.42,400.73,195.46Z"/><path class="cls-6" d="M399.73,198.23h33c-.05-.15-.1-.29-.16-.44H399.89C399.84,197.93,399.78,198.08,399.73,198.23Z"/><path class="cls-6" d="M398.87,200.69H433.6s0-.09-.05-.13H398.91A.65.65,0,0,1,398.87,200.69Z"/><path class="cls-6" d="M397.92,203.46h36.6c0-.15-.09-.3-.14-.45H398.07Z"/><path class="cls-6" d="M397.1,205.91h38.19a.65.65,0,0,1,0-.13h-38.1A.5.5,0,0,0,397.1,205.91Z"/><path class="cls-6" d="M396.18,208.68H436.1a1.09,1.09,0,0,0-.05-.17,2.76,2.76,0,0,0-.08-.27H396.33Z"/><path class="cls-6" d="M395.39,211.13h41.39l0-.12H395.43S395.4,211.09,395.39,211.13Z"/><path class="cls-6" d="M394.51,213.9h43c0-.15-.07-.29-.11-.44H394.65C394.6,213.61,394.55,213.75,394.51,213.9Z"/><path class="cls-6" d="M393.73,216.36h44.39l0-.13H393.77S393.74,216.31,393.73,216.36Z"/><path class="cls-6" d="M392.86,219.13h45.91c0-.15-.07-.3-.11-.45H393C393,218.83,392.91,219,392.86,219.13Z"/><path class="cls-6" d="M392.11,221.58h47.2l0-.12H392.15A.56.56,0,0,0,392.11,221.58Z"/><path class="cls-6" d="M391.27,224.35h48.6l-.09-.44H391.4C391.36,224.06,391.31,224.21,391.27,224.35Z"/><path class="cls-6" d="M390.54,226.8h49.78s0-.08,0-.12H390.57Z"/><path class="cls-6" d="M389.71,229.57h51.06c0-.15,0-.29-.07-.44H389.84C389.8,229.28,389.76,229.43,389.71,229.57Z"/><path class="cls-6" d="M389,232h52.19a.51.51,0,0,1,0-.13H389A.65.65,0,0,1,389,232Z"/><path class="cls-6" d="M388.2,234.8h53.44c0-.14-.05-.29-.08-.44H388.32Z"/><path class="cls-6" d="M387.49,237.25H442a.5.5,0,0,1,0-.12H387.53A.56.56,0,0,1,387.49,237.25Z"/><path class="cls-6" d="M386.72,240H442.5c0-.15-.05-.29-.08-.44H386.85C386.8,239.73,386.76,239.88,386.72,240Z"/><path class="cls-6" d="M386.05,242.47H442.9s0-.08,0-.12h-56.8Z"/><path class="cls-6" d="M385.3,245.25h58.06c0-.14-.05-.29-.08-.45H385.42Z"/><path class="cls-6" d="M384.67,247.7h59.07a.59.59,0,0,0,0-.13h-59Z"/><path class="cls-6" d="M384,250.47h60.16V250H384.11C384.07,250.19,384,250.33,384,250.47Z"/><path class="cls-6" d="M387.86,252.8l1.18.11h55.49a.5.5,0,0,1,0-.12Z"/><path class="cls-6" d="M419.45,255.25l.93.07.44,0,2.33.16h.13l2.32.16h19.24c0-.13,0-.28,0-.44Z"/></g><path class="cls-4" d="M423.14,255.51c11.77.83,21.61,1.46,21.67,1.4.54-.53-2-14.91-4.38-29.44-1.37-8.57-7.7-36.74-17-46.53Z"/><path class="cls-4" d="M406.58,181.91s.05,0,0,0c-.36,2.73-1,9.07,3.32,9a9.24,9.24,0,0,0,4.79-2,24.09,24.09,0,0,0,3.9-3.45,35.65,35.65,0,0,0,3.72-4.51c0-.07.15,0,.1.08-1.14,1.6-2.1,3.29-3.39,4.78a21.33,21.33,0,0,1-4.22,3.83,9.15,9.15,0,0,1-5.08,1.9,3.47,3.47,0,0,1-3.35-2.85A15.42,15.42,0,0,1,406.58,181.91Z"/><polygon class="cls-15" points="395.96 262.73 361.91 268.55 347.25 221.46 381.3 215.64 395.96 262.73"/><polygon class="cls-2" points="394.29 263.02 360.24 268.83 345.57 221.74 379.63 215.93 394.29 263.02"/><path class="cls-6" d="M365.1,241a3.74,3.74,0,0,0,4.17,2.7,3,3,0,0,0,2.46-3.83,3.74,3.74,0,0,0-4.17-2.69A3,3,0,0,0,365.1,241Z"/><path class="cls-13" d="M427.11,184.31c10.32,13.39,33.81,48.78,27.55,56-10.3,11.92-35.5,22.4-43.37,24.76-3.4,1-15.48-23.72-12.27-25.75,3.84-2.44,29.2-10.68,29.07-13-.08-1.32-3.41-15.47-6.1-29.57C418.87,180.42,423.58,179.72,427.11,184.31Z"/><path class="cls-13" d="M411.39,237.61s-10.35-3-17.22-4.7c-3.82-.93-10.53-1.94-13.66-1.34-4.67.9-23.64,7.66-22.1,12.3,1.39,4.2,16.95-3.68,16.95-3.68s-16.4,6.56-13.8,11.3,19-6.49,19-6.49-16.7,7.12-13.24,11.59c2.62,3.37,18-6,18-6s-14.31,6.22-11.77,9.8c2.81,4,17.59-3.76,17.59-3.76,8,8,15.09,8.58,20.18,8.38C412.6,265,411.39,237.61,411.39,237.61Z"/><path class="cls-4" d="M380.13,237.89c-12.46,3.91-17.37,9.64-17.21,9.52,3.81-3,10.52-6.2,12.41-7.08s2.95-1.5,4.83-2.37C380.21,237.94,380.17,237.88,380.13,237.89Z"/><path class="cls-4" d="M384.17,244.31A44.32,44.32,0,0,0,369.91,251c-.16.12-.06.16.12.07,2.37-1.18,11.75-5.62,14.17-6.67A0,0,0,0,0,384.17,244.31Z"/><path class="cls-4" d="M388,249.6a33.15,33.15,0,0,0-10.89,5.48c-.16.12,0,.17.17.07,3.58-1.89,6.38-3.39,10.77-5.42C388.13,249.7,388.1,249.57,388,249.6Z"/><path class="cls-8" d="M414.11,232.44l13,28.32s27.58-13.2,29.5-23.34-23-45.93-27.75-51.77c-1.34-1.65-5-5.4-6.79-5-2,.49-1.82,3.44-1.72,10.29.14,9.12,7.25,34.21,6.7,35.23S414.11,232.44,414.11,232.44Z"/><g class="cls-14"><path class="cls-6" d="M454.49,227.51V241.8l.13-.18V227.83C454.58,227.72,454.54,227.62,454.49,227.51Z"/><path class="cls-6" d="M451.72,221.48v23.4l.08-.08.37-.36V222.38c-.13-.26-.26-.53-.4-.8Z"/><path class="cls-6" d="M449.27,216.84v30.22l.12-.1v-29.9Z"/><path class="cls-6" d="M446.5,212v37.28l.44-.33v-36.2C446.79,212.46,446.64,212.21,446.5,212Z"/><path class="cls-6" d="M444.05,207.89V251l.12-.09V208.09Z"/><path class="cls-6" d="M441.28,203.47v49.36l0,0,.4-.26V204.17Z"/><path class="cls-6" d="M438.82,199.69v54.67l.13-.08V199.89Z"/><path class="cls-6" d="M436.05,195.56V256l.44-.26V196.2Z"/><path class="cls-6" d="M433.72,192.2l-.12-.17v65.36l.12-.07Z"/><path class="cls-6" d="M430.83,188.17v70.72l.44-.24V188.77Z"/><path class="cls-6" d="M428.38,185.05v75.1l.12-.06V185.18A.74.74,0,0,0,428.38,185.05Z"/><path class="cls-6" d="M425.6,182.33V218.5a1.16,1.16,0,0,0,0,.18c0,.15.07.3.1.45.11.46.21.91.31,1.33V182.71l-.17-.15Z"/><path class="cls-6" d="M426.05,227l-.45.24v30.18l.29.63.06.13.1.22Z"/><path class="cls-6" d="M423.15,180.79v27.07c0,.13.06.25.08.38l0,.2v-27.6Z"/><path class="cls-6" d="M423.28,228.38l-.13.06v23.63l.13.29Z"/><path class="cls-6" d="M420.38,229.71v16.35l.44.95V229.52l-.12,0Z"/><path class="cls-6" d="M420.38,184.41v5.92c0,.21,0,.42,0,.64,0,.49,0,1,.08,1.6,0,.14,0,.29,0,.44.06.72.15,1.5.27,2.33,0,0,0,.08,0,.12l0,.21V181.85a1.69,1.69,0,0,0-.1.27,2.55,2.55,0,0,0-.12.44A9.87,9.87,0,0,0,420.38,184.41Z"/><path class="cls-6" d="M417.93,230.8v9.94l.12.26V230.75Z"/><path class="cls-6" d="M415.38,231.9l-.22.09v2.73l0,.08.4.88v-3.87Z"/></g><g class="cls-14"><path class="cls-6" d="M420.6,182.56h5.28l-.28-.23-.26-.21h-4.62A2.55,2.55,0,0,0,420.6,182.56Z"/><path class="cls-6" d="M420.35,184.89V185h8l-.1-.12Z"/><path class="cls-6" d="M420.34,187.34v.45h10.21l-.33-.45Z"/><path class="cls-6" d="M420.38,190.11v.13h12a.77.77,0,0,1-.09-.13Z"/><path class="cls-6" d="M420.47,192.57c0,.14,0,.29,0,.44h13.78l-.31-.44Z"/><path class="cls-6" d="M420.78,195.34s0,.08,0,.12H436l-.08-.12Z"/><path class="cls-6" d="M421.15,197.79c0,.15.05.29.08.44h16.63c-.11-.15-.21-.29-.3-.44Z"/><path class="cls-6" d="M421.64,200.56l0,.13h17.81l-.09-.13Z"/><path class="cls-6" d="M422.13,203a3.58,3.58,0,0,0,.09.45h19c-.1-.15-.19-.3-.28-.45Z"/><path class="cls-6" d="M422.7,205.78l0,.13h20.09l-.08-.13Z"/><path class="cls-6" d="M423.23,208.24l0,.2a2.1,2.1,0,0,0,.06.24h21.19l-.27-.44Z"/><path class="cls-6" d="M423.85,211a.53.53,0,0,1,0,.12H446a.75.75,0,0,1-.07-.12Z"/><path class="cls-6" d="M424.42,213.46c0,.14.07.29.1.44h23.1l-.25-.44Z"/><path class="cls-6" d="M425.06,216.23a.31.31,0,0,1,0,.13H449l-.07-.13Z"/><path class="cls-6" d="M425.64,218.68c0,.15.07.3.1.45H450.5c-.07-.15-.15-.3-.23-.45Z"/><path class="cls-6" d="M426.27,221.46l0,.12h25.47l0-.1v0Z"/><path class="cls-6" d="M426.8,223.91c0,.16.06.3.09.44h26.22c-.07-.14-.13-.29-.21-.44Z"/><path class="cls-6" d="M426.33,226.8H454.2l-.06-.12H426.51Z"/><path class="cls-6" d="M420.7,229.57h34.59c-.06-.15-.11-.29-.16-.44H421.67l-.85.39Z"/><path class="cls-6" d="M415.07,232h41a.79.79,0,0,0,0-.13H415.38l-.22.09Z"/><path class="cls-6" d="M415,234.36l.17.36,0,.08h41.46c0-.14,0-.29-.06-.44Z"/><path class="cls-6" d="M416.27,237.13l.05.12h40.35a.25.25,0,0,0,0-.12Z"/><path class="cls-6" d="M417.4,239.58l.2.44h38.06c.08-.14.16-.29.23-.44Z"/><path class="cls-6" d="M418.67,242.35l.06.12H454a.94.94,0,0,0,.09-.12Z"/><path class="cls-6" d="M419.8,244.8l.21.45h31.32l.39-.37.08-.08Z"/><path class="cls-6" d="M421.08,247.57l.06.13h27.35l.16-.13Z"/><path class="cls-6" d="M422.21,250l.2.44h22.38l.63-.44Z"/><path class="cls-6" d="M423.48,252.8l.06.12h17.59l.15-.09,0,0Z"/><path class="cls-6" d="M424.61,255.25l.21.44H436.6l.73-.44Z"/><path class="cls-6" d="M425.89,258l.06.13h6.26l.24-.13Z"/><path class="cls-6" d="M427,260.47l.13.29.6-.29Z"/></g><path class="cls-4" d="M430.1,255.15a32.1,32.1,0,0,1-1.55-2.89c-.52-1-1-1.94-1.47-2.92q-1.36-2.84-2.67-5.7t-2.62-5.73c-.89-2-1.9-3.95-2.64-6a.07.07,0,0,1,.13-.07c1.11,1.87,2,3.9,2.93,5.85s1.88,3.85,2.81,5.77,1.85,3.86,2.75,5.8c.44,1,.86,1.92,1.26,2.89s.9,1.93,1.2,2.94C430.26,255.18,430.14,255.21,430.1,255.15Z"/><path class="cls-4" d="M414.23,232.43c.92-.58,9.39-5.26,12.67-6.14a.08.08,0,0,1,.07.14c-3.08,2.27-11.68,5.85-12.7,6.14C414.18,232.59,414.16,232.47,414.23,232.43Z"/><path class="cls-13" d="M409.91,188c3.07.51,8.6-4.88,10.41-8.76a62.79,62.79,0,0,0-1-6.24c-.32-2-.63-4.23-.76-6.29,0-.42-1.41.45-1.41.45l-2.62.82-8.67,2.71a32.8,32.8,0,0,1,1.76,7.82,3.94,3.94,0,0,1,0,.85s0,.09,0,.15C407.43,181.1,406.94,187.46,409.91,188Z"/><path class="cls-4" d="M407.59,179.33s0,.09,0,.15a8.55,8.55,0,0,0,1.33,0c8.68-.77,9-11.89,9-11.89l-3.42.38-8.67,2.71a32.8,32.8,0,0,1,1.76,7.82A3.94,3.94,0,0,1,407.59,179.33Z"/><path class="cls-4" d="M404.91,147.34s-4.07,1.21-5.19,5.1-.66,8.14-.33,8.37S404.91,147.34,404.91,147.34Z"/><path class="cls-13" d="M421.64,154.15c.85,4.72-3.12,17.59-6.71,20.14-5.2,3.69-12.94,3.18-15.88-2.89-2.85-5.89,2.62-22.57,6.55-24.81C411.4,143.3,420.38,147.17,421.64,154.15Z"/><path class="cls-16" d="M415.27,174.2h0"/><path class="cls-4" d="M408.08,161.21s.06.06.05.09c-.29.86-.48,1.9.22,2.42a0,0,0,0,1,0,.05C407.41,163.34,407.67,162,408.08,161.21Z"/><path class="cls-4" d="M409.13,160.53c1.43.32.69,3.16-.63,2.86S407.94,160.27,409.13,160.53Z"/><path class="cls-4" d="M402.73,159.68s-.08,0-.09.06c-.2.89-.58,1.87-1.45,1.95,0,0,0,.05,0,.05C402.19,161.86,402.68,160.55,402.73,159.68Z"/><path class="cls-4" d="M402.18,158.56c-1.38-.47-2.23,2.33-.95,2.77S403.34,159,402.18,158.56Z"/><path class="cls-4" d="M410.59,159.53c-.36-.2-.66-.44-1-.67s-.71-.43-.88-.88a.61.61,0,0,1,.28-.7,1.54,1.54,0,0,1,1.54.23,2.29,2.29,0,0,1,1,1.28A.66.66,0,0,1,410.59,159.53Z"/><path class="cls-4" d="M401.46,156.85a9.61,9.61,0,0,0,1.2,0,1.93,1.93,0,0,0,1.23-.23.63.63,0,0,0,.16-.74,1.56,1.56,0,0,0-1.41-.67,2.24,2.24,0,0,0-1.55.49A.66.66,0,0,0,401.46,156.85Z"/><path class="cls-4" d="M406.78,169.26c-.27.15-.55.38-.87.32a2.29,2.29,0,0,1-.89-.46s-.06,0,0,0a1.22,1.22,0,0,0,1,.77,1,1,0,0,0,.89-.6S406.82,169.24,406.78,169.26Z"/><path class="cls-4" d="M406.54,166.39a3.07,3.07,0,0,1-2.34.81,3.72,3.72,0,0,1-1.09-.23l-.2-.08a.71.71,0,0,1-.18-.08.22.22,0,0,1-.13-.24h0l0-.08h0l0-.08c.16-.68.49-1.69.49-1.69-.28.06-1.69.3-1.57,0a45.79,45.79,0,0,1,3.52-8.74.08.08,0,0,1,.15.06c-.79,2.8-2.07,5.45-2.91,8.25a5.29,5.29,0,0,1,1.52-.06c.09.05-.68,1.94-.72,2.25,0,0,0,0,0,0a4.26,4.26,0,0,0,3.34-.16C406.56,166.26,406.61,166.34,406.54,166.39Z"/><path class="cls-4" d="M403.6,166.73a3.65,3.65,0,0,0,1.13,1.47,1.67,1.67,0,0,0,1,.32c.74,0,.93-.64.94-1.23a3.65,3.65,0,0,0-.09-.92A4.73,4.73,0,0,1,403.6,166.73Z"/><path class="cls-17" d="M404.73,168.2a1.67,1.67,0,0,0,1,.32c.74,0,.93-.64.94-1.23A1.71,1.71,0,0,0,404.73,168.2Z"/><path class="cls-4" d="M418.37,165.3c-1.55-.05-1.71-4.81-1.61-6.59.09-1.56,1.19-6.25,1.22-6.58s-7.48,1.9-10.65-.34-4.44-6.23-4-7.72,6.14-3.74,10-2.62,7.33,7.69,7.33,7.69a18.41,18.41,0,0,1-.91-2.83,4.38,4.38,0,0,1,2.08,3.57s.27-2.35.47-2.33,1.45,2.55.54,3.83c0,0,1.54,2.66,1,4.82S420.18,165.36,418.37,165.3Z"/><path class="cls-4" d="M405.08,150.19a12.68,12.68,0,0,0,2.92,2.34,8.46,8.46,0,0,0,4,.7,12.87,12.87,0,0,0,4-.83c1.13-.42,2.22-1,3.38-1.35.29-.08.45.35.23.52a13.48,13.48,0,0,1-8,2.51,7.69,7.69,0,0,1-6.56-3.87S405.06,150.17,405.08,150.19Z"/><path class="cls-13" d="M417.55,164.53s3.56-3.83,5.34-2.5-1.31,7.17-3.69,7.69a2.32,2.32,0,0,1-2.91-1.66Z"/><path class="cls-4" d="M422,163.68a0,0,0,1,1,0,.06,5.93,5.93,0,0,0-3.51,3.22,1.29,1.29,0,0,1,1.95-.08s0,.09,0,.08a1.43,1.43,0,0,0-1.63.28,6.83,6.83,0,0,0-.92,1.15c-.09.13-.34,0-.26-.13l0,0C417.8,166.19,419.76,163.58,422,163.68Z"/><path class="cls-1" d="M407.53,179.25l3.15,7.59,9.37-9.75,2.72,3.06s-9.1,15.44-9.16,14.75l-3.22-6.54L405.91,193l.23-11.48Z"/><path class="cls-4" d="M405.7,187.3c.1-1.9.16-3.81.35-5.69,0-.07.11-.1.12,0,.4,1.82,0,9.06,0,10.8l0,0c.19-.2,4.16-4.07,4.2-4,.69,1,3.06,5.79,3.22,6.23,1.44-2.45,6.95-11.37,8.66-13.69a.07.07,0,0,1,.12.06c-1.27,2.59-8.57,14.59-8.68,14.56a74.49,74.49,0,0,1-3.37-6.91c-.67.84-4.67,5.21-4.69,4.92A61.68,61.68,0,0,1,405.7,187.3Z"/></g></svg>