<svg xmlns="http://www.w3.org/2000/svg" width="123" height="39" fill="none"><path fill="#28285B" d="M81.16 35.357h-.06c-.12.18-.27.33-.42.45-.3.239-.719.449-1.378.449-1.289 0-2.008-.69-2.008-1.619 0-1.019.84-1.888 3.177-1.888h.72v-.3c0-.839-.57-1.408-1.5-1.408-.928 0-1.348.45-1.558 1.019h-.57c.15-.84.9-1.619 2.129-1.619 1.228 0 2.068.84 2.068 2.009v3.746h-.39l-.21-.84Zm0-2.008h-.72c-2.007 0-2.577.569-2.577 1.288 0 .51.51 1.02 1.499 1.02 1.109 0 1.798-.72 1.798-1.799v-.51ZM88.204 34.248c-.33 1.169-1.169 2.008-2.458 2.008-1.498 0-2.637-1.23-2.637-2.907 0-1.679 1.169-2.908 2.637-2.908 1.29 0 2.128.84 2.458 2.009h-.66c-.27-.78-.899-1.41-1.798-1.41-1.109 0-2.068.99-2.068 2.339 0 1.348.96 2.337 2.068 2.337.93 0 1.559-.66 1.799-1.408h.659v-.06ZM93.119 35.357h-.06c-.12.18-.27.33-.42.45-.3.239-.72.449-1.379.449-1.288 0-2.008-.69-2.008-1.619 0-1.019.84-1.888 3.177-1.888h.72v-.3c0-.839-.57-1.408-1.499-1.408-.929 0-1.349.45-1.558 1.019h-.57c.15-.84.9-1.619 2.128-1.619 1.229 0 2.068.84 2.068 2.009v3.746h-.39l-.21-.84Zm0-2.008h-.72c-2.008 0-2.577.569-2.577 1.288 0 .51.51 1.02 1.498 1.02 1.11 0 1.799-.72 1.799-1.799v-.51ZM99.712 35.207h-.06c-.15.18-.3.36-.48.51-.329.27-.778.509-1.438.509-1.498 0-2.637-1.229-2.637-2.907 0-1.679 1.169-2.907 2.637-2.907.66 0 1.139.27 1.439.51.18.149.36.329.48.509h.06v-3.387h.569v8.152h-.39l-.18-.989Zm.06-1.858c0-1.349-.959-2.338-2.068-2.338s-2.068.99-2.068 2.338c0 1.349.96 2.338 2.068 2.338 1.11-.03 2.068-.99 2.068-2.338ZM106.756 34.757a2.508 2.508 0 0 1-2.338 1.499c-1.558 0-2.727-1.23-2.727-2.907 0-1.679 1.169-2.908 2.637-2.908 1.409 0 2.578 1.17 2.578 2.728 0 .15-.03.24-.03.33l-.03.12h-4.586c.15 1.228.959 2.067 2.128 2.067.839 0 1.319-.51 1.619-.899h.749v-.03Zm-.39-1.738c-.149-1.169-.959-2.008-2.008-2.008-1.019 0-1.858.839-2.068 2.008h4.076ZM108.373 30.501h.39l.179.84h.06c.09-.18.21-.3.36-.45.24-.21.629-.45 1.139-.45.659 0 1.079.27 1.349.57.15.18.269.36.389.57.09-.21.24-.42.39-.57.27-.3.689-.57 1.349-.57 1.109 0 1.948.84 1.948 2.248v3.477h-.57v-3.477c0-1.019-.659-1.678-1.408-1.678-.84 0-1.499.66-1.499 1.678v3.477h-.569v-3.477c0-1.019-.66-1.678-1.409-1.678-.839 0-1.499.66-1.499 1.678v3.477h-.569V30.5h-.03ZM117.604 37.724h.27c.51 0 .75-.24 1.019-.899l.33-.779-2.248-5.544h.659l1.949 4.855 1.948-4.855h.659l-2.577 6.323c-.39 1.02-.84 1.499-1.559 1.499-.09 0-.18 0-.27-.03l-.12-.03v-.54h-.06ZM15.855 19.653c-1.08.599-2.308.899-3.657.899-2.278 0-4.136-.72-5.515-2.158-1.408-1.439-2.097-3.267-2.097-5.545s.689-4.136 2.097-5.574c1.41-1.439 3.237-2.158 5.515-2.158 1.349 0 2.548.3 3.627.899 1.079.6 1.918 1.408 2.487 2.457l3.986-2.307a10.774 10.774 0 0 0-4.226-4.046C16.274 1.13 14.296.62 12.168.62c-3.476 0-6.414 1.169-8.721 3.507C1.139 6.495 0 9.403 0 12.849c0 3.447 1.139 6.354 3.447 8.692 2.307 2.337 5.215 3.536 8.751 3.536 2.158 0 4.136-.51 5.904-1.498a10.896 10.896 0 0 0 4.196-4.046l-3.986-2.308c-.54 1.019-1.349 1.828-2.457 2.428ZM51.43 16.116l6.743-8.302H52.99l-5.785 7.403V1.1h-4.346v23.527h4.346v-7.643l6.144 7.643h5.035l-6.953-8.512Z"/><path fill="#28285B" d="M72.41 9.912c-1.739-1.708-3.837-2.578-6.324-2.578-2.488 0-4.586.87-6.294 2.578-1.709 1.708-2.578 3.806-2.578 6.294 0 2.487.87 4.585 2.578 6.294 1.708 1.708 3.806 2.577 6.294 2.577 2.487 0 4.585-.869 6.324-2.577 1.738-1.709 2.577-3.807 2.577-6.294 0-2.488-.87-4.586-2.577-6.294Zm-3.057 9.62c-.87.87-1.949 1.32-3.267 1.32-1.289 0-2.398-.45-3.237-1.32-.87-.869-1.289-1.977-1.289-3.326s.42-2.458 1.289-3.327c.869-.87 1.948-1.319 3.237-1.319 1.288 0 2.397.45 3.267 1.32.869.868 1.318 1.977 1.318 3.326-.03 1.349-.45 2.457-1.319 3.327ZM38.722 9.912c-1.738-1.708-3.836-2.578-6.324-2.578-2.487 0-4.585.87-6.294 2.578-1.708 1.708-2.577 3.806-2.577 6.294 0 2.487.869 4.585 2.577 6.294 1.709 1.708 3.807 2.577 6.294 2.577 2.488 0 4.586-.869 6.324-2.577 1.738-1.709 2.578-3.807 2.578-6.294 0-2.488-.84-4.586-2.578-6.294Zm-3.057 9.62c-.87.87-1.948 1.32-3.267 1.32-1.289 0-2.397-.45-3.237-1.32-.839-.869-1.288-1.977-1.288-3.326s.42-2.458 1.288-3.327c.87-.87 1.948-1.319 3.237-1.319 1.289 0 2.398.45 3.267 1.32.87.868 1.319 1.977 1.319 3.326s-.45 2.457-1.319 3.327ZM90.602 9.193c-1.199-1.23-2.727-1.859-4.555-1.859-2.278 0-3.956.78-5.005 2.368V7.814h-4.346v16.784h4.346v-9.051c0-1.38.33-2.428 1.019-3.117.659-.69 1.558-1.05 2.697-1.05 1.019 0 1.798.3 2.428.9.599.6.899 1.438.899 2.577v9.77h4.346v-10.34c-.03-2.157-.63-3.866-1.829-5.094ZM123 11.98V7.814h-3.806V3.11l-4.346 1.319v3.386h-2.907v4.166h2.907v6.983c0 2.308.6 3.897 1.828 4.796 1.229.899 3.327 1.169 6.294.839v-3.926c-.839.03-1.528.06-2.068 0-.569-.03-.989-.18-1.289-.45-.299-.27-.449-.69-.449-1.289V11.98H123ZM111.551 16.206c0-2.488-.809-4.616-2.398-6.294-1.618-1.709-3.626-2.548-6.114-2.548-2.607 0-4.735.84-6.383 2.548-1.649 1.678-2.488 3.806-2.488 6.324 0 .629.06 1.198.15 1.798.3 1.768 1.109 3.297 2.368 4.555 1.678 1.679 3.896 2.518 6.683 2.518 3.237 0 5.664-1.199 7.313-3.596l-3.507-2.009c-.839 1.11-2.098 1.679-3.746 1.679-2.578 0-4.166-1.05-4.735-3.147h12.647c.15-.66.21-1.259.21-1.828Zm-12.917-1.589c.24-1.079.749-1.918 1.528-2.487.749-.6 1.708-.9 2.877-.9.989 0 1.888.27 2.638.84.749.57 1.259 1.408 1.528 2.547h-8.571Z"/><path fill="#EB5B28" d="M38.513 4.487a26.09 26.09 0 0 0-12.168 0c-.27-1.109-.54-2.188-.78-3.296a29.637 29.637 0 0 1 13.757 0c-.27 1.108-.54 2.217-.81 3.296Z"/></svg>