<svg width="100" height="40" viewBox="0 0 100 40" fill="none" xmlns="http://www.w3.org/2000/svg">
<path d="M72.3755 21.7148C72.2715 24.671 70.9241 26.8438 68.1626 28.074C65.7878 29.1306 62.4657 28.2967 60.8029 26.2986C59.6149 24.8703 58.9401 23.208 58.4247 21.4551C58.2144 20.742 58.0076 19.9808 57.5928 19.382C56.7427 18.1562 55.4089 17.854 54.0062 18.06C52.6791 18.2559 51.7715 19.1156 51.2786 20.3178C50.432 22.3785 51.299 24.4013 53.2918 25.1087C54.5318 25.5486 55.7548 25.4658 56.9372 24.8714C57.7024 24.4875 58.2111 24.5367 58.7728 25.0371C59.2747 25.4837 59.451 26.068 59.1673 26.6557C59.0294 26.9423 58.7864 27.2434 58.5117 27.39C55.8158 28.8295 53.1369 28.7266 50.6151 27.0329C48.7715 25.7938 47.978 23.9569 47.9746 21.7416C47.9701 18.9577 49.851 16.3339 52.3445 15.4205C55.3468 14.3213 59.0034 15.5302 60.4401 18.238C60.9363 19.1738 61.1285 20.2629 61.5286 21.2558C61.8994 22.1759 62.3074 23.0916 62.8003 23.9513C63.535 25.2341 65.235 25.7658 66.5135 25.4871C67.9592 25.1725 69.1099 23.8405 69.3077 22.4323C69.4784 21.2133 69.2681 20.1062 68.4226 19.1726C67.2256 17.8518 65.209 17.5921 63.622 18.4831C63.2671 18.6824 62.8059 18.8312 62.4126 18.7965C61.7434 18.7383 61.2901 18.2794 61.1341 17.6257C61.0053 17.0861 61.2336 16.569 61.6631 16.288C62.3255 15.8548 63.0365 15.416 63.7905 15.2123C66.7904 14.3996 69.6988 15.5335 71.3661 18.1182C72.0612 19.1973 72.4512 20.3883 72.3755 21.7125V21.7148Z" fill="black"/>
<path d="M44.4899 20.8626C44.4899 22.5047 44.5023 24.1469 44.4865 25.7879C44.4718 27.2923 44.2446 28.7475 43.3923 30.0471C42.5502 31.3322 41.3193 32.0743 39.8577 32.4012C37.3054 32.9732 34.7825 32.8008 32.3319 31.865C31.8741 31.6904 31.4558 31.4116 31.0195 31.1822C30.7641 31.0467 30.7211 30.8822 30.8748 30.6213C31.2445 30.0001 31.5983 29.3699 31.9362 28.7318C32.1024 28.4195 32.2233 28.3703 32.5658 28.5762C34.4287 29.6934 36.435 30.0919 38.5703 29.54C39.791 29.2244 40.5913 28.1688 40.7202 26.821C40.745 26.5625 40.7496 26.2994 40.7417 26.0397C40.7394 25.9446 40.6976 25.8002 40.632 25.7711C40.5631 25.7408 40.4184 25.7968 40.3528 25.8606C39.7492 26.4517 39.0122 26.7953 38.2018 26.9845C34.9927 27.7333 31.1766 26.3274 30.226 22.6861C29.3127 19.1869 31.0026 15.831 34.7079 14.8616C36.5774 14.3724 38.3928 14.5415 40.0239 15.6899C40.1991 15.8131 40.3415 15.9821 40.5111 16.1131C40.6015 16.1836 40.7202 16.2194 40.8253 16.2709C40.8671 16.1646 40.9406 16.0605 40.9451 15.953C40.9915 14.8325 40.9881 14.8325 42.1433 14.8314C42.748 14.8314 43.3528 14.8493 43.9564 14.8235C44.352 14.8056 44.5046 14.9187 44.5001 15.3385C44.4797 17.1798 44.491 19.0212 44.491 20.8626H44.4888H44.4899ZM40.7665 20.9107C40.8287 19.0346 39.288 17.669 37.3178 17.6757C35.1046 17.6836 33.7335 19.0973 33.7651 20.9678C33.7968 22.8159 35.0831 24.1312 37.2794 24.1536C39.3683 24.1737 40.8321 22.7532 40.7654 20.9107H40.7665Z" fill="black"/>
<path d="M99.462 21.6408C99.3433 21.5468 99.2359 21.4304 99.1025 21.3643C98.977 21.3028 98.8244 21.2938 98.6831 21.2614C98.673 21.4013 98.6357 21.5468 98.6594 21.6811C98.6854 21.8255 98.769 21.961 98.8391 22.1266C98.4729 22.1658 98.2344 22.0807 98.0355 21.7819C97.9281 21.6196 97.6783 21.5513 97.4918 21.4405C97.4183 21.6263 97.3064 21.8065 97.2815 21.999C97.2453 22.2789 97.2725 22.5665 97.2725 22.8509C97.2306 22.8699 97.1877 22.8889 97.1459 22.908C96.9605 22.6818 96.7864 22.4445 96.5841 22.233C96.4756 22.1199 96.3207 22.0505 96.1862 21.9621C96.1127 22.1009 96.0053 22.233 95.9726 22.3819C95.8957 22.7233 95.8561 23.0725 95.8008 23.4173C95.7521 23.4318 95.7035 23.4464 95.6538 23.4609C95.5249 23.105 95.413 22.7423 95.2627 22.3953C95.1621 22.1625 95.0106 21.7673 94.8761 21.7651C94.4534 21.7572 94.6614 22.1737 94.5822 22.4065C94.5404 22.5307 94.5088 22.6583 94.3754 22.7915C94.3403 22.6897 94.2861 22.5901 94.2748 22.4848C94.1357 21.2065 93.9899 19.9293 93.8758 18.6487C93.8147 17.9614 93.5988 17.8014 92.9534 17.592C92.1983 17.3469 91.4975 16.9383 90.7707 16.6047C89.4493 15.9992 88.4264 15.0163 87.4588 13.9809C86.5387 12.997 85.3055 12.7485 84.0768 12.5559C83.6179 12.4843 83.1013 12.7485 82.6152 12.8727C82.4717 12.9097 82.3406 12.9914 82.3281 12.997C83.0335 12.1407 83.7659 11.1679 84.5967 10.2836C84.9584 9.89853 85.4954 9.64219 85.9972 9.43399C86.2617 9.32429 86.6348 9.40153 86.94 9.47317C87.8476 9.68473 88.5891 10.156 89.2413 10.8377C89.8642 11.4892 90.6916 11.216 90.964 10.3731C91.4817 8.76684 92.126 7.2109 92.9568 5.73556C93.5446 4.69342 94.1143 3.64008 94.7314 2.61473C95.3667 1.55916 96.2065 0.690515 97.3064 0.0905271C97.3731 0.0535875 97.4465 0.0256055 97.5189 0.00209852C97.5437 -0.00573713 97.5777 0.00993104 97.6658 0.0233636C97.6658 0.208061 97.6783 0.401715 97.6636 0.594248C97.6093 1.30841 97.5901 2.02817 97.4748 2.73338C97.2973 3.81135 97.0441 4.87699 96.8362 5.95048C96.7785 6.24935 96.7808 6.5583 96.7333 6.86054C96.67 7.26015 96.5773 7.65641 96.5163 8.05603C96.4959 8.1926 96.4891 8.3717 96.5615 8.46796C96.6169 8.54072 96.8271 8.56199 96.9356 8.52057C97.208 8.41647 97.4567 8.25193 97.7246 8.13439C98.4672 7.80529 99.2144 7.48739 100 7.21314C99.4088 7.97432 99.315 9.0243 98.3587 9.5672C97.8885 9.83473 97.5618 10.3653 97.2046 10.8052C96.6463 11.4936 96.0958 12.191 95.5837 12.9141C95.3588 13.232 95.2209 13.6149 95.0841 13.9831C95.0502 14.0749 95.1418 14.2507 95.2265 14.3413C96.3987 15.604 97.3075 17.0614 98.075 18.5715C98.5328 19.4715 99.0822 20.3166 99.5151 21.2255C99.5671 21.3341 99.5603 21.4696 99.5818 21.5927L99.462 21.6419V21.6408Z" fill="#AFD039"/>
<path d="M75.8467 21.309C75.8467 19.3142 75.8546 17.3195 75.8399 15.3259C75.8376 14.9498 75.9416 14.8076 76.3406 14.8199C77.2223 14.8468 78.1062 14.8434 78.989 14.8233C79.362 14.8154 79.4751 14.952 79.4649 15.308C79.457 15.5811 79.535 15.8576 79.5757 16.1329C79.8029 15.9885 80.0278 15.8419 80.2562 15.7009C81.7584 14.7729 83.3477 14.4113 85.1257 14.7729C86.8721 15.1277 88.1641 16.0076 88.7982 17.6553C89.0898 18.4142 89.256 19.2616 89.2763 20.0732C89.3374 22.4955 89.2933 24.9212 89.3069 27.3447C89.3091 27.6984 89.2108 27.8394 88.8378 27.8327C87.8928 27.8137 86.9478 27.8148 86.0028 27.8327C85.631 27.8394 85.536 27.7096 85.5371 27.3469C85.5484 25.0768 85.5767 22.8045 85.5134 20.5355C85.4772 19.2135 84.998 18.2844 83.6574 17.9407C82.1461 17.5534 80.3466 18.1422 79.8458 19.9041C79.7102 20.3832 79.6582 20.8993 79.6514 21.3985C79.6265 23.3921 79.6288 25.3869 79.639 27.3816C79.6401 27.695 79.5553 27.8316 79.2253 27.8282C78.234 27.8193 77.2426 27.8193 76.2513 27.8327C75.9156 27.8372 75.8399 27.6928 75.8421 27.385C75.8534 25.36 75.8478 23.335 75.8489 21.3101L75.8467 21.309Z" fill="black"/>
<path d="M23.7423 26.4183C23.5468 26.5392 23.4428 26.575 23.3795 26.6466C22.5114 27.6384 21.3528 27.9362 20.0969 28.0067C18.849 28.0772 17.6531 27.8869 16.577 27.2254C15.354 26.472 14.7685 25.3493 14.8318 23.9355C14.9019 22.3673 15.7248 21.305 17.1976 20.7229C18.2409 20.311 19.3396 20.2583 20.4372 20.2192C21.3042 20.1878 22.1723 20.2057 23.0404 20.2192C23.436 20.2248 23.5671 20.058 23.5117 19.6819C23.3523 18.6005 22.4108 17.7308 21.3075 17.6446C19.7454 17.5226 18.2522 17.6938 16.9082 18.5849C16.8314 18.6352 16.568 18.5636 16.5205 18.4785C16.1385 17.7946 15.7768 17.0983 15.4399 16.3909C15.4015 16.3092 15.519 16.0663 15.6208 16.0204C16.377 15.6756 17.1207 15.2491 17.9188 15.0655C19.0095 14.8148 20.1456 14.6368 21.2612 14.6469C22.8019 14.6603 24.3098 14.967 25.5452 16.0148C26.5252 16.8465 27.1051 17.9188 27.1514 19.1714C27.2543 21.9296 27.2577 24.6911 27.3074 27.4515C27.3131 27.7392 27.1639 27.8287 26.9062 27.8276C25.9759 27.8265 25.0467 27.8254 24.1165 27.8309C23.8441 27.8321 23.7208 27.7324 23.7389 27.447C23.7581 27.1381 23.7434 26.8269 23.7434 26.4194L23.7423 26.4183ZM21.8682 22.3326C21.8682 22.3326 21.8682 22.3381 21.8682 22.3404C21.5121 22.3404 21.155 22.3191 20.8012 22.346C20.4327 22.374 20.0642 22.4333 19.7013 22.5027C18.7744 22.6807 18.2522 23.5247 18.5778 24.3989C18.6874 24.6922 18.9282 25.0079 19.1961 25.1612C20.2202 25.75 21.2838 25.6538 22.2989 25.1265C23.2224 24.6463 23.6496 23.8751 23.54 22.8161C23.5038 22.4646 23.3783 22.3191 23.0291 22.3292C22.6425 22.3404 22.2559 22.3314 21.8682 22.3314V22.3326Z" fill="black"/>
<path d="M0.989581 19.3717C0.989581 16.7177 0.997492 14.0636 0.981667 11.4096C0.979407 11.001 1.10714 10.8801 1.51293 10.8913C2.45677 10.9171 3.40287 10.9126 4.34785 10.8913C4.74573 10.8824 4.88815 11.0077 4.88702 11.4186C4.87346 15.6532 4.87798 19.8867 4.87572 24.1213C4.87572 24.6586 4.92998 24.6832 5.50193 24.6798C8.02713 24.6653 10.5523 24.6686 13.0775 24.6619C13.3714 24.6619 13.5048 24.7895 13.5037 25.0761C13.5014 25.8742 13.4958 26.6712 13.5071 27.4693C13.5116 27.8096 13.3047 27.8287 13.0504 27.8264C12.2298 27.8219 11.408 27.8231 10.5874 27.8231C7.56708 27.8231 4.54566 27.8152 1.52536 27.832C1.09809 27.8343 0.977147 27.719 0.980538 27.288C1.00201 24.6496 0.99184 22.0112 0.99184 19.3717H0.989581Z" fill="black"/>
<path d="M59.6457 33.7411C61.0937 33.553 62.7338 35.0015 62.718 36.8182C62.7033 38.6473 61.2587 39.9033 59.7757 39.9749C57.8903 40.0667 56.5486 38.3865 56.5305 36.8764C56.5101 35.1593 57.9796 33.5709 59.6446 33.7411H59.6457ZM57.2437 36.8406C57.2663 38.232 58.3108 39.3055 59.6423 39.301C61.0507 39.2965 62.0658 38.1503 62.0375 36.8238C62.0048 35.3127 61.0462 34.3366 59.6062 34.3399C58.2972 34.3422 57.2505 35.3395 57.2437 36.8406Z" fill="black"/>
<path d="M43.3513 33.7399C45.048 33.5933 46.4598 35.1739 46.4372 36.872C46.4168 38.4335 45.1147 40.0588 43.1784 39.9682C41.571 39.892 40.2067 38.6507 40.2169 36.8193C40.227 34.9768 41.6174 33.6179 43.3524 33.7399H43.3513ZM45.7126 36.8496C45.7578 35.5041 44.7416 34.3444 43.3637 34.3366C41.9723 34.3298 40.9584 35.3239 40.9199 36.8138C40.8849 38.1917 41.9655 39.2887 43.3016 39.2909C44.6569 39.2932 45.7103 38.2264 45.7115 36.8485L45.7126 36.8496Z" fill="black"/>
<path d="M70.8527 35.0133C69.468 33.8659 68.02 34.3405 67.2661 35.264C66.398 36.3263 66.5867 37.9483 67.673 38.799C68.6971 39.6016 70.2502 39.418 71.0245 38.4016C71.0708 38.3401 71.1319 38.2807 71.1522 38.2113C71.2291 37.9527 71.2924 37.6897 71.3613 37.4289C71.1296 37.3863 70.8979 37.3192 70.6639 37.3057C70.2931 37.2845 69.9179 37.3214 69.5505 37.2845C69.4386 37.2733 69.2543 37.0964 69.26 37.0057C69.2679 36.8905 69.4318 36.6934 69.5335 36.6901C70.2762 36.6621 71.0211 36.6576 71.7626 36.6923C71.8768 36.6979 72.061 36.9363 72.0746 37.0807C72.1797 38.1789 71.5874 39.1706 70.578 39.6609C68.9322 40.4602 67.0264 39.7023 66.3335 38.2158C65.3207 36.0453 66.8501 33.651 69.095 33.7304C69.7268 33.7528 70.3259 33.811 70.8685 34.1536C71.4031 34.4905 71.4043 34.5946 70.8515 35.0133H70.8527Z" fill="black"/>
<path d="M32.7569 35.0825C32.7321 35.2638 32.6857 35.444 32.6857 35.6254C32.6801 36.8522 32.6823 38.079 32.6857 39.3059C32.6857 39.5589 32.7128 39.8085 32.3229 39.795C31.9566 39.7827 32.003 39.5365 32.003 39.3104C32.0019 37.685 31.9962 36.0586 32.0109 34.4332C32.0132 34.2329 32.09 33.8903 32.1997 33.8612C32.5309 33.7739 32.8835 33.7582 33.1198 34.159C33.6431 35.0444 34.2106 35.9041 34.7588 36.7738C35.021 37.1891 35.2742 37.6111 35.5444 38.0208C35.619 38.1328 35.7411 38.2145 35.9468 38.4104C35.9468 37.9492 35.9468 37.6369 35.9468 37.3235C35.9468 36.3115 35.9389 35.2985 35.9536 34.2866C35.9558 34.1411 36.0248 33.9116 36.1276 33.8679C36.3989 33.7504 36.6058 33.8344 36.6001 34.1926C36.5911 34.7757 36.5979 35.3578 36.5979 35.941C36.5979 37.0459 36.608 38.1496 36.5888 39.2533C36.5854 39.4301 36.4328 39.7603 36.382 39.7548C36.1468 39.7268 35.827 39.6697 35.7117 39.5051C35.1838 38.7507 34.7136 37.957 34.2253 37.1757C33.8183 36.5253 33.4148 35.8727 33.0124 35.2201C32.9728 35.1552 32.9547 35.078 32.9276 35.0052C32.8711 35.031 32.8146 35.0556 32.7592 35.0813L32.7569 35.0825Z" fill="black"/>
<path d="M23.5827 36.777C23.5827 35.933 23.5839 35.089 23.5827 34.245C23.5827 34.0166 23.5827 33.8241 23.9128 33.8185C24.2417 33.8129 24.3005 33.9685 24.2949 34.2427C24.2836 34.8259 24.305 35.4091 24.2858 35.9923C24.2734 36.3561 24.4249 36.4837 24.7798 36.4759C25.4919 36.4614 26.2063 36.4569 26.9184 36.4759C27.3491 36.4871 27.4904 36.3069 27.4711 35.8961C27.4451 35.3442 27.4632 34.7912 27.4644 34.2383C27.4644 34.0345 27.4531 33.8297 27.7594 33.8252C28.0612 33.8219 28.1177 33.9909 28.1166 34.2394C28.1132 35.9588 28.1109 37.677 28.1166 39.3964C28.1166 39.6628 28.0329 39.7993 27.7447 39.7915C27.4361 39.7826 27.4632 39.5732 27.4632 39.3706C27.4632 38.7718 27.4531 38.1729 27.4678 37.5751C27.4757 37.255 27.3796 37.0893 27.0235 37.096C26.2492 37.1106 25.4738 37.1084 24.6984 37.096C24.4 37.0916 24.2813 37.2046 24.287 37.5024C24.2994 38.1315 24.2847 38.7606 24.2937 39.3897C24.2971 39.6404 24.2542 39.8016 23.9456 39.7982C23.6562 39.7949 23.5748 39.6684 23.5782 39.402C23.5884 38.5277 23.5827 37.6524 23.5816 36.777H23.5827Z" fill="black"/>
<path d="M89.2023 33.744C89.8523 33.6713 90.3847 33.9444 90.7803 34.4671C90.856 34.5668 90.8617 34.8287 90.7859 34.9115C90.622 35.0884 90.4163 35.1444 90.2038 34.8858C89.7404 34.3261 89.1729 34.1683 88.6145 34.4985C88.3681 34.644 88.0968 34.9664 88.0833 35.2216C88.0697 35.4701 88.3127 35.8305 88.5467 35.9716C89.0023 36.2447 89.5346 36.3902 90.0297 36.604C91.3014 37.1525 91.6077 38.8058 90.5655 39.5435C89.3956 40.373 87.9058 39.9857 87.2943 38.7947C87.2276 38.6648 87.2446 38.3838 87.3373 38.3055C87.5328 38.1409 87.7826 38.1085 87.9443 38.4219C88.2268 38.9715 88.6722 39.2849 89.3154 39.2782C89.8557 39.2726 90.3474 38.9301 90.448 38.4935C90.5599 38.0033 90.3304 37.5611 89.7924 37.3092C89.3606 37.1066 88.9039 36.9544 88.4699 36.7563C87.5385 36.332 87.1733 35.7343 87.3666 34.9294C87.5147 34.3171 88.1522 33.6466 89.2046 33.7463L89.2023 33.744Z" fill="black"/>
<path d="M7.5933 36.8115C7.5933 35.9843 7.60687 35.156 7.58652 34.3287C7.57748 33.9661 7.67017 33.8037 8.07596 33.8172C8.91016 33.844 9.74662 33.8317 10.5831 33.8216C10.86 33.8183 11.0296 33.8843 11.025 34.1989C11.0205 34.5224 10.7854 34.4631 10.5966 34.4653C9.97721 34.472 9.35891 34.4776 8.73948 34.4653C8.42185 34.4586 8.28734 34.5839 8.29751 34.8985C8.30995 35.297 8.30768 35.6955 8.29751 36.094C8.28847 36.422 8.42072 36.5697 8.76435 36.5585C9.30578 36.5406 9.84835 36.5317 10.3887 36.5574C10.5232 36.5641 10.7357 36.6929 10.7662 36.8048C10.8431 37.0846 10.6159 37.116 10.3954 37.116C9.854 37.1137 9.31143 37.1283 8.77113 37.1115C8.43654 37.1014 8.28395 37.2167 8.29751 37.5604C8.31334 37.9432 8.31221 38.3272 8.29751 38.71C8.28282 39.0715 8.44785 39.198 8.80052 39.188C9.37247 39.1723 9.94556 39.179 10.5186 39.1857C10.7413 39.188 11.0183 39.1376 11.0126 39.5003C11.0081 39.8294 10.7549 39.7935 10.5435 39.7947C9.70819 39.7991 8.87173 39.7846 8.0364 39.8025C7.68825 39.8092 7.58087 39.6782 7.58765 39.3424C7.60687 38.4995 7.5933 37.6566 7.5933 36.8137V36.8115Z" fill="black"/>
<path d="M19.5014 38.4119C19.671 38.5955 19.8123 38.7488 19.9682 38.919C19.1555 39.8044 18.1529 40.1492 17.0553 39.9421C16.0064 39.744 15.1202 39.1731 14.7438 38.0996C14.0543 36.1329 14.8715 34.362 16.6394 33.8583C17.6442 33.5717 18.6717 33.6165 19.5184 34.3721C19.619 34.4616 19.7139 34.7202 19.663 34.7851C19.5274 34.9541 19.3703 35.1903 19.0651 34.9172C18.8334 34.7101 18.5282 34.5512 18.2286 34.456C16.6755 33.9635 15.0637 35.2474 15.205 36.9903C15.2897 38.0369 15.7848 38.816 16.792 39.1619C17.703 39.4742 18.5621 39.2951 19.2731 38.6022C19.3273 38.5496 19.3895 38.5059 19.5014 38.4141V38.4119Z" fill="black"/>
<path d="M80.3563 36.7932C80.3563 35.9649 80.3665 35.1365 80.3518 34.3082C80.3462 33.969 80.4332 33.8067 80.8198 33.819C81.6551 33.8448 82.4927 33.8313 83.3292 33.8246C83.5778 33.8224 83.7508 33.8615 83.7451 34.1683C83.7395 34.4671 83.5473 34.4682 83.3359 34.4682C82.7165 34.4682 82.0971 34.4783 81.4776 34.4649C81.1374 34.4582 80.9995 34.6037 81.0085 34.9328C81.0187 35.3156 81.0142 35.6996 81.0097 36.0835C81.0052 36.4093 81.1566 36.5615 81.4889 36.5559C82.0462 36.5458 82.6046 36.5301 83.1607 36.5559C83.2873 36.5615 83.4795 36.707 83.5145 36.8245C83.5891 37.0775 83.3823 37.1156 83.1754 37.1156C82.6182 37.1133 82.0598 37.1279 81.5025 37.1111C81.1419 37.0999 80.9927 37.2432 81.0063 37.598C81.021 37.9506 81.0221 38.3044 81.0063 38.6558C80.9882 39.0588 81.1747 39.1999 81.5669 39.1876C82.1547 39.1696 82.7436 39.1831 83.3325 39.1831C83.5439 39.1831 83.7429 39.1864 83.7451 39.4831C83.7474 39.7741 83.5609 39.7943 83.3427 39.7943C82.4904 39.7943 81.6393 39.7853 80.787 39.7976C80.4694 39.8021 80.3473 39.6902 80.3529 39.3689C80.3676 38.5103 80.3586 37.6506 80.3575 36.7921L80.3563 36.7932Z" fill="black"/>
<path d="M1.71503 37.1466C1.71503 36.4257 1.70486 35.7059 1.71955 34.985C1.72634 34.619 1.59861 34.4399 1.20751 34.4656C0.914747 34.4847 0.616336 34.4947 0.326966 34.4567C0.20828 34.441 0.0432476 34.3045 0.0149889 34.1936C-0.0403982 33.9754 0.0556822 33.822 0.337139 33.8242C1.48218 33.8332 2.62836 33.8186 3.77227 33.8422C3.89209 33.8444 4.00738 34.0425 4.12607 34.15C4.01303 34.2563 3.91017 34.4321 3.78357 34.4533C3.49759 34.5003 3.19692 34.4858 2.90416 34.4656C2.50176 34.4388 2.3582 34.6011 2.36272 35.0007C2.37855 36.4414 2.37516 37.882 2.36046 39.3226C2.35933 39.476 2.27569 39.7234 2.17056 39.7614C1.8925 39.8611 1.70599 39.748 1.71277 39.3988C1.72747 38.6476 1.71729 37.8965 1.71616 37.1454L1.71503 37.1466Z" fill="black"/>
<path d="M50.0079 36.7511C50.0079 35.9228 50.0079 35.0956 50.0079 34.2672C50.0079 34.0187 50.0226 33.8195 50.3707 33.8184C50.729 33.8172 50.7222 34.0277 50.7222 34.2695C50.7211 35.6956 50.72 37.1217 50.7222 38.5477C50.7222 39.1477 50.7573 39.1802 51.3428 39.1813C51.8537 39.1824 52.3646 39.1791 52.8756 39.1824C53.0915 39.1847 53.374 39.1679 53.3028 39.4891C53.2757 39.6134 53.0429 39.7735 52.8993 39.7791C52.064 39.807 51.2275 39.7847 50.3911 39.797C50.0757 39.8014 49.9977 39.6537 50.0011 39.3727C50.0113 38.4985 50.0045 37.6242 50.0045 36.7511H50.0067H50.0079Z" fill="black"/>
<path d="M76.4092 36.8186C76.4092 37.6771 76.4036 38.5357 76.4126 39.3943C76.4149 39.6182 76.4036 39.7917 76.112 39.795C75.8452 39.7984 75.7186 39.7043 75.7197 39.4189C75.7276 37.6861 75.7243 35.9544 75.722 34.2216C75.722 33.9955 75.774 33.8343 76.0509 33.8265C76.3595 33.8175 76.4047 34.0022 76.4047 34.2429C76.4025 35.1015 76.4047 35.96 76.4047 36.8186C76.407 36.8186 76.4081 36.8186 76.4104 36.8186H76.4092Z" fill="black"/>
</svg>
