<svg version="1.1" id="Layer_1" xmlns="http://www.w3.org/2000/svg" xmlns:xlink="http://www.w3.org/1999/xlink" x="0px" y="0px" viewBox="245 100 1000 1000" style="enable-background:new 245 100 1000 1000;" xml:space="preserve" height="200px">
					<style type="text/css">
						.st0{
							fill:none;
						}
						.st1{
							fill:#0CA1EA;
						}
						.st2{
							fill:#F08521;
						}
					</style>

					<polygon class="st0" points="358.1,362.7 460.4,362.7 460.4,608.4 435.2,608.4 435.2,383.3 358.1,383.3 "></polygon>
					<path class="st1" d="M498.2,366.7c0,0,77.6-5.7,105.6,80.6v-95.4l-16,27.4C587.8,379.3,549.8,350.7,498.2,366.7z"></path>
					<path class="st1" d="M525.5,490.1c0,0,50.9-2.9,50.9,31.4V585c0,0-9.7,15.4-62.9,17.7c0,0,49.7,10.9,95.4-18.3v-56.6
						c0,0-6.9-37.3,41.7-39.5L525.5,490.1z"></path>
					<polygon class="st2" points="582.1,366.7 600.4,333 618.1,366.7 "></polygon>
					<polygon class="st1" points="358.1,362.7 460.4,362.7 460.4,608.4 435.2,608.4 435.2,383.3 358.1,383.3 "></polygon>
					<rect x="423.7" y="500" class="st2" width="8.1" height="108.4"></rect>
					<rect x="411.7" y="515.1" class="st2" width="8.1" height="93.4"></rect>
					<path class="st2" d="M324.4,731.8v6.4h6.6v1.3h-6.6v6.5h7.4v1.4h-9.1v-17h9.1v1.4L324.4,731.8z"></path>
					<path class="st2" d="M343.9,747.4l-4.4-7.2l-4.1,7.2h-2l5.1-8.7l-5.2-8.3h2l4.4,7l4.1-7h2l-5.2,8.5l5.3,8.5H343.9z"></path>
					<path class="st2" d="M350,740.3v7.1h-1.7v-17h5.1c1.5-0.1,3.1,0.3,4.3,1.3c1,1,1.5,2.3,1.4,3.6c0.1,1.4-0.4,2.7-1.5,3.7
						c-1.2,0.9-2.7,1.4-4.2,1.3L350,740.3z M356.4,737.9c0.7-0.7,1.1-1.6,1-2.6c0.1-1-0.3-1.9-1-2.6c-0.9-0.7-2-1-3.2-0.9H350v7h3.2
						C354.4,738.9,355.5,738.6,356.4,737.9L356.4,737.9z"></path>
					<path class="st2" d="M363.5,731.8v6.4h6.6v1.3h-6.6v6.5h7.4v1.4h-9.1v-17h9.1v1.4L363.5,731.8z"></path>
					<path class="st2" d="M382.9,747.4l-4.7-7.1h-2.7v7.1h-1.7v-17h5.3c1.5-0.1,3.1,0.4,4.3,1.3c1,1,1.5,2.3,1.4,3.6
						c0.1,1.2-0.4,2.4-1.2,3.4c-0.9,0.9-2.2,1.4-3.5,1.5l4.8,7.1L382.9,747.4z M375.5,739h3.4c2.7,0,4.1-1.2,4.1-3.5s-1.4-3.6-4.1-3.6
						h-3.4V739z"></path>
					<path class="st2" d="M389.2,730.4v17h-1.7v-17H389.2z"></path>
					<path class="st2" d="M394.5,731.8v6.4h6.6v1.3h-6.6v6.5h7.4v1.4h-9.1v-17h9.1v1.4L394.5,731.8z"></path>
					<path class="st2" d="M417.6,747.4h-1.7l-9.3-14.2v14.2h-1.7v-17h1.7l9.3,14.2v-14.2h1.7V747.4z"></path>
					<path class="st2" d="M433.8,731.7c1.4,1,2.3,2.5,2.8,4.1h-1.8c-0.4-1.2-1.2-2.2-2.2-2.9c-1.1-0.8-2.5-1.1-3.9-1.1
						c-2.3,0-4.4,1.3-5.5,3.3c-0.6,1.2-0.8,2.5-0.8,3.8s0.3,2.6,0.8,3.8c0.5,1,1.3,1.9,2.3,2.5s2.1,0.9,3.2,0.9c1.4,0,2.7-0.3,3.9-1.1
						c1-0.7,1.8-1.7,2.2-2.9h1.8c-0.5,1.6-1.5,3.1-2.8,4.1c-1.5,1-3.3,1.6-5.1,1.5c-1.5,0-2.9-0.4-4.2-1.1c-1.2-0.7-2.2-1.8-2.8-3.1
						c-0.7-1.4-1-2.9-1-4.5s0.3-3.1,1-4.5c0.6-1.3,1.6-2.3,2.8-3.1c1.3-0.7,2.7-1.1,4.2-1.1C430.5,730.2,432.3,730.7,433.8,731.7z"></path>
					<path class="st2" d="M441.4,731.8v6.4h6.6v1.3h-6.6v6.5h7.4v1.4h-9.1v-17h9.1v1.4L441.4,731.8z"></path>
					<path class="st2" d="M471,743.4c-0.7,1.3-1.7,2.3-3,3c-1.5,0.7-3.2,1.1-4.9,1H458v-17h5.1c2.4-0.2,4.8,0.7,6.6,2.3
						c1.6,1.7,2.5,3.9,2.3,6.2C472.1,740.5,471.7,742,471,743.4z M468.4,744c2.5-3,2.5-7.3,0-10.3c-1.5-1.3-3.5-2-5.5-1.8h-3.3v14h3.3
						C465,746,466.9,745.3,468.4,744L468.4,744z"></path>
					<path class="st2" d="M476.8,730.4v17h-1.7v-17H476.8z"></path>
					<path class="st2" d="M493,731.7c1.3,1,2.3,2.3,2.8,3.9H494c-0.4-1.1-1.2-2.1-2.2-2.8c-2.1-1.3-4.8-1.4-7-0.2c-1,0.6-1.8,1.5-2.3,2.5
						c-0.6,1.2-0.9,2.5-0.9,3.8s0.3,2.6,0.9,3.8c0.5,1,1.4,1.9,2.4,2.5s2.2,0.9,3.4,0.9c1.1,0,2.2-0.2,3.1-0.8c1-0.5,1.7-1.3,2.3-2.2
						c0.6-1,0.9-2.2,1-3.4h-7.1v-1.3h8.5v1.5c-0.1,1.4-0.5,2.7-1.2,3.9c-0.7,1.1-1.7,2.1-2.8,2.7c-1.2,0.7-2.6,1-4,1
						c-1.5,0-3-0.4-4.3-1.1c-1.2-0.7-2.3-1.8-2.9-3.1c-1.4-2.8-1.4-6.2,0-9c0.7-1.3,1.7-2.3,2.9-3.1c1.3-0.7,2.8-1.1,4.3-1.1
						C489.9,730.2,491.6,730.7,493,731.7z"></path>
					<path class="st2" d="M501,730.4v17h-1.7v-17H501z"></path>
					<path class="st2" d="M514.7,730.4v1.4h-4.9v15.6h-1.7v-15.6h-4.8v-1.4H514.7z"></path>
					<path class="st2" d="M526,743.2h-7.7l-1.5,4.2H515l6.3-16.6h1.9l6.3,16.6h-1.8L526,743.2z M525.5,741.9l-3.3-9.2l-3.4,9.2H525.5z"></path>
					<path class="st2" d="M533.4,746h6.2v1.3h-7.9v-17h1.7V746z"></path>
					<path class="st2" d="M549.8,730.4v17h-1.7v-17H549.8z"></path>
					<path class="st2" d="M566.2,747.4h-1.7l-9.3-14.2v14.2h-1.7v-17h1.7l9.3,14.2v-14.2h1.7V747.4z"></path>
					<path class="st2" d="M582.6,747.4h-1.7l-9.3-14.2v14.2h-1.7v-17h1.7l9.3,14.2v-14.2h1.7V747.4z"></path>
					<path class="st2" d="M598.3,731.3c1.3,0.7,2.3,1.8,3,3.1c0.7,1.4,1.1,2.9,1.1,4.5s-0.3,3.1-1.1,4.5c-0.7,1.3-1.7,2.4-3,3.1
						c-2.6,1.5-5.9,1.5-8.5,0c-1.3-0.7-2.3-1.8-3-3.1c-0.7-1.4-1.1-2.9-1.1-4.5s0.3-3.1,1.1-4.5c0.7-1.3,1.7-2.4,3-3.1
						C592.4,729.8,595.6,729.8,598.3,731.3z M590.7,732.6c-1,0.6-1.8,1.4-2.3,2.5c-1.1,2.4-1.1,5.1,0,7.5c0.5,1,1.3,1.9,2.3,2.5
						c2.1,1.2,4.6,1.2,6.7,0c1-0.6,1.8-1.4,2.3-2.5c1.1-2.4,1.1-5.1,0-7.5c-0.5-1-1.3-1.9-2.3-2.5C595.3,731.5,592.8,731.5,590.7,732.6z"></path>
					<path class="st2" d="M606,730.4l5.5,15l5.5-15h1.8l-6.3,17h-2.1l-6.3-17H606z"></path>
					<path class="st2" d="M631,743.2h-7.7l-1.5,4.2H620l6.3-16.6h1.9l6.3,16.6h-1.8L631,743.2z M630.5,741.9l-3.3-9.2l-3.4,9.2H630.5z"></path>
					<path class="st2" d="M646.6,730.4v1.4h-4.8v15.6h-1.7v-15.6h-4.8v-1.4H646.6z"></path>
					<path class="st2" d="M650.6,730.4v17h-1.7v-17H650.6z"></path>
					<path class="st2" d="M666.2,731.3c1.3,0.7,2.3,1.8,3,3.1c0.7,1.4,1.1,2.9,1.1,4.5s-0.3,3.1-1.1,4.5c-0.7,1.3-1.7,2.4-3,3.1
						c-2.6,1.5-5.8,1.5-8.5,0c-1.3-0.7-2.3-1.8-3-3.1c-0.7-1.4-1.1-2.9-1.1-4.5s0.3-3.1,1.1-4.5c0.7-1.3,1.7-2.4,3-3.1
						C660.4,729.8,663.6,729.8,666.2,731.3z M658.6,732.6c-1,0.6-1.8,1.4-2.3,2.5c-1.1,2.4-1.1,5.1,0,7.5c0.5,1,1.3,1.9,2.3,2.5
						c2.1,1.2,4.6,1.2,6.7,0c1-0.6,1.8-1.4,2.3-2.5c1.1-2.4,1.1-5.1,0-7.5c-0.5-1-1.3-1.9-2.3-2.5C663.3,731.5,660.7,731.5,658.6,732.6z"></path>
					<path class="st2" d="M686.1,747.4h-1.7l-9.3-14.2v14.2h-1.7v-17h1.7l9.3,14.2v-14.2h1.7V747.4z"></path>

					<polygon class="st0" points="358.1,362.7 460.4,362.7 460.4,608.4 435.2,608.4 435.2,383.3 358.1,383.3 "></polygon>
					<path class="st1" d="M498.2,366.7c0,0,77.6-5.7,105.6,80.6v-95.4l-16,27.4C587.8,379.3,549.8,350.7,498.2,366.7z"></path>
					<path class="st1" d="M525.5,490.1c0,0,50.9-2.9,50.9,31.4V585c0,0-9.7,15.4-62.9,17.7c0,0,49.7,10.9,95.4-18.3v-56.6
						c0,0-6.9-37.3,41.7-39.5L525.5,490.1z"></path>
					<polygon class="st2" points="582.1,366.7 600.4,333 618.1,366.7 "></polygon>
					<polygon class="st1" points="358.1,362.7 460.4,362.7 460.4,608.4 435.2,608.4 435.2,383.3 358.1,383.3 "></polygon>
					<rect x="423.7" y="500" class="st2" width="8.1" height="108.4"></rect>
					<rect x="411.7" y="515.1" class="st2" width="8.1" height="93.4"></rect>
					<path class="st2" d="M324.4,731.8v6.4h6.6v1.3h-6.6v6.5h7.4v1.4h-9.1v-17h9.1v1.4L324.4,731.8z"></path>
					<path class="st2" d="M343.9,747.4l-4.4-7.2l-4.1,7.2h-2l5.1-8.7l-5.2-8.3h2l4.4,7l4.1-7h2l-5.2,8.5l5.3,8.5H343.9z"></path>
					<path class="st2" d="M350,740.3v7.1h-1.7v-17h5.1c1.5-0.1,3.1,0.3,4.3,1.3c1,1,1.5,2.3,1.4,3.6c0.1,1.4-0.4,2.7-1.5,3.7
						c-1.2,0.9-2.7,1.4-4.2,1.3L350,740.3z M356.4,737.9c0.7-0.7,1.1-1.6,1-2.6c0.1-1-0.3-1.9-1-2.6c-0.9-0.7-2-1-3.2-0.9H350v7h3.2
						C354.4,738.9,355.5,738.6,356.4,737.9L356.4,737.9z"></path>
					<path class="st2" d="M363.5,731.8v6.4h6.6v1.3h-6.6v6.5h7.4v1.4h-9.1v-17h9.1v1.4L363.5,731.8z"></path>
					<path class="st2" d="M382.9,747.4l-4.7-7.1h-2.7v7.1h-1.7v-17h5.3c1.5-0.1,3.1,0.4,4.3,1.3c1,1,1.5,2.3,1.4,3.6
						c0.1,1.2-0.4,2.4-1.2,3.4c-0.9,0.9-2.2,1.4-3.5,1.5l4.8,7.1L382.9,747.4z M375.5,739h3.4c2.7,0,4.1-1.2,4.1-3.5s-1.4-3.6-4.1-3.6
						h-3.4V739z"></path>
					<path class="st2" d="M389.2,730.4v17h-1.7v-17H389.2z"></path>
					<path class="st2" d="M394.5,731.8v6.4h6.6v1.3h-6.6v6.5h7.4v1.4h-9.1v-17h9.1v1.4L394.5,731.8z"></path>
					<path class="st2" d="M417.6,747.4h-1.7l-9.3-14.2v14.2h-1.7v-17h1.7l9.3,14.2v-14.2h1.7V747.4z"></path>
					<path class="st2" d="M433.8,731.7c1.4,1,2.3,2.5,2.8,4.1h-1.8c-0.4-1.2-1.2-2.2-2.2-2.9c-1.1-0.8-2.5-1.1-3.9-1.1
						c-2.3,0-4.4,1.3-5.5,3.3c-0.6,1.2-0.8,2.5-0.8,3.8s0.3,2.6,0.8,3.8c0.5,1,1.3,1.9,2.3,2.5s2.1,0.9,3.2,0.9c1.4,0,2.7-0.3,3.9-1.1
						c1-0.7,1.8-1.7,2.2-2.9h1.8c-0.5,1.6-1.5,3.1-2.8,4.1c-1.5,1-3.3,1.6-5.1,1.5c-1.5,0-2.9-0.4-4.2-1.1c-1.2-0.7-2.2-1.8-2.8-3.1
						c-0.7-1.4-1-2.9-1-4.5s0.3-3.1,1-4.5c0.6-1.3,1.6-2.3,2.8-3.1c1.3-0.7,2.7-1.1,4.2-1.1C430.5,730.2,432.3,730.7,433.8,731.7z"></path>
					<path class="st2" d="M441.4,731.8v6.4h6.6v1.3h-6.6v6.5h7.4v1.4h-9.1v-17h9.1v1.4L441.4,731.8z"></path>
					<path class="st2" d="M471,743.4c-0.7,1.3-1.7,2.3-3,3c-1.5,0.7-3.2,1.1-4.9,1H458v-17h5.1c2.4-0.2,4.8,0.7,6.6,2.3
						c1.6,1.7,2.5,3.9,2.3,6.2C472.1,740.5,471.7,742,471,743.4z M468.4,744c2.5-3,2.5-7.3,0-10.3c-1.5-1.3-3.5-2-5.5-1.8h-3.3v14h3.3
						C465,746,466.9,745.3,468.4,744L468.4,744z"></path>
					<path class="st2" d="M476.8,730.4v17h-1.7v-17H476.8z"></path>
					<path class="st2" d="M493,731.7c1.3,1,2.3,2.3,2.8,3.9H494c-0.4-1.1-1.2-2.1-2.2-2.8c-2.1-1.3-4.8-1.4-7-0.2c-1,0.6-1.8,1.5-2.3,2.5
						c-0.6,1.2-0.9,2.5-0.9,3.8s0.3,2.6,0.9,3.8c0.5,1,1.4,1.9,2.4,2.5s2.2,0.9,3.4,0.9c1.1,0,2.2-0.2,3.1-0.8c1-0.5,1.7-1.3,2.3-2.2
						c0.6-1,0.9-2.2,1-3.4h-7.1v-1.3h8.5v1.5c-0.1,1.4-0.5,2.7-1.2,3.9c-0.7,1.1-1.7,2.1-2.8,2.7c-1.2,0.7-2.6,1-4,1
						c-1.5,0-3-0.4-4.3-1.1c-1.2-0.7-2.3-1.8-2.9-3.1c-1.4-2.8-1.4-6.2,0-9c0.7-1.3,1.7-2.3,2.9-3.1c1.3-0.7,2.8-1.1,4.3-1.1
						C489.9,730.2,491.6,730.7,493,731.7z"></path>
					<path class="st2" d="M501,730.4v17h-1.7v-17H501z"></path>
					<path class="st2" d="M514.7,730.4v1.4h-4.9v15.6h-1.7v-15.6h-4.8v-1.4H514.7z"></path>
					<path class="st2" d="M526,743.2h-7.7l-1.5,4.2H515l6.3-16.6h1.9l6.3,16.6h-1.8L526,743.2z M525.5,741.9l-3.3-9.2l-3.4,9.2H525.5z"></path>
					<path class="st2" d="M533.4,746h6.2v1.3h-7.9v-17h1.7V746z"></path>
					<path class="st2" d="M549.8,730.4v17h-1.7v-17H549.8z"></path>
					<path class="st2" d="M566.2,747.4h-1.7l-9.3-14.2v14.2h-1.7v-17h1.7l9.3,14.2v-14.2h1.7V747.4z"></path>
					<path class="st2" d="M582.6,747.4h-1.7l-9.3-14.2v14.2h-1.7v-17h1.7l9.3,14.2v-14.2h1.7V747.4z"></path>
					<path class="st2" d="M598.3,731.3c1.3,0.7,2.3,1.8,3,3.1c0.7,1.4,1.1,2.9,1.1,4.5s-0.3,3.1-1.1,4.5c-0.7,1.3-1.7,2.4-3,3.1
						c-2.6,1.5-5.9,1.5-8.5,0c-1.3-0.7-2.3-1.8-3-3.1c-0.7-1.4-1.1-2.9-1.1-4.5s0.3-3.1,1.1-4.5c0.7-1.3,1.7-2.4,3-3.1
						C592.4,729.8,595.6,729.8,598.3,731.3z M590.7,732.6c-1,0.6-1.8,1.4-2.3,2.5c-1.1,2.4-1.1,5.1,0,7.5c0.5,1,1.3,1.9,2.3,2.5
						c2.1,1.2,4.6,1.2,6.7,0c1-0.6,1.8-1.4,2.3-2.5c1.1-2.4,1.1-5.1,0-7.5c-0.5-1-1.3-1.9-2.3-2.5C595.3,731.5,592.8,731.5,590.7,732.6z"></path>
					<path class="st2" d="M606,730.4l5.5,15l5.5-15h1.8l-6.3,17h-2.1l-6.3-17H606z"></path>
					<path class="st2" d="M646.6,730.4v1.4h-4.8v15.6h-1.7v-15.6h-4.8v-1.4H646.6z"></path>
					<path class="st2" d="M650.6,730.4v17h-1.7v-17H650.6z"></path>
					<path class="st2" d="M666.2,731.3c1.3,0.7,2.3,1.8,3,3.1c0.7,1.4,1.1,2.9,1.1,4.5s-0.3,3.1-1.1,4.5c-0.7,1.3-1.7,2.4-3,3.1
						c-2.6,1.5-5.8,1.5-8.5,0c-1.3-0.7-2.3-1.8-3-3.1c-0.7-1.4-1.1-2.9-1.1-4.5s0.3-3.1,1.1-4.5c0.7-1.3,1.7-2.4,3-3.1
						C660.4,729.8,663.6,729.8,666.2,731.3z M658.6,732.6c-1,0.6-1.8,1.4-2.3,2.5c-1.1,2.4-1.1,5.1,0,7.5c0.5,1,1.3,1.9,2.3,2.5
						c2.1,1.2,4.6,1.2,6.7,0c1-0.6,1.8-1.4,2.3-2.5c1.1-2.4,1.1-5.1,0-7.5c-0.5-1-1.3-1.9-2.3-2.5C663.3,731.5,660.7,731.5,658.6,732.6z"></path>
					<path class="st2" d="M686.1,747.4h-1.7l-9.3-14.2v14.2h-1.7v-17h1.7l9.3,14.2v-14.2h1.7V747.4z"></path>
					<g>
						<path class="st1" d="M263.6,706.1h-4.7v-41h-9.5v-4.5h23.7v4.5h-9.5V706.1z"></path>
						<path class="st1" d="M296,681.1h20v4.5h-20v16.2h20v4.4h-24.7v-45.4H316v4.5h-20V681.1z"></path>
						<path class="st1" d="M376.2,672.4c-2.1-2.8-4.5-4.9-7.2-6.2c-2.6-1.3-5.6-2-9-2c-5.3,0-9.8,1.9-13.6,5.6c-3.8,3.7-5.6,8.2-5.6,13.3
							c0,5.5,1.9,10.1,5.6,13.9c3.7,3.8,8.3,5.6,13.6,5.6c3.3,0,6.3-0.7,8.9-2c2.7-1.3,5-3.3,6.9-5.9h5.6c-2.2,3.9-5.1,6.9-8.8,9
							c-3.7,2.1-7.8,3.2-12.3,3.2c-7,0-12.8-2.3-17.5-6.8c-4.7-4.6-7-10.2-7-17.1c0-3.2,0.6-6.2,1.9-9c1.3-2.8,3.1-5.4,5.6-7.7
							c2.3-2.2,4.8-3.8,7.6-4.9c2.8-1.1,5.9-1.7,9.2-1.7c4.7,0,9,1.1,12.8,3.3c3.8,2.2,6.8,5.3,9,9.4H376.2z"></path>
						<path class="st1" d="M406.7,706.1H402v-45.4h4.7v20.4h22.6v-20.4h4.7v45.4h-4.7v-20.7h-22.6V706.1z"></path>
						<path class="st1" d="M472.8,684.3h29.6c-0.4,6.6-2.9,12-7.5,16.3c-4.6,4.3-10.2,6.4-16.9,6.4c-6.9,0-12.6-2.3-17.2-6.9
							c-4.6-4.6-6.9-10.3-6.9-17c0-3.2,0.6-6.2,1.9-9c1.3-2.8,3.1-5.4,5.6-7.7c2.4-2.2,5-3.9,7.8-5c2.9-1.1,6-1.6,9.5-1.6
							c4.6,0,8.8,1.1,12.4,3.2c3.7,2.1,6.6,5.2,8.8,9.1h-5.8c-2.2-2.7-4.6-4.7-7.2-6c-2.6-1.3-5.4-1.9-8.6-1.9c-5.5,0-10.1,1.9-13.9,5.6
							c-3.8,3.7-5.7,8.2-5.7,13.5c0,5.6,1.9,10.2,5.7,13.9c3.8,3.7,8.4,5.6,14,5.6c4.4,0,8.3-1.3,11.7-4c3.5-2.7,5.7-6.1,6.7-10.4h-24
							V684.3z"></path>
						<path class="st1" d="M527,681.1h20v4.5h-20v16.2h20v4.4h-24.7v-45.4H547v4.5h-20V681.1z"></path>
						<path class="st1" d="M600.9,700.7l-0.6-40h4.6v45.4h-5.6l-26.1-40l0.5,40h-4.6v-45.4h5.6L600.9,700.7z"></path>
						<path class="st1" d="M665.3,672.4c-2.1-2.8-4.5-4.9-7.2-6.2c-2.6-1.3-5.6-2-9-2c-5.3,0-9.8,1.9-13.6,5.6c-3.8,3.7-5.6,8.2-5.6,13.3
							c0,5.5,1.9,10.1,5.6,13.9c3.7,3.8,8.3,5.6,13.6,5.6c3.3,0,6.3-0.7,8.9-2c2.7-1.3,5-3.3,6.9-5.9h5.6c-2.2,3.9-5.1,6.9-8.8,9
							c-3.7,2.1-7.8,3.2-12.3,3.2c-7,0-12.8-2.3-17.5-6.8c-4.7-4.6-7-10.2-7-17.1c0-3.2,0.6-6.2,1.9-9c1.3-2.8,3.1-5.4,5.6-7.7
							c2.3-2.2,4.8-3.8,7.6-4.9c2.8-1.1,5.9-1.7,9.2-1.7c4.7,0,9,1.1,12.8,3.3c3.8,2.2,6.8,5.3,9,9.4H665.3z"></path>
						<path class="st1" d="M695.6,706.1H691v-45.4h4.7V706.1z"></path>
						<path class="st1" d="M716.7,706.1h-4.9l18.5-45.4h5.6l18.4,45.4h-5l-5.7-14.3h-21.2L716.7,706.1z M742,687.8l-9-22.8l-8.9,22.8H742
							z"></path>
					</g>
					</svg>